<?xml version="1.0" encoding="utf-8" standalone="no"?>
<!DOCTYPE svg PUBLIC "-//W3C//DTD SVG 1.1//EN"
  "http://www.w3.org/Graphics/SVG/1.1/DTD/svg11.dtd">
<svg xmlns:xlink="http://www.w3.org/1999/xlink" width="565.65pt" height="360pt" viewBox="0 0 565.65 360" xmlns="http://www.w3.org/2000/svg" version="1.1">
 <metadata>
  <rdf:RDF xmlns:dc="http://purl.org/dc/elements/1.1/" xmlns:cc="http://creativecommons.org/ns#" xmlns:rdf="http://www.w3.org/1999/02/22-rdf-syntax-ns#">
   <cc:Work>
    <dc:type rdf:resource="http://purl.org/dc/dcmitype/StillImage"/>
    <dc:date>2023-07-04T20:11:14.638963</dc:date>
    <dc:format>image/svg+xml</dc:format>
    <dc:creator>
     <cc:Agent>
      <dc:title>Matplotlib v3.7.1, https://matplotlib.org/</dc:title>
     </cc:Agent>
    </dc:creator>
   </cc:Work>
  </rdf:RDF>
 </metadata>
 <defs>
  <style type="text/css">*{stroke-linejoin: round; stroke-linecap: butt}</style>
 </defs>
 <g id="figure_1">
  <g id="patch_1">
   <path d="M 0 360 
L 565.65 360 
L 565.65 0 
L 0 0 
L 0 360 
z
" style="fill: none"/>
  </g>
  <g id="axes_1">
   <g id="patch_2">
    <path d="M 84.878925 318.04 
L 354.3435 318.04 
L 354.3435 10.8 
L 84.878925 10.8 
L 84.878925 318.04 
z
" style="fill: none"/>
   </g>
   <g id="PathCollection_1">
    <path d="M 97.127315 26.748585 
C 97.653247 26.748585 98.157709 26.53963 98.5296 26.16774 
C 98.90149 25.795849 99.110445 25.291387 99.110445 24.765455 
C 99.110445 24.239522 98.90149 23.73506 98.5296 23.36317 
C 98.157709 22.991279 97.653247 22.782324 97.127315 22.782324 
C 96.601382 22.782324 96.09692 22.991279 95.72503 23.36317 
C 95.353139 23.73506 95.144184 24.239522 95.144184 24.765455 
C 95.144184 25.291387 95.353139 25.795849 95.72503 26.16774 
C 96.09692 26.53963 96.601382 26.748585 97.127315 26.748585 
z
" clip-path="url(#pb0c81ff3e1)" style="fill: #1f77b4; fill-opacity: 0.8; stroke: #ffffff; stroke-opacity: 0.8; stroke-width: 0.252982"/>
    <path d="M 104.621814 151.580665 
C 105.505256 151.580665 106.352634 151.22967 106.977322 150.604982 
C 107.60201 149.980294 107.953005 149.132916 107.953005 148.249474 
C 107.953005 147.366031 107.60201 146.518654 106.977322 145.893965 
C 106.352634 145.269277 105.505256 144.918282 104.621814 144.918282 
C 103.738371 144.918282 102.890994 145.269277 102.266306 145.893965 
C 101.641618 146.518654 101.290622 147.366031 101.290622 148.249474 
C 101.290622 149.132916 101.641618 149.980294 102.266306 150.604982 
C 102.890994 151.22967 103.738371 151.580665 104.621814 151.580665 
z
" clip-path="url(#pb0c81ff3e1)" style="fill: #ff7f0e; fill-opacity: 0.8; stroke: #ffffff; stroke-opacity: 0.8; stroke-width: 0.252982"/>
    <path d="M 128.515715 250.397557 
C 129.546557 250.397557 130.535317 249.987999 131.264232 249.259084 
C 131.993148 248.530169 132.402705 247.541409 132.402705 246.510567 
C 132.402705 245.479725 131.993148 244.490965 131.264232 243.762049 
C 130.535317 243.033134 129.546557 242.623576 128.515715 242.623576 
C 127.484873 242.623576 126.496113 243.033134 125.767197 243.762049 
C 125.038282 244.490965 124.628724 245.479725 124.628724 246.510567 
C 124.628724 247.541409 125.038282 248.530169 125.767197 249.259084 
C 126.496113 249.987999 127.484873 250.397557 128.515715 250.397557 
z
" clip-path="url(#pb0c81ff3e1)" style="fill: #2ca02c; fill-opacity: 0.8; stroke: #ffffff; stroke-opacity: 0.8; stroke-width: 0.252982"/>
    <path d="M 310.37485 263.991108 
C 312.671577 263.991108 314.874544 263.078609 316.498575 261.454578 
C 318.122605 259.830547 319.035104 257.62758 319.035104 255.330854 
C 319.035104 253.034127 318.122605 250.83116 316.498575 249.207129 
C 314.874544 247.583099 312.671577 246.6706 310.37485 246.6706 
C 308.078124 246.6706 305.875157 247.583099 304.251126 249.207129 
C 302.627095 250.83116 301.714596 253.034127 301.714596 255.330854 
C 301.714596 257.62758 302.627095 259.830547 304.251126 261.454578 
C 305.875157 263.078609 308.078124 263.991108 310.37485 263.991108 
z
" clip-path="url(#pb0c81ff3e1)" style="fill: #1f77b4; fill-opacity: 0.8; stroke: #ffffff; stroke-opacity: 0.8; stroke-width: 0.252982"/>
    <path d="M 134.04671 262.355219 
C 135.047795 262.355219 136.008013 261.957484 136.715887 261.24961 
C 137.423761 260.541736 137.821497 259.581518 137.821497 258.580433 
C 137.821497 257.579348 137.423761 256.61913 136.715887 255.911256 
C 136.008013 255.203382 135.047795 254.805647 134.04671 254.805647 
C 133.045625 254.805647 132.085407 255.203382 131.377533 255.911256 
C 130.669659 256.61913 130.271924 257.579348 130.271924 258.580433 
C 130.271924 259.581518 130.669659 260.541736 131.377533 261.24961 
C 132.085407 261.957484 133.045625 262.355219 134.04671 262.355219 
z
" clip-path="url(#pb0c81ff3e1)" style="fill: #1f77b4; fill-opacity: 0.8; stroke: #ffffff; stroke-opacity: 0.8; stroke-width: 0.252982"/>
    <path d="M 105.257878 260.98885 
C 105.85556 260.98885 106.428843 260.751389 106.851467 260.328764 
C 107.274092 259.906139 107.511553 259.332857 107.511553 258.735175 
C 107.511553 258.137493 107.274092 257.564211 106.851467 257.141586 
C 106.428843 256.718961 105.85556 256.4815 105.257878 256.4815 
C 104.660197 256.4815 104.086914 256.718961 103.664289 257.141586 
C 103.241665 257.564211 103.004203 258.137493 103.004203 258.735175 
C 103.004203 259.332857 103.241665 259.906139 103.664289 260.328764 
C 104.086914 260.751389 104.660197 260.98885 105.257878 260.98885 
z
" clip-path="url(#pb0c81ff3e1)" style="fill: #d62728; fill-opacity: 0.8; stroke: #ffffff; stroke-opacity: 0.8; stroke-width: 0.252982"/>
    <path d="M 105.119603 274.561312 
C 105.66436 274.561312 106.186878 274.344878 106.572078 273.959677 
C 106.957279 273.574476 107.173713 273.051959 107.173713 272.507202 
C 107.173713 271.962446 106.957279 271.439928 106.572078 271.054727 
C 106.186878 270.669526 105.66436 270.453092 105.119603 270.453092 
C 104.574847 270.453092 104.052329 270.669526 103.667128 271.054727 
C 103.281927 271.439928 103.065493 271.962446 103.065493 272.507202 
C 103.065493 273.051959 103.281927 273.574476 103.667128 273.959677 
C 104.052329 274.344878 104.574847 274.561312 105.119603 274.561312 
z
" clip-path="url(#pb0c81ff3e1)" style="fill: #ff7f0e; fill-opacity: 0.8; stroke: #ffffff; stroke-opacity: 0.8; stroke-width: 0.252982"/>
    <path d="M 110.816529 276.216258 
C 111.43084 276.216258 112.020073 275.97219 112.454456 275.537807 
C 112.88884 275.103423 113.132908 274.51419 113.132908 273.899879 
C 113.132908 273.285568 112.88884 272.696335 112.454456 272.261952 
C 112.020073 271.827568 111.43084 271.5835 110.816529 271.5835 
C 110.202218 271.5835 109.612985 271.827568 109.178601 272.261952 
C 108.744218 272.696335 108.50015 273.285568 108.50015 273.899879 
C 108.50015 274.51419 108.744218 275.103423 109.178601 275.537807 
C 109.612985 275.97219 110.202218 276.216258 110.816529 276.216258 
z
" clip-path="url(#pb0c81ff3e1)" style="fill: #2ca02c; fill-opacity: 0.8; stroke: #ffffff; stroke-opacity: 0.8; stroke-width: 0.252982"/>
    <path d="M 103.073135 276.737845 
C 103.579544 276.737845 104.06528 276.536646 104.423366 276.178561 
C 104.781451 275.820476 104.982649 275.33474 104.982649 274.82833 
C 104.982649 274.321921 104.781451 273.836185 104.423366 273.4781 
C 104.06528 273.120015 103.579544 272.918816 103.073135 272.918816 
C 102.566726 272.918816 102.08099 273.120015 101.722905 273.4781 
C 101.364819 273.836185 101.163621 274.321921 101.163621 274.82833 
C 101.163621 275.33474 101.364819 275.820476 101.722905 276.178561 
C 102.08099 276.536646 102.566726 276.737845 103.073135 276.737845 
z
" clip-path="url(#pb0c81ff3e1)" style="fill: #1f77b4; fill-opacity: 0.8; stroke: #ffffff; stroke-opacity: 0.8; stroke-width: 0.252982"/>
    <path d="M 104.704779 282.772778 
C 105.211188 282.772778 105.696924 282.57158 106.055009 282.213494 
C 106.413095 281.855409 106.614293 281.369673 106.614293 280.863264 
C 106.614293 280.356855 106.413095 279.871118 106.055009 279.513033 
C 105.696924 279.154948 105.211188 278.953749 104.704779 278.953749 
C 104.19837 278.953749 103.712634 279.154948 103.354548 279.513033 
C 102.996463 279.871118 102.795264 280.356855 102.795264 280.863264 
C 102.795264 281.369673 102.996463 281.855409 103.354548 282.213494 
C 103.712634 282.57158 104.19837 282.772778 104.704779 282.772778 
z
" clip-path="url(#pb0c81ff3e1)" style="fill: #9467bd; fill-opacity: 0.8; stroke: #ffffff; stroke-opacity: 0.8; stroke-width: 0.252982"/>
    <path d="M 98.427099 288.324594 
C 98.846422 288.324594 99.248627 288.157995 99.545133 287.861489 
C 99.841639 287.564983 100.008238 287.162778 100.008238 286.743455 
C 100.008238 286.324132 99.841639 285.921927 99.545133 285.625421 
C 99.248627 285.328915 98.846422 285.162316 98.427099 285.162316 
C 98.007776 285.162316 97.605571 285.328915 97.309065 285.625421 
C 97.012559 285.921927 96.84596 286.324132 96.84596 286.743455 
C 96.84596 287.162778 97.012559 287.564983 97.309065 287.861489 
C 97.605571 288.157995 98.007776 288.324594 98.427099 288.324594 
z
" clip-path="url(#pb0c81ff3e1)" style="fill: #d62728; fill-opacity: 0.8; stroke: #ffffff; stroke-opacity: 0.8; stroke-width: 0.252982"/>
    <path d="M 112.337553 289.571274 
C 112.882309 289.571274 113.404827 289.35484 113.790028 288.96964 
C 114.175229 288.584439 114.391663 288.061921 114.391663 287.517164 
C 114.391663 286.972408 114.175229 286.44989 113.790028 286.064689 
C 113.404827 285.679488 112.882309 285.463055 112.337553 285.463055 
C 111.792796 285.463055 111.270279 285.679488 110.885078 286.064689 
C 110.499877 286.44989 110.283443 286.972408 110.283443 287.517164 
C 110.283443 288.061921 110.499877 288.584439 110.885078 288.96964 
C 111.270279 289.35484 111.792796 289.571274 112.337553 289.571274 
z
" clip-path="url(#pb0c81ff3e1)" style="fill: #1f77b4; fill-opacity: 0.8; stroke: #ffffff; stroke-opacity: 0.8; stroke-width: 0.252982"/>
    <path d="M 172.37651 291.931549 
C 173.259952 291.931549 174.10733 291.580554 174.732018 290.955866 
C 175.356706 290.331178 175.707702 289.4838 175.707702 288.600358 
C 175.707702 287.716915 175.356706 286.869537 174.732018 286.244849 
C 174.10733 285.620161 173.259952 285.269166 172.37651 285.269166 
C 171.493068 285.269166 170.64569 285.620161 170.021002 286.244849 
C 169.396314 286.869537 169.045318 287.716915 169.045318 288.600358 
C 169.045318 289.4838 169.396314 290.331178 170.021002 290.955866 
C 170.64569 291.580554 171.493068 291.931549 172.37651 291.931549 
z
" clip-path="url(#pb0c81ff3e1)" style="fill: #ff7f0e; fill-opacity: 0.8; stroke: #ffffff; stroke-opacity: 0.8; stroke-width: 0.252982"/>
    <path d="M 178.76481 292.325974 
C 179.670779 292.325974 180.539764 291.966028 181.18038 291.325412 
C 181.820997 290.684795 182.180942 289.81581 182.180942 288.909841 
C 182.180942 288.003872 181.820997 287.134888 181.18038 286.494271 
C 180.539764 285.853654 179.670779 285.493709 178.76481 285.493709 
C 177.858841 285.493709 176.989856 285.853654 176.34924 286.494271 
C 175.708623 287.134888 175.348678 288.003872 175.348678 288.909841 
C 175.348678 289.81581 175.708623 290.684795 176.34924 291.325412 
C 176.989856 291.966028 177.858841 292.325974 178.76481 292.325974 
z
" clip-path="url(#pb0c81ff3e1)" style="fill: #2ca02c; fill-opacity: 0.8; stroke: #ffffff; stroke-opacity: 0.8; stroke-width: 0.252982"/>
    <path d="M 101.330871 291.043367 
C 101.773575 291.043367 102.198206 290.867479 102.511245 290.55444 
C 102.824283 290.241401 103.000171 289.81677 103.000171 289.374067 
C 103.000171 288.931364 102.824283 288.506732 102.511245 288.193694 
C 102.198206 287.880655 101.773575 287.704767 101.330871 287.704767 
C 100.888168 287.704767 100.463537 287.880655 100.150498 288.193694 
C 99.83746 288.506732 99.661572 288.931364 99.661572 289.374067 
C 99.661572 289.81677 99.83746 290.241401 100.150498 290.55444 
C 100.463537 290.867479 100.888168 291.043367 101.330871 291.043367 
z
" clip-path="url(#pb0c81ff3e1)" style="fill: #8c564b; fill-opacity: 0.8; stroke: #ffffff; stroke-opacity: 0.8; stroke-width: 0.252982"/>
    <path d="M 224.589109 295.50775 
C 225.60021 295.50775 226.570035 295.106035 227.284992 294.391078 
C 227.999948 293.676122 228.401663 292.706296 228.401663 291.695195 
C 228.401663 290.684094 227.999948 289.714269 227.284992 288.999312 
C 226.570035 288.284355 225.60021 287.88264 224.589109 287.88264 
C 223.578007 287.88264 222.608182 288.284355 221.893225 288.999312 
C 221.178269 289.714269 220.776554 290.684094 220.776554 291.695195 
C 220.776554 292.706296 221.178269 293.676122 221.893225 294.391078 
C 222.608182 295.106035 223.578007 295.50775 224.589109 295.50775 
z
" clip-path="url(#pb0c81ff3e1)" style="fill: #e377c2; fill-opacity: 0.8; stroke: #ffffff; stroke-opacity: 0.8; stroke-width: 0.252982"/>
    <path d="M 99.809848 295.752204 
C 100.229171 295.752204 100.631376 295.585605 100.927882 295.289099 
C 101.224388 294.992593 101.390986 294.590388 101.390986 294.171065 
C 101.390986 293.751742 101.224388 293.349537 100.927882 293.053031 
C 100.631376 292.756525 100.229171 292.589926 99.809848 292.589926 
C 99.390525 292.589926 98.98832 292.756525 98.691814 293.053031 
C 98.395308 293.349537 98.228709 293.751742 98.228709 294.171065 
C 98.228709 294.590388 98.395308 294.992593 98.691814 295.289099 
C 98.98832 295.585605 99.390525 295.752204 99.809848 295.752204 
z
" clip-path="url(#pb0c81ff3e1)" style="fill: #d62728; fill-opacity: 0.8; stroke: #ffffff; stroke-opacity: 0.8; stroke-width: 0.252982"/>
    <path d="M 229.069215 298.020273 
C 230.007961 298.020273 230.908384 297.647305 231.572178 296.983512 
C 232.235971 296.319718 232.608939 295.419295 232.608939 294.480549 
C 232.608939 293.541803 232.235971 292.64138 231.572178 291.977586 
C 230.908384 291.313793 230.007961 290.940825 229.069215 290.940825 
C 228.130469 290.940825 227.230046 291.313793 226.566252 291.977586 
C 225.902459 292.64138 225.529491 293.541803 225.529491 294.480549 
C 225.529491 295.419295 225.902459 296.319718 226.566252 296.983512 
C 227.230046 297.647305 228.130469 298.020273 229.069215 298.020273 
z
" clip-path="url(#pb0c81ff3e1)" style="fill: #1f77b4; fill-opacity: 0.8; stroke: #ffffff; stroke-opacity: 0.8; stroke-width: 0.252982"/>
    <path d="M 118.200408 296.463679 
C 118.72634 296.463679 119.230803 296.254724 119.602693 295.882834 
C 119.974583 295.510944 120.183538 295.006481 120.183538 294.480549 
C 120.183538 293.954617 119.974583 293.450154 119.602693 293.078264 
C 119.230803 292.706374 118.72634 292.497419 118.200408 292.497419 
C 117.674476 292.497419 117.170013 292.706374 116.798123 293.078264 
C 116.426233 293.450154 116.217278 293.954617 116.217278 294.480549 
C 116.217278 295.006481 116.426233 295.510944 116.798123 295.882834 
C 117.170013 296.254724 117.674476 296.463679 118.200408 296.463679 
z
" clip-path="url(#pb0c81ff3e1)" style="fill: #1f77b4; fill-opacity: 0.8; stroke: #ffffff; stroke-opacity: 0.8; stroke-width: 0.252982"/>
    <path d="M 253.156701 298.410077 
C 254.157786 298.410077 255.118004 298.012342 255.825878 297.304468 
C 256.533752 296.596594 256.931487 295.636376 256.931487 294.635291 
C 256.931487 293.634206 256.533752 292.673988 255.825878 291.966114 
C 255.118004 291.25824 254.157786 290.860505 253.156701 290.860505 
C 252.155616 290.860505 251.195398 291.25824 250.487524 291.966114 
C 249.77965 292.673988 249.381915 293.634206 249.381915 294.635291 
C 249.381915 295.636376 249.77965 296.596594 250.487524 297.304468 
C 251.195398 298.012342 252.155616 298.410077 253.156701 298.410077 
z
" clip-path="url(#pb0c81ff3e1)" style="fill: #1f77b4; fill-opacity: 0.8; stroke: #ffffff; stroke-opacity: 0.8; stroke-width: 0.252982"/>
    <path d="M 160.899694 298.17112 
C 161.591179 298.17112 162.254435 297.89639 162.743389 297.407437 
C 163.232342 296.918483 163.507072 296.255227 163.507072 295.563742 
C 163.507072 294.872257 163.232342 294.209001 162.743389 293.720048 
C 162.254435 293.231094 161.591179 292.956364 160.899694 292.956364 
C 160.208209 292.956364 159.544953 293.231094 159.056 293.720048 
C 158.567046 294.209001 158.292316 294.872257 158.292316 295.563742 
C 158.292316 296.255227 158.567046 296.918483 159.056 297.407437 
C 159.544953 297.89639 160.208209 298.17112 160.899694 298.17112 
z
" clip-path="url(#pb0c81ff3e1)" style="fill: #e377c2; fill-opacity: 0.8; stroke: #ffffff; stroke-opacity: 0.8; stroke-width: 0.252982"/>
    <path d="M 141.15404 297.880121 
C 141.768351 297.880121 142.357584 297.636053 142.791967 297.20167 
C 143.226351 296.767286 143.470419 296.178053 143.470419 295.563742 
C 143.470419 294.949431 143.226351 294.360198 142.791967 293.925815 
C 142.357584 293.491431 141.768351 293.247363 141.15404 293.247363 
C 140.539729 293.247363 139.950496 293.491431 139.516112 293.925815 
C 139.081729 294.360198 138.837661 294.949431 138.837661 295.563742 
C 138.837661 296.178053 139.081729 296.767286 139.516112 297.20167 
C 139.950496 297.636053 140.539729 297.880121 141.15404 297.880121 
z
" clip-path="url(#pb0c81ff3e1)" style="fill: #e377c2; fill-opacity: 0.8; stroke: #ffffff; stroke-opacity: 0.8; stroke-width: 0.252982"/>
    <path d="M 124.561053 297.617852 
C 125.105809 297.617852 125.628327 297.401418 126.013528 297.016217 
C 126.398729 296.631016 126.615163 296.108498 126.615163 295.563742 
C 126.615163 295.018986 126.398729 294.496468 126.013528 294.111267 
C 125.628327 293.726066 125.105809 293.509632 124.561053 293.509632 
C 124.016297 293.509632 123.493779 293.726066 123.108578 294.111267 
C 122.723377 294.496468 122.506943 295.018986 122.506943 295.563742 
C 122.506943 296.108498 122.723377 296.631016 123.108578 297.016217 
C 123.493779 297.401418 124.016297 297.617852 124.561053 297.617852 
z
" clip-path="url(#pb0c81ff3e1)" style="fill: #ff7f0e; fill-opacity: 0.8; stroke: #ffffff; stroke-opacity: 0.8; stroke-width: 0.252982"/>
    <path d="M 122.901754 298.475324 
C 123.427687 298.475324 123.932149 298.266369 124.304039 297.894478 
C 124.67593 297.522588 124.884885 297.018126 124.884885 296.492193 
C 124.884885 295.966261 124.67593 295.461799 124.304039 295.089908 
C 123.932149 294.718018 123.427687 294.509063 122.901754 294.509063 
C 122.375822 294.509063 121.87136 294.718018 121.499469 295.089908 
C 121.127579 295.461799 120.918624 295.966261 120.918624 296.492193 
C 120.918624 297.018126 121.127579 297.522588 121.499469 297.894478 
C 121.87136 298.266369 122.375822 298.475324 122.901754 298.475324 
z
" clip-path="url(#pb0c81ff3e1)" style="fill: #e377c2; fill-opacity: 0.8; stroke: #ffffff; stroke-opacity: 0.8; stroke-width: 0.252982"/>
    <path d="M 100.722462 298.228074 
C 101.141785 298.228074 101.54399 298.061475 101.840496 297.764969 
C 102.137002 297.468463 102.303601 297.066258 102.303601 296.646935 
C 102.303601 296.227612 102.137002 295.825407 101.840496 295.528901 
C 101.54399 295.232395 101.141785 295.065796 100.722462 295.065796 
C 100.303139 295.065796 99.900934 295.232395 99.604428 295.528901 
C 99.307922 295.825407 99.141323 296.227612 99.141323 296.646935 
C 99.141323 297.066258 99.307922 297.468463 99.604428 297.764969 
C 99.900934 298.061475 100.303139 298.228074 100.722462 298.228074 
z
" clip-path="url(#pb0c81ff3e1)" style="fill: #1f77b4; fill-opacity: 0.8; stroke: #ffffff; stroke-opacity: 0.8; stroke-width: 0.252982"/>
    <path d="M 138.388542 299.145595 
C 138.969118 299.145595 139.525994 298.914929 139.936523 298.5044 
C 140.347052 298.093871 140.577718 297.536995 140.577718 296.956419 
C 140.577718 296.375843 140.347052 295.818967 139.936523 295.408438 
C 139.525994 294.997909 138.969118 294.767243 138.388542 294.767243 
C 137.807966 294.767243 137.25109 294.997909 136.840561 295.408438 
C 136.430032 295.818967 136.199366 296.375843 136.199366 296.956419 
C 136.199366 297.536995 136.430032 298.093871 136.840561 298.5044 
C 137.25109 298.914929 137.807966 299.145595 138.388542 299.145595 
z
" clip-path="url(#pb0c81ff3e1)" style="fill: #9467bd; fill-opacity: 0.8; stroke: #ffffff; stroke-opacity: 0.8; stroke-width: 0.252982"/>
    <path d="M 152.022446 299.891766 
C 152.636757 299.891766 153.22599 299.647697 153.660374 299.213314 
C 154.094757 298.778931 154.338825 298.189697 154.338825 297.575387 
C 154.338825 296.961076 154.094757 296.371843 153.660374 295.937459 
C 153.22599 295.503076 152.636757 295.259007 152.022446 295.259007 
C 151.408135 295.259007 150.818902 295.503076 150.384519 295.937459 
C 149.950135 296.371843 149.706067 296.961076 149.706067 297.575387 
C 149.706067 298.189697 149.950135 298.778931 150.384519 299.213314 
C 150.818902 299.647697 151.408135 299.891766 152.022446 299.891766 
z
" clip-path="url(#pb0c81ff3e1)" style="fill: #d62728; fill-opacity: 0.8; stroke: #ffffff; stroke-opacity: 0.8; stroke-width: 0.252982"/>
    <path d="M 136.950483 299.852846 
C 137.513434 299.852846 138.053404 299.629183 138.451471 299.231116 
C 138.849538 298.83305 139.0732 298.29308 139.0732 297.730128 
C 139.0732 297.167177 138.849538 296.627207 138.451471 296.229141 
C 138.053404 295.831074 137.513434 295.607411 136.950483 295.607411 
C 136.387532 295.607411 135.847562 295.831074 135.449495 296.229141 
C 135.051429 296.627207 134.827766 297.167177 134.827766 297.730128 
C 134.827766 298.29308 135.051429 298.83305 135.449495 299.231116 
C 135.847562 299.629183 136.387532 299.852846 136.950483 299.852846 
z
" clip-path="url(#pb0c81ff3e1)" style="fill: #7f7f7f; fill-opacity: 0.8; stroke: #ffffff; stroke-opacity: 0.8; stroke-width: 0.252982"/>
    <path d="M 132.636307 299.93898 
C 133.181063 299.93898 133.703581 299.722546 134.088782 299.337345 
C 134.473983 298.952144 134.690416 298.429627 134.690416 297.88487 
C 134.690416 297.340114 134.473983 296.817596 134.088782 296.432395 
C 133.703581 296.047194 133.181063 295.83076 132.636307 295.83076 
C 132.09155 295.83076 131.569032 296.047194 131.183832 296.432395 
C 130.798631 296.817596 130.582197 297.340114 130.582197 297.88487 
C 130.582197 298.429627 130.798631 298.952144 131.183832 299.337345 
C 131.569032 299.722546 132.09155 299.93898 132.636307 299.93898 
z
" clip-path="url(#pb0c81ff3e1)" style="fill: #1f77b4; fill-opacity: 0.8; stroke: #ffffff; stroke-opacity: 0.8; stroke-width: 0.252982"/>
    <path d="M 179.622114 300.492248 
C 180.313599 300.492248 180.976855 300.217518 181.465809 299.728565 
C 181.954762 299.239611 182.229492 298.576355 182.229492 297.88487 
C 182.229492 297.193386 181.954762 296.530129 181.465809 296.041176 
C 180.976855 295.552222 180.313599 295.277493 179.622114 295.277493 
C 178.93063 295.277493 178.267373 295.552222 177.77842 296.041176 
C 177.289466 296.530129 177.014736 297.193386 177.014736 297.88487 
C 177.014736 298.576355 177.289466 299.239611 177.77842 299.728565 
C 178.267373 300.217518 178.93063 300.492248 179.622114 300.492248 
z
" clip-path="url(#pb0c81ff3e1)" style="fill: #8c564b; fill-opacity: 0.8; stroke: #ffffff; stroke-opacity: 0.8; stroke-width: 0.252982"/>
    <path d="M 122.680514 299.949127 
C 123.186924 299.949127 123.67266 299.747928 124.030745 299.389843 
C 124.38883 299.031757 124.590029 298.546021 124.590029 298.039612 
C 124.590029 297.533203 124.38883 297.047467 124.030745 296.689382 
C 123.67266 296.331296 123.186924 296.130098 122.680514 296.130098 
C 122.174105 296.130098 121.688369 296.331296 121.330284 296.689382 
C 120.972199 297.047467 120.771 297.533203 120.771 298.039612 
C 120.771 298.546021 120.972199 299.031757 121.330284 299.389843 
C 121.688369 299.747928 122.174105 299.949127 122.680514 299.949127 
z
" clip-path="url(#pb0c81ff3e1)" style="fill: #8c564b; fill-opacity: 0.8; stroke: #ffffff; stroke-opacity: 0.8; stroke-width: 0.252982"/>
    <path d="M 123.897334 300.25861 
C 124.403743 300.25861 124.889479 300.057412 125.247564 299.699326 
C 125.605649 299.341241 125.806848 298.855505 125.806848 298.349096 
C 125.806848 297.842687 125.605649 297.356951 125.247564 296.998865 
C 124.889479 296.64078 124.403743 296.439582 123.897334 296.439582 
C 123.390924 296.439582 122.905188 296.64078 122.547103 296.998865 
C 122.189018 297.356951 121.987819 297.842687 121.987819 298.349096 
C 121.987819 298.855505 122.189018 299.341241 122.547103 299.699326 
C 122.905188 300.057412 123.390924 300.25861 123.897334 300.25861 
z
" clip-path="url(#pb0c81ff3e1)" style="fill: #9467bd; fill-opacity: 0.8; stroke: #ffffff; stroke-opacity: 0.8; stroke-width: 0.252982"/>
    <path d="M 142.011344 300.781297 
C 142.574295 300.781297 143.114265 300.557634 143.512332 300.159568 
C 143.910399 299.761501 144.134061 299.221531 144.134061 298.65858 
C 144.134061 298.095628 143.910399 297.555659 143.512332 297.157592 
C 143.114265 296.759525 142.574295 296.535862 142.011344 296.535862 
C 141.448393 296.535862 140.908423 296.759525 140.510356 297.157592 
C 140.11229 297.555659 139.888627 298.095628 139.888627 298.65858 
C 139.888627 299.221531 140.11229 299.761501 140.510356 300.159568 
C 140.908423 300.557634 141.448393 300.781297 142.011344 300.781297 
z
" clip-path="url(#pb0c81ff3e1)" style="fill: #e377c2; fill-opacity: 0.8; stroke: #ffffff; stroke-opacity: 0.8; stroke-width: 0.252982"/>
    <path d="M 157.719372 302.08569 
C 158.299948 302.08569 158.856823 301.855025 159.267353 301.444496 
C 159.677882 301.033966 159.908547 300.477091 159.908547 299.896515 
C 159.908547 299.315939 159.677882 298.759063 159.267353 298.348534 
C 158.856823 297.938004 158.299948 297.707339 157.719372 297.707339 
C 157.138795 297.707339 156.58192 297.938004 156.171391 298.348534 
C 155.760861 298.759063 155.530196 299.315939 155.530196 299.896515 
C 155.530196 300.477091 155.760861 301.033966 156.171391 301.444496 
C 156.58192 301.855025 157.138795 302.08569 157.719372 302.08569 
z
" clip-path="url(#pb0c81ff3e1)" style="fill: #8c564b; fill-opacity: 0.8; stroke: #ffffff; stroke-opacity: 0.8; stroke-width: 0.252982"/>
    <path d="M 142.011344 302.498613 
C 142.537276 302.498613 143.041739 302.289658 143.413629 301.917767 
C 143.785519 301.545877 143.994475 301.041415 143.994475 300.515482 
C 143.994475 299.98955 143.785519 299.485088 143.413629 299.113197 
C 143.041739 298.741307 142.537276 298.532352 142.011344 298.532352 
C 141.485412 298.532352 140.980949 298.741307 140.609059 299.113197 
C 140.237169 299.485088 140.028214 299.98955 140.028214 300.515482 
C 140.028214 301.041415 140.237169 301.545877 140.609059 301.917767 
C 140.980949 302.289658 141.485412 302.498613 142.011344 302.498613 
z
" clip-path="url(#pb0c81ff3e1)" style="fill: #8c564b; fill-opacity: 0.8; stroke: #ffffff; stroke-opacity: 0.8; stroke-width: 0.252982"/>
    <path d="M 342.09511 304.001416 
C 342.978553 304.001416 343.82593 303.65042 344.450618 303.025732 
C 345.075307 302.401044 345.426302 301.553666 345.426302 300.670224 
C 345.426302 299.786782 345.075307 298.939404 344.450618 298.314716 
C 343.82593 297.690028 342.978553 297.339032 342.09511 297.339032 
C 341.211668 297.339032 340.36429 297.690028 339.739602 298.314716 
C 339.114914 298.939404 338.763919 299.786782 338.763919 300.670224 
C 338.763919 301.553666 339.114914 302.401044 339.739602 303.025732 
C 340.36429 303.65042 341.211668 304.001416 342.09511 304.001416 
z
" clip-path="url(#pb0c81ff3e1)" style="fill: #8c564b; fill-opacity: 0.8; stroke: #ffffff; stroke-opacity: 0.8; stroke-width: 0.252982"/>
    <path d="M 135.401804 302.579738 
C 135.908214 302.579738 136.39395 302.37854 136.752035 302.020455 
C 137.11012 301.662369 137.311319 301.176633 137.311319 300.670224 
C 137.311319 300.163815 137.11012 299.678079 136.752035 299.319994 
C 136.39395 298.961908 135.908214 298.76071 135.401804 298.76071 
C 134.895395 298.76071 134.409659 298.961908 134.051574 299.319994 
C 133.693489 299.678079 133.49229 300.163815 133.49229 300.670224 
C 133.49229 301.176633 133.693489 301.662369 134.051574 302.020455 
C 134.409659 302.37854 134.895395 302.579738 135.401804 302.579738 
z
" clip-path="url(#pb0c81ff3e1)" style="fill: #1f77b4; fill-opacity: 0.8; stroke: #ffffff; stroke-opacity: 0.8; stroke-width: 0.252982"/>
    <path d="M 122.680514 303.042224 
C 123.145424 303.042224 123.591355 302.857513 123.920096 302.528773 
C 124.248836 302.200032 124.433547 301.754101 124.433547 301.289192 
C 124.433547 300.824282 124.248836 300.378351 123.920096 300.049611 
C 123.591355 299.72087 123.145424 299.536159 122.680514 299.536159 
C 122.215605 299.536159 121.769674 299.72087 121.440933 300.049611 
C 121.112193 300.378351 120.927482 300.824282 120.927482 301.289192 
C 120.927482 301.754101 121.112193 302.200032 121.440933 302.528773 
C 121.769674 302.857513 122.215605 303.042224 122.680514 303.042224 
z
" clip-path="url(#pb0c81ff3e1)" style="fill: #d62728; fill-opacity: 0.8; stroke: #ffffff; stroke-opacity: 0.8; stroke-width: 0.252982"/>
    <path d="M 105.257878 302.87033 
C 105.677201 302.87033 106.079406 302.703732 106.375912 302.407226 
C 106.672418 302.11072 106.839017 301.708515 106.839017 301.289192 
C 106.839017 300.869869 106.672418 300.467664 106.375912 300.171158 
C 106.079406 299.874652 105.677201 299.708053 105.257878 299.708053 
C 104.838555 299.708053 104.43635 299.874652 104.139844 300.171158 
C 103.843338 300.467664 103.676739 300.869869 103.676739 301.289192 
C 103.676739 301.708515 103.843338 302.11072 104.139844 302.407226 
C 104.43635 302.703732 104.838555 302.87033 105.257878 302.87033 
z
" clip-path="url(#pb0c81ff3e1)" style="fill: #e377c2; fill-opacity: 0.8; stroke: #ffffff; stroke-opacity: 0.8; stroke-width: 0.252982"/>
    <path d="M 126.690486 303.661192 
C 127.155396 303.661192 127.601327 303.476481 127.930067 303.14774 
C 128.258808 302.818999 128.443519 302.373069 128.443519 301.908159 
C 128.443519 301.44325 128.258808 300.997319 127.930067 300.668578 
C 127.601327 300.339837 127.155396 300.155127 126.690486 300.155127 
C 126.225577 300.155127 125.779646 300.339837 125.450905 300.668578 
C 125.122164 300.997319 124.937454 301.44325 124.937454 301.908159 
C 124.937454 302.373069 125.122164 302.818999 125.450905 303.14774 
C 125.779646 303.476481 126.225577 303.661192 126.690486 303.661192 
z
" clip-path="url(#pb0c81ff3e1)" style="fill: #e377c2; fill-opacity: 0.8; stroke: #ffffff; stroke-opacity: 0.8; stroke-width: 0.252982"/>
    <path d="M 179.124325 304.030876 
C 179.687276 304.030876 180.227246 303.807214 180.625312 303.409147 
C 181.023379 303.01108 181.247042 302.47111 181.247042 301.908159 
C 181.247042 301.345208 181.023379 300.805238 180.625312 300.407171 
C 180.227246 300.009105 179.687276 299.785442 179.124325 299.785442 
C 178.561373 299.785442 178.021403 300.009105 177.623337 300.407171 
C 177.22527 300.805238 177.001607 301.345208 177.001607 301.908159 
C 177.001607 302.47111 177.22527 303.01108 177.623337 303.409147 
C 178.021403 303.807214 178.561373 304.030876 179.124325 304.030876 
z
" clip-path="url(#pb0c81ff3e1)" style="fill: #8c564b; fill-opacity: 0.8; stroke: #ffffff; stroke-opacity: 0.8; stroke-width: 0.252982"/>
    <path d="M 107.829791 303.953524 
C 108.249114 303.953524 108.651319 303.786925 108.947825 303.490419 
C 109.244331 303.193913 109.41093 302.791708 109.41093 302.372385 
C 109.41093 301.953062 109.244331 301.550857 108.947825 301.254351 
C 108.651319 300.957845 108.249114 300.791246 107.829791 300.791246 
C 107.410468 300.791246 107.008263 300.957845 106.711757 301.254351 
C 106.415251 301.550857 106.248652 301.953062 106.248652 302.372385 
C 106.248652 302.791708 106.415251 303.193913 106.711757 303.490419 
C 107.008263 303.786925 107.410468 303.953524 107.829791 303.953524 
z
" clip-path="url(#pb0c81ff3e1)" style="fill: #1f77b4; fill-opacity: 0.8; stroke: #ffffff; stroke-opacity: 0.8; stroke-width: 0.252982"/>
    <path d="M 130.949353 304.125417 
C 131.414263 304.125417 131.860193 303.940707 132.188934 303.611966 
C 132.517675 303.283225 132.702385 302.837294 132.702385 302.372385 
C 132.702385 301.907475 132.517675 301.461544 132.188934 301.132804 
C 131.860193 300.804063 131.414263 300.619352 130.949353 300.619352 
C 130.484443 300.619352 130.038513 300.804063 129.709772 301.132804 
C 129.381031 301.461544 129.196321 301.907475 129.196321 302.372385 
C 129.196321 302.837294 129.381031 303.283225 129.709772 303.611966 
C 130.038513 303.940707 130.484443 304.125417 130.949353 304.125417 
z
" clip-path="url(#pb0c81ff3e1)" style="fill: #ff7f0e; fill-opacity: 0.8; stroke: #ffffff; stroke-opacity: 0.8; stroke-width: 0.252982"/>
    <path d="M 182.111062 304.581237 
C 182.655819 304.581237 183.178336 304.364803 183.563537 303.979602 
C 183.948738 303.594401 184.165172 303.071883 184.165172 302.527127 
C 184.165172 301.98237 183.948738 301.459852 183.563537 301.074652 
C 183.178336 300.689451 182.655819 300.473017 182.111062 300.473017 
C 181.566306 300.473017 181.043788 300.689451 180.658587 301.074652 
C 180.273386 301.459852 180.056952 301.98237 180.056952 302.527127 
C 180.056952 303.071883 180.273386 303.594401 180.658587 303.979602 
C 181.043788 304.364803 181.566306 304.581237 182.111062 304.581237 
z
" clip-path="url(#pb0c81ff3e1)" style="fill: #8c564b; fill-opacity: 0.8; stroke: #ffffff; stroke-opacity: 0.8; stroke-width: 0.252982"/>
    <path d="M 146.60207 304.514813 
C 147.088173 304.514813 147.554431 304.321682 147.898158 303.977956 
C 148.241884 303.634229 148.435015 303.167971 148.435015 302.681869 
C 148.435015 302.195766 148.241884 301.729508 147.898158 301.385781 
C 147.554431 301.042055 147.088173 300.848925 146.60207 300.848925 
C 146.115968 300.848925 145.64971 301.042055 145.305983 301.385781 
C 144.962257 301.729508 144.769126 302.195766 144.769126 302.681869 
C 144.769126 303.167971 144.962257 303.634229 145.305983 303.977956 
C 145.64971 304.321682 146.115968 304.514813 146.60207 304.514813 
z
" clip-path="url(#pb0c81ff3e1)" style="fill: #8c564b; fill-opacity: 0.8; stroke: #ffffff; stroke-opacity: 0.8; stroke-width: 0.252982"/>
    <path d="M 108.659441 304.263007 
C 109.078764 304.263007 109.480969 304.096409 109.777475 303.799903 
C 110.073981 303.503396 110.240579 303.101191 110.240579 302.681869 
C 110.240579 302.262546 110.073981 301.860341 109.777475 301.563835 
C 109.480969 301.267328 109.078764 301.10073 108.659441 301.10073 
C 108.240118 301.10073 107.837913 301.267328 107.541407 301.563835 
C 107.244901 301.860341 107.078302 302.262546 107.078302 302.681869 
C 107.078302 303.101191 107.244901 303.503396 107.541407 303.799903 
C 107.837913 304.096409 108.240118 304.263007 108.659441 304.263007 
z
" clip-path="url(#pb0c81ff3e1)" style="fill: #d62728; fill-opacity: 0.8; stroke: #ffffff; stroke-opacity: 0.8; stroke-width: 0.252982"/>
    <path d="M 122.625205 304.50591 
C 123.067908 304.50591 123.492539 304.330022 123.805578 304.016984 
C 124.118616 303.703945 124.294504 303.279314 124.294504 302.83661 
C 124.294504 302.393907 124.118616 301.969276 123.805578 301.656237 
C 123.492539 301.343199 123.067908 301.167311 122.625205 301.167311 
C 122.182501 301.167311 121.75787 301.343199 121.444831 301.656237 
C 121.131793 301.969276 120.955905 302.393907 120.955905 302.83661 
C 120.955905 303.279314 121.131793 303.703945 121.444831 304.016984 
C 121.75787 304.330022 122.182501 304.50591 122.625205 304.50591 
z
" clip-path="url(#pb0c81ff3e1)" style="fill: #ff7f0e; fill-opacity: 0.8; stroke: #ffffff; stroke-opacity: 0.8; stroke-width: 0.252982"/>
    <path d="M 135.927249 304.589643 
C 136.392159 304.589643 136.838089 304.404932 137.16683 304.076192 
C 137.495571 303.747451 137.680281 303.30152 137.680281 302.83661 
C 137.680281 302.371701 137.495571 301.92577 137.16683 301.597029 
C 136.838089 301.268289 136.392159 301.083578 135.927249 301.083578 
C 135.462339 301.083578 135.016409 301.268289 134.687668 301.597029 
C 134.358927 301.92577 134.174217 302.371701 134.174217 302.83661 
C 134.174217 303.30152 134.358927 303.747451 134.687668 304.076192 
C 135.016409 304.404932 135.462339 304.589643 135.927249 304.589643 
z
" clip-path="url(#pb0c81ff3e1)" style="fill: #1f77b4; fill-opacity: 0.8; stroke: #ffffff; stroke-opacity: 0.8; stroke-width: 0.252982"/>
    <path d="M 110.678254 304.727233 
C 111.097577 304.727233 111.499782 304.560634 111.796288 304.264128 
C 112.092794 303.967622 112.259393 303.565417 112.259393 303.146094 
C 112.259393 302.726771 112.092794 302.324566 111.796288 302.02806 
C 111.499782 301.731554 111.097577 301.564955 110.678254 301.564955 
C 110.258931 301.564955 109.856726 301.731554 109.56022 302.02806 
C 109.263714 302.324566 109.097115 302.726771 109.097115 303.146094 
C 109.097115 303.565417 109.263714 303.967622 109.56022 304.264128 
C 109.856726 304.560634 110.258931 304.727233 110.678254 304.727233 
z
" clip-path="url(#pb0c81ff3e1)" style="fill: #8c564b; fill-opacity: 0.8; stroke: #ffffff; stroke-opacity: 0.8; stroke-width: 0.252982"/>
    <path d="M 140.407355 304.899127 
C 140.872265 304.899127 141.318196 304.714416 141.646936 304.385675 
C 141.975677 304.056935 142.160388 303.611004 142.160388 303.146094 
C 142.160388 302.681185 141.975677 302.235254 141.646936 301.906513 
C 141.318196 301.577772 140.872265 301.393062 140.407355 301.393062 
C 139.942446 301.393062 139.496515 301.577772 139.167774 301.906513 
C 138.839034 302.235254 138.654323 302.681185 138.654323 303.146094 
C 138.654323 303.611004 138.839034 304.056935 139.167774 304.385675 
C 139.496515 304.714416 139.942446 304.899127 140.407355 304.899127 
z
" clip-path="url(#pb0c81ff3e1)" style="fill: #2ca02c; fill-opacity: 0.8; stroke: #ffffff; stroke-opacity: 0.8; stroke-width: 0.252982"/>
    <path d="M 112.558793 305.036717 
C 112.978115 305.036717 113.38032 304.870118 113.676827 304.573612 
C 113.973333 304.277106 114.139931 303.874901 114.139931 303.455578 
C 114.139931 303.036255 113.973333 302.63405 113.676827 302.337544 
C 113.38032 302.041038 112.978115 301.874439 112.558793 301.874439 
C 112.13947 301.874439 111.737265 302.041038 111.440759 302.337544 
C 111.144252 302.63405 110.977654 303.036255 110.977654 303.455578 
C 110.977654 303.874901 111.144252 304.277106 111.440759 304.573612 
C 111.737265 304.870118 112.13947 305.036717 112.558793 305.036717 
z
" clip-path="url(#pb0c81ff3e1)" style="fill: #8c564b; fill-opacity: 0.8; stroke: #ffffff; stroke-opacity: 0.8; stroke-width: 0.252982"/>
    <path d="M 113.858576 305.191459 
C 114.277899 305.191459 114.680104 305.02486 114.97661 304.728354 
C 115.273117 304.431848 115.439715 304.029643 115.439715 303.61032 
C 115.439715 303.190997 115.273117 302.788792 114.97661 302.492286 
C 114.680104 302.19578 114.277899 302.029181 113.858576 302.029181 
C 113.439254 302.029181 113.037049 302.19578 112.740542 302.492286 
C 112.444036 302.788792 112.277438 303.190997 112.277438 303.61032 
C 112.277438 304.029643 112.444036 304.431848 112.740542 304.728354 
C 113.037049 305.02486 113.439254 305.191459 113.858576 305.191459 
z
" clip-path="url(#pb0c81ff3e1)" style="fill: #9467bd; fill-opacity: 0.8; stroke: #ffffff; stroke-opacity: 0.8; stroke-width: 0.252982"/>
    <path d="M 153.82002 305.672836 
C 154.284929 305.672836 154.73086 305.488125 155.059601 305.159385 
C 155.388342 304.830644 155.573052 304.384713 155.573052 303.919804 
C 155.573052 303.454894 155.388342 303.008963 155.059601 302.680222 
C 154.73086 302.351482 154.284929 302.166771 153.82002 302.166771 
C 153.35511 302.166771 152.909179 302.351482 152.580439 302.680222 
C 152.251698 303.008963 152.066987 303.454894 152.066987 303.919804 
C 152.066987 304.384713 152.251698 304.830644 152.580439 305.159385 
C 152.909179 305.488125 153.35511 305.672836 153.82002 305.672836 
z
" clip-path="url(#pb0c81ff3e1)" style="fill: #ff7f0e; fill-opacity: 0.8; stroke: #ffffff; stroke-opacity: 0.8; stroke-width: 0.252982"/>
    <path d="M 116.845314 305.655684 
C 117.264637 305.655684 117.666842 305.489086 117.963348 305.192579 
C 118.259854 304.896073 118.426453 304.493868 118.426453 304.074545 
C 118.426453 303.655223 118.259854 303.253018 117.963348 302.956511 
C 117.666842 302.660005 117.264637 302.493407 116.845314 302.493407 
C 116.425991 302.493407 116.023786 302.660005 115.72728 302.956511 
C 115.430774 303.253018 115.264175 303.655223 115.264175 304.074545 
C 115.264175 304.493868 115.430774 304.896073 115.72728 305.192579 
C 116.023786 305.489086 116.425991 305.655684 116.845314 305.655684 
z
" clip-path="url(#pb0c81ff3e1)" style="fill: #ff7f0e; fill-opacity: 0.8; stroke: #ffffff; stroke-opacity: 0.8; stroke-width: 0.252982"/>
   </g>
   <g id="PathCollection_2"/>
   <g id="PathCollection_3"/>
   <g id="PathCollection_4"/>
   <g id="PathCollection_5"/>
   <g id="PathCollection_6"/>
   <g id="PathCollection_7"/>
   <g id="PathCollection_8"/>
   <g id="PathCollection_9"/>
   <g id="PathCollection_10"/>
   <g id="PathCollection_11"/>
   <g id="PathCollection_12"/>
   <g id="PathCollection_13"/>
   <g id="PathCollection_14"/>
   <g id="matplotlib.axis_1">
    <g id="xtick_1">
     <g id="line2d_1">
      <defs>
       <path id="mb6b0c3ed4c" d="M 0 0 
L 0 3.5 
" style="stroke: #000000; stroke-width: 0.8"/>
      </defs>
      <g>
       <use xlink:href="#mb6b0c3ed4c" x="96.2147" y="318.04" style="stroke: #000000; stroke-width: 0.8"/>
      </g>
     </g>
     <g id="text_1">
      <!-- 0 -->
      <g transform="translate(93.03345 332.638438) scale(0.1 -0.1)">
       <defs>
        <path id="DejaVuSans-30" d="M 2034 4250 
Q 1547 4250 1301 3770 
Q 1056 3291 1056 2328 
Q 1056 1369 1301 889 
Q 1547 409 2034 409 
Q 2525 409 2770 889 
Q 3016 1369 3016 2328 
Q 3016 3291 2770 3770 
Q 2525 4250 2034 4250 
z
M 2034 4750 
Q 2819 4750 3233 4129 
Q 3647 3509 3647 2328 
Q 3647 1150 3233 529 
Q 2819 -91 2034 -91 
Q 1250 -91 836 529 
Q 422 1150 422 2328 
Q 422 3509 836 4129 
Q 1250 4750 2034 4750 
z
" transform="scale(0.015625)"/>
       </defs>
       <use xlink:href="#DejaVuSans-30"/>
      </g>
     </g>
    </g>
    <g id="xtick_2">
     <g id="line2d_2">
      <g>
       <use xlink:href="#mb6b0c3ed4c" x="151.524657" y="318.04" style="stroke: #000000; stroke-width: 0.8"/>
      </g>
     </g>
     <g id="text_2">
      <!-- 2000 -->
      <g transform="translate(138.799657 332.638438) scale(0.1 -0.1)">
       <defs>
        <path id="DejaVuSans-32" d="M 1228 531 
L 3431 531 
L 3431 0 
L 469 0 
L 469 531 
Q 828 903 1448 1529 
Q 2069 2156 2228 2338 
Q 2531 2678 2651 2914 
Q 2772 3150 2772 3378 
Q 2772 3750 2511 3984 
Q 2250 4219 1831 4219 
Q 1534 4219 1204 4116 
Q 875 4013 500 3803 
L 500 4441 
Q 881 4594 1212 4672 
Q 1544 4750 1819 4750 
Q 2544 4750 2975 4387 
Q 3406 4025 3406 3419 
Q 3406 3131 3298 2873 
Q 3191 2616 2906 2266 
Q 2828 2175 2409 1742 
Q 1991 1309 1228 531 
z
" transform="scale(0.015625)"/>
       </defs>
       <use xlink:href="#DejaVuSans-32"/>
       <use xlink:href="#DejaVuSans-30" x="63.623047"/>
       <use xlink:href="#DejaVuSans-30" x="127.246094"/>
       <use xlink:href="#DejaVuSans-30" x="190.869141"/>
      </g>
     </g>
    </g>
    <g id="xtick_3">
     <g id="line2d_3">
      <g>
       <use xlink:href="#mb6b0c3ed4c" x="206.834613" y="318.04" style="stroke: #000000; stroke-width: 0.8"/>
      </g>
     </g>
     <g id="text_3">
      <!-- 4000 -->
      <g transform="translate(194.109613 332.638438) scale(0.1 -0.1)">
       <defs>
        <path id="DejaVuSans-34" d="M 2419 4116 
L 825 1625 
L 2419 1625 
L 2419 4116 
z
M 2253 4666 
L 3047 4666 
L 3047 1625 
L 3713 1625 
L 3713 1100 
L 3047 1100 
L 3047 0 
L 2419 0 
L 2419 1100 
L 313 1100 
L 313 1709 
L 2253 4666 
z
" transform="scale(0.015625)"/>
       </defs>
       <use xlink:href="#DejaVuSans-34"/>
       <use xlink:href="#DejaVuSans-30" x="63.623047"/>
       <use xlink:href="#DejaVuSans-30" x="127.246094"/>
       <use xlink:href="#DejaVuSans-30" x="190.869141"/>
      </g>
     </g>
    </g>
    <g id="xtick_4">
     <g id="line2d_4">
      <g>
       <use xlink:href="#mb6b0c3ed4c" x="262.144569" y="318.04" style="stroke: #000000; stroke-width: 0.8"/>
      </g>
     </g>
     <g id="text_4">
      <!-- 6000 -->
      <g transform="translate(249.419569 332.638438) scale(0.1 -0.1)">
       <defs>
        <path id="DejaVuSans-36" d="M 2113 2584 
Q 1688 2584 1439 2293 
Q 1191 2003 1191 1497 
Q 1191 994 1439 701 
Q 1688 409 2113 409 
Q 2538 409 2786 701 
Q 3034 994 3034 1497 
Q 3034 2003 2786 2293 
Q 2538 2584 2113 2584 
z
M 3366 4563 
L 3366 3988 
Q 3128 4100 2886 4159 
Q 2644 4219 2406 4219 
Q 1781 4219 1451 3797 
Q 1122 3375 1075 2522 
Q 1259 2794 1537 2939 
Q 1816 3084 2150 3084 
Q 2853 3084 3261 2657 
Q 3669 2231 3669 1497 
Q 3669 778 3244 343 
Q 2819 -91 2113 -91 
Q 1303 -91 875 529 
Q 447 1150 447 2328 
Q 447 3434 972 4092 
Q 1497 4750 2381 4750 
Q 2619 4750 2861 4703 
Q 3103 4656 3366 4563 
z
" transform="scale(0.015625)"/>
       </defs>
       <use xlink:href="#DejaVuSans-36"/>
       <use xlink:href="#DejaVuSans-30" x="63.623047"/>
       <use xlink:href="#DejaVuSans-30" x="127.246094"/>
       <use xlink:href="#DejaVuSans-30" x="190.869141"/>
      </g>
     </g>
    </g>
    <g id="xtick_5">
     <g id="line2d_5">
      <g>
       <use xlink:href="#mb6b0c3ed4c" x="317.454525" y="318.04" style="stroke: #000000; stroke-width: 0.8"/>
      </g>
     </g>
     <g id="text_5">
      <!-- 8000 -->
      <g transform="translate(304.729525 332.638438) scale(0.1 -0.1)">
       <defs>
        <path id="DejaVuSans-38" d="M 2034 2216 
Q 1584 2216 1326 1975 
Q 1069 1734 1069 1313 
Q 1069 891 1326 650 
Q 1584 409 2034 409 
Q 2484 409 2743 651 
Q 3003 894 3003 1313 
Q 3003 1734 2745 1975 
Q 2488 2216 2034 2216 
z
M 1403 2484 
Q 997 2584 770 2862 
Q 544 3141 544 3541 
Q 544 4100 942 4425 
Q 1341 4750 2034 4750 
Q 2731 4750 3128 4425 
Q 3525 4100 3525 3541 
Q 3525 3141 3298 2862 
Q 3072 2584 2669 2484 
Q 3125 2378 3379 2068 
Q 3634 1759 3634 1313 
Q 3634 634 3220 271 
Q 2806 -91 2034 -91 
Q 1263 -91 848 271 
Q 434 634 434 1313 
Q 434 1759 690 2068 
Q 947 2378 1403 2484 
z
M 1172 3481 
Q 1172 3119 1398 2916 
Q 1625 2713 2034 2713 
Q 2441 2713 2670 2916 
Q 2900 3119 2900 3481 
Q 2900 3844 2670 4047 
Q 2441 4250 2034 4250 
Q 1625 4250 1398 4047 
Q 1172 3844 1172 3481 
z
" transform="scale(0.015625)"/>
       </defs>
       <use xlink:href="#DejaVuSans-38"/>
       <use xlink:href="#DejaVuSans-30" x="63.623047"/>
       <use xlink:href="#DejaVuSans-30" x="127.246094"/>
       <use xlink:href="#DejaVuSans-30" x="190.869141"/>
      </g>
     </g>
    </g>
    <g id="text_6">
     <!-- count -->
     <g transform="translate(205.504963 346.316563) scale(0.1 -0.1)">
      <defs>
       <path id="DejaVuSans-63" d="M 3122 3366 
L 3122 2828 
Q 2878 2963 2633 3030 
Q 2388 3097 2138 3097 
Q 1578 3097 1268 2742 
Q 959 2388 959 1747 
Q 959 1106 1268 751 
Q 1578 397 2138 397 
Q 2388 397 2633 464 
Q 2878 531 3122 666 
L 3122 134 
Q 2881 22 2623 -34 
Q 2366 -91 2075 -91 
Q 1284 -91 818 406 
Q 353 903 353 1747 
Q 353 2603 823 3093 
Q 1294 3584 2113 3584 
Q 2378 3584 2631 3529 
Q 2884 3475 3122 3366 
z
" transform="scale(0.015625)"/>
       <path id="DejaVuSans-6f" d="M 1959 3097 
Q 1497 3097 1228 2736 
Q 959 2375 959 1747 
Q 959 1119 1226 758 
Q 1494 397 1959 397 
Q 2419 397 2687 759 
Q 2956 1122 2956 1747 
Q 2956 2369 2687 2733 
Q 2419 3097 1959 3097 
z
M 1959 3584 
Q 2709 3584 3137 3096 
Q 3566 2609 3566 1747 
Q 3566 888 3137 398 
Q 2709 -91 1959 -91 
Q 1206 -91 779 398 
Q 353 888 353 1747 
Q 353 2609 779 3096 
Q 1206 3584 1959 3584 
z
" transform="scale(0.015625)"/>
       <path id="DejaVuSans-75" d="M 544 1381 
L 544 3500 
L 1119 3500 
L 1119 1403 
Q 1119 906 1312 657 
Q 1506 409 1894 409 
Q 2359 409 2629 706 
Q 2900 1003 2900 1516 
L 2900 3500 
L 3475 3500 
L 3475 0 
L 2900 0 
L 2900 538 
Q 2691 219 2414 64 
Q 2138 -91 1772 -91 
Q 1169 -91 856 284 
Q 544 659 544 1381 
z
M 1991 3584 
L 1991 3584 
z
" transform="scale(0.015625)"/>
       <path id="DejaVuSans-6e" d="M 3513 2113 
L 3513 0 
L 2938 0 
L 2938 2094 
Q 2938 2591 2744 2837 
Q 2550 3084 2163 3084 
Q 1697 3084 1428 2787 
Q 1159 2491 1159 1978 
L 1159 0 
L 581 0 
L 581 3500 
L 1159 3500 
L 1159 2956 
Q 1366 3272 1645 3428 
Q 1925 3584 2291 3584 
Q 2894 3584 3203 3211 
Q 3513 2838 3513 2113 
z
" transform="scale(0.015625)"/>
       <path id="DejaVuSans-74" d="M 1172 4494 
L 1172 3500 
L 2356 3500 
L 2356 3053 
L 1172 3053 
L 1172 1153 
Q 1172 725 1289 603 
Q 1406 481 1766 481 
L 2356 481 
L 2356 0 
L 1766 0 
Q 1100 0 847 248 
Q 594 497 594 1153 
L 594 3053 
L 172 3053 
L 172 3500 
L 594 3500 
L 594 4494 
L 1172 4494 
z
" transform="scale(0.015625)"/>
      </defs>
      <use xlink:href="#DejaVuSans-63"/>
      <use xlink:href="#DejaVuSans-6f" x="54.980469"/>
      <use xlink:href="#DejaVuSans-75" x="116.162109"/>
      <use xlink:href="#DejaVuSans-6e" x="179.541016"/>
      <use xlink:href="#DejaVuSans-74" x="242.919922"/>
     </g>
    </g>
   </g>
   <g id="matplotlib.axis_2">
    <g id="ytick_1">
     <g id="line2d_6">
      <defs>
       <path id="m25b5a6973d" d="M 0 0 
L -3.5 0 
" style="stroke: #000000; stroke-width: 0.8"/>
      </defs>
      <g>
       <use xlink:href="#m25b5a6973d" x="84.878925" y="306.08619" style="stroke: #000000; stroke-width: 0.8"/>
      </g>
     </g>
     <g id="text_7">
      <!-- 0.0 -->
      <g transform="translate(61.9758 309.885409) scale(0.1 -0.1)">
       <defs>
        <path id="DejaVuSans-2e" d="M 684 794 
L 1344 794 
L 1344 0 
L 684 0 
L 684 794 
z
" transform="scale(0.015625)"/>
       </defs>
       <use xlink:href="#DejaVuSans-30"/>
       <use xlink:href="#DejaVuSans-2e" x="63.623047"/>
       <use xlink:href="#DejaVuSans-30" x="95.410156"/>
      </g>
     </g>
    </g>
    <g id="ytick_2">
     <g id="line2d_7">
      <g>
       <use xlink:href="#m25b5a6973d" x="84.878925" y="267.40072" style="stroke: #000000; stroke-width: 0.8"/>
      </g>
     </g>
     <g id="text_8">
      <!-- 2.5 -->
      <g transform="translate(61.9758 271.199939) scale(0.1 -0.1)">
       <defs>
        <path id="DejaVuSans-35" d="M 691 4666 
L 3169 4666 
L 3169 4134 
L 1269 4134 
L 1269 2991 
Q 1406 3038 1543 3061 
Q 1681 3084 1819 3084 
Q 2600 3084 3056 2656 
Q 3513 2228 3513 1497 
Q 3513 744 3044 326 
Q 2575 -91 1722 -91 
Q 1428 -91 1123 -41 
Q 819 9 494 109 
L 494 744 
Q 775 591 1075 516 
Q 1375 441 1709 441 
Q 2250 441 2565 725 
Q 2881 1009 2881 1497 
Q 2881 1984 2565 2268 
Q 2250 2553 1709 2553 
Q 1456 2553 1204 2497 
Q 953 2441 691 2322 
L 691 4666 
z
" transform="scale(0.015625)"/>
       </defs>
       <use xlink:href="#DejaVuSans-32"/>
       <use xlink:href="#DejaVuSans-2e" x="63.623047"/>
       <use xlink:href="#DejaVuSans-35" x="95.410156"/>
      </g>
     </g>
    </g>
    <g id="ytick_3">
     <g id="line2d_8">
      <g>
       <use xlink:href="#m25b5a6973d" x="84.878925" y="228.715251" style="stroke: #000000; stroke-width: 0.8"/>
      </g>
     </g>
     <g id="text_9">
      <!-- 5.0 -->
      <g transform="translate(61.9758 232.514469) scale(0.1 -0.1)">
       <use xlink:href="#DejaVuSans-35"/>
       <use xlink:href="#DejaVuSans-2e" x="63.623047"/>
       <use xlink:href="#DejaVuSans-30" x="95.410156"/>
      </g>
     </g>
    </g>
    <g id="ytick_4">
     <g id="line2d_9">
      <g>
       <use xlink:href="#m25b5a6973d" x="84.878925" y="190.029781" style="stroke: #000000; stroke-width: 0.8"/>
      </g>
     </g>
     <g id="text_10">
      <!-- 7.5 -->
      <g transform="translate(61.9758 193.829) scale(0.1 -0.1)">
       <defs>
        <path id="DejaVuSans-37" d="M 525 4666 
L 3525 4666 
L 3525 4397 
L 1831 0 
L 1172 0 
L 2766 4134 
L 525 4134 
L 525 4666 
z
" transform="scale(0.015625)"/>
       </defs>
       <use xlink:href="#DejaVuSans-37"/>
       <use xlink:href="#DejaVuSans-2e" x="63.623047"/>
       <use xlink:href="#DejaVuSans-35" x="95.410156"/>
      </g>
     </g>
    </g>
    <g id="ytick_5">
     <g id="line2d_10">
      <g>
       <use xlink:href="#m25b5a6973d" x="84.878925" y="151.344311" style="stroke: #000000; stroke-width: 0.8"/>
      </g>
     </g>
     <g id="text_11">
      <!-- 10.0 -->
      <g transform="translate(55.6133 155.14353) scale(0.1 -0.1)">
       <defs>
        <path id="DejaVuSans-31" d="M 794 531 
L 1825 531 
L 1825 4091 
L 703 3866 
L 703 4441 
L 1819 4666 
L 2450 4666 
L 2450 531 
L 3481 531 
L 3481 0 
L 794 0 
L 794 531 
z
" transform="scale(0.015625)"/>
       </defs>
       <use xlink:href="#DejaVuSans-31"/>
       <use xlink:href="#DejaVuSans-30" x="63.623047"/>
       <use xlink:href="#DejaVuSans-2e" x="127.246094"/>
       <use xlink:href="#DejaVuSans-30" x="159.033203"/>
      </g>
     </g>
    </g>
    <g id="ytick_6">
     <g id="line2d_11">
      <g>
       <use xlink:href="#m25b5a6973d" x="84.878925" y="112.658842" style="stroke: #000000; stroke-width: 0.8"/>
      </g>
     </g>
     <g id="text_12">
      <!-- 12.5 -->
      <g transform="translate(55.6133 116.45806) scale(0.1 -0.1)">
       <use xlink:href="#DejaVuSans-31"/>
       <use xlink:href="#DejaVuSans-32" x="63.623047"/>
       <use xlink:href="#DejaVuSans-2e" x="127.246094"/>
       <use xlink:href="#DejaVuSans-35" x="159.033203"/>
      </g>
     </g>
    </g>
    <g id="ytick_7">
     <g id="line2d_12">
      <g>
       <use xlink:href="#m25b5a6973d" x="84.878925" y="73.973372" style="stroke: #000000; stroke-width: 0.8"/>
      </g>
     </g>
     <g id="text_13">
      <!-- 15.0 -->
      <g transform="translate(55.6133 77.772591) scale(0.1 -0.1)">
       <use xlink:href="#DejaVuSans-31"/>
       <use xlink:href="#DejaVuSans-35" x="63.623047"/>
       <use xlink:href="#DejaVuSans-2e" x="127.246094"/>
       <use xlink:href="#DejaVuSans-30" x="159.033203"/>
      </g>
     </g>
    </g>
    <g id="ytick_8">
     <g id="line2d_13">
      <g>
       <use xlink:href="#m25b5a6973d" x="84.878925" y="35.287902" style="stroke: #000000; stroke-width: 0.8"/>
      </g>
     </g>
     <g id="text_14">
      <!-- 17.5 -->
      <g transform="translate(55.6133 39.087121) scale(0.1 -0.1)">
       <use xlink:href="#DejaVuSans-31"/>
       <use xlink:href="#DejaVuSans-37" x="63.623047"/>
       <use xlink:href="#DejaVuSans-2e" x="127.246094"/>
       <use xlink:href="#DejaVuSans-35" x="159.033203"/>
      </g>
     </g>
    </g>
    <g id="text_15">
     <!-- percentage -->
     <g transform="translate(49.533612 192.883281) rotate(-90) scale(0.1 -0.1)">
      <defs>
       <path id="DejaVuSans-70" d="M 1159 525 
L 1159 -1331 
L 581 -1331 
L 581 3500 
L 1159 3500 
L 1159 2969 
Q 1341 3281 1617 3432 
Q 1894 3584 2278 3584 
Q 2916 3584 3314 3078 
Q 3713 2572 3713 1747 
Q 3713 922 3314 415 
Q 2916 -91 2278 -91 
Q 1894 -91 1617 61 
Q 1341 213 1159 525 
z
M 3116 1747 
Q 3116 2381 2855 2742 
Q 2594 3103 2138 3103 
Q 1681 3103 1420 2742 
Q 1159 2381 1159 1747 
Q 1159 1113 1420 752 
Q 1681 391 2138 391 
Q 2594 391 2855 752 
Q 3116 1113 3116 1747 
z
" transform="scale(0.015625)"/>
       <path id="DejaVuSans-65" d="M 3597 1894 
L 3597 1613 
L 953 1613 
Q 991 1019 1311 708 
Q 1631 397 2203 397 
Q 2534 397 2845 478 
Q 3156 559 3463 722 
L 3463 178 
Q 3153 47 2828 -22 
Q 2503 -91 2169 -91 
Q 1331 -91 842 396 
Q 353 884 353 1716 
Q 353 2575 817 3079 
Q 1281 3584 2069 3584 
Q 2775 3584 3186 3129 
Q 3597 2675 3597 1894 
z
M 3022 2063 
Q 3016 2534 2758 2815 
Q 2500 3097 2075 3097 
Q 1594 3097 1305 2825 
Q 1016 2553 972 2059 
L 3022 2063 
z
" transform="scale(0.015625)"/>
       <path id="DejaVuSans-72" d="M 2631 2963 
Q 2534 3019 2420 3045 
Q 2306 3072 2169 3072 
Q 1681 3072 1420 2755 
Q 1159 2438 1159 1844 
L 1159 0 
L 581 0 
L 581 3500 
L 1159 3500 
L 1159 2956 
Q 1341 3275 1631 3429 
Q 1922 3584 2338 3584 
Q 2397 3584 2469 3576 
Q 2541 3569 2628 3553 
L 2631 2963 
z
" transform="scale(0.015625)"/>
       <path id="DejaVuSans-61" d="M 2194 1759 
Q 1497 1759 1228 1600 
Q 959 1441 959 1056 
Q 959 750 1161 570 
Q 1363 391 1709 391 
Q 2188 391 2477 730 
Q 2766 1069 2766 1631 
L 2766 1759 
L 2194 1759 
z
M 3341 1997 
L 3341 0 
L 2766 0 
L 2766 531 
Q 2569 213 2275 61 
Q 1981 -91 1556 -91 
Q 1019 -91 701 211 
Q 384 513 384 1019 
Q 384 1609 779 1909 
Q 1175 2209 1959 2209 
L 2766 2209 
L 2766 2266 
Q 2766 2663 2505 2880 
Q 2244 3097 1772 3097 
Q 1472 3097 1187 3025 
Q 903 2953 641 2809 
L 641 3341 
Q 956 3463 1253 3523 
Q 1550 3584 1831 3584 
Q 2591 3584 2966 3190 
Q 3341 2797 3341 1997 
z
" transform="scale(0.015625)"/>
       <path id="DejaVuSans-67" d="M 2906 1791 
Q 2906 2416 2648 2759 
Q 2391 3103 1925 3103 
Q 1463 3103 1205 2759 
Q 947 2416 947 1791 
Q 947 1169 1205 825 
Q 1463 481 1925 481 
Q 2391 481 2648 825 
Q 2906 1169 2906 1791 
z
M 3481 434 
Q 3481 -459 3084 -895 
Q 2688 -1331 1869 -1331 
Q 1566 -1331 1297 -1286 
Q 1028 -1241 775 -1147 
L 775 -588 
Q 1028 -725 1275 -790 
Q 1522 -856 1778 -856 
Q 2344 -856 2625 -561 
Q 2906 -266 2906 331 
L 2906 616 
Q 2728 306 2450 153 
Q 2172 0 1784 0 
Q 1141 0 747 490 
Q 353 981 353 1791 
Q 353 2603 747 3093 
Q 1141 3584 1784 3584 
Q 2172 3584 2450 3431 
Q 2728 3278 2906 2969 
L 2906 3500 
L 3481 3500 
L 3481 434 
z
" transform="scale(0.015625)"/>
      </defs>
      <use xlink:href="#DejaVuSans-70"/>
      <use xlink:href="#DejaVuSans-65" x="63.476562"/>
      <use xlink:href="#DejaVuSans-72" x="125"/>
      <use xlink:href="#DejaVuSans-63" x="163.863281"/>
      <use xlink:href="#DejaVuSans-65" x="218.84375"/>
      <use xlink:href="#DejaVuSans-6e" x="280.367188"/>
      <use xlink:href="#DejaVuSans-74" x="343.746094"/>
      <use xlink:href="#DejaVuSans-61" x="382.955078"/>
      <use xlink:href="#DejaVuSans-67" x="444.234375"/>
      <use xlink:href="#DejaVuSans-65" x="507.710938"/>
     </g>
    </g>
   </g>
   <g id="patch_3">
    <path d="M 84.878925 318.04 
L 84.878925 10.8 
" style="fill: none; stroke: #000000; stroke-width: 0.8; stroke-linejoin: miter; stroke-linecap: square"/>
   </g>
   <g id="patch_4">
    <path d="M 84.878925 318.04 
L 354.3435 318.04 
" style="fill: none; stroke: #000000; stroke-width: 0.8; stroke-linejoin: miter; stroke-linecap: square"/>
   </g>
  </g>
  <g id="legend_1">
   <g id="text_16">
    <!-- pathway -->
    <g transform="translate(367.11875 79.873438) scale(0.1 -0.1)">
     <defs>
      <path id="DejaVuSans-68" d="M 3513 2113 
L 3513 0 
L 2938 0 
L 2938 2094 
Q 2938 2591 2744 2837 
Q 2550 3084 2163 3084 
Q 1697 3084 1428 2787 
Q 1159 2491 1159 1978 
L 1159 0 
L 581 0 
L 581 4863 
L 1159 4863 
L 1159 2956 
Q 1366 3272 1645 3428 
Q 1925 3584 2291 3584 
Q 2894 3584 3203 3211 
Q 3513 2838 3513 2113 
z
" transform="scale(0.015625)"/>
      <path id="DejaVuSans-77" d="M 269 3500 
L 844 3500 
L 1563 769 
L 2278 3500 
L 2956 3500 
L 3675 769 
L 4391 3500 
L 4966 3500 
L 4050 0 
L 3372 0 
L 2619 2869 
L 1863 0 
L 1184 0 
L 269 3500 
z
" transform="scale(0.015625)"/>
      <path id="DejaVuSans-79" d="M 2059 -325 
Q 1816 -950 1584 -1140 
Q 1353 -1331 966 -1331 
L 506 -1331 
L 506 -850 
L 844 -850 
Q 1081 -850 1212 -737 
Q 1344 -625 1503 -206 
L 1606 56 
L 191 3500 
L 800 3500 
L 1894 763 
L 2988 3500 
L 3597 3500 
L 2059 -325 
z
" transform="scale(0.015625)"/>
     </defs>
     <use xlink:href="#DejaVuSans-70"/>
     <use xlink:href="#DejaVuSans-61" x="63.476562"/>
     <use xlink:href="#DejaVuSans-74" x="124.755859"/>
     <use xlink:href="#DejaVuSans-68" x="163.964844"/>
     <use xlink:href="#DejaVuSans-77" x="227.34375"/>
     <use xlink:href="#DejaVuSans-61" x="309.130859"/>
     <use xlink:href="#DejaVuSans-79" x="370.410156"/>
    </g>
   </g>
   <g id="PathCollection_15">
    <defs>
     <path id="m165a77f9af" d="M 0 3 
C 0.795609 3 1.55874 2.683901 2.12132 2.12132 
C 2.683901 1.55874 3 0.795609 3 0 
C 3 -0.795609 2.683901 -1.55874 2.12132 -2.12132 
C 1.55874 -2.683901 0.795609 -3 0 -3 
C -0.795609 -3 -1.55874 -2.683901 -2.12132 -2.12132 
C -2.683901 -1.55874 -3 -0.795609 -3 0 
C -3 0.795609 -2.683901 1.55874 -2.12132 2.12132 
C -1.55874 2.683901 -0.795609 3 0 3 
z
" style="stroke: #1f77b4"/>
    </defs>
    <g>
     <use xlink:href="#m165a77f9af" x="369.11875" y="91.926563" style="fill: #1f77b4; stroke: #1f77b4"/>
    </g>
   </g>
   <g id="text_17">
    <!-- Alkaloids -->
    <g transform="translate(387.11875 94.551563) scale(0.1 -0.1)">
     <defs>
      <path id="DejaVuSans-41" d="M 2188 4044 
L 1331 1722 
L 3047 1722 
L 2188 4044 
z
M 1831 4666 
L 2547 4666 
L 4325 0 
L 3669 0 
L 3244 1197 
L 1141 1197 
L 716 0 
L 50 0 
L 1831 4666 
z
" transform="scale(0.015625)"/>
      <path id="DejaVuSans-6c" d="M 603 4863 
L 1178 4863 
L 1178 0 
L 603 0 
L 603 4863 
z
" transform="scale(0.015625)"/>
      <path id="DejaVuSans-6b" d="M 581 4863 
L 1159 4863 
L 1159 1991 
L 2875 3500 
L 3609 3500 
L 1753 1863 
L 3688 0 
L 2938 0 
L 1159 1709 
L 1159 0 
L 581 0 
L 581 4863 
z
" transform="scale(0.015625)"/>
      <path id="DejaVuSans-69" d="M 603 3500 
L 1178 3500 
L 1178 0 
L 603 0 
L 603 3500 
z
M 603 4863 
L 1178 4863 
L 1178 4134 
L 603 4134 
L 603 4863 
z
" transform="scale(0.015625)"/>
      <path id="DejaVuSans-64" d="M 2906 2969 
L 2906 4863 
L 3481 4863 
L 3481 0 
L 2906 0 
L 2906 525 
Q 2725 213 2448 61 
Q 2172 -91 1784 -91 
Q 1150 -91 751 415 
Q 353 922 353 1747 
Q 353 2572 751 3078 
Q 1150 3584 1784 3584 
Q 2172 3584 2448 3432 
Q 2725 3281 2906 2969 
z
M 947 1747 
Q 947 1113 1208 752 
Q 1469 391 1925 391 
Q 2381 391 2643 752 
Q 2906 1113 2906 1747 
Q 2906 2381 2643 2742 
Q 2381 3103 1925 3103 
Q 1469 3103 1208 2742 
Q 947 2381 947 1747 
z
" transform="scale(0.015625)"/>
      <path id="DejaVuSans-73" d="M 2834 3397 
L 2834 2853 
Q 2591 2978 2328 3040 
Q 2066 3103 1784 3103 
Q 1356 3103 1142 2972 
Q 928 2841 928 2578 
Q 928 2378 1081 2264 
Q 1234 2150 1697 2047 
L 1894 2003 
Q 2506 1872 2764 1633 
Q 3022 1394 3022 966 
Q 3022 478 2636 193 
Q 2250 -91 1575 -91 
Q 1294 -91 989 -36 
Q 684 19 347 128 
L 347 722 
Q 666 556 975 473 
Q 1284 391 1588 391 
Q 1994 391 2212 530 
Q 2431 669 2431 922 
Q 2431 1156 2273 1281 
Q 2116 1406 1581 1522 
L 1381 1569 
Q 847 1681 609 1914 
Q 372 2147 372 2553 
Q 372 3047 722 3315 
Q 1072 3584 1716 3584 
Q 2034 3584 2315 3537 
Q 2597 3491 2834 3397 
z
" transform="scale(0.015625)"/>
     </defs>
     <use xlink:href="#DejaVuSans-41"/>
     <use xlink:href="#DejaVuSans-6c" x="68.408203"/>
     <use xlink:href="#DejaVuSans-6b" x="96.191406"/>
     <use xlink:href="#DejaVuSans-61" x="152.351562"/>
     <use xlink:href="#DejaVuSans-6c" x="213.630859"/>
     <use xlink:href="#DejaVuSans-6f" x="241.414062"/>
     <use xlink:href="#DejaVuSans-69" x="302.595703"/>
     <use xlink:href="#DejaVuSans-64" x="330.378906"/>
     <use xlink:href="#DejaVuSans-73" x="393.855469"/>
    </g>
   </g>
   <g id="PathCollection_16">
    <defs>
     <path id="m69ee83b8aa" d="M 0 3 
C 0.795609 3 1.55874 2.683901 2.12132 2.12132 
C 2.683901 1.55874 3 0.795609 3 0 
C 3 -0.795609 2.683901 -1.55874 2.12132 -2.12132 
C 1.55874 -2.683901 0.795609 -3 0 -3 
C -0.795609 -3 -1.55874 -2.683901 -2.12132 -2.12132 
C -2.683901 -1.55874 -3 -0.795609 -3 0 
C -3 0.795609 -2.683901 1.55874 -2.12132 2.12132 
C -1.55874 2.683901 -0.795609 3 0 3 
z
" style="stroke: #ff7f0e"/>
    </defs>
    <g>
     <use xlink:href="#m69ee83b8aa" x="369.11875" y="106.604688" style="fill: #ff7f0e; stroke: #ff7f0e"/>
    </g>
   </g>
   <g id="text_18">
    <!-- Polyketides -->
    <g transform="translate(387.11875 109.229688) scale(0.1 -0.1)">
     <defs>
      <path id="DejaVuSans-50" d="M 1259 4147 
L 1259 2394 
L 2053 2394 
Q 2494 2394 2734 2622 
Q 2975 2850 2975 3272 
Q 2975 3691 2734 3919 
Q 2494 4147 2053 4147 
L 1259 4147 
z
M 628 4666 
L 2053 4666 
Q 2838 4666 3239 4311 
Q 3641 3956 3641 3272 
Q 3641 2581 3239 2228 
Q 2838 1875 2053 1875 
L 1259 1875 
L 1259 0 
L 628 0 
L 628 4666 
z
" transform="scale(0.015625)"/>
     </defs>
     <use xlink:href="#DejaVuSans-50"/>
     <use xlink:href="#DejaVuSans-6f" x="56.677734"/>
     <use xlink:href="#DejaVuSans-6c" x="117.859375"/>
     <use xlink:href="#DejaVuSans-79" x="145.642578"/>
     <use xlink:href="#DejaVuSans-6b" x="204.822266"/>
     <use xlink:href="#DejaVuSans-65" x="259.107422"/>
     <use xlink:href="#DejaVuSans-74" x="320.630859"/>
     <use xlink:href="#DejaVuSans-69" x="359.839844"/>
     <use xlink:href="#DejaVuSans-64" x="387.623047"/>
     <use xlink:href="#DejaVuSans-65" x="451.099609"/>
     <use xlink:href="#DejaVuSans-73" x="512.623047"/>
    </g>
   </g>
   <g id="PathCollection_17">
    <defs>
     <path id="mb79addea18" d="M 0 3 
C 0.795609 3 1.55874 2.683901 2.12132 2.12132 
C 2.683901 1.55874 3 0.795609 3 0 
C 3 -0.795609 2.683901 -1.55874 2.12132 -2.12132 
C 1.55874 -2.683901 0.795609 -3 0 -3 
C -0.795609 -3 -1.55874 -2.683901 -2.12132 -2.12132 
C -2.683901 -1.55874 -3 -0.795609 -3 0 
C -3 0.795609 -2.683901 1.55874 -2.12132 2.12132 
C -1.55874 2.683901 -0.795609 3 0 3 
z
" style="stroke: #2ca02c"/>
    </defs>
    <g>
     <use xlink:href="#mb79addea18" x="369.11875" y="121.282813" style="fill: #2ca02c; stroke: #2ca02c"/>
    </g>
   </g>
   <g id="text_19">
    <!-- Amino acids and Peptides -->
    <g transform="translate(387.11875 123.907813) scale(0.1 -0.1)">
     <defs>
      <path id="DejaVuSans-6d" d="M 3328 2828 
Q 3544 3216 3844 3400 
Q 4144 3584 4550 3584 
Q 5097 3584 5394 3201 
Q 5691 2819 5691 2113 
L 5691 0 
L 5113 0 
L 5113 2094 
Q 5113 2597 4934 2840 
Q 4756 3084 4391 3084 
Q 3944 3084 3684 2787 
Q 3425 2491 3425 1978 
L 3425 0 
L 2847 0 
L 2847 2094 
Q 2847 2600 2669 2842 
Q 2491 3084 2119 3084 
Q 1678 3084 1418 2786 
Q 1159 2488 1159 1978 
L 1159 0 
L 581 0 
L 581 3500 
L 1159 3500 
L 1159 2956 
Q 1356 3278 1631 3431 
Q 1906 3584 2284 3584 
Q 2666 3584 2933 3390 
Q 3200 3197 3328 2828 
z
" transform="scale(0.015625)"/>
      <path id="DejaVuSans-20" transform="scale(0.015625)"/>
     </defs>
     <use xlink:href="#DejaVuSans-41"/>
     <use xlink:href="#DejaVuSans-6d" x="68.408203"/>
     <use xlink:href="#DejaVuSans-69" x="165.820312"/>
     <use xlink:href="#DejaVuSans-6e" x="193.603516"/>
     <use xlink:href="#DejaVuSans-6f" x="256.982422"/>
     <use xlink:href="#DejaVuSans-20" x="318.164062"/>
     <use xlink:href="#DejaVuSans-61" x="349.951172"/>
     <use xlink:href="#DejaVuSans-63" x="411.230469"/>
     <use xlink:href="#DejaVuSans-69" x="466.210938"/>
     <use xlink:href="#DejaVuSans-64" x="493.994141"/>
     <use xlink:href="#DejaVuSans-73" x="557.470703"/>
     <use xlink:href="#DejaVuSans-20" x="609.570312"/>
     <use xlink:href="#DejaVuSans-61" x="641.357422"/>
     <use xlink:href="#DejaVuSans-6e" x="702.636719"/>
     <use xlink:href="#DejaVuSans-64" x="766.015625"/>
     <use xlink:href="#DejaVuSans-20" x="829.492188"/>
     <use xlink:href="#DejaVuSans-50" x="861.279297"/>
     <use xlink:href="#DejaVuSans-65" x="917.957031"/>
     <use xlink:href="#DejaVuSans-70" x="979.480469"/>
     <use xlink:href="#DejaVuSans-74" x="1042.957031"/>
     <use xlink:href="#DejaVuSans-69" x="1082.166016"/>
     <use xlink:href="#DejaVuSans-64" x="1109.949219"/>
     <use xlink:href="#DejaVuSans-65" x="1173.425781"/>
     <use xlink:href="#DejaVuSans-73" x="1234.949219"/>
    </g>
   </g>
   <g id="PathCollection_18">
    <defs>
     <path id="meeab1d2734" d="M 0 3 
C 0.795609 3 1.55874 2.683901 2.12132 2.12132 
C 2.683901 1.55874 3 0.795609 3 0 
C 3 -0.795609 2.683901 -1.55874 2.12132 -2.12132 
C 1.55874 -2.683901 0.795609 -3 0 -3 
C -0.795609 -3 -1.55874 -2.683901 -2.12132 -2.12132 
C -2.683901 -1.55874 -3 -0.795609 -3 0 
C -3 0.795609 -2.683901 1.55874 -2.12132 2.12132 
C -1.55874 2.683901 -0.795609 3 0 3 
z
" style="stroke: #d62728"/>
    </defs>
    <g>
     <use xlink:href="#meeab1d2734" x="369.11875" y="135.960938" style="fill: #d62728; stroke: #d62728"/>
    </g>
   </g>
   <g id="text_20">
    <!-- Fatty acids -->
    <g transform="translate(387.11875 138.585938) scale(0.1 -0.1)">
     <defs>
      <path id="DejaVuSans-46" d="M 628 4666 
L 3309 4666 
L 3309 4134 
L 1259 4134 
L 1259 2759 
L 3109 2759 
L 3109 2228 
L 1259 2228 
L 1259 0 
L 628 0 
L 628 4666 
z
" transform="scale(0.015625)"/>
     </defs>
     <use xlink:href="#DejaVuSans-46"/>
     <use xlink:href="#DejaVuSans-61" x="48.394531"/>
     <use xlink:href="#DejaVuSans-74" x="109.673828"/>
     <use xlink:href="#DejaVuSans-74" x="148.882812"/>
     <use xlink:href="#DejaVuSans-79" x="188.091797"/>
     <use xlink:href="#DejaVuSans-20" x="247.271484"/>
     <use xlink:href="#DejaVuSans-61" x="279.058594"/>
     <use xlink:href="#DejaVuSans-63" x="340.337891"/>
     <use xlink:href="#DejaVuSans-69" x="395.318359"/>
     <use xlink:href="#DejaVuSans-64" x="423.101562"/>
     <use xlink:href="#DejaVuSans-73" x="486.578125"/>
    </g>
   </g>
   <g id="PathCollection_19">
    <defs>
     <path id="m46684c1618" d="M 0 3 
C 0.795609 3 1.55874 2.683901 2.12132 2.12132 
C 2.683901 1.55874 3 0.795609 3 0 
C 3 -0.795609 2.683901 -1.55874 2.12132 -2.12132 
C 1.55874 -2.683901 0.795609 -3 0 -3 
C -0.795609 -3 -1.55874 -2.683901 -2.12132 -2.12132 
C -2.683901 -1.55874 -3 -0.795609 -3 0 
C -3 0.795609 -2.683901 1.55874 -2.12132 2.12132 
C -1.55874 2.683901 -0.795609 3 0 3 
z
" style="stroke: #9467bd"/>
    </defs>
    <g>
     <use xlink:href="#m46684c1618" x="369.11875" y="150.639063" style="fill: #9467bd; stroke: #9467bd"/>
    </g>
   </g>
   <g id="text_21">
    <!-- Carbohydrates -->
    <g transform="translate(387.11875 153.264063) scale(0.1 -0.1)">
     <defs>
      <path id="DejaVuSans-43" d="M 4122 4306 
L 4122 3641 
Q 3803 3938 3442 4084 
Q 3081 4231 2675 4231 
Q 1875 4231 1450 3742 
Q 1025 3253 1025 2328 
Q 1025 1406 1450 917 
Q 1875 428 2675 428 
Q 3081 428 3442 575 
Q 3803 722 4122 1019 
L 4122 359 
Q 3791 134 3420 21 
Q 3050 -91 2638 -91 
Q 1578 -91 968 557 
Q 359 1206 359 2328 
Q 359 3453 968 4101 
Q 1578 4750 2638 4750 
Q 3056 4750 3426 4639 
Q 3797 4528 4122 4306 
z
" transform="scale(0.015625)"/>
      <path id="DejaVuSans-62" d="M 3116 1747 
Q 3116 2381 2855 2742 
Q 2594 3103 2138 3103 
Q 1681 3103 1420 2742 
Q 1159 2381 1159 1747 
Q 1159 1113 1420 752 
Q 1681 391 2138 391 
Q 2594 391 2855 752 
Q 3116 1113 3116 1747 
z
M 1159 2969 
Q 1341 3281 1617 3432 
Q 1894 3584 2278 3584 
Q 2916 3584 3314 3078 
Q 3713 2572 3713 1747 
Q 3713 922 3314 415 
Q 2916 -91 2278 -91 
Q 1894 -91 1617 61 
Q 1341 213 1159 525 
L 1159 0 
L 581 0 
L 581 4863 
L 1159 4863 
L 1159 2969 
z
" transform="scale(0.015625)"/>
     </defs>
     <use xlink:href="#DejaVuSans-43"/>
     <use xlink:href="#DejaVuSans-61" x="69.824219"/>
     <use xlink:href="#DejaVuSans-72" x="131.103516"/>
     <use xlink:href="#DejaVuSans-62" x="172.216797"/>
     <use xlink:href="#DejaVuSans-6f" x="235.693359"/>
     <use xlink:href="#DejaVuSans-68" x="296.875"/>
     <use xlink:href="#DejaVuSans-79" x="360.253906"/>
     <use xlink:href="#DejaVuSans-64" x="419.433594"/>
     <use xlink:href="#DejaVuSans-72" x="482.910156"/>
     <use xlink:href="#DejaVuSans-61" x="524.023438"/>
     <use xlink:href="#DejaVuSans-74" x="585.302734"/>
     <use xlink:href="#DejaVuSans-65" x="624.511719"/>
     <use xlink:href="#DejaVuSans-73" x="686.035156"/>
    </g>
   </g>
   <g id="PathCollection_20">
    <defs>
     <path id="maf90897037" d="M 0 3 
C 0.795609 3 1.55874 2.683901 2.12132 2.12132 
C 2.683901 1.55874 3 0.795609 3 0 
C 3 -0.795609 2.683901 -1.55874 2.12132 -2.12132 
C 1.55874 -2.683901 0.795609 -3 0 -3 
C -0.795609 -3 -1.55874 -2.683901 -2.12132 -2.12132 
C -2.683901 -1.55874 -3 -0.795609 -3 0 
C -3 0.795609 -2.683901 1.55874 -2.12132 2.12132 
C -1.55874 2.683901 -0.795609 3 0 3 
z
" style="stroke: #8c564b"/>
    </defs>
    <g>
     <use xlink:href="#maf90897037" x="369.11875" y="165.317188" style="fill: #8c564b; stroke: #8c564b"/>
    </g>
   </g>
   <g id="text_22">
    <!-- Shikimates and Phenylpropanoids -->
    <g transform="translate(387.11875 167.942188) scale(0.1 -0.1)">
     <defs>
      <path id="DejaVuSans-53" d="M 3425 4513 
L 3425 3897 
Q 3066 4069 2747 4153 
Q 2428 4238 2131 4238 
Q 1616 4238 1336 4038 
Q 1056 3838 1056 3469 
Q 1056 3159 1242 3001 
Q 1428 2844 1947 2747 
L 2328 2669 
Q 3034 2534 3370 2195 
Q 3706 1856 3706 1288 
Q 3706 609 3251 259 
Q 2797 -91 1919 -91 
Q 1588 -91 1214 -16 
Q 841 59 441 206 
L 441 856 
Q 825 641 1194 531 
Q 1563 422 1919 422 
Q 2459 422 2753 634 
Q 3047 847 3047 1241 
Q 3047 1584 2836 1778 
Q 2625 1972 2144 2069 
L 1759 2144 
Q 1053 2284 737 2584 
Q 422 2884 422 3419 
Q 422 4038 858 4394 
Q 1294 4750 2059 4750 
Q 2388 4750 2728 4690 
Q 3069 4631 3425 4513 
z
" transform="scale(0.015625)"/>
     </defs>
     <use xlink:href="#DejaVuSans-53"/>
     <use xlink:href="#DejaVuSans-68" x="63.476562"/>
     <use xlink:href="#DejaVuSans-69" x="126.855469"/>
     <use xlink:href="#DejaVuSans-6b" x="154.638672"/>
     <use xlink:href="#DejaVuSans-69" x="212.548828"/>
     <use xlink:href="#DejaVuSans-6d" x="240.332031"/>
     <use xlink:href="#DejaVuSans-61" x="337.744141"/>
     <use xlink:href="#DejaVuSans-74" x="399.023438"/>
     <use xlink:href="#DejaVuSans-65" x="438.232422"/>
     <use xlink:href="#DejaVuSans-73" x="499.755859"/>
     <use xlink:href="#DejaVuSans-20" x="551.855469"/>
     <use xlink:href="#DejaVuSans-61" x="583.642578"/>
     <use xlink:href="#DejaVuSans-6e" x="644.921875"/>
     <use xlink:href="#DejaVuSans-64" x="708.300781"/>
     <use xlink:href="#DejaVuSans-20" x="771.777344"/>
     <use xlink:href="#DejaVuSans-50" x="803.564453"/>
     <use xlink:href="#DejaVuSans-68" x="863.867188"/>
     <use xlink:href="#DejaVuSans-65" x="927.246094"/>
     <use xlink:href="#DejaVuSans-6e" x="988.769531"/>
     <use xlink:href="#DejaVuSans-79" x="1052.148438"/>
     <use xlink:href="#DejaVuSans-6c" x="1111.328125"/>
     <use xlink:href="#DejaVuSans-70" x="1139.111328"/>
     <use xlink:href="#DejaVuSans-72" x="1202.587891"/>
     <use xlink:href="#DejaVuSans-6f" x="1241.451172"/>
     <use xlink:href="#DejaVuSans-70" x="1302.632812"/>
     <use xlink:href="#DejaVuSans-61" x="1366.109375"/>
     <use xlink:href="#DejaVuSans-6e" x="1427.388672"/>
     <use xlink:href="#DejaVuSans-6f" x="1490.767578"/>
     <use xlink:href="#DejaVuSans-69" x="1551.949219"/>
     <use xlink:href="#DejaVuSans-64" x="1579.732422"/>
     <use xlink:href="#DejaVuSans-73" x="1643.208984"/>
    </g>
   </g>
   <g id="PathCollection_21">
    <defs>
     <path id="m572064c6e0" d="M 0 3 
C 0.795609 3 1.55874 2.683901 2.12132 2.12132 
C 2.683901 1.55874 3 0.795609 3 0 
C 3 -0.795609 2.683901 -1.55874 2.12132 -2.12132 
C 1.55874 -2.683901 0.795609 -3 0 -3 
C -0.795609 -3 -1.55874 -2.683901 -2.12132 -2.12132 
C -2.683901 -1.55874 -3 -0.795609 -3 0 
C -3 0.795609 -2.683901 1.55874 -2.12132 2.12132 
C -1.55874 2.683901 -0.795609 3 0 3 
z
" style="stroke: #e377c2"/>
    </defs>
    <g>
     <use xlink:href="#m572064c6e0" x="369.11875" y="179.995313" style="fill: #e377c2; stroke: #e377c2"/>
    </g>
   </g>
   <g id="text_23">
    <!-- Terpenoids -->
    <g transform="translate(387.11875 182.620313) scale(0.1 -0.1)">
     <defs>
      <path id="DejaVuSans-54" d="M -19 4666 
L 3928 4666 
L 3928 4134 
L 2272 4134 
L 2272 0 
L 1638 0 
L 1638 4134 
L -19 4134 
L -19 4666 
z
" transform="scale(0.015625)"/>
     </defs>
     <use xlink:href="#DejaVuSans-54"/>
     <use xlink:href="#DejaVuSans-65" x="44.083984"/>
     <use xlink:href="#DejaVuSans-72" x="105.607422"/>
     <use xlink:href="#DejaVuSans-70" x="146.720703"/>
     <use xlink:href="#DejaVuSans-65" x="210.197266"/>
     <use xlink:href="#DejaVuSans-6e" x="271.720703"/>
     <use xlink:href="#DejaVuSans-6f" x="335.099609"/>
     <use xlink:href="#DejaVuSans-69" x="396.28125"/>
     <use xlink:href="#DejaVuSans-64" x="424.064453"/>
     <use xlink:href="#DejaVuSans-73" x="487.541016"/>
    </g>
   </g>
   <g id="PathCollection_22">
    <defs>
     <path id="m8a71680d1d" d="M 0 3 
C 0.795609 3 1.55874 2.683901 2.12132 2.12132 
C 2.683901 1.55874 3 0.795609 3 0 
C 3 -0.795609 2.683901 -1.55874 2.12132 -2.12132 
C 1.55874 -2.683901 0.795609 -3 0 -3 
C -0.795609 -3 -1.55874 -2.683901 -2.12132 -2.12132 
C -2.683901 -1.55874 -3 -0.795609 -3 0 
C -3 0.795609 -2.683901 1.55874 -2.12132 2.12132 
C -1.55874 2.683901 -0.795609 3 0 3 
z
" style="stroke: #7f7f7f"/>
    </defs>
    <g>
     <use xlink:href="#m8a71680d1d" x="369.11875" y="194.673438" style="fill: #7f7f7f; stroke: #7f7f7f"/>
    </g>
   </g>
   <g id="text_24">
    <!-- Other -->
    <g transform="translate(387.11875 197.298438) scale(0.1 -0.1)">
     <defs>
      <path id="DejaVuSans-4f" d="M 2522 4238 
Q 1834 4238 1429 3725 
Q 1025 3213 1025 2328 
Q 1025 1447 1429 934 
Q 1834 422 2522 422 
Q 3209 422 3611 934 
Q 4013 1447 4013 2328 
Q 4013 3213 3611 3725 
Q 3209 4238 2522 4238 
z
M 2522 4750 
Q 3503 4750 4090 4092 
Q 4678 3434 4678 2328 
Q 4678 1225 4090 567 
Q 3503 -91 2522 -91 
Q 1538 -91 948 565 
Q 359 1222 359 2328 
Q 359 3434 948 4092 
Q 1538 4750 2522 4750 
z
" transform="scale(0.015625)"/>
     </defs>
     <use xlink:href="#DejaVuSans-4f"/>
     <use xlink:href="#DejaVuSans-74" x="78.710938"/>
     <use xlink:href="#DejaVuSans-68" x="117.919922"/>
     <use xlink:href="#DejaVuSans-65" x="181.298828"/>
     <use xlink:href="#DejaVuSans-72" x="242.822266"/>
    </g>
   </g>
   <g id="text_25">
    <!-- count_ha -->
    <g transform="translate(367.11875 211.976562) scale(0.1 -0.1)">
     <defs>
      <path id="DejaVuSans-5f" d="M 3263 -1063 
L 3263 -1509 
L -63 -1509 
L -63 -1063 
L 3263 -1063 
z
" transform="scale(0.015625)"/>
     </defs>
     <use xlink:href="#DejaVuSans-63"/>
     <use xlink:href="#DejaVuSans-6f" x="54.980469"/>
     <use xlink:href="#DejaVuSans-75" x="116.162109"/>
     <use xlink:href="#DejaVuSans-6e" x="179.541016"/>
     <use xlink:href="#DejaVuSans-74" x="242.919922"/>
     <use xlink:href="#DejaVuSans-5f" x="282.128906"/>
     <use xlink:href="#DejaVuSans-68" x="332.128906"/>
     <use xlink:href="#DejaVuSans-61" x="395.507812"/>
    </g>
   </g>
   <g id="PathCollection_23">
    <defs>
     <path id="m8d8414d4f6" d="M 0 4.067125 
C 1.078614 4.067125 2.113196 3.638587 2.875891 2.875891 
C 3.638587 2.113196 4.067125 1.078614 4.067125 0 
C 4.067125 -1.078614 3.638587 -2.113196 2.875891 -2.875891 
C 2.113196 -3.638587 1.078614 -4.067125 0 -4.067125 
C -1.078614 -4.067125 -2.113196 -3.638587 -2.875891 -2.875891 
C -3.638587 -2.113196 -4.067125 -1.078614 -4.067125 0 
C -4.067125 1.078614 -3.638587 2.113196 -2.875891 2.875891 
C -2.113196 3.638587 -1.078614 4.067125 0 4.067125 
z
" style="stroke: #333333"/>
    </defs>
    <g>
     <use xlink:href="#m8d8414d4f6" x="369.11875" y="224.307813" style="fill: #333333; stroke: #333333"/>
    </g>
   </g>
   <g id="text_26">
    <!-- 50 -->
    <g transform="translate(387.11875 226.932813) scale(0.1 -0.1)">
     <use xlink:href="#DejaVuSans-35"/>
     <use xlink:href="#DejaVuSans-30" x="63.623047"/>
    </g>
   </g>
   <g id="PathCollection_24">
    <defs>
     <path id="m8d7dbd5f6a" d="M 0 5.556039 
C 1.473479 5.556039 2.886806 4.970619 3.928713 3.928713 
C 4.970619 2.886806 5.556039 1.473479 5.556039 0 
C 5.556039 -1.473479 4.970619 -2.886806 3.928713 -3.928713 
C 2.886806 -4.970619 1.473479 -5.556039 0 -5.556039 
C -1.473479 -5.556039 -2.886806 -4.970619 -3.928713 -3.928713 
C -4.970619 -2.886806 -5.556039 -1.473479 -5.556039 0 
C -5.556039 1.473479 -4.970619 2.886806 -3.928713 3.928713 
C -2.886806 4.970619 -1.473479 5.556039 0 5.556039 
z
" style="stroke: #333333"/>
    </defs>
    <g>
     <use xlink:href="#m8d7dbd5f6a" x="369.11875" y="238.985938" style="fill: #333333; stroke: #333333"/>
    </g>
   </g>
   <g id="text_27">
    <!-- 100 -->
    <g transform="translate(387.11875 241.610938) scale(0.1 -0.1)">
     <use xlink:href="#DejaVuSans-31"/>
     <use xlink:href="#DejaVuSans-30" x="63.623047"/>
     <use xlink:href="#DejaVuSans-30" x="127.246094"/>
    </g>
   </g>
   <g id="PathCollection_25">
    <defs>
     <path id="mfdf6fa0b7d" d="M 0 6.722918 
C 1.782939 6.722918 3.493093 6.014549 4.753821 4.753821 
C 6.014549 3.493093 6.722918 1.782939 6.722918 0 
C 6.722918 -1.782939 6.014549 -3.493093 4.753821 -4.753821 
C 3.493093 -6.014549 1.782939 -6.722918 0 -6.722918 
C -1.782939 -6.722918 -3.493093 -6.014549 -4.753821 -4.753821 
C -6.014549 -3.493093 -6.722918 -1.782939 -6.722918 0 
C -6.722918 1.782939 -6.014549 3.493093 -4.753821 4.753821 
C -3.493093 6.014549 -1.782939 6.722918 0 6.722918 
z
" style="stroke: #333333"/>
    </defs>
    <g>
     <use xlink:href="#mfdf6fa0b7d" x="369.11875" y="253.664062" style="fill: #333333; stroke: #333333"/>
    </g>
   </g>
   <g id="text_28">
    <!-- 150 -->
    <g transform="translate(387.11875 256.289062) scale(0.1 -0.1)">
     <use xlink:href="#DejaVuSans-31"/>
     <use xlink:href="#DejaVuSans-35" x="63.623047"/>
     <use xlink:href="#DejaVuSans-30" x="127.246094"/>
    </g>
   </g>
   <g id="PathCollection_26">
    <defs>
     <path id="m5db7b8caec" d="M 0 7.715289 
C 2.046119 7.715289 4.008709 6.902358 5.455534 5.455534 
C 6.902358 4.008709 7.715289 2.046119 7.715289 0 
C 7.715289 -2.046119 6.902358 -4.008709 5.455534 -5.455534 
C 4.008709 -6.902358 2.046119 -7.715289 0 -7.715289 
C -2.046119 -7.715289 -4.008709 -6.902358 -5.455534 -5.455534 
C -6.902358 -4.008709 -7.715289 -2.046119 -7.715289 0 
C -7.715289 2.046119 -6.902358 4.008709 -5.455534 5.455534 
C -4.008709 6.902358 -2.046119 7.715289 0 7.715289 
z
" style="stroke: #333333"/>
    </defs>
    <g>
     <use xlink:href="#m5db7b8caec" x="369.11875" y="268.342188" style="fill: #333333; stroke: #333333"/>
    </g>
   </g>
   <g id="text_29">
    <!-- 200 -->
    <g transform="translate(387.11875 270.967188) scale(0.1 -0.1)">
     <use xlink:href="#DejaVuSans-32"/>
     <use xlink:href="#DejaVuSans-30" x="63.623047"/>
     <use xlink:href="#DejaVuSans-30" x="127.246094"/>
    </g>
   </g>
   <g id="PathCollection_27">
    <defs>
     <path id="me750a0e3d4" d="M 0 8.593821 
C 2.279108 8.593821 4.465176 7.688322 6.076749 6.076749 
C 7.688322 4.465176 8.593821 2.279108 8.593821 0 
C 8.593821 -2.279108 7.688322 -4.465176 6.076749 -6.076749 
C 4.465176 -7.688322 2.279108 -8.593821 0 -8.593821 
C -2.279108 -8.593821 -4.465176 -7.688322 -6.076749 -6.076749 
C -7.688322 -4.465176 -8.593821 -2.279108 -8.593821 0 
C -8.593821 2.279108 -7.688322 4.465176 -6.076749 6.076749 
C -4.465176 7.688322 -2.279108 8.593821 0 8.593821 
z
" style="stroke: #333333"/>
    </defs>
    <g>
     <use xlink:href="#me750a0e3d4" x="369.11875" y="283.020312" style="fill: #333333; stroke: #333333"/>
    </g>
   </g>
   <g id="text_30">
    <!-- 250 -->
    <g transform="translate(387.11875 285.645312) scale(0.1 -0.1)">
     <use xlink:href="#DejaVuSans-32"/>
     <use xlink:href="#DejaVuSans-35" x="63.623047"/>
     <use xlink:href="#DejaVuSans-30" x="127.246094"/>
    </g>
   </g>
  </g>
 </g>
 <defs>
  <clipPath id="pb0c81ff3e1">
   <rect x="84.878925" y="10.8" width="269.464575" height="307.24"/>
  </clipPath>
 </defs>
</svg>
