<?xml version="1.0" encoding="utf-8" standalone="no"?>
<!DOCTYPE svg PUBLIC "-//W3C//DTD SVG 1.1//EN"
  "http://www.w3.org/Graphics/SVG/1.1/DTD/svg11.dtd">
<svg xmlns:xlink="http://www.w3.org/1999/xlink" width="396pt" height="317.52pt" viewBox="0 0 396 317.52" xmlns="http://www.w3.org/2000/svg" version="1.1">
 <metadata>
  <rdf:RDF xmlns:dc="http://purl.org/dc/elements/1.1/" xmlns:cc="http://creativecommons.org/ns#" xmlns:rdf="http://www.w3.org/1999/02/22-rdf-syntax-ns#">
   <cc:Work>
    <dc:type rdf:resource="http://purl.org/dc/dcmitype/StillImage"/>
    <dc:date>2023-06-15T10:33:33.332994</dc:date>
    <dc:format>image/svg+xml</dc:format>
    <dc:creator>
     <cc:Agent>
      <dc:title>Matplotlib v3.7.1, https://matplotlib.org/</dc:title>
     </cc:Agent>
    </dc:creator>
   </cc:Work>
  </rdf:RDF>
 </metadata>
 <defs>
  <style type="text/css">*{stroke-linejoin: round; stroke-linecap: butt}</style>
 </defs>
 <g id="figure_1">
  <g id="patch_1">
   <path d="M 0 317.52 
L 396 317.52 
L 396 0 
L 0 0 
L 0 317.52 
z
" style="fill: none"/>
  </g>
  <g id="axes_1">
   <g id="patch_2">
    <path d="M 235.558125 291.423825 
L 362.865879 291.423825 
L 362.865879 7.1442 
L 235.558125 7.1442 
L 235.558125 291.423825 
z
" style="fill: none"/>
   </g>
   <g id="matplotlib.axis_1">
    <g id="xtick_1">
     <g id="line2d_1">
      <path d="M 238.006351 291.423825 
L 238.006351 7.1442 
" clip-path="url(#p247e0b11dc)" style="fill: none; stroke: #cccccc; stroke-linecap: round"/>
     </g>
     <g id="text_1">
      <!-- Cyclic peptides -->
      <g style="fill: #262626" transform="translate(240.852601 374.897106) rotate(-90) scale(0.11 -0.11)">
       <defs>
        <path id="ArialMT-43" d="M 3763 1606 
L 4369 1453 
Q 4178 706 3683 314 
Q 3188 -78 2472 -78 
Q 1731 -78 1267 223 
Q 803 525 561 1097 
Q 319 1669 319 2325 
Q 319 3041 592 3573 
Q 866 4106 1370 4382 
Q 1875 4659 2481 4659 
Q 3169 4659 3637 4309 
Q 4106 3959 4291 3325 
L 3694 3184 
Q 3534 3684 3231 3912 
Q 2928 4141 2469 4141 
Q 1941 4141 1586 3887 
Q 1231 3634 1087 3207 
Q 944 2781 944 2328 
Q 944 1744 1114 1308 
Q 1284 872 1643 656 
Q 2003 441 2422 441 
Q 2931 441 3284 734 
Q 3638 1028 3763 1606 
z
" transform="scale(0.015625)"/>
        <path id="ArialMT-79" d="M 397 -1278 
L 334 -750 
Q 519 -800 656 -800 
Q 844 -800 956 -737 
Q 1069 -675 1141 -563 
Q 1194 -478 1313 -144 
Q 1328 -97 1363 -6 
L 103 3319 
L 709 3319 
L 1400 1397 
Q 1534 1031 1641 628 
Q 1738 1016 1872 1384 
L 2581 3319 
L 3144 3319 
L 1881 -56 
Q 1678 -603 1566 -809 
Q 1416 -1088 1222 -1217 
Q 1028 -1347 759 -1347 
Q 597 -1347 397 -1278 
z
" transform="scale(0.015625)"/>
        <path id="ArialMT-63" d="M 2588 1216 
L 3141 1144 
Q 3050 572 2676 248 
Q 2303 -75 1759 -75 
Q 1078 -75 664 370 
Q 250 816 250 1647 
Q 250 2184 428 2587 
Q 606 2991 970 3192 
Q 1334 3394 1763 3394 
Q 2303 3394 2647 3120 
Q 2991 2847 3088 2344 
L 2541 2259 
Q 2463 2594 2264 2762 
Q 2066 2931 1784 2931 
Q 1359 2931 1093 2626 
Q 828 2322 828 1663 
Q 828 994 1084 691 
Q 1341 388 1753 388 
Q 2084 388 2306 591 
Q 2528 794 2588 1216 
z
" transform="scale(0.015625)"/>
        <path id="ArialMT-6c" d="M 409 0 
L 409 4581 
L 972 4581 
L 972 0 
L 409 0 
z
" transform="scale(0.015625)"/>
        <path id="ArialMT-69" d="M 425 3934 
L 425 4581 
L 988 4581 
L 988 3934 
L 425 3934 
z
M 425 0 
L 425 3319 
L 988 3319 
L 988 0 
L 425 0 
z
" transform="scale(0.015625)"/>
        <path id="ArialMT-20" transform="scale(0.015625)"/>
        <path id="ArialMT-70" d="M 422 -1272 
L 422 3319 
L 934 3319 
L 934 2888 
Q 1116 3141 1344 3267 
Q 1572 3394 1897 3394 
Q 2322 3394 2647 3175 
Q 2972 2956 3137 2557 
Q 3303 2159 3303 1684 
Q 3303 1175 3120 767 
Q 2938 359 2589 142 
Q 2241 -75 1856 -75 
Q 1575 -75 1351 44 
Q 1128 163 984 344 
L 984 -1272 
L 422 -1272 
z
M 931 1641 
Q 931 1000 1190 694 
Q 1450 388 1819 388 
Q 2194 388 2461 705 
Q 2728 1022 2728 1688 
Q 2728 2322 2467 2637 
Q 2206 2953 1844 2953 
Q 1484 2953 1207 2617 
Q 931 2281 931 1641 
z
" transform="scale(0.015625)"/>
        <path id="ArialMT-65" d="M 2694 1069 
L 3275 997 
Q 3138 488 2766 206 
Q 2394 -75 1816 -75 
Q 1088 -75 661 373 
Q 234 822 234 1631 
Q 234 2469 665 2931 
Q 1097 3394 1784 3394 
Q 2450 3394 2872 2941 
Q 3294 2488 3294 1666 
Q 3294 1616 3291 1516 
L 816 1516 
Q 847 969 1125 678 
Q 1403 388 1819 388 
Q 2128 388 2347 550 
Q 2566 713 2694 1069 
z
M 847 1978 
L 2700 1978 
Q 2663 2397 2488 2606 
Q 2219 2931 1791 2931 
Q 1403 2931 1139 2672 
Q 875 2413 847 1978 
z
" transform="scale(0.015625)"/>
        <path id="ArialMT-74" d="M 1650 503 
L 1731 6 
Q 1494 -44 1306 -44 
Q 1000 -44 831 53 
Q 663 150 594 308 
Q 525 466 525 972 
L 525 2881 
L 113 2881 
L 113 3319 
L 525 3319 
L 525 4141 
L 1084 4478 
L 1084 3319 
L 1650 3319 
L 1650 2881 
L 1084 2881 
L 1084 941 
Q 1084 700 1114 631 
Q 1144 563 1211 522 
Q 1278 481 1403 481 
Q 1497 481 1650 503 
z
" transform="scale(0.015625)"/>
        <path id="ArialMT-64" d="M 2575 0 
L 2575 419 
Q 2259 -75 1647 -75 
Q 1250 -75 917 144 
Q 584 363 401 755 
Q 219 1147 219 1656 
Q 219 2153 384 2558 
Q 550 2963 881 3178 
Q 1213 3394 1622 3394 
Q 1922 3394 2156 3267 
Q 2391 3141 2538 2938 
L 2538 4581 
L 3097 4581 
L 3097 0 
L 2575 0 
z
M 797 1656 
Q 797 1019 1065 703 
Q 1334 388 1700 388 
Q 2069 388 2326 689 
Q 2584 991 2584 1609 
Q 2584 2291 2321 2609 
Q 2059 2928 1675 2928 
Q 1300 2928 1048 2622 
Q 797 2316 797 1656 
z
" transform="scale(0.015625)"/>
        <path id="ArialMT-73" d="M 197 991 
L 753 1078 
Q 800 744 1014 566 
Q 1228 388 1613 388 
Q 2000 388 2187 545 
Q 2375 703 2375 916 
Q 2375 1106 2209 1216 
Q 2094 1291 1634 1406 
Q 1016 1563 777 1677 
Q 538 1791 414 1992 
Q 291 2194 291 2438 
Q 291 2659 392 2848 
Q 494 3038 669 3163 
Q 800 3259 1026 3326 
Q 1253 3394 1513 3394 
Q 1903 3394 2198 3281 
Q 2494 3169 2634 2976 
Q 2775 2784 2828 2463 
L 2278 2388 
Q 2241 2644 2061 2787 
Q 1881 2931 1553 2931 
Q 1166 2931 1000 2803 
Q 834 2675 834 2503 
Q 834 2394 903 2306 
Q 972 2216 1119 2156 
Q 1203 2125 1616 2013 
Q 2213 1853 2448 1751 
Q 2684 1650 2818 1456 
Q 2953 1263 2953 975 
Q 2953 694 2789 445 
Q 2625 197 2315 61 
Q 2006 -75 1616 -75 
Q 969 -75 630 194 
Q 291 463 197 991 
z
" transform="scale(0.015625)"/>
       </defs>
       <use xlink:href="#ArialMT-43"/>
       <use xlink:href="#ArialMT-79" x="72.216797"/>
       <use xlink:href="#ArialMT-63" x="122.216797"/>
       <use xlink:href="#ArialMT-6c" x="172.216797"/>
       <use xlink:href="#ArialMT-69" x="194.433594"/>
       <use xlink:href="#ArialMT-63" x="216.650391"/>
       <use xlink:href="#ArialMT-20" x="266.650391"/>
       <use xlink:href="#ArialMT-70" x="294.433594"/>
       <use xlink:href="#ArialMT-65" x="350.048828"/>
       <use xlink:href="#ArialMT-70" x="405.664062"/>
       <use xlink:href="#ArialMT-74" x="461.279297"/>
       <use xlink:href="#ArialMT-69" x="489.0625"/>
       <use xlink:href="#ArialMT-64" x="511.279297"/>
       <use xlink:href="#ArialMT-65" x="566.894531"/>
       <use xlink:href="#ArialMT-73" x="622.509766"/>
      </g>
     </g>
    </g>
    <g id="xtick_2">
     <g id="line2d_2">
      <path d="M 278.810118 291.423825 
L 278.810118 7.1442 
" clip-path="url(#p247e0b11dc)" style="fill: none; stroke: #cccccc; stroke-linecap: round"/>
     </g>
     <g id="text_2">
      <!-- RiPPs -->
      <g style="fill: #262626" transform="translate(281.65379 331.486637) rotate(-90) scale(0.11 -0.11)">
       <defs>
        <path id="ArialMT-52" d="M 503 0 
L 503 4581 
L 2534 4581 
Q 3147 4581 3465 4457 
Q 3784 4334 3975 4021 
Q 4166 3709 4166 3331 
Q 4166 2844 3850 2509 
Q 3534 2175 2875 2084 
Q 3116 1969 3241 1856 
Q 3506 1613 3744 1247 
L 4541 0 
L 3778 0 
L 3172 953 
Q 2906 1366 2734 1584 
Q 2563 1803 2427 1890 
Q 2291 1978 2150 2013 
Q 2047 2034 1813 2034 
L 1109 2034 
L 1109 0 
L 503 0 
z
M 1109 2559 
L 2413 2559 
Q 2828 2559 3062 2645 
Q 3297 2731 3419 2920 
Q 3541 3109 3541 3331 
Q 3541 3656 3305 3865 
Q 3069 4075 2559 4075 
L 1109 4075 
L 1109 2559 
z
" transform="scale(0.015625)"/>
        <path id="ArialMT-50" d="M 494 0 
L 494 4581 
L 2222 4581 
Q 2678 4581 2919 4538 
Q 3256 4481 3484 4323 
Q 3713 4166 3852 3881 
Q 3991 3597 3991 3256 
Q 3991 2672 3619 2267 
Q 3247 1863 2275 1863 
L 1100 1863 
L 1100 0 
L 494 0 
z
M 1100 2403 
L 2284 2403 
Q 2872 2403 3119 2622 
Q 3366 2841 3366 3238 
Q 3366 3525 3220 3729 
Q 3075 3934 2838 4000 
Q 2684 4041 2272 4041 
L 1100 4041 
L 1100 2403 
z
" transform="scale(0.015625)"/>
       </defs>
       <use xlink:href="#ArialMT-52"/>
       <use xlink:href="#ArialMT-69" x="72.216797"/>
       <use xlink:href="#ArialMT-50" x="94.433594"/>
       <use xlink:href="#ArialMT-50" x="161.132812"/>
       <use xlink:href="#ArialMT-73" x="227.832031"/>
      </g>
     </g>
    </g>
    <g id="xtick_3">
     <g id="line2d_3">
      <path d="M 319.613886 291.423825 
L 319.613886 7.1442 
" clip-path="url(#p247e0b11dc)" style="fill: none; stroke: #cccccc; stroke-linecap: round"/>
     </g>
     <g id="text_3">
      <!-- Depsipeptides -->
      <g style="fill: #262626" transform="translate(322.457558 370.631169) rotate(-90) scale(0.11 -0.11)">
       <defs>
        <path id="ArialMT-44" d="M 494 0 
L 494 4581 
L 2072 4581 
Q 2606 4581 2888 4516 
Q 3281 4425 3559 4188 
Q 3922 3881 4101 3404 
Q 4281 2928 4281 2316 
Q 4281 1794 4159 1391 
Q 4038 988 3847 723 
Q 3656 459 3429 307 
Q 3203 156 2883 78 
Q 2563 0 2147 0 
L 494 0 
z
M 1100 541 
L 2078 541 
Q 2531 541 2789 625 
Q 3047 709 3200 863 
Q 3416 1078 3536 1442 
Q 3656 1806 3656 2325 
Q 3656 3044 3420 3430 
Q 3184 3816 2847 3947 
Q 2603 4041 2063 4041 
L 1100 4041 
L 1100 541 
z
" transform="scale(0.015625)"/>
       </defs>
       <use xlink:href="#ArialMT-44"/>
       <use xlink:href="#ArialMT-65" x="72.216797"/>
       <use xlink:href="#ArialMT-70" x="127.832031"/>
       <use xlink:href="#ArialMT-73" x="183.447266"/>
       <use xlink:href="#ArialMT-69" x="233.447266"/>
       <use xlink:href="#ArialMT-70" x="255.664062"/>
       <use xlink:href="#ArialMT-65" x="311.279297"/>
       <use xlink:href="#ArialMT-70" x="366.894531"/>
       <use xlink:href="#ArialMT-74" x="422.509766"/>
       <use xlink:href="#ArialMT-69" x="450.292969"/>
       <use xlink:href="#ArialMT-64" x="472.509766"/>
       <use xlink:href="#ArialMT-65" x="528.125"/>
       <use xlink:href="#ArialMT-73" x="583.740234"/>
      </g>
     </g>
    </g>
    <g id="xtick_4">
     <g id="line2d_4">
      <path d="M 360.417653 291.423825 
L 360.417653 7.1442 
" clip-path="url(#p247e0b11dc)" style="fill: none; stroke: #cccccc; stroke-linecap: round"/>
     </g>
     <g id="text_4">
      <!-- Cyanopeptolins -->
      <g style="fill: #262626" transform="translate(363.263903 376.7482) rotate(-90) scale(0.11 -0.11)">
       <defs>
        <path id="ArialMT-61" d="M 2588 409 
Q 2275 144 1986 34 
Q 1697 -75 1366 -75 
Q 819 -75 525 192 
Q 231 459 231 875 
Q 231 1119 342 1320 
Q 453 1522 633 1644 
Q 813 1766 1038 1828 
Q 1203 1872 1538 1913 
Q 2219 1994 2541 2106 
Q 2544 2222 2544 2253 
Q 2544 2597 2384 2738 
Q 2169 2928 1744 2928 
Q 1347 2928 1158 2789 
Q 969 2650 878 2297 
L 328 2372 
Q 403 2725 575 2942 
Q 747 3159 1072 3276 
Q 1397 3394 1825 3394 
Q 2250 3394 2515 3294 
Q 2781 3194 2906 3042 
Q 3031 2891 3081 2659 
Q 3109 2516 3109 2141 
L 3109 1391 
Q 3109 606 3145 398 
Q 3181 191 3288 0 
L 2700 0 
Q 2613 175 2588 409 
z
M 2541 1666 
Q 2234 1541 1622 1453 
Q 1275 1403 1131 1340 
Q 988 1278 909 1158 
Q 831 1038 831 891 
Q 831 666 1001 516 
Q 1172 366 1500 366 
Q 1825 366 2078 508 
Q 2331 650 2450 897 
Q 2541 1088 2541 1459 
L 2541 1666 
z
" transform="scale(0.015625)"/>
        <path id="ArialMT-6e" d="M 422 0 
L 422 3319 
L 928 3319 
L 928 2847 
Q 1294 3394 1984 3394 
Q 2284 3394 2536 3286 
Q 2788 3178 2913 3003 
Q 3038 2828 3088 2588 
Q 3119 2431 3119 2041 
L 3119 0 
L 2556 0 
L 2556 2019 
Q 2556 2363 2490 2533 
Q 2425 2703 2258 2804 
Q 2091 2906 1866 2906 
Q 1506 2906 1245 2678 
Q 984 2450 984 1813 
L 984 0 
L 422 0 
z
" transform="scale(0.015625)"/>
        <path id="ArialMT-6f" d="M 213 1659 
Q 213 2581 725 3025 
Q 1153 3394 1769 3394 
Q 2453 3394 2887 2945 
Q 3322 2497 3322 1706 
Q 3322 1066 3130 698 
Q 2938 331 2570 128 
Q 2203 -75 1769 -75 
Q 1072 -75 642 372 
Q 213 819 213 1659 
z
M 791 1659 
Q 791 1022 1069 705 
Q 1347 388 1769 388 
Q 2188 388 2466 706 
Q 2744 1025 2744 1678 
Q 2744 2294 2464 2611 
Q 2184 2928 1769 2928 
Q 1347 2928 1069 2612 
Q 791 2297 791 1659 
z
" transform="scale(0.015625)"/>
       </defs>
       <use xlink:href="#ArialMT-43"/>
       <use xlink:href="#ArialMT-79" x="72.216797"/>
       <use xlink:href="#ArialMT-61" x="122.216797"/>
       <use xlink:href="#ArialMT-6e" x="177.832031"/>
       <use xlink:href="#ArialMT-6f" x="233.447266"/>
       <use xlink:href="#ArialMT-70" x="289.0625"/>
       <use xlink:href="#ArialMT-65" x="344.677734"/>
       <use xlink:href="#ArialMT-70" x="400.292969"/>
       <use xlink:href="#ArialMT-74" x="455.908203"/>
       <use xlink:href="#ArialMT-6f" x="483.691406"/>
       <use xlink:href="#ArialMT-6c" x="539.306641"/>
       <use xlink:href="#ArialMT-69" x="561.523438"/>
       <use xlink:href="#ArialMT-6e" x="583.740234"/>
       <use xlink:href="#ArialMT-73" x="639.355469"/>
      </g>
     </g>
    </g>
    <g id="text_5">
     <!-- class -->
     <g style="fill: #262626" transform="translate(285.542315 389.337575) scale(0.12 -0.12)">
      <use xlink:href="#ArialMT-63"/>
      <use xlink:href="#ArialMT-6c" x="50"/>
      <use xlink:href="#ArialMT-61" x="72.216797"/>
      <use xlink:href="#ArialMT-73" x="127.832031"/>
      <use xlink:href="#ArialMT-73" x="177.832031"/>
     </g>
    </g>
   </g>
   <g id="matplotlib.axis_2">
    <g id="ytick_1">
     <g id="line2d_5">
      <path d="M 235.558125 12.611116 
L 362.865879 12.611116 
" clip-path="url(#p247e0b11dc)" style="fill: none; stroke: #cccccc; stroke-linecap: round"/>
     </g>
     <g id="text_6">
      <!-- Isomerase -->
      <g style="fill: #262626" transform="translate(174.70875 16.547913) scale(0.11 -0.11)">
       <defs>
        <path id="ArialMT-49" d="M 597 0 
L 597 4581 
L 1203 4581 
L 1203 0 
L 597 0 
z
" transform="scale(0.015625)"/>
        <path id="ArialMT-6d" d="M 422 0 
L 422 3319 
L 925 3319 
L 925 2853 
Q 1081 3097 1340 3245 
Q 1600 3394 1931 3394 
Q 2300 3394 2536 3241 
Q 2772 3088 2869 2813 
Q 3263 3394 3894 3394 
Q 4388 3394 4653 3120 
Q 4919 2847 4919 2278 
L 4919 0 
L 4359 0 
L 4359 2091 
Q 4359 2428 4304 2576 
Q 4250 2725 4106 2815 
Q 3963 2906 3769 2906 
Q 3419 2906 3187 2673 
Q 2956 2441 2956 1928 
L 2956 0 
L 2394 0 
L 2394 2156 
Q 2394 2531 2256 2718 
Q 2119 2906 1806 2906 
Q 1569 2906 1367 2781 
Q 1166 2656 1075 2415 
Q 984 2175 984 1722 
L 984 0 
L 422 0 
z
" transform="scale(0.015625)"/>
        <path id="ArialMT-72" d="M 416 0 
L 416 3319 
L 922 3319 
L 922 2816 
Q 1116 3169 1280 3281 
Q 1444 3394 1641 3394 
Q 1925 3394 2219 3213 
L 2025 2691 
Q 1819 2813 1613 2813 
Q 1428 2813 1281 2702 
Q 1134 2591 1072 2394 
Q 978 2094 978 1738 
L 978 0 
L 416 0 
z
" transform="scale(0.015625)"/>
       </defs>
       <use xlink:href="#ArialMT-49"/>
       <use xlink:href="#ArialMT-73" x="27.783203"/>
       <use xlink:href="#ArialMT-6f" x="77.783203"/>
       <use xlink:href="#ArialMT-6d" x="133.398438"/>
       <use xlink:href="#ArialMT-65" x="216.699219"/>
       <use xlink:href="#ArialMT-72" x="272.314453"/>
       <use xlink:href="#ArialMT-61" x="305.615234"/>
       <use xlink:href="#ArialMT-73" x="361.230469"/>
       <use xlink:href="#ArialMT-65" x="411.230469"/>
      </g>
     </g>
    </g>
    <g id="ytick_2">
     <g id="line2d_6">
      <path d="M 235.558125 30.834169 
L 362.865879 30.834169 
" clip-path="url(#p247e0b11dc)" style="fill: none; stroke: #cccccc; stroke-linecap: round"/>
     </g>
     <g id="text_7">
      <!-- Opioid receptor -->
      <g style="fill: #262626" transform="translate(150.857656 34.841434) scale(0.11 -0.11)">
       <defs>
        <path id="ArialMT-4f" d="M 309 2231 
Q 309 3372 921 4017 
Q 1534 4663 2503 4663 
Q 3138 4663 3647 4359 
Q 4156 4056 4423 3514 
Q 4691 2972 4691 2284 
Q 4691 1588 4409 1038 
Q 4128 488 3612 205 
Q 3097 -78 2500 -78 
Q 1853 -78 1343 234 
Q 834 547 571 1087 
Q 309 1628 309 2231 
z
M 934 2222 
Q 934 1394 1379 917 
Q 1825 441 2497 441 
Q 3181 441 3623 922 
Q 4066 1403 4066 2288 
Q 4066 2847 3877 3264 
Q 3688 3681 3323 3911 
Q 2959 4141 2506 4141 
Q 1863 4141 1398 3698 
Q 934 3256 934 2222 
z
" transform="scale(0.015625)"/>
       </defs>
       <use xlink:href="#ArialMT-4f"/>
       <use xlink:href="#ArialMT-70" x="77.783203"/>
       <use xlink:href="#ArialMT-69" x="133.398438"/>
       <use xlink:href="#ArialMT-6f" x="155.615234"/>
       <use xlink:href="#ArialMT-69" x="211.230469"/>
       <use xlink:href="#ArialMT-64" x="233.447266"/>
       <use xlink:href="#ArialMT-20" x="289.0625"/>
       <use xlink:href="#ArialMT-72" x="316.845703"/>
       <use xlink:href="#ArialMT-65" x="350.146484"/>
       <use xlink:href="#ArialMT-63" x="405.761719"/>
       <use xlink:href="#ArialMT-65" x="455.761719"/>
       <use xlink:href="#ArialMT-70" x="511.376953"/>
       <use xlink:href="#ArialMT-74" x="566.992188"/>
       <use xlink:href="#ArialMT-6f" x="594.775391"/>
       <use xlink:href="#ArialMT-72" x="650.390625"/>
      </g>
     </g>
    </g>
    <g id="ytick_3">
     <g id="line2d_7">
      <path d="M 235.558125 49.057222 
L 362.865879 49.057222 
" clip-path="url(#p247e0b11dc)" style="fill: none; stroke: #cccccc; stroke-linecap: round"/>
     </g>
     <g id="text_8">
      <!-- HDAC class I -->
      <g style="fill: #262626" transform="translate(160.659687 52.994019) scale(0.11 -0.11)">
       <defs>
        <path id="ArialMT-48" d="M 513 0 
L 513 4581 
L 1119 4581 
L 1119 2700 
L 3500 2700 
L 3500 4581 
L 4106 4581 
L 4106 0 
L 3500 0 
L 3500 2159 
L 1119 2159 
L 1119 0 
L 513 0 
z
" transform="scale(0.015625)"/>
        <path id="ArialMT-41" d="M -9 0 
L 1750 4581 
L 2403 4581 
L 4278 0 
L 3588 0 
L 3053 1388 
L 1138 1388 
L 634 0 
L -9 0 
z
M 1313 1881 
L 2866 1881 
L 2388 3150 
Q 2169 3728 2063 4100 
Q 1975 3659 1816 3225 
L 1313 1881 
z
" transform="scale(0.015625)"/>
       </defs>
       <use xlink:href="#ArialMT-48"/>
       <use xlink:href="#ArialMT-44" x="72.216797"/>
       <use xlink:href="#ArialMT-41" x="144.433594"/>
       <use xlink:href="#ArialMT-43" x="211.132812"/>
       <use xlink:href="#ArialMT-20" x="283.349609"/>
       <use xlink:href="#ArialMT-63" x="311.132812"/>
       <use xlink:href="#ArialMT-6c" x="361.132812"/>
       <use xlink:href="#ArialMT-61" x="383.349609"/>
       <use xlink:href="#ArialMT-73" x="438.964844"/>
       <use xlink:href="#ArialMT-73" x="488.964844"/>
       <use xlink:href="#ArialMT-20" x="538.964844"/>
       <use xlink:href="#ArialMT-49" x="566.748047"/>
      </g>
     </g>
    </g>
    <g id="ytick_4">
     <g id="line2d_8">
      <path d="M 235.558125 67.280275 
L 362.865879 67.280275 
" clip-path="url(#p247e0b11dc)" style="fill: none; stroke: #cccccc; stroke-linecap: round"/>
     </g>
     <g id="text_9">
      <!-- Metallo protease M14A subfamily -->
      <g style="fill: #262626" transform="translate(64.041875 71.284103) scale(0.11 -0.11)">
       <defs>
        <path id="ArialMT-4d" d="M 475 0 
L 475 4581 
L 1388 4581 
L 2472 1338 
Q 2622 884 2691 659 
Q 2769 909 2934 1394 
L 4031 4581 
L 4847 4581 
L 4847 0 
L 4263 0 
L 4263 3834 
L 2931 0 
L 2384 0 
L 1059 3900 
L 1059 0 
L 475 0 
z
" transform="scale(0.015625)"/>
        <path id="ArialMT-31" d="M 2384 0 
L 1822 0 
L 1822 3584 
Q 1619 3391 1289 3197 
Q 959 3003 697 2906 
L 697 3450 
Q 1169 3672 1522 3987 
Q 1875 4303 2022 4600 
L 2384 4600 
L 2384 0 
z
" transform="scale(0.015625)"/>
        <path id="ArialMT-34" d="M 2069 0 
L 2069 1097 
L 81 1097 
L 81 1613 
L 2172 4581 
L 2631 4581 
L 2631 1613 
L 3250 1613 
L 3250 1097 
L 2631 1097 
L 2631 0 
L 2069 0 
z
M 2069 1613 
L 2069 3678 
L 634 1613 
L 2069 1613 
z
" transform="scale(0.015625)"/>
        <path id="ArialMT-75" d="M 2597 0 
L 2597 488 
Q 2209 -75 1544 -75 
Q 1250 -75 995 37 
Q 741 150 617 320 
Q 494 491 444 738 
Q 409 903 409 1263 
L 409 3319 
L 972 3319 
L 972 1478 
Q 972 1038 1006 884 
Q 1059 663 1231 536 
Q 1403 409 1656 409 
Q 1909 409 2131 539 
Q 2353 669 2445 892 
Q 2538 1116 2538 1541 
L 2538 3319 
L 3100 3319 
L 3100 0 
L 2597 0 
z
" transform="scale(0.015625)"/>
        <path id="ArialMT-62" d="M 941 0 
L 419 0 
L 419 4581 
L 981 4581 
L 981 2947 
Q 1338 3394 1891 3394 
Q 2197 3394 2470 3270 
Q 2744 3147 2920 2923 
Q 3097 2700 3197 2384 
Q 3297 2069 3297 1709 
Q 3297 856 2875 390 
Q 2453 -75 1863 -75 
Q 1275 -75 941 416 
L 941 0 
z
M 934 1684 
Q 934 1088 1097 822 
Q 1363 388 1816 388 
Q 2184 388 2453 708 
Q 2722 1028 2722 1663 
Q 2722 2313 2464 2622 
Q 2206 2931 1841 2931 
Q 1472 2931 1203 2611 
Q 934 2291 934 1684 
z
" transform="scale(0.015625)"/>
        <path id="ArialMT-66" d="M 556 0 
L 556 2881 
L 59 2881 
L 59 3319 
L 556 3319 
L 556 3672 
Q 556 4006 616 4169 
Q 697 4388 901 4523 
Q 1106 4659 1475 4659 
Q 1713 4659 2000 4603 
L 1916 4113 
Q 1741 4144 1584 4144 
Q 1328 4144 1222 4034 
Q 1116 3925 1116 3625 
L 1116 3319 
L 1763 3319 
L 1763 2881 
L 1116 2881 
L 1116 0 
L 556 0 
z
" transform="scale(0.015625)"/>
       </defs>
       <use xlink:href="#ArialMT-4d"/>
       <use xlink:href="#ArialMT-65" x="83.300781"/>
       <use xlink:href="#ArialMT-74" x="138.916016"/>
       <use xlink:href="#ArialMT-61" x="166.699219"/>
       <use xlink:href="#ArialMT-6c" x="222.314453"/>
       <use xlink:href="#ArialMT-6c" x="244.53125"/>
       <use xlink:href="#ArialMT-6f" x="266.748047"/>
       <use xlink:href="#ArialMT-20" x="322.363281"/>
       <use xlink:href="#ArialMT-70" x="350.146484"/>
       <use xlink:href="#ArialMT-72" x="405.761719"/>
       <use xlink:href="#ArialMT-6f" x="439.0625"/>
       <use xlink:href="#ArialMT-74" x="494.677734"/>
       <use xlink:href="#ArialMT-65" x="522.460938"/>
       <use xlink:href="#ArialMT-61" x="578.076172"/>
       <use xlink:href="#ArialMT-73" x="633.691406"/>
       <use xlink:href="#ArialMT-65" x="683.691406"/>
       <use xlink:href="#ArialMT-20" x="739.306641"/>
       <use xlink:href="#ArialMT-4d" x="767.089844"/>
       <use xlink:href="#ArialMT-31" x="850.390625"/>
       <use xlink:href="#ArialMT-34" x="906.005859"/>
       <use xlink:href="#ArialMT-41" x="961.621094"/>
       <use xlink:href="#ArialMT-20" x="1022.820312"/>
       <use xlink:href="#ArialMT-73" x="1050.603516"/>
       <use xlink:href="#ArialMT-75" x="1100.603516"/>
       <use xlink:href="#ArialMT-62" x="1156.21875"/>
       <use xlink:href="#ArialMT-66" x="1211.833984"/>
       <use xlink:href="#ArialMT-61" x="1239.617188"/>
       <use xlink:href="#ArialMT-6d" x="1295.232422"/>
       <use xlink:href="#ArialMT-69" x="1378.533203"/>
       <use xlink:href="#ArialMT-6c" x="1400.75"/>
       <use xlink:href="#ArialMT-79" x="1422.966797"/>
      </g>
     </g>
    </g>
    <g id="ytick_5">
     <g id="line2d_9">
      <path d="M 235.558125 85.503327 
L 362.865879 85.503327 
" clip-path="url(#p247e0b11dc)" style="fill: none; stroke: #cccccc; stroke-linecap: round"/>
     </g>
     <g id="text_10">
      <!-- Protein phosphatase regulatory subunit -->
      <g style="fill: #262626" transform="translate(34.668437 89.440124) scale(0.11 -0.11)">
       <defs>
        <path id="ArialMT-68" d="M 422 0 
L 422 4581 
L 984 4581 
L 984 2938 
Q 1378 3394 1978 3394 
Q 2347 3394 2619 3248 
Q 2891 3103 3008 2847 
Q 3125 2591 3125 2103 
L 3125 0 
L 2563 0 
L 2563 2103 
Q 2563 2525 2380 2717 
Q 2197 2909 1863 2909 
Q 1613 2909 1392 2779 
Q 1172 2650 1078 2428 
Q 984 2206 984 1816 
L 984 0 
L 422 0 
z
" transform="scale(0.015625)"/>
        <path id="ArialMT-67" d="M 319 -275 
L 866 -356 
Q 900 -609 1056 -725 
Q 1266 -881 1628 -881 
Q 2019 -881 2231 -725 
Q 2444 -569 2519 -288 
Q 2563 -116 2559 434 
Q 2191 0 1641 0 
Q 956 0 581 494 
Q 206 988 206 1678 
Q 206 2153 378 2554 
Q 550 2956 876 3175 
Q 1203 3394 1644 3394 
Q 2231 3394 2613 2919 
L 2613 3319 
L 3131 3319 
L 3131 450 
Q 3131 -325 2973 -648 
Q 2816 -972 2473 -1159 
Q 2131 -1347 1631 -1347 
Q 1038 -1347 672 -1080 
Q 306 -813 319 -275 
z
M 784 1719 
Q 784 1066 1043 766 
Q 1303 466 1694 466 
Q 2081 466 2343 764 
Q 2606 1063 2606 1700 
Q 2606 2309 2336 2618 
Q 2066 2928 1684 2928 
Q 1309 2928 1046 2623 
Q 784 2319 784 1719 
z
" transform="scale(0.015625)"/>
       </defs>
       <use xlink:href="#ArialMT-50"/>
       <use xlink:href="#ArialMT-72" x="66.699219"/>
       <use xlink:href="#ArialMT-6f" x="100"/>
       <use xlink:href="#ArialMT-74" x="155.615234"/>
       <use xlink:href="#ArialMT-65" x="183.398438"/>
       <use xlink:href="#ArialMT-69" x="239.013672"/>
       <use xlink:href="#ArialMT-6e" x="261.230469"/>
       <use xlink:href="#ArialMT-20" x="316.845703"/>
       <use xlink:href="#ArialMT-70" x="344.628906"/>
       <use xlink:href="#ArialMT-68" x="400.244141"/>
       <use xlink:href="#ArialMT-6f" x="455.859375"/>
       <use xlink:href="#ArialMT-73" x="511.474609"/>
       <use xlink:href="#ArialMT-70" x="561.474609"/>
       <use xlink:href="#ArialMT-68" x="617.089844"/>
       <use xlink:href="#ArialMT-61" x="672.705078"/>
       <use xlink:href="#ArialMT-74" x="728.320312"/>
       <use xlink:href="#ArialMT-61" x="756.103516"/>
       <use xlink:href="#ArialMT-73" x="811.71875"/>
       <use xlink:href="#ArialMT-65" x="861.71875"/>
       <use xlink:href="#ArialMT-20" x="917.333984"/>
       <use xlink:href="#ArialMT-72" x="945.117188"/>
       <use xlink:href="#ArialMT-65" x="978.417969"/>
       <use xlink:href="#ArialMT-67" x="1034.033203"/>
       <use xlink:href="#ArialMT-75" x="1089.648438"/>
       <use xlink:href="#ArialMT-6c" x="1145.263672"/>
       <use xlink:href="#ArialMT-61" x="1167.480469"/>
       <use xlink:href="#ArialMT-74" x="1223.095703"/>
       <use xlink:href="#ArialMT-6f" x="1250.878906"/>
       <use xlink:href="#ArialMT-72" x="1306.494141"/>
       <use xlink:href="#ArialMT-79" x="1339.794922"/>
       <use xlink:href="#ArialMT-20" x="1389.794922"/>
       <use xlink:href="#ArialMT-73" x="1417.578125"/>
       <use xlink:href="#ArialMT-75" x="1467.578125"/>
       <use xlink:href="#ArialMT-62" x="1523.193359"/>
       <use xlink:href="#ArialMT-75" x="1578.808594"/>
       <use xlink:href="#ArialMT-6e" x="1634.423828"/>
       <use xlink:href="#ArialMT-69" x="1690.039062"/>
       <use xlink:href="#ArialMT-74" x="1712.255859"/>
      </g>
     </g>
    </g>
    <g id="ytick_6">
     <g id="line2d_10">
      <path d="M 235.558125 103.72638 
L 362.865879 103.72638 
" clip-path="url(#p247e0b11dc)" style="fill: none; stroke: #cccccc; stroke-linecap: round"/>
     </g>
     <g id="text_11">
      <!-- Serine/threonine protein phosphatase -->
      <g style="fill: #262626" transform="translate(42.607344 107.730208) scale(0.11 -0.11)">
       <defs>
        <path id="ArialMT-53" d="M 288 1472 
L 859 1522 
Q 900 1178 1048 958 
Q 1197 738 1509 602 
Q 1822 466 2213 466 
Q 2559 466 2825 569 
Q 3091 672 3220 851 
Q 3350 1031 3350 1244 
Q 3350 1459 3225 1620 
Q 3100 1781 2813 1891 
Q 2628 1963 1997 2114 
Q 1366 2266 1113 2400 
Q 784 2572 623 2826 
Q 463 3081 463 3397 
Q 463 3744 659 4045 
Q 856 4347 1234 4503 
Q 1613 4659 2075 4659 
Q 2584 4659 2973 4495 
Q 3363 4331 3572 4012 
Q 3781 3694 3797 3291 
L 3216 3247 
Q 3169 3681 2898 3903 
Q 2628 4125 2100 4125 
Q 1550 4125 1298 3923 
Q 1047 3722 1047 3438 
Q 1047 3191 1225 3031 
Q 1400 2872 2139 2705 
Q 2878 2538 3153 2413 
Q 3553 2228 3743 1945 
Q 3934 1663 3934 1294 
Q 3934 928 3725 604 
Q 3516 281 3123 101 
Q 2731 -78 2241 -78 
Q 1619 -78 1198 103 
Q 778 284 539 648 
Q 300 1013 288 1472 
z
" transform="scale(0.015625)"/>
        <path id="ArialMT-2f" d="M 0 -78 
L 1328 4659 
L 1778 4659 
L 453 -78 
L 0 -78 
z
" transform="scale(0.015625)"/>
       </defs>
       <use xlink:href="#ArialMT-53"/>
       <use xlink:href="#ArialMT-65" x="66.699219"/>
       <use xlink:href="#ArialMT-72" x="122.314453"/>
       <use xlink:href="#ArialMT-69" x="155.615234"/>
       <use xlink:href="#ArialMT-6e" x="177.832031"/>
       <use xlink:href="#ArialMT-65" x="233.447266"/>
       <use xlink:href="#ArialMT-2f" x="289.0625"/>
       <use xlink:href="#ArialMT-74" x="316.845703"/>
       <use xlink:href="#ArialMT-68" x="344.628906"/>
       <use xlink:href="#ArialMT-72" x="400.244141"/>
       <use xlink:href="#ArialMT-65" x="433.544922"/>
       <use xlink:href="#ArialMT-6f" x="489.160156"/>
       <use xlink:href="#ArialMT-6e" x="544.775391"/>
       <use xlink:href="#ArialMT-69" x="600.390625"/>
       <use xlink:href="#ArialMT-6e" x="622.607422"/>
       <use xlink:href="#ArialMT-65" x="678.222656"/>
       <use xlink:href="#ArialMT-20" x="733.837891"/>
       <use xlink:href="#ArialMT-70" x="761.621094"/>
       <use xlink:href="#ArialMT-72" x="817.236328"/>
       <use xlink:href="#ArialMT-6f" x="850.537109"/>
       <use xlink:href="#ArialMT-74" x="906.152344"/>
       <use xlink:href="#ArialMT-65" x="933.935547"/>
       <use xlink:href="#ArialMT-69" x="989.550781"/>
       <use xlink:href="#ArialMT-6e" x="1011.767578"/>
       <use xlink:href="#ArialMT-20" x="1067.382812"/>
       <use xlink:href="#ArialMT-70" x="1095.166016"/>
       <use xlink:href="#ArialMT-68" x="1150.78125"/>
       <use xlink:href="#ArialMT-6f" x="1206.396484"/>
       <use xlink:href="#ArialMT-73" x="1262.011719"/>
       <use xlink:href="#ArialMT-70" x="1312.011719"/>
       <use xlink:href="#ArialMT-68" x="1367.626953"/>
       <use xlink:href="#ArialMT-61" x="1423.242188"/>
       <use xlink:href="#ArialMT-74" x="1478.857422"/>
       <use xlink:href="#ArialMT-61" x="1506.640625"/>
       <use xlink:href="#ArialMT-73" x="1562.255859"/>
       <use xlink:href="#ArialMT-65" x="1612.255859"/>
      </g>
     </g>
    </g>
    <g id="ytick_7">
     <g id="line2d_11">
      <path d="M 235.558125 121.949433 
L 362.865879 121.949433 
" clip-path="url(#p247e0b11dc)" style="fill: none; stroke: #cccccc; stroke-linecap: round"/>
     </g>
     <g id="text_12">
      <!-- Vasopressin and oxytocin receptor -->
      <g style="fill: #262626" transform="translate(58.120781 125.88623) scale(0.11 -0.11)">
       <defs>
        <path id="ArialMT-56" d="M 1803 0 
L 28 4581 
L 684 4581 
L 1875 1253 
Q 2019 853 2116 503 
Q 2222 878 2363 1253 
L 3600 4581 
L 4219 4581 
L 2425 0 
L 1803 0 
z
" transform="scale(0.015625)"/>
        <path id="ArialMT-78" d="M 47 0 
L 1259 1725 
L 138 3319 
L 841 3319 
L 1350 2541 
Q 1494 2319 1581 2169 
Q 1719 2375 1834 2534 
L 2394 3319 
L 3066 3319 
L 1919 1756 
L 3153 0 
L 2463 0 
L 1781 1031 
L 1600 1309 
L 728 0 
L 47 0 
z
" transform="scale(0.015625)"/>
       </defs>
       <use xlink:href="#ArialMT-56"/>
       <use xlink:href="#ArialMT-61" x="59.324219"/>
       <use xlink:href="#ArialMT-73" x="114.939453"/>
       <use xlink:href="#ArialMT-6f" x="164.939453"/>
       <use xlink:href="#ArialMT-70" x="220.554688"/>
       <use xlink:href="#ArialMT-72" x="276.169922"/>
       <use xlink:href="#ArialMT-65" x="309.470703"/>
       <use xlink:href="#ArialMT-73" x="365.085938"/>
       <use xlink:href="#ArialMT-73" x="415.085938"/>
       <use xlink:href="#ArialMT-69" x="465.085938"/>
       <use xlink:href="#ArialMT-6e" x="487.302734"/>
       <use xlink:href="#ArialMT-20" x="542.917969"/>
       <use xlink:href="#ArialMT-61" x="570.701172"/>
       <use xlink:href="#ArialMT-6e" x="626.316406"/>
       <use xlink:href="#ArialMT-64" x="681.931641"/>
       <use xlink:href="#ArialMT-20" x="737.546875"/>
       <use xlink:href="#ArialMT-6f" x="765.330078"/>
       <use xlink:href="#ArialMT-78" x="820.945312"/>
       <use xlink:href="#ArialMT-79" x="870.945312"/>
       <use xlink:href="#ArialMT-74" x="920.945312"/>
       <use xlink:href="#ArialMT-6f" x="948.728516"/>
       <use xlink:href="#ArialMT-63" x="1004.34375"/>
       <use xlink:href="#ArialMT-69" x="1054.34375"/>
       <use xlink:href="#ArialMT-6e" x="1076.560547"/>
       <use xlink:href="#ArialMT-20" x="1132.175781"/>
       <use xlink:href="#ArialMT-72" x="1159.958984"/>
       <use xlink:href="#ArialMT-65" x="1193.259766"/>
       <use xlink:href="#ArialMT-63" x="1248.875"/>
       <use xlink:href="#ArialMT-65" x="1298.875"/>
       <use xlink:href="#ArialMT-70" x="1354.490234"/>
       <use xlink:href="#ArialMT-74" x="1410.105469"/>
       <use xlink:href="#ArialMT-6f" x="1437.888672"/>
       <use xlink:href="#ArialMT-72" x="1493.503906"/>
      </g>
     </g>
    </g>
    <g id="ytick_8">
     <g id="line2d_12">
      <path d="M 235.558125 140.172486 
L 362.865879 140.172486 
" clip-path="url(#p247e0b11dc)" style="fill: none; stroke: #cccccc; stroke-linecap: round"/>
     </g>
     <g id="text_13">
      <!-- SLC21/SLCO family of organic anion transporting polypeptides -->
      <g style="fill: #262626" transform="translate(-79.650781 144.179752) scale(0.11 -0.11)">
       <defs>
        <path id="ArialMT-4c" d="M 469 0 
L 469 4581 
L 1075 4581 
L 1075 541 
L 3331 541 
L 3331 0 
L 469 0 
z
" transform="scale(0.015625)"/>
        <path id="ArialMT-32" d="M 3222 541 
L 3222 0 
L 194 0 
Q 188 203 259 391 
Q 375 700 629 1000 
Q 884 1300 1366 1694 
Q 2113 2306 2375 2664 
Q 2638 3022 2638 3341 
Q 2638 3675 2398 3904 
Q 2159 4134 1775 4134 
Q 1369 4134 1125 3890 
Q 881 3647 878 3216 
L 300 3275 
Q 359 3922 746 4261 
Q 1134 4600 1788 4600 
Q 2447 4600 2831 4234 
Q 3216 3869 3216 3328 
Q 3216 3053 3103 2787 
Q 2991 2522 2730 2228 
Q 2469 1934 1863 1422 
Q 1356 997 1212 845 
Q 1069 694 975 541 
L 3222 541 
z
" transform="scale(0.015625)"/>
       </defs>
       <use xlink:href="#ArialMT-53"/>
       <use xlink:href="#ArialMT-4c" x="66.699219"/>
       <use xlink:href="#ArialMT-43" x="122.314453"/>
       <use xlink:href="#ArialMT-32" x="194.53125"/>
       <use xlink:href="#ArialMT-31" x="250.146484"/>
       <use xlink:href="#ArialMT-2f" x="305.761719"/>
       <use xlink:href="#ArialMT-53" x="333.544922"/>
       <use xlink:href="#ArialMT-4c" x="400.244141"/>
       <use xlink:href="#ArialMT-43" x="455.859375"/>
       <use xlink:href="#ArialMT-4f" x="528.076172"/>
       <use xlink:href="#ArialMT-20" x="605.859375"/>
       <use xlink:href="#ArialMT-66" x="633.642578"/>
       <use xlink:href="#ArialMT-61" x="661.425781"/>
       <use xlink:href="#ArialMT-6d" x="717.041016"/>
       <use xlink:href="#ArialMT-69" x="800.341797"/>
       <use xlink:href="#ArialMT-6c" x="822.558594"/>
       <use xlink:href="#ArialMT-79" x="844.775391"/>
       <use xlink:href="#ArialMT-20" x="894.775391"/>
       <use xlink:href="#ArialMT-6f" x="922.558594"/>
       <use xlink:href="#ArialMT-66" x="978.173828"/>
       <use xlink:href="#ArialMT-20" x="1005.957031"/>
       <use xlink:href="#ArialMT-6f" x="1033.740234"/>
       <use xlink:href="#ArialMT-72" x="1089.355469"/>
       <use xlink:href="#ArialMT-67" x="1122.65625"/>
       <use xlink:href="#ArialMT-61" x="1178.271484"/>
       <use xlink:href="#ArialMT-6e" x="1233.886719"/>
       <use xlink:href="#ArialMT-69" x="1289.501953"/>
       <use xlink:href="#ArialMT-63" x="1311.71875"/>
       <use xlink:href="#ArialMT-20" x="1361.71875"/>
       <use xlink:href="#ArialMT-61" x="1389.501953"/>
       <use xlink:href="#ArialMT-6e" x="1445.117188"/>
       <use xlink:href="#ArialMT-69" x="1500.732422"/>
       <use xlink:href="#ArialMT-6f" x="1522.949219"/>
       <use xlink:href="#ArialMT-6e" x="1578.564453"/>
       <use xlink:href="#ArialMT-20" x="1634.179688"/>
       <use xlink:href="#ArialMT-74" x="1661.962891"/>
       <use xlink:href="#ArialMT-72" x="1689.746094"/>
       <use xlink:href="#ArialMT-61" x="1723.046875"/>
       <use xlink:href="#ArialMT-6e" x="1778.662109"/>
       <use xlink:href="#ArialMT-73" x="1834.277344"/>
       <use xlink:href="#ArialMT-70" x="1884.277344"/>
       <use xlink:href="#ArialMT-6f" x="1939.892578"/>
       <use xlink:href="#ArialMT-72" x="1995.507812"/>
       <use xlink:href="#ArialMT-74" x="2028.808594"/>
       <use xlink:href="#ArialMT-69" x="2056.591797"/>
       <use xlink:href="#ArialMT-6e" x="2078.808594"/>
       <use xlink:href="#ArialMT-67" x="2134.423828"/>
       <use xlink:href="#ArialMT-20" x="2190.039062"/>
       <use xlink:href="#ArialMT-70" x="2217.822266"/>
       <use xlink:href="#ArialMT-6f" x="2273.4375"/>
       <use xlink:href="#ArialMT-6c" x="2329.052734"/>
       <use xlink:href="#ArialMT-79" x="2351.269531"/>
       <use xlink:href="#ArialMT-70" x="2401.269531"/>
       <use xlink:href="#ArialMT-65" x="2456.884766"/>
       <use xlink:href="#ArialMT-70" x="2512.5"/>
       <use xlink:href="#ArialMT-74" x="2568.115234"/>
       <use xlink:href="#ArialMT-69" x="2595.898438"/>
       <use xlink:href="#ArialMT-64" x="2618.115234"/>
       <use xlink:href="#ArialMT-65" x="2673.730469"/>
       <use xlink:href="#ArialMT-73" x="2729.345703"/>
      </g>
     </g>
    </g>
    <g id="ytick_9">
     <g id="line2d_13">
      <path d="M 235.558125 158.395539 
L 362.865879 158.395539 
" clip-path="url(#p247e0b11dc)" style="fill: none; stroke: #cccccc; stroke-linecap: round"/>
     </g>
     <g id="text_14">
      <!-- Aspartic protease A1A subfamily -->
      <g style="fill: #262626" transform="translate(68.312969 162.399367) scale(0.11 -0.11)">
       <use xlink:href="#ArialMT-41"/>
       <use xlink:href="#ArialMT-73" x="66.699219"/>
       <use xlink:href="#ArialMT-70" x="116.699219"/>
       <use xlink:href="#ArialMT-61" x="172.314453"/>
       <use xlink:href="#ArialMT-72" x="227.929688"/>
       <use xlink:href="#ArialMT-74" x="261.230469"/>
       <use xlink:href="#ArialMT-69" x="289.013672"/>
       <use xlink:href="#ArialMT-63" x="311.230469"/>
       <use xlink:href="#ArialMT-20" x="361.230469"/>
       <use xlink:href="#ArialMT-70" x="389.013672"/>
       <use xlink:href="#ArialMT-72" x="444.628906"/>
       <use xlink:href="#ArialMT-6f" x="477.929688"/>
       <use xlink:href="#ArialMT-74" x="533.544922"/>
       <use xlink:href="#ArialMT-65" x="561.328125"/>
       <use xlink:href="#ArialMT-61" x="616.943359"/>
       <use xlink:href="#ArialMT-73" x="672.558594"/>
       <use xlink:href="#ArialMT-65" x="722.558594"/>
       <use xlink:href="#ArialMT-20" x="778.173828"/>
       <use xlink:href="#ArialMT-41" x="800.457031"/>
       <use xlink:href="#ArialMT-31" x="867.15625"/>
       <use xlink:href="#ArialMT-41" x="922.771484"/>
       <use xlink:href="#ArialMT-20" x="983.970703"/>
       <use xlink:href="#ArialMT-73" x="1011.753906"/>
       <use xlink:href="#ArialMT-75" x="1061.753906"/>
       <use xlink:href="#ArialMT-62" x="1117.369141"/>
       <use xlink:href="#ArialMT-66" x="1172.984375"/>
       <use xlink:href="#ArialMT-61" x="1200.767578"/>
       <use xlink:href="#ArialMT-6d" x="1256.382812"/>
       <use xlink:href="#ArialMT-69" x="1339.683594"/>
       <use xlink:href="#ArialMT-6c" x="1361.900391"/>
       <use xlink:href="#ArialMT-79" x="1384.117188"/>
      </g>
     </g>
    </g>
    <g id="ytick_10">
     <g id="line2d_14">
      <path d="M 235.558125 176.618592 
L 362.865879 176.618592 
" clip-path="url(#p247e0b11dc)" style="fill: none; stroke: #cccccc; stroke-linecap: round"/>
     </g>
     <g id="text_15">
      <!-- Cysteine protease C1A family -->
      <g style="fill: #262626" transform="translate(81.774219 180.62242) scale(0.11 -0.11)">
       <use xlink:href="#ArialMT-43"/>
       <use xlink:href="#ArialMT-79" x="72.216797"/>
       <use xlink:href="#ArialMT-73" x="122.216797"/>
       <use xlink:href="#ArialMT-74" x="172.216797"/>
       <use xlink:href="#ArialMT-65" x="200"/>
       <use xlink:href="#ArialMT-69" x="255.615234"/>
       <use xlink:href="#ArialMT-6e" x="277.832031"/>
       <use xlink:href="#ArialMT-65" x="333.447266"/>
       <use xlink:href="#ArialMT-20" x="389.0625"/>
       <use xlink:href="#ArialMT-70" x="416.845703"/>
       <use xlink:href="#ArialMT-72" x="472.460938"/>
       <use xlink:href="#ArialMT-6f" x="505.761719"/>
       <use xlink:href="#ArialMT-74" x="561.376953"/>
       <use xlink:href="#ArialMT-65" x="589.160156"/>
       <use xlink:href="#ArialMT-61" x="644.775391"/>
       <use xlink:href="#ArialMT-73" x="700.390625"/>
       <use xlink:href="#ArialMT-65" x="750.390625"/>
       <use xlink:href="#ArialMT-20" x="806.005859"/>
       <use xlink:href="#ArialMT-43" x="833.789062"/>
       <use xlink:href="#ArialMT-31" x="906.005859"/>
       <use xlink:href="#ArialMT-41" x="961.621094"/>
       <use xlink:href="#ArialMT-20" x="1022.820312"/>
       <use xlink:href="#ArialMT-66" x="1050.603516"/>
       <use xlink:href="#ArialMT-61" x="1078.386719"/>
       <use xlink:href="#ArialMT-6d" x="1134.001953"/>
       <use xlink:href="#ArialMT-69" x="1217.302734"/>
       <use xlink:href="#ArialMT-6c" x="1239.519531"/>
       <use xlink:href="#ArialMT-79" x="1261.736328"/>
      </g>
     </g>
    </g>
    <g id="ytick_11">
     <g id="line2d_15">
      <path d="M 235.558125 194.841645 
L 362.865879 194.841645 
" clip-path="url(#p247e0b11dc)" style="fill: none; stroke: #cccccc; stroke-linecap: round"/>
     </g>
     <g id="text_16">
      <!-- Bradykinin receptor -->
      <g style="fill: #262626" transform="translate(131.296562 198.778442) scale(0.11 -0.11)">
       <defs>
        <path id="ArialMT-42" d="M 469 0 
L 469 4581 
L 2188 4581 
Q 2713 4581 3030 4442 
Q 3347 4303 3526 4014 
Q 3706 3725 3706 3409 
Q 3706 3116 3547 2856 
Q 3388 2597 3066 2438 
Q 3481 2316 3704 2022 
Q 3928 1728 3928 1328 
Q 3928 1006 3792 729 
Q 3656 453 3456 303 
Q 3256 153 2954 76 
Q 2653 0 2216 0 
L 469 0 
z
M 1075 2656 
L 2066 2656 
Q 2469 2656 2644 2709 
Q 2875 2778 2992 2937 
Q 3109 3097 3109 3338 
Q 3109 3566 3000 3739 
Q 2891 3913 2687 3977 
Q 2484 4041 1991 4041 
L 1075 4041 
L 1075 2656 
z
M 1075 541 
L 2216 541 
Q 2509 541 2628 563 
Q 2838 600 2978 687 
Q 3119 775 3209 942 
Q 3300 1109 3300 1328 
Q 3300 1584 3169 1773 
Q 3038 1963 2805 2039 
Q 2572 2116 2134 2116 
L 1075 2116 
L 1075 541 
z
" transform="scale(0.015625)"/>
        <path id="ArialMT-6b" d="M 425 0 
L 425 4581 
L 988 4581 
L 988 1969 
L 2319 3319 
L 3047 3319 
L 1778 2088 
L 3175 0 
L 2481 0 
L 1384 1697 
L 988 1316 
L 988 0 
L 425 0 
z
" transform="scale(0.015625)"/>
       </defs>
       <use xlink:href="#ArialMT-42"/>
       <use xlink:href="#ArialMT-72" x="66.699219"/>
       <use xlink:href="#ArialMT-61" x="100"/>
       <use xlink:href="#ArialMT-64" x="155.615234"/>
       <use xlink:href="#ArialMT-79" x="211.230469"/>
       <use xlink:href="#ArialMT-6b" x="261.230469"/>
       <use xlink:href="#ArialMT-69" x="311.230469"/>
       <use xlink:href="#ArialMT-6e" x="333.447266"/>
       <use xlink:href="#ArialMT-69" x="389.0625"/>
       <use xlink:href="#ArialMT-6e" x="411.279297"/>
       <use xlink:href="#ArialMT-20" x="466.894531"/>
       <use xlink:href="#ArialMT-72" x="494.677734"/>
       <use xlink:href="#ArialMT-65" x="527.978516"/>
       <use xlink:href="#ArialMT-63" x="583.59375"/>
       <use xlink:href="#ArialMT-65" x="633.59375"/>
       <use xlink:href="#ArialMT-70" x="689.208984"/>
       <use xlink:href="#ArialMT-74" x="744.824219"/>
       <use xlink:href="#ArialMT-6f" x="772.607422"/>
       <use xlink:href="#ArialMT-72" x="828.222656"/>
      </g>
     </g>
    </g>
    <g id="ytick_12">
     <g id="line2d_16">
      <path d="M 235.558125 213.064698 
L 362.865879 213.064698 
" clip-path="url(#p247e0b11dc)" style="fill: none; stroke: #cccccc; stroke-linecap: round"/>
     </g>
     <g id="text_17">
      <!-- Family A G protein-coupled receptor -->
      <g style="fill: #262626" transform="translate(50.592656 217.068526) scale(0.11 -0.11)">
       <defs>
        <path id="ArialMT-46" d="M 525 0 
L 525 4581 
L 3616 4581 
L 3616 4041 
L 1131 4041 
L 1131 2622 
L 3281 2622 
L 3281 2081 
L 1131 2081 
L 1131 0 
L 525 0 
z
" transform="scale(0.015625)"/>
        <path id="ArialMT-47" d="M 2638 1797 
L 2638 2334 
L 4578 2338 
L 4578 638 
Q 4131 281 3656 101 
Q 3181 -78 2681 -78 
Q 2006 -78 1454 211 
Q 903 500 622 1047 
Q 341 1594 341 2269 
Q 341 2938 620 3517 
Q 900 4097 1425 4378 
Q 1950 4659 2634 4659 
Q 3131 4659 3532 4498 
Q 3934 4338 4162 4050 
Q 4391 3763 4509 3300 
L 3963 3150 
Q 3859 3500 3706 3700 
Q 3553 3900 3268 4020 
Q 2984 4141 2638 4141 
Q 2222 4141 1919 4014 
Q 1616 3888 1430 3681 
Q 1244 3475 1141 3228 
Q 966 2803 966 2306 
Q 966 1694 1177 1281 
Q 1388 869 1791 669 
Q 2194 469 2647 469 
Q 3041 469 3416 620 
Q 3791 772 3984 944 
L 3984 1797 
L 2638 1797 
z
" transform="scale(0.015625)"/>
        <path id="ArialMT-2d" d="M 203 1375 
L 203 1941 
L 1931 1941 
L 1931 1375 
L 203 1375 
z
" transform="scale(0.015625)"/>
       </defs>
       <use xlink:href="#ArialMT-46"/>
       <use xlink:href="#ArialMT-61" x="61.083984"/>
       <use xlink:href="#ArialMT-6d" x="116.699219"/>
       <use xlink:href="#ArialMT-69" x="200"/>
       <use xlink:href="#ArialMT-6c" x="222.216797"/>
       <use xlink:href="#ArialMT-79" x="244.433594"/>
       <use xlink:href="#ArialMT-20" x="294.433594"/>
       <use xlink:href="#ArialMT-41" x="316.716797"/>
       <use xlink:href="#ArialMT-20" x="377.916016"/>
       <use xlink:href="#ArialMT-47" x="405.699219"/>
       <use xlink:href="#ArialMT-20" x="483.482422"/>
       <use xlink:href="#ArialMT-70" x="511.265625"/>
       <use xlink:href="#ArialMT-72" x="566.880859"/>
       <use xlink:href="#ArialMT-6f" x="600.181641"/>
       <use xlink:href="#ArialMT-74" x="655.796875"/>
       <use xlink:href="#ArialMT-65" x="683.580078"/>
       <use xlink:href="#ArialMT-69" x="739.195312"/>
       <use xlink:href="#ArialMT-6e" x="761.412109"/>
       <use xlink:href="#ArialMT-2d" x="817.027344"/>
       <use xlink:href="#ArialMT-63" x="850.328125"/>
       <use xlink:href="#ArialMT-6f" x="900.328125"/>
       <use xlink:href="#ArialMT-75" x="955.943359"/>
       <use xlink:href="#ArialMT-70" x="1011.558594"/>
       <use xlink:href="#ArialMT-6c" x="1067.173828"/>
       <use xlink:href="#ArialMT-65" x="1089.390625"/>
       <use xlink:href="#ArialMT-64" x="1145.005859"/>
       <use xlink:href="#ArialMT-20" x="1200.621094"/>
       <use xlink:href="#ArialMT-72" x="1228.404297"/>
       <use xlink:href="#ArialMT-65" x="1261.705078"/>
       <use xlink:href="#ArialMT-63" x="1317.320312"/>
       <use xlink:href="#ArialMT-65" x="1367.320312"/>
       <use xlink:href="#ArialMT-70" x="1422.935547"/>
       <use xlink:href="#ArialMT-74" x="1478.550781"/>
       <use xlink:href="#ArialMT-6f" x="1506.333984"/>
       <use xlink:href="#ArialMT-72" x="1561.949219"/>
      </g>
     </g>
    </g>
    <g id="ytick_13">
     <g id="line2d_17">
      <path d="M 235.558125 231.28775 
L 362.865879 231.28775 
" clip-path="url(#p247e0b11dc)" style="fill: none; stroke: #cccccc; stroke-linecap: round"/>
     </g>
     <g id="text_18">
      <!-- Neurokinin receptor -->
      <g style="fill: #262626" transform="translate(130.072812 235.224547) scale(0.11 -0.11)">
       <defs>
        <path id="ArialMT-4e" d="M 488 0 
L 488 4581 
L 1109 4581 
L 3516 984 
L 3516 4581 
L 4097 4581 
L 4097 0 
L 3475 0 
L 1069 3600 
L 1069 0 
L 488 0 
z
" transform="scale(0.015625)"/>
       </defs>
       <use xlink:href="#ArialMT-4e"/>
       <use xlink:href="#ArialMT-65" x="72.216797"/>
       <use xlink:href="#ArialMT-75" x="127.832031"/>
       <use xlink:href="#ArialMT-72" x="183.447266"/>
       <use xlink:href="#ArialMT-6f" x="216.748047"/>
       <use xlink:href="#ArialMT-6b" x="272.363281"/>
       <use xlink:href="#ArialMT-69" x="322.363281"/>
       <use xlink:href="#ArialMT-6e" x="344.580078"/>
       <use xlink:href="#ArialMT-69" x="400.195312"/>
       <use xlink:href="#ArialMT-6e" x="422.412109"/>
       <use xlink:href="#ArialMT-20" x="478.027344"/>
       <use xlink:href="#ArialMT-72" x="505.810547"/>
       <use xlink:href="#ArialMT-65" x="539.111328"/>
       <use xlink:href="#ArialMT-63" x="594.726562"/>
       <use xlink:href="#ArialMT-65" x="644.726562"/>
       <use xlink:href="#ArialMT-70" x="700.341797"/>
       <use xlink:href="#ArialMT-74" x="755.957031"/>
       <use xlink:href="#ArialMT-6f" x="783.740234"/>
       <use xlink:href="#ArialMT-72" x="839.355469"/>
      </g>
     </g>
    </g>
    <g id="ytick_14">
     <g id="line2d_18">
      <path d="M 235.558125 249.510803 
L 362.865879 249.510803 
" clip-path="url(#p247e0b11dc)" style="fill: none; stroke: #cccccc; stroke-linecap: round"/>
     </g>
     <g id="text_19">
      <!-- Serine protease S1A subfamily -->
      <g style="fill: #262626" transform="translate(75.646875 253.514631) scale(0.11 -0.11)">
       <use xlink:href="#ArialMT-53"/>
       <use xlink:href="#ArialMT-65" x="66.699219"/>
       <use xlink:href="#ArialMT-72" x="122.314453"/>
       <use xlink:href="#ArialMT-69" x="155.615234"/>
       <use xlink:href="#ArialMT-6e" x="177.832031"/>
       <use xlink:href="#ArialMT-65" x="233.447266"/>
       <use xlink:href="#ArialMT-20" x="289.0625"/>
       <use xlink:href="#ArialMT-70" x="316.845703"/>
       <use xlink:href="#ArialMT-72" x="372.460938"/>
       <use xlink:href="#ArialMT-6f" x="405.761719"/>
       <use xlink:href="#ArialMT-74" x="461.376953"/>
       <use xlink:href="#ArialMT-65" x="489.160156"/>
       <use xlink:href="#ArialMT-61" x="544.775391"/>
       <use xlink:href="#ArialMT-73" x="600.390625"/>
       <use xlink:href="#ArialMT-65" x="650.390625"/>
       <use xlink:href="#ArialMT-20" x="706.005859"/>
       <use xlink:href="#ArialMT-53" x="733.789062"/>
       <use xlink:href="#ArialMT-31" x="800.488281"/>
       <use xlink:href="#ArialMT-41" x="856.103516"/>
       <use xlink:href="#ArialMT-20" x="917.302734"/>
       <use xlink:href="#ArialMT-73" x="945.085938"/>
       <use xlink:href="#ArialMT-75" x="995.085938"/>
       <use xlink:href="#ArialMT-62" x="1050.701172"/>
       <use xlink:href="#ArialMT-66" x="1106.316406"/>
       <use xlink:href="#ArialMT-61" x="1134.099609"/>
       <use xlink:href="#ArialMT-6d" x="1189.714844"/>
       <use xlink:href="#ArialMT-69" x="1273.015625"/>
       <use xlink:href="#ArialMT-6c" x="1295.232422"/>
       <use xlink:href="#ArialMT-79" x="1317.449219"/>
      </g>
     </g>
    </g>
    <g id="ytick_15">
     <g id="line2d_19">
      <path d="M 235.558125 267.733856 
L 362.865879 267.733856 
" clip-path="url(#p247e0b11dc)" style="fill: none; stroke: #cccccc; stroke-linecap: round"/>
     </g>
     <g id="text_20">
      <!-- Transferase -->
      <g style="fill: #262626" transform="translate(167.785625 271.670653) scale(0.11 -0.11)">
       <defs>
        <path id="ArialMT-54" d="M 1659 0 
L 1659 4041 
L 150 4041 
L 150 4581 
L 3781 4581 
L 3781 4041 
L 2266 4041 
L 2266 0 
L 1659 0 
z
" transform="scale(0.015625)"/>
       </defs>
       <use xlink:href="#ArialMT-54"/>
       <use xlink:href="#ArialMT-72" x="57.333984"/>
       <use xlink:href="#ArialMT-61" x="90.634766"/>
       <use xlink:href="#ArialMT-6e" x="146.25"/>
       <use xlink:href="#ArialMT-73" x="201.865234"/>
       <use xlink:href="#ArialMT-66" x="251.865234"/>
       <use xlink:href="#ArialMT-65" x="279.648438"/>
       <use xlink:href="#ArialMT-72" x="335.263672"/>
       <use xlink:href="#ArialMT-61" x="368.564453"/>
       <use xlink:href="#ArialMT-73" x="424.179688"/>
       <use xlink:href="#ArialMT-65" x="474.179688"/>
      </g>
     </g>
    </g>
    <g id="ytick_16">
     <g id="line2d_20">
      <path d="M 235.558125 285.956909 
L 362.865879 285.956909 
" clip-path="url(#p247e0b11dc)" style="fill: none; stroke: #cccccc; stroke-linecap: round"/>
     </g>
     <g id="text_21">
      <!-- Tyrosine protein phosphatase -->
      <g style="fill: #262626" transform="translate(81.751875 289.893706) scale(0.11 -0.11)">
       <use xlink:href="#ArialMT-54"/>
       <use xlink:href="#ArialMT-79" x="55.583984"/>
       <use xlink:href="#ArialMT-72" x="105.583984"/>
       <use xlink:href="#ArialMT-6f" x="138.884766"/>
       <use xlink:href="#ArialMT-73" x="194.5"/>
       <use xlink:href="#ArialMT-69" x="244.5"/>
       <use xlink:href="#ArialMT-6e" x="266.716797"/>
       <use xlink:href="#ArialMT-65" x="322.332031"/>
       <use xlink:href="#ArialMT-20" x="377.947266"/>
       <use xlink:href="#ArialMT-70" x="405.730469"/>
       <use xlink:href="#ArialMT-72" x="461.345703"/>
       <use xlink:href="#ArialMT-6f" x="494.646484"/>
       <use xlink:href="#ArialMT-74" x="550.261719"/>
       <use xlink:href="#ArialMT-65" x="578.044922"/>
       <use xlink:href="#ArialMT-69" x="633.660156"/>
       <use xlink:href="#ArialMT-6e" x="655.876953"/>
       <use xlink:href="#ArialMT-20" x="711.492188"/>
       <use xlink:href="#ArialMT-70" x="739.275391"/>
       <use xlink:href="#ArialMT-68" x="794.890625"/>
       <use xlink:href="#ArialMT-6f" x="850.505859"/>
       <use xlink:href="#ArialMT-73" x="906.121094"/>
       <use xlink:href="#ArialMT-70" x="956.121094"/>
       <use xlink:href="#ArialMT-68" x="1011.736328"/>
       <use xlink:href="#ArialMT-61" x="1067.351562"/>
       <use xlink:href="#ArialMT-74" x="1122.966797"/>
       <use xlink:href="#ArialMT-61" x="1150.75"/>
       <use xlink:href="#ArialMT-73" x="1206.365234"/>
       <use xlink:href="#ArialMT-65" x="1256.365234"/>
      </g>
     </g>
    </g>
    <g id="text_22">
     <!-- pref_name -->
     <g style="fill: #262626" transform="translate(-86.035781 177.965887) rotate(-90) scale(0.12 -0.12)">
      <defs>
       <path id="ArialMT-5f" d="M -97 -1272 
L -97 -866 
L 3631 -866 
L 3631 -1272 
L -97 -1272 
z
" transform="scale(0.015625)"/>
      </defs>
      <use xlink:href="#ArialMT-70"/>
      <use xlink:href="#ArialMT-72" x="55.615234"/>
      <use xlink:href="#ArialMT-65" x="88.916016"/>
      <use xlink:href="#ArialMT-66" x="144.53125"/>
      <use xlink:href="#ArialMT-5f" x="172.314453"/>
      <use xlink:href="#ArialMT-6e" x="227.929688"/>
      <use xlink:href="#ArialMT-61" x="283.544922"/>
      <use xlink:href="#ArialMT-6d" x="339.160156"/>
      <use xlink:href="#ArialMT-65" x="422.460938"/>
     </g>
    </g>
   </g>
   <g id="PathCollection_1">
    <path d="M 238.006351 16.853757 
C 239.131513 16.853757 240.210742 16.406725 241.006351 15.611116 
C 241.80196 14.815507 242.248992 13.736277 242.248992 12.611116 
C 242.248992 11.485954 241.80196 10.406725 241.006351 9.611116 
C 240.210742 8.815507 239.131513 8.368475 238.006351 8.368475 
C 236.88119 8.368475 235.80196 8.815507 235.006351 9.611116 
C 234.210742 10.406725 233.76371 11.485954 233.76371 12.611116 
C 233.76371 13.736277 234.210742 14.815507 235.006351 15.611116 
C 235.80196 16.406725 236.88119 16.853757 238.006351 16.853757 
z
" clip-path="url(#p247e0b11dc)" style="fill: #a9373b; stroke: #ffffff; stroke-width: 0.339411"/>
    <path d="M 278.810118 35.076809 
C 279.93528 35.076809 281.014509 34.629778 281.810118 33.834169 
C 282.605728 33.038559 283.052759 31.95933 283.052759 30.834169 
C 283.052759 29.709007 282.605728 28.629778 281.810118 27.834169 
C 281.014509 27.038559 279.93528 26.591528 278.810118 26.591528 
C 277.684957 26.591528 276.605728 27.038559 275.810118 27.834169 
C 275.014509 28.629778 274.567478 29.709007 274.567478 30.834169 
C 274.567478 31.95933 275.014509 33.038559 275.810118 33.834169 
C 276.605728 34.629778 277.684957 35.076809 278.810118 35.076809 
z
" clip-path="url(#p247e0b11dc)" style="fill: #a9373b; stroke: #ffffff; stroke-width: 0.339411"/>
    <path d="M 238.006351 52.968743 
C 239.043699 52.968743 240.038699 52.556601 240.772214 51.823085 
C 241.50573 51.089569 241.917872 50.094569 241.917872 49.057222 
C 241.917872 48.019874 241.50573 47.024874 240.772214 46.291358 
C 240.038699 45.557843 239.043699 45.1457 238.006351 45.1457 
C 236.969003 45.1457 235.974003 45.557843 235.240488 46.291358 
C 234.506972 47.024874 234.09483 48.019874 234.09483 49.057222 
C 234.09483 50.094569 234.506972 51.089569 235.240488 51.823085 
C 235.974003 52.556601 236.969003 52.968743 238.006351 52.968743 
z
" clip-path="url(#p247e0b11dc)" style="fill: #cc8582; stroke: #ffffff; stroke-width: 0.339411"/>
    <path d="M 238.006351 70.426701 
C 238.840793 70.426701 239.641171 70.095174 240.231211 69.505134 
C 240.82125 68.915094 241.152778 68.114717 241.152778 67.280275 
C 241.152778 66.445832 240.82125 65.645455 240.231211 65.055415 
C 239.641171 64.465375 238.840793 64.133848 238.006351 64.133848 
C 237.171909 64.133848 236.371531 64.465375 235.781491 65.055415 
C 235.191452 65.645455 234.859924 66.445832 234.859924 67.280275 
C 234.859924 68.114717 235.191452 68.915094 235.781491 69.505134 
C 236.371531 70.095174 237.171909 70.426701 238.006351 70.426701 
z
" clip-path="url(#p247e0b11dc)" style="fill: #d9dce5; stroke: #ffffff; stroke-width: 0.339411"/>
    <path d="M 238.006351 88.649754 
C 238.840793 88.649754 239.641171 88.318227 240.231211 87.728187 
C 240.82125 87.138147 241.152778 86.337769 241.152778 85.503327 
C 241.152778 84.668885 240.82125 83.868508 240.231211 83.278468 
C 239.641171 82.688428 238.840793 82.356901 238.006351 82.356901 
C 237.171909 82.356901 236.371531 82.688428 235.781491 83.278468 
C 235.191452 83.868508 234.859924 84.668885 234.859924 85.503327 
C 234.859924 86.337769 235.191452 87.138147 235.781491 87.728187 
C 236.371531 88.318227 237.171909 88.649754 238.006351 88.649754 
z
" clip-path="url(#p247e0b11dc)" style="fill: #d9dce5; stroke: #ffffff; stroke-width: 0.339411"/>
    <path d="M 238.006351 106.872807 
C 238.840793 106.872807 239.641171 106.541279 240.231211 105.95124 
C 240.82125 105.3612 241.152778 104.560822 241.152778 103.72638 
C 241.152778 102.891938 240.82125 102.09156 240.231211 101.501521 
C 239.641171 100.911481 238.840793 100.579954 238.006351 100.579954 
C 237.171909 100.579954 236.371531 100.911481 235.781491 101.501521 
C 235.191452 102.09156 234.859924 102.891938 234.859924 103.72638 
C 234.859924 104.560822 235.191452 105.3612 235.781491 105.95124 
C 236.371531 106.541279 237.171909 106.872807 238.006351 106.872807 
z
" clip-path="url(#p247e0b11dc)" style="fill: #d9dce5; stroke: #ffffff; stroke-width: 0.339411"/>
    <path d="M 278.810118 124.632715 
C 279.521733 124.632715 280.204298 124.349987 280.707485 123.8468 
C 281.210673 123.343612 281.4934 122.661048 281.4934 121.949433 
C 281.4934 121.237819 281.210673 120.555254 280.707485 120.052067 
C 280.204298 119.548879 279.521733 119.266152 278.810118 119.266152 
C 278.098504 119.266152 277.415939 119.548879 276.912752 120.052067 
C 276.409564 120.555254 276.126837 121.237819 276.126837 121.949433 
C 276.126837 122.661048 276.409564 123.343612 276.912752 123.8468 
C 277.415939 124.349987 278.098504 124.632715 278.810118 124.632715 
z
" clip-path="url(#p247e0b11dc)" style="fill: #87a0c4; stroke: #ffffff; stroke-width: 0.339411"/>
    <path d="M 238.006351 142.855768 
C 238.717966 142.855768 239.40053 142.57304 239.903718 142.069853 
C 240.406905 141.566665 240.689633 140.884101 240.689633 140.172486 
C 240.689633 139.460871 240.406905 138.778307 239.903718 138.275119 
C 239.40053 137.771932 238.717966 137.489204 238.006351 137.489204 
C 237.294736 137.489204 236.612172 137.771932 236.108984 138.275119 
C 235.605797 138.778307 235.323069 139.460871 235.323069 140.172486 
C 235.323069 140.884101 235.605797 141.566665 236.108984 142.069853 
C 236.612172 142.57304 237.294736 142.855768 238.006351 142.855768 
z
" clip-path="url(#p247e0b11dc)" style="fill: #87a0c4; stroke: #ffffff; stroke-width: 0.339411"/>
    <path d="M 319.613886 161.078821 
C 320.3255 161.078821 321.008065 160.796093 321.511252 160.292906 
C 322.01444 159.789718 322.297167 159.107154 322.297167 158.395539 
C 322.297167 157.683924 322.01444 157.00136 321.511252 156.498172 
C 321.008065 155.994985 320.3255 155.712257 319.613886 155.712257 
C 318.902271 155.712257 318.219707 155.994985 317.716519 156.498172 
C 317.213332 157.00136 316.930604 157.683924 316.930604 158.395539 
C 316.930604 159.107154 317.213332 159.789718 317.716519 160.292906 
C 318.219707 160.796093 318.902271 161.078821 319.613886 161.078821 
z
" clip-path="url(#p247e0b11dc)" style="fill: #87a0c4; stroke: #ffffff; stroke-width: 0.339411"/>
    <path d="M 319.613886 179.301873 
C 320.3255 179.301873 321.008065 179.019146 321.511252 178.515958 
C 322.01444 178.012771 322.297167 177.330206 322.297167 176.618592 
C 322.297167 175.906977 322.01444 175.224413 321.511252 174.721225 
C 321.008065 174.218038 320.3255 173.93531 319.613886 173.93531 
C 318.902271 173.93531 318.219707 174.218038 317.716519 174.721225 
C 317.213332 175.224413 316.930604 175.906977 316.930604 176.618592 
C 316.930604 177.330206 317.213332 178.012771 317.716519 178.515958 
C 318.219707 179.019146 318.902271 179.301873 319.613886 179.301873 
z
" clip-path="url(#p247e0b11dc)" style="fill: #87a0c4; stroke: #ffffff; stroke-width: 0.339411"/>
    <path d="M 278.810118 197.524926 
C 279.521733 197.524926 280.204298 197.242199 280.707485 196.739011 
C 281.210673 196.235824 281.4934 195.553259 281.4934 194.841645 
C 281.4934 194.13003 281.210673 193.447466 280.707485 192.944278 
C 280.204298 192.441091 279.521733 192.158363 278.810118 192.158363 
C 278.098504 192.158363 277.415939 192.441091 276.912752 192.944278 
C 276.409564 193.447466 276.126837 194.13003 276.126837 194.841645 
C 276.126837 195.553259 276.409564 196.235824 276.912752 196.739011 
C 277.415939 197.242199 278.098504 197.524926 278.810118 197.524926 
z
" clip-path="url(#p247e0b11dc)" style="fill: #87a0c4; stroke: #ffffff; stroke-width: 0.339411"/>
    <path d="M 278.810118 215.186018 
C 279.372699 215.186018 279.912314 214.962502 280.310118 214.564698 
C 280.707923 214.166893 280.931439 213.627278 280.931439 213.064698 
C 280.931439 212.502117 280.707923 211.962502 280.310118 211.564698 
C 279.912314 211.166893 279.372699 210.943377 278.810118 210.943377 
C 278.247538 210.943377 277.707923 211.166893 277.310118 211.564698 
C 276.912314 211.962502 276.688798 212.502117 276.688798 213.064698 
C 276.688798 213.627278 276.912314 214.166893 277.310118 214.564698 
C 277.707923 214.962502 278.247538 215.186018 278.810118 215.186018 
z
" clip-path="url(#p247e0b11dc)" style="fill: #2369bd; stroke: #ffffff; stroke-width: 0.339411"/>
    <path d="M 278.810118 233.409071 
C 279.372699 233.409071 279.912314 233.185555 280.310118 232.78775 
C 280.707923 232.389946 280.931439 231.850331 280.931439 231.28775 
C 280.931439 230.72517 280.707923 230.185555 280.310118 229.78775 
C 279.912314 229.389946 279.372699 229.16643 278.810118 229.16643 
C 278.247538 229.16643 277.707923 229.389946 277.310118 229.78775 
C 276.912314 230.185555 276.688798 230.72517 276.688798 231.28775 
C 276.688798 231.850331 276.912314 232.389946 277.310118 232.78775 
C 277.707923 233.185555 278.247538 233.409071 278.810118 233.409071 
z
" clip-path="url(#p247e0b11dc)" style="fill: #2369bd; stroke: #ffffff; stroke-width: 0.339411"/>
    <path d="M 360.417653 251.632124 
C 360.980234 251.632124 361.519849 251.408608 361.917653 251.010803 
C 362.315458 250.612999 362.538974 250.073384 362.538974 249.510803 
C 362.538974 248.948223 362.315458 248.408608 361.917653 248.010803 
C 361.519849 247.612999 360.980234 247.389483 360.417653 247.389483 
C 359.855073 247.389483 359.315458 247.612999 358.917653 248.010803 
C 358.519849 248.408608 358.296333 248.948223 358.296333 249.510803 
C 358.296333 250.073384 358.519849 250.612999 358.917653 251.010803 
C 359.315458 251.408608 359.855073 251.632124 360.417653 251.632124 
z
" clip-path="url(#p247e0b11dc)" style="fill: #2369bd; stroke: #ffffff; stroke-width: 0.339411"/>
    <path d="M 278.810118 160.516859 
C 279.372699 160.516859 279.912314 160.293344 280.310118 159.895539 
C 280.707923 159.497734 280.931439 158.95812 280.931439 158.395539 
C 280.931439 157.832958 280.707923 157.293344 280.310118 156.895539 
C 279.912314 156.497734 279.372699 156.274219 278.810118 156.274219 
C 278.247538 156.274219 277.707923 156.497734 277.310118 156.895539 
C 276.912314 157.293344 276.688798 157.832958 276.688798 158.395539 
C 276.688798 158.95812 276.912314 159.497734 277.310118 159.895539 
C 277.707923 160.293344 278.247538 160.516859 278.810118 160.516859 
z
" clip-path="url(#p247e0b11dc)" style="fill: #2369bd; stroke: #ffffff; stroke-width: 0.339411"/>
    <path d="M 238.006351 269.855177 
C 238.568932 269.855177 239.108546 269.631661 239.506351 269.233856 
C 239.904156 268.836052 240.127671 268.296437 240.127671 267.733856 
C 240.127671 267.171276 239.904156 266.631661 239.506351 266.233856 
C 239.108546 265.836052 238.568932 265.612536 238.006351 265.612536 
C 237.44377 265.612536 236.904156 265.836052 236.506351 266.233856 
C 236.108546 266.631661 235.885031 267.171276 235.885031 267.733856 
C 235.885031 268.296437 236.108546 268.836052 236.506351 269.233856 
C 236.904156 269.631661 237.44377 269.855177 238.006351 269.855177 
z
" clip-path="url(#p247e0b11dc)" style="fill: #2369bd; stroke: #ffffff; stroke-width: 0.339411"/>
    <path d="M 238.006351 288.078229 
C 238.568932 288.078229 239.108546 287.854714 239.506351 287.456909 
C 239.904156 287.059104 240.127671 286.51949 240.127671 285.956909 
C 240.127671 285.394328 239.904156 284.854714 239.506351 284.456909 
C 239.108546 284.059104 238.568932 283.835589 238.006351 283.835589 
C 237.44377 283.835589 236.904156 284.059104 236.506351 284.456909 
C 236.108546 284.854714 235.885031 285.394328 235.885031 285.956909 
C 235.885031 286.51949 236.108546 287.059104 236.506351 287.456909 
C 236.904156 287.854714 237.44377 288.078229 238.006351 288.078229 
z
" clip-path="url(#p247e0b11dc)" style="fill: #2369bd; stroke: #ffffff; stroke-width: 0.339411"/>
   </g>
   <g id="PathCollection_2"/>
   <g id="PathCollection_3"/>
   <g id="PathCollection_4"/>
   <g id="PathCollection_5"/>
   <g id="PathCollection_6"/>
   <g id="text_23">
    <!-- Amino acids and Peptides, Oligopeptides -->
    <g style="fill: #262626" transform="translate(189.81794 1.1442) scale(0.12 -0.12)">
     <defs>
      <path id="ArialMT-2c" d="M 569 0 
L 569 641 
L 1209 641 
L 1209 0 
Q 1209 -353 1084 -570 
Q 959 -788 688 -906 
L 531 -666 
Q 709 -588 793 -436 
Q 878 -284 888 0 
L 569 0 
z
" transform="scale(0.015625)"/>
     </defs>
     <use xlink:href="#ArialMT-41"/>
     <use xlink:href="#ArialMT-6d" x="66.699219"/>
     <use xlink:href="#ArialMT-69" x="150"/>
     <use xlink:href="#ArialMT-6e" x="172.216797"/>
     <use xlink:href="#ArialMT-6f" x="227.832031"/>
     <use xlink:href="#ArialMT-20" x="283.447266"/>
     <use xlink:href="#ArialMT-61" x="311.230469"/>
     <use xlink:href="#ArialMT-63" x="366.845703"/>
     <use xlink:href="#ArialMT-69" x="416.845703"/>
     <use xlink:href="#ArialMT-64" x="439.0625"/>
     <use xlink:href="#ArialMT-73" x="494.677734"/>
     <use xlink:href="#ArialMT-20" x="544.677734"/>
     <use xlink:href="#ArialMT-61" x="572.460938"/>
     <use xlink:href="#ArialMT-6e" x="628.076172"/>
     <use xlink:href="#ArialMT-64" x="683.691406"/>
     <use xlink:href="#ArialMT-20" x="739.306641"/>
     <use xlink:href="#ArialMT-50" x="767.089844"/>
     <use xlink:href="#ArialMT-65" x="833.789062"/>
     <use xlink:href="#ArialMT-70" x="889.404297"/>
     <use xlink:href="#ArialMT-74" x="945.019531"/>
     <use xlink:href="#ArialMT-69" x="972.802734"/>
     <use xlink:href="#ArialMT-64" x="995.019531"/>
     <use xlink:href="#ArialMT-65" x="1050.634766"/>
     <use xlink:href="#ArialMT-73" x="1106.25"/>
     <use xlink:href="#ArialMT-2c" x="1156.25"/>
     <use xlink:href="#ArialMT-20" x="1184.033203"/>
     <use xlink:href="#ArialMT-4f" x="1211.816406"/>
     <use xlink:href="#ArialMT-6c" x="1289.599609"/>
     <use xlink:href="#ArialMT-69" x="1311.816406"/>
     <use xlink:href="#ArialMT-67" x="1334.033203"/>
     <use xlink:href="#ArialMT-6f" x="1389.648438"/>
     <use xlink:href="#ArialMT-70" x="1445.263672"/>
     <use xlink:href="#ArialMT-65" x="1500.878906"/>
     <use xlink:href="#ArialMT-70" x="1556.494141"/>
     <use xlink:href="#ArialMT-74" x="1612.109375"/>
     <use xlink:href="#ArialMT-69" x="1639.892578"/>
     <use xlink:href="#ArialMT-64" x="1662.109375"/>
     <use xlink:href="#ArialMT-65" x="1717.724609"/>
     <use xlink:href="#ArialMT-73" x="1773.339844"/>
    </g>
   </g>
  </g>
  <g id="legend_1">
   <g id="text_24">
    <!-- count -->
    <g style="fill: #262626" transform="translate(352.964922 122.962578) scale(0.12 -0.12)">
     <use xlink:href="#ArialMT-63"/>
     <use xlink:href="#ArialMT-6f" x="50"/>
     <use xlink:href="#ArialMT-75" x="105.615234"/>
     <use xlink:href="#ArialMT-6e" x="161.230469"/>
     <use xlink:href="#ArialMT-74" x="216.845703"/>
    </g>
   </g>
   <g id="PathCollection_7">
    <defs>
     <path id="m1a57b02a78" d="M 0 2.12132 
C 0.562581 2.12132 1.102195 1.897805 1.5 1.5 
C 1.897805 1.102195 2.12132 0.562581 2.12132 0 
C 2.12132 -0.562581 1.897805 -1.102195 1.5 -1.5 
C 1.102195 -1.897805 0.562581 -2.12132 0 -2.12132 
C -0.562581 -2.12132 -1.102195 -1.897805 -1.5 -1.5 
C -1.897805 -1.102195 -2.12132 -0.562581 -2.12132 0 
C -2.12132 0.562581 -1.897805 1.102195 -1.5 1.5 
C -1.102195 1.897805 -0.562581 2.12132 0 2.12132 
z
" style="stroke: #2369bd"/>
    </defs>
    <g>
     <use xlink:href="#m1a57b02a78" x="360.182969" y="135.833672" style="fill: #2369bd; stroke: #2369bd"/>
    </g>
   </g>
   <g id="text_25">
    <!-- 1 -->
    <g style="fill: #262626" transform="translate(379.982969 138.721172) scale(0.11 -0.11)">
     <use xlink:href="#ArialMT-31"/>
    </g>
   </g>
   <g id="PathCollection_8">
    <defs>
     <path id="mc536ddf48f" d="M 0 2.683282 
C 0.711615 2.683282 1.394179 2.400554 1.897367 1.897367 
C 2.400554 1.394179 2.683282 0.711615 2.683282 0 
C 2.683282 -0.711615 2.400554 -1.394179 1.897367 -1.897367 
C 1.394179 -2.400554 0.711615 -2.683282 0 -2.683282 
C -0.711615 -2.683282 -1.394179 -2.400554 -1.897367 -1.897367 
C -2.400554 -1.394179 -2.683282 -0.711615 -2.683282 0 
C -2.683282 0.711615 -2.400554 1.394179 -1.897367 1.897367 
C -1.394179 2.400554 -0.711615 2.683282 0 2.683282 
z
" style="stroke: #87a0c4"/>
    </defs>
    <g>
     <use xlink:href="#mc536ddf48f" x="360.182969" y="151.393516" style="fill: #87a0c4; stroke: #87a0c4"/>
    </g>
   </g>
   <g id="text_26">
    <!-- 2 -->
    <g style="fill: #262626" transform="translate(379.982969 154.281016) scale(0.11 -0.11)">
     <use xlink:href="#ArialMT-32"/>
    </g>
   </g>
   <g id="PathCollection_9">
    <defs>
     <path id="m5697aa3e02" d="M 0 3.146427 
C 0.834442 3.146427 1.63482 2.814899 2.22486 2.22486 
C 2.814899 1.63482 3.146427 0.834442 3.146427 0 
C 3.146427 -0.834442 2.814899 -1.63482 2.22486 -2.22486 
C 1.63482 -2.814899 0.834442 -3.146427 0 -3.146427 
C -0.834442 -3.146427 -1.63482 -2.814899 -2.22486 -2.22486 
C -2.814899 -1.63482 -3.146427 -0.834442 -3.146427 0 
C -3.146427 0.834442 -2.814899 1.63482 -2.22486 2.22486 
C -1.63482 2.814899 -0.834442 3.146427 0 3.146427 
z
" style="stroke: #d9dce5"/>
    </defs>
    <g>
     <use xlink:href="#m5697aa3e02" x="360.182969" y="166.953359" style="fill: #d9dce5; stroke: #d9dce5"/>
    </g>
   </g>
   <g id="text_27">
    <!-- 3 -->
    <g style="fill: #262626" transform="translate(379.982969 169.840859) scale(0.11 -0.11)">
     <defs>
      <path id="ArialMT-33" d="M 269 1209 
L 831 1284 
Q 928 806 1161 595 
Q 1394 384 1728 384 
Q 2125 384 2398 659 
Q 2672 934 2672 1341 
Q 2672 1728 2419 1979 
Q 2166 2231 1775 2231 
Q 1616 2231 1378 2169 
L 1441 2663 
Q 1497 2656 1531 2656 
Q 1891 2656 2178 2843 
Q 2466 3031 2466 3422 
Q 2466 3731 2256 3934 
Q 2047 4138 1716 4138 
Q 1388 4138 1169 3931 
Q 950 3725 888 3313 
L 325 3413 
Q 428 3978 793 4289 
Q 1159 4600 1703 4600 
Q 2078 4600 2393 4439 
Q 2709 4278 2876 4000 
Q 3044 3722 3044 3409 
Q 3044 3113 2884 2869 
Q 2725 2625 2413 2481 
Q 2819 2388 3044 2092 
Q 3269 1797 3269 1353 
Q 3269 753 2831 336 
Q 2394 -81 1725 -81 
Q 1122 -81 723 278 
Q 325 638 269 1209 
z
" transform="scale(0.015625)"/>
     </defs>
     <use xlink:href="#ArialMT-33"/>
    </g>
   </g>
   <g id="PathCollection_10">
    <defs>
     <path id="m847be8473d" d="M 0 3.911521 
C 1.037348 3.911521 2.032348 3.499379 2.765863 2.765863 
C 3.499379 2.032348 3.911521 1.037348 3.911521 0 
C 3.911521 -1.037348 3.499379 -2.032348 2.765863 -2.765863 
C 2.032348 -3.499379 1.037348 -3.911521 0 -3.911521 
C -1.037348 -3.911521 -2.032348 -3.499379 -2.765863 -2.765863 
C -3.499379 -2.032348 -3.911521 -1.037348 -3.911521 0 
C -3.911521 1.037348 -3.499379 2.032348 -2.765863 2.765863 
C -2.032348 3.499379 -1.037348 3.911521 0 3.911521 
z
" style="stroke: #cc8582"/>
    </defs>
    <g>
     <use xlink:href="#m847be8473d" x="360.182969" y="182.513203" style="fill: #cc8582; stroke: #cc8582"/>
    </g>
   </g>
   <g id="text_28">
    <!-- 5 -->
    <g style="fill: #262626" transform="translate(379.982969 185.400703) scale(0.11 -0.11)">
     <defs>
      <path id="ArialMT-35" d="M 266 1200 
L 856 1250 
Q 922 819 1161 601 
Q 1400 384 1738 384 
Q 2144 384 2425 690 
Q 2706 997 2706 1503 
Q 2706 1984 2436 2262 
Q 2166 2541 1728 2541 
Q 1456 2541 1237 2417 
Q 1019 2294 894 2097 
L 366 2166 
L 809 4519 
L 3088 4519 
L 3088 3981 
L 1259 3981 
L 1013 2750 
Q 1425 3038 1878 3038 
Q 2478 3038 2890 2622 
Q 3303 2206 3303 1553 
Q 3303 931 2941 478 
Q 2500 -78 1738 -78 
Q 1113 -78 717 272 
Q 322 622 266 1200 
z
" transform="scale(0.015625)"/>
     </defs>
     <use xlink:href="#ArialMT-35"/>
    </g>
   </g>
   <g id="PathCollection_11">
    <defs>
     <path id="m998e4c9b9e" d="M 0 4.242641 
C 1.125161 4.242641 2.204391 3.795609 3 3 
C 3.795609 2.204391 4.242641 1.125161 4.242641 0 
C 4.242641 -1.125161 3.795609 -2.204391 3 -3 
C 2.204391 -3.795609 1.125161 -4.242641 0 -4.242641 
C -1.125161 -4.242641 -2.204391 -3.795609 -3 -3 
C -3.795609 -2.204391 -4.242641 -1.125161 -4.242641 0 
C -4.242641 1.125161 -3.795609 2.204391 -3 3 
C -2.204391 3.795609 -1.125161 4.242641 0 4.242641 
z
" style="stroke: #a9373b"/>
    </defs>
    <g>
     <use xlink:href="#m998e4c9b9e" x="360.182969" y="198.073047" style="fill: #a9373b; stroke: #a9373b"/>
    </g>
   </g>
   <g id="text_29">
    <!-- 6 -->
    <g style="fill: #262626" transform="translate(379.982969 200.960547) scale(0.11 -0.11)">
     <defs>
      <path id="ArialMT-36" d="M 3184 3459 
L 2625 3416 
Q 2550 3747 2413 3897 
Q 2184 4138 1850 4138 
Q 1581 4138 1378 3988 
Q 1113 3794 959 3422 
Q 806 3050 800 2363 
Q 1003 2672 1297 2822 
Q 1591 2972 1913 2972 
Q 2475 2972 2870 2558 
Q 3266 2144 3266 1488 
Q 3266 1056 3080 686 
Q 2894 316 2569 119 
Q 2244 -78 1831 -78 
Q 1128 -78 684 439 
Q 241 956 241 2144 
Q 241 3472 731 4075 
Q 1159 4600 1884 4600 
Q 2425 4600 2770 4297 
Q 3116 3994 3184 3459 
z
M 888 1484 
Q 888 1194 1011 928 
Q 1134 663 1356 523 
Q 1578 384 1822 384 
Q 2178 384 2434 671 
Q 2691 959 2691 1453 
Q 2691 1928 2437 2201 
Q 2184 2475 1800 2475 
Q 1419 2475 1153 2201 
Q 888 1928 888 1484 
z
" transform="scale(0.015625)"/>
     </defs>
     <use xlink:href="#ArialMT-36"/>
    </g>
   </g>
  </g>
 </g>
 <defs>
  <clipPath id="p247e0b11dc">
   <rect x="235.558125" y="7.1442" width="127.307754" height="284.279625"/>
  </clipPath>
 </defs>
</svg>
