<?xml version="1.0" encoding="utf-8" standalone="no"?>
<!DOCTYPE svg PUBLIC "-//W3C//DTD SVG 1.1//EN"
  "http://www.w3.org/Graphics/SVG/1.1/DTD/svg11.dtd">
<svg xmlns:xlink="http://www.w3.org/1999/xlink" width="720pt" height="72pt" viewBox="0 0 720 72" xmlns="http://www.w3.org/2000/svg" version="1.1">
 <metadata>
  <rdf:RDF xmlns:dc="http://purl.org/dc/elements/1.1/" xmlns:cc="http://creativecommons.org/ns#" xmlns:rdf="http://www.w3.org/1999/02/22-rdf-syntax-ns#">
   <cc:Work>
    <dc:type rdf:resource="http://purl.org/dc/dcmitype/StillImage"/>
    <dc:date>2023-06-15T10:33:31.528759</dc:date>
    <dc:format>image/svg+xml</dc:format>
    <dc:creator>
     <cc:Agent>
      <dc:title>Matplotlib v3.7.1, https://matplotlib.org/</dc:title>
     </cc:Agent>
    </dc:creator>
   </cc:Work>
  </rdf:RDF>
 </metadata>
 <defs>
  <style type="text/css">*{stroke-linejoin: round; stroke-linecap: butt}</style>
 </defs>
 <g id="figure_1">
  <g id="patch_1">
   <path d="M 0 72 
L 720 72 
L 720 0 
L 0 0 
L 0 72 
z
" style="fill: none"/>
  </g>
  <g id="axes_1">
   <g id="PolyCollection_1">
    <defs>
     <path id="m28716946aa" d="M 115.363636 -43.381176 
L 115.363636 -10.44 
L 154.384615 -10.44 
L 154.384615 -43.381176 
L 154.384615 -43.381176 
L 115.363636 -43.381176 
z
" style="stroke: #ffffff; stroke-opacity: 0.9"/>
    </defs>
    <g clip-path="url(#pc4e70738c3)">
     <use xlink:href="#m28716946aa" x="0" y="72" style="fill: #1f77b4; fill-opacity: 0.9; stroke: #ffffff; stroke-opacity: 0.9"/>
    </g>
   </g>
   <g id="PolyCollection_2">
    <defs>
     <path id="mba65d82f0d" d="M 115.363636 -60.84 
L 115.363636 -44.369412 
L 154.384615 -44.369412 
L 154.384615 -60.84 
L 154.384615 -60.84 
L 115.363636 -60.84 
z
" style="stroke: #ffffff; stroke-opacity: 0.9"/>
    </defs>
    <g clip-path="url(#pc4e70738c3)">
     <use xlink:href="#mba65d82f0d" x="0" y="72" style="fill: #aec7e8; fill-opacity: 0.9; stroke: #ffffff; stroke-opacity: 0.9"/>
    </g>
   </g>
   <g id="PolyCollection_3">
    <defs>
     <path id="m402ac82e9c" d="M 349.48951 -43.381176 
L 349.48951 -10.44 
L 388.51049 -10.44 
L 388.51049 -43.381176 
L 388.51049 -43.381176 
L 349.48951 -43.381176 
z
" style="stroke: #ffffff; stroke-opacity: 0.9"/>
    </defs>
    <g clip-path="url(#pc4e70738c3)">
     <use xlink:href="#m402ac82e9c" x="0" y="72" style="fill: #ffbb78; fill-opacity: 0.9; stroke: #ffffff; stroke-opacity: 0.9"/>
    </g>
   </g>
   <g id="PolyCollection_4">
    <defs>
     <path id="m1de4a40cb9" d="M 349.48951 -60.84 
L 349.48951 -44.369412 
L 388.51049 -44.369412 
L 388.51049 -60.84 
L 388.51049 -60.84 
L 349.48951 -60.84 
z
" style="stroke: #ffffff; stroke-opacity: 0.9"/>
    </defs>
    <g clip-path="url(#pc4e70738c3)">
     <use xlink:href="#m1de4a40cb9" x="0" y="72" style="fill: #98df8a; fill-opacity: 0.9; stroke: #ffffff; stroke-opacity: 0.9"/>
    </g>
   </g>
   <g id="PolyCollection_5">
    <defs>
     <path id="md9eb96b6dd" d="M 583.615385 -43.381176 
L 583.615385 -10.44 
L 622.636364 -10.44 
L 622.636364 -43.381176 
L 622.636364 -43.381176 
L 583.615385 -43.381176 
z
" style="stroke: #ffffff; stroke-opacity: 0.9"/>
    </defs>
    <g clip-path="url(#pc4e70738c3)">
     <use xlink:href="#md9eb96b6dd" x="0" y="72" style="fill: #2ca02c; fill-opacity: 0.9; stroke: #ffffff; stroke-opacity: 0.9"/>
    </g>
   </g>
   <g id="PolyCollection_6">
    <defs>
     <path id="m273fa0fc6a" d="M 583.615385 -60.84 
L 583.615385 -44.369412 
L 622.636364 -44.369412 
L 622.636364 -60.84 
L 622.636364 -60.84 
L 583.615385 -60.84 
z
" style="stroke: #ffffff; stroke-opacity: 0.9"/>
    </defs>
    <g clip-path="url(#pc4e70738c3)">
     <use xlink:href="#m273fa0fc6a" x="0" y="72" style="fill: #ff7f0e; fill-opacity: 0.9; stroke: #ffffff; stroke-opacity: 0.9"/>
    </g>
   </g>
   <g id="PolyCollection_7">
    <defs>
     <path id="m8951ada1f0" d="M 154.384615 -43.381176 
L 154.384615 -10.44 
L 158.210202 -10.44 
L 162.035788 -10.44 
L 165.861374 -10.44 
L 169.68696 -10.44 
L 173.512546 -10.44 
L 177.338132 -10.44 
L 181.163719 -10.44 
L 184.989305 -10.44 
L 188.814891 -10.44 
L 192.640477 -10.44 
L 196.466063 -10.44 
L 200.29165 -10.44 
L 204.117236 -10.44 
L 207.942822 -10.44 
L 211.768408 -10.44 
L 215.593994 -10.44 
L 219.41958 -10.44 
L 223.245167 -10.44 
L 227.070753 -10.44 
L 230.896339 -10.44 
L 234.721925 -10.44 
L 238.547511 -10.44 
L 242.373097 -10.44 
L 246.198684 -10.44 
L 250.02427 -10.44 
L 253.849856 -10.44 
L 257.675442 -10.44 
L 261.501028 -10.44 
L 265.326615 -10.44 
L 269.152201 -10.44 
L 272.977787 -10.44 
L 276.803373 -10.44 
L 280.628959 -10.44 
L 284.454545 -10.44 
L 288.280132 -10.44 
L 292.105718 -10.44 
L 295.931304 -10.44 
L 299.75689 -10.44 
L 303.582476 -10.44 
L 307.408063 -10.44 
L 311.233649 -10.44 
L 315.059235 -10.44 
L 318.884821 -10.44 
L 322.710407 -10.44 
L 326.535993 -10.44 
L 330.36158 -10.44 
L 334.187166 -10.44 
L 338.012752 -10.44 
L 341.838338 -10.44 
L 345.663924 -10.44 
L 349.48951 -10.44 
L 349.48951 -43.381176 
L 349.48951 -43.381176 
L 345.663924 -43.381176 
L 341.838338 -43.381176 
L 338.012752 -43.381176 
L 334.187166 -43.381176 
L 330.36158 -43.381176 
L 326.535993 -43.381176 
L 322.710407 -43.381176 
L 318.884821 -43.381176 
L 315.059235 -43.381176 
L 311.233649 -43.381176 
L 307.408063 -43.381176 
L 303.582476 -43.381176 
L 299.75689 -43.381176 
L 295.931304 -43.381176 
L 292.105718 -43.381176 
L 288.280132 -43.381176 
L 284.454545 -43.381176 
L 280.628959 -43.381176 
L 276.803373 -43.381176 
L 272.977787 -43.381176 
L 269.152201 -43.381176 
L 265.326615 -43.381176 
L 261.501028 -43.381176 
L 257.675442 -43.381176 
L 253.849856 -43.381176 
L 250.02427 -43.381176 
L 246.198684 -43.381176 
L 242.373097 -43.381176 
L 238.547511 -43.381176 
L 234.721925 -43.381176 
L 230.896339 -43.381176 
L 227.070753 -43.381176 
L 223.245167 -43.381176 
L 219.41958 -43.381176 
L 215.593994 -43.381176 
L 211.768408 -43.381176 
L 207.942822 -43.381176 
L 204.117236 -43.381176 
L 200.29165 -43.381176 
L 196.466063 -43.381176 
L 192.640477 -43.381176 
L 188.814891 -43.381176 
L 184.989305 -43.381176 
L 181.163719 -43.381176 
L 177.338132 -43.381176 
L 173.512546 -43.381176 
L 169.68696 -43.381176 
L 165.861374 -43.381176 
L 162.035788 -43.381176 
L 158.210202 -43.381176 
L 154.384615 -43.381176 
z
" style="stroke: #1f77b4; stroke-opacity: 0.4"/>
    </defs>
    <g clip-path="url(#pc4e70738c3)">
     <use xlink:href="#m8951ada1f0" x="0" y="72" style="fill: #1f77b4; fill-opacity: 0.4; stroke: #1f77b4; stroke-opacity: 0.4"/>
    </g>
   </g>
   <g id="PolyCollection_8">
    <defs>
     <path id="m77a69d1b8a" d="M 154.384615 -60.84 
L 154.384615 -44.369412 
L 158.210202 -44.369412 
L 162.035788 -44.369412 
L 165.861374 -44.369412 
L 169.68696 -44.369412 
L 173.512546 -44.369412 
L 177.338132 -44.369412 
L 181.163719 -44.369412 
L 184.989305 -44.369412 
L 188.814891 -44.369412 
L 192.640477 -44.369412 
L 196.466063 -44.369412 
L 200.29165 -44.369412 
L 204.117236 -44.369412 
L 207.942822 -44.369412 
L 211.768408 -44.369412 
L 215.593994 -44.369412 
L 219.41958 -44.369412 
L 223.245167 -44.369412 
L 227.070753 -44.369412 
L 230.896339 -44.369412 
L 234.721925 -44.369412 
L 238.547511 -44.369412 
L 242.373097 -44.369412 
L 246.198684 -44.369412 
L 250.02427 -44.369412 
L 253.849856 -44.369412 
L 257.675442 -44.369412 
L 261.501028 -44.369412 
L 265.326615 -44.369412 
L 269.152201 -44.369412 
L 272.977787 -44.369412 
L 276.803373 -44.369412 
L 280.628959 -44.369412 
L 284.454545 -44.369412 
L 288.280132 -44.369412 
L 292.105718 -44.369412 
L 295.931304 -44.369412 
L 299.75689 -44.369412 
L 303.582476 -44.369412 
L 307.408063 -44.369412 
L 311.233649 -44.369412 
L 315.059235 -44.369412 
L 318.884821 -44.369412 
L 322.710407 -44.369412 
L 326.535993 -44.369412 
L 330.36158 -44.369412 
L 334.187166 -44.369412 
L 338.012752 -44.369412 
L 341.838338 -44.369412 
L 345.663924 -44.369412 
L 349.48951 -44.369412 
L 349.48951 -60.84 
L 349.48951 -60.84 
L 345.663924 -60.84 
L 341.838338 -60.84 
L 338.012752 -60.84 
L 334.187166 -60.84 
L 330.36158 -60.84 
L 326.535993 -60.84 
L 322.710407 -60.84 
L 318.884821 -60.84 
L 315.059235 -60.84 
L 311.233649 -60.84 
L 307.408063 -60.84 
L 303.582476 -60.84 
L 299.75689 -60.84 
L 295.931304 -60.84 
L 292.105718 -60.84 
L 288.280132 -60.84 
L 284.454545 -60.84 
L 280.628959 -60.84 
L 276.803373 -60.84 
L 272.977787 -60.84 
L 269.152201 -60.84 
L 265.326615 -60.84 
L 261.501028 -60.84 
L 257.675442 -60.84 
L 253.849856 -60.84 
L 250.02427 -60.84 
L 246.198684 -60.84 
L 242.373097 -60.84 
L 238.547511 -60.84 
L 234.721925 -60.84 
L 230.896339 -60.84 
L 227.070753 -60.84 
L 223.245167 -60.84 
L 219.41958 -60.84 
L 215.593994 -60.84 
L 211.768408 -60.84 
L 207.942822 -60.84 
L 204.117236 -60.84 
L 200.29165 -60.84 
L 196.466063 -60.84 
L 192.640477 -60.84 
L 188.814891 -60.84 
L 184.989305 -60.84 
L 181.163719 -60.84 
L 177.338132 -60.84 
L 173.512546 -60.84 
L 169.68696 -60.84 
L 165.861374 -60.84 
L 162.035788 -60.84 
L 158.210202 -60.84 
L 154.384615 -60.84 
z
" style="stroke: #aec7e8; stroke-opacity: 0.4"/>
    </defs>
    <g clip-path="url(#pc4e70738c3)">
     <use xlink:href="#m77a69d1b8a" x="0" y="72" style="fill: #aec7e8; fill-opacity: 0.4; stroke: #aec7e8; stroke-opacity: 0.4"/>
    </g>
   </g>
   <g id="PolyCollection_9">
    <defs>
     <path id="ma094072bed" d="M 388.51049 -43.381176 
L 388.51049 -10.44 
L 392.336076 -10.44 
L 396.161662 -10.44 
L 399.987248 -10.44 
L 403.812834 -10.44 
L 407.63842 -10.44 
L 411.464007 -10.44 
L 415.289593 -10.44 
L 419.115179 -10.44 
L 422.940765 -10.44 
L 426.766351 -10.44 
L 430.591937 -10.44 
L 434.417524 -10.44 
L 438.24311 -10.44 
L 442.068696 -10.44 
L 445.894282 -10.44 
L 449.719868 -10.44 
L 453.545455 -10.44 
L 457.371041 -10.44 
L 461.196627 -10.44 
L 465.022213 -10.44 
L 468.847799 -10.44 
L 472.673385 -10.44 
L 476.498972 -10.44 
L 480.324558 -10.44 
L 484.150144 -10.44 
L 487.97573 -10.44 
L 491.801316 -10.44 
L 495.626903 -10.44 
L 499.452489 -10.44 
L 503.278075 -10.44 
L 507.103661 -10.44 
L 510.929247 -10.44 
L 514.754833 -10.44 
L 518.58042 -10.44 
L 522.406006 -10.44 
L 526.231592 -10.44 
L 530.057178 -10.44 
L 533.882764 -10.44 
L 537.70835 -10.44 
L 541.533937 -10.44 
L 545.359523 -10.44 
L 549.185109 -10.44 
L 553.010695 -10.44 
L 556.836281 -10.44 
L 560.661868 -10.44 
L 564.487454 -10.44 
L 568.31304 -10.44 
L 572.138626 -10.44 
L 575.964212 -10.44 
L 579.789798 -10.44 
L 583.615385 -10.44 
L 583.615385 -43.381176 
L 583.615385 -43.381176 
L 579.789798 -43.381176 
L 575.964212 -43.381176 
L 572.138626 -43.381176 
L 568.31304 -43.381176 
L 564.487454 -43.381176 
L 560.661868 -43.381176 
L 556.836281 -43.381176 
L 553.010695 -43.381176 
L 549.185109 -43.381176 
L 545.359523 -43.381176 
L 541.533937 -43.381176 
L 537.70835 -43.381176 
L 533.882764 -43.381176 
L 530.057178 -43.381176 
L 526.231592 -43.381176 
L 522.406006 -43.381176 
L 518.58042 -43.381176 
L 514.754833 -43.381176 
L 510.929247 -43.381176 
L 507.103661 -43.381176 
L 503.278075 -43.381176 
L 499.452489 -43.381176 
L 495.626903 -43.381176 
L 491.801316 -43.381176 
L 487.97573 -43.381176 
L 484.150144 -43.381176 
L 480.324558 -43.381176 
L 476.498972 -43.381176 
L 472.673385 -43.381176 
L 468.847799 -43.381176 
L 465.022213 -43.381176 
L 461.196627 -43.381176 
L 457.371041 -43.381176 
L 453.545455 -43.381176 
L 449.719868 -43.381176 
L 445.894282 -43.381176 
L 442.068696 -43.381176 
L 438.24311 -43.381176 
L 434.417524 -43.381176 
L 430.591937 -43.381176 
L 426.766351 -43.381176 
L 422.940765 -43.381176 
L 419.115179 -43.381176 
L 415.289593 -43.381176 
L 411.464007 -43.381176 
L 407.63842 -43.381176 
L 403.812834 -43.381176 
L 399.987248 -43.381176 
L 396.161662 -43.381176 
L 392.336076 -43.381176 
L 388.51049 -43.381176 
z
" style="stroke: #ffbb78; stroke-opacity: 0.4"/>
    </defs>
    <g clip-path="url(#pc4e70738c3)">
     <use xlink:href="#ma094072bed" x="0" y="72" style="fill: #ffbb78; fill-opacity: 0.4; stroke: #ffbb78; stroke-opacity: 0.4"/>
    </g>
   </g>
   <g id="PolyCollection_10">
    <defs>
     <path id="m3d884a62b4" d="M 388.51049 -60.84 
L 388.51049 -44.369412 
L 392.336076 -44.369412 
L 396.161662 -44.369412 
L 399.987248 -44.369412 
L 403.812834 -44.369412 
L 407.63842 -44.369412 
L 411.464007 -44.369412 
L 415.289593 -44.369412 
L 419.115179 -44.369412 
L 422.940765 -44.369412 
L 426.766351 -44.369412 
L 430.591937 -44.369412 
L 434.417524 -44.369412 
L 438.24311 -44.369412 
L 442.068696 -44.369412 
L 445.894282 -44.369412 
L 449.719868 -44.369412 
L 453.545455 -44.369412 
L 457.371041 -44.369412 
L 461.196627 -44.369412 
L 465.022213 -44.369412 
L 468.847799 -44.369412 
L 472.673385 -44.369412 
L 476.498972 -44.369412 
L 480.324558 -44.369412 
L 484.150144 -44.369412 
L 487.97573 -44.369412 
L 491.801316 -44.369412 
L 495.626903 -44.369412 
L 499.452489 -44.369412 
L 503.278075 -44.369412 
L 507.103661 -44.369412 
L 510.929247 -44.369412 
L 514.754833 -44.369412 
L 518.58042 -44.369412 
L 522.406006 -44.369412 
L 526.231592 -44.369412 
L 530.057178 -44.369412 
L 533.882764 -44.369412 
L 537.70835 -44.369412 
L 541.533937 -44.369412 
L 545.359523 -44.369412 
L 549.185109 -44.369412 
L 553.010695 -44.369412 
L 556.836281 -44.369412 
L 560.661868 -44.369412 
L 564.487454 -44.369412 
L 568.31304 -44.369412 
L 572.138626 -44.369412 
L 575.964212 -44.369412 
L 579.789798 -44.369412 
L 583.615385 -44.369412 
L 583.615385 -60.84 
L 583.615385 -60.84 
L 579.789798 -60.84 
L 575.964212 -60.84 
L 572.138626 -60.84 
L 568.31304 -60.84 
L 564.487454 -60.84 
L 560.661868 -60.84 
L 556.836281 -60.84 
L 553.010695 -60.84 
L 549.185109 -60.84 
L 545.359523 -60.84 
L 541.533937 -60.84 
L 537.70835 -60.84 
L 533.882764 -60.84 
L 530.057178 -60.84 
L 526.231592 -60.84 
L 522.406006 -60.84 
L 518.58042 -60.84 
L 514.754833 -60.84 
L 510.929247 -60.84 
L 507.103661 -60.84 
L 503.278075 -60.84 
L 499.452489 -60.84 
L 495.626903 -60.84 
L 491.801316 -60.84 
L 487.97573 -60.84 
L 484.150144 -60.84 
L 480.324558 -60.84 
L 476.498972 -60.84 
L 472.673385 -60.84 
L 468.847799 -60.84 
L 465.022213 -60.84 
L 461.196627 -60.84 
L 457.371041 -60.84 
L 453.545455 -60.84 
L 449.719868 -60.84 
L 445.894282 -60.84 
L 442.068696 -60.84 
L 438.24311 -60.84 
L 434.417524 -60.84 
L 430.591937 -60.84 
L 426.766351 -60.84 
L 422.940765 -60.84 
L 419.115179 -60.84 
L 415.289593 -60.84 
L 411.464007 -60.84 
L 407.63842 -60.84 
L 403.812834 -60.84 
L 399.987248 -60.84 
L 396.161662 -60.84 
L 392.336076 -60.84 
L 388.51049 -60.84 
z
" style="stroke: #98df8a; stroke-opacity: 0.4"/>
    </defs>
    <g clip-path="url(#pc4e70738c3)">
     <use xlink:href="#m3d884a62b4" x="0" y="72" style="fill: #98df8a; fill-opacity: 0.4; stroke: #98df8a; stroke-opacity: 0.4"/>
    </g>
   </g>
   <g id="text_1">
    <!-- Tetrodotoxins -->
    <g style="fill: #262626" transform="translate(50.04174 47.674568) scale(0.1 -0.1)">
     <defs>
      <path id="ArialMT-54" d="M 1659 0 
L 1659 4041 
L 150 4041 
L 150 4581 
L 3781 4581 
L 3781 4041 
L 2266 4041 
L 2266 0 
L 1659 0 
z
" transform="scale(0.015625)"/>
      <path id="ArialMT-65" d="M 2694 1069 
L 3275 997 
Q 3138 488 2766 206 
Q 2394 -75 1816 -75 
Q 1088 -75 661 373 
Q 234 822 234 1631 
Q 234 2469 665 2931 
Q 1097 3394 1784 3394 
Q 2450 3394 2872 2941 
Q 3294 2488 3294 1666 
Q 3294 1616 3291 1516 
L 816 1516 
Q 847 969 1125 678 
Q 1403 388 1819 388 
Q 2128 388 2347 550 
Q 2566 713 2694 1069 
z
M 847 1978 
L 2700 1978 
Q 2663 2397 2488 2606 
Q 2219 2931 1791 2931 
Q 1403 2931 1139 2672 
Q 875 2413 847 1978 
z
" transform="scale(0.015625)"/>
      <path id="ArialMT-74" d="M 1650 503 
L 1731 6 
Q 1494 -44 1306 -44 
Q 1000 -44 831 53 
Q 663 150 594 308 
Q 525 466 525 972 
L 525 2881 
L 113 2881 
L 113 3319 
L 525 3319 
L 525 4141 
L 1084 4478 
L 1084 3319 
L 1650 3319 
L 1650 2881 
L 1084 2881 
L 1084 941 
Q 1084 700 1114 631 
Q 1144 563 1211 522 
Q 1278 481 1403 481 
Q 1497 481 1650 503 
z
" transform="scale(0.015625)"/>
      <path id="ArialMT-72" d="M 416 0 
L 416 3319 
L 922 3319 
L 922 2816 
Q 1116 3169 1280 3281 
Q 1444 3394 1641 3394 
Q 1925 3394 2219 3213 
L 2025 2691 
Q 1819 2813 1613 2813 
Q 1428 2813 1281 2702 
Q 1134 2591 1072 2394 
Q 978 2094 978 1738 
L 978 0 
L 416 0 
z
" transform="scale(0.015625)"/>
      <path id="ArialMT-6f" d="M 213 1659 
Q 213 2581 725 3025 
Q 1153 3394 1769 3394 
Q 2453 3394 2887 2945 
Q 3322 2497 3322 1706 
Q 3322 1066 3130 698 
Q 2938 331 2570 128 
Q 2203 -75 1769 -75 
Q 1072 -75 642 372 
Q 213 819 213 1659 
z
M 791 1659 
Q 791 1022 1069 705 
Q 1347 388 1769 388 
Q 2188 388 2466 706 
Q 2744 1025 2744 1678 
Q 2744 2294 2464 2611 
Q 2184 2928 1769 2928 
Q 1347 2928 1069 2612 
Q 791 2297 791 1659 
z
" transform="scale(0.015625)"/>
      <path id="ArialMT-64" d="M 2575 0 
L 2575 419 
Q 2259 -75 1647 -75 
Q 1250 -75 917 144 
Q 584 363 401 755 
Q 219 1147 219 1656 
Q 219 2153 384 2558 
Q 550 2963 881 3178 
Q 1213 3394 1622 3394 
Q 1922 3394 2156 3267 
Q 2391 3141 2538 2938 
L 2538 4581 
L 3097 4581 
L 3097 0 
L 2575 0 
z
M 797 1656 
Q 797 1019 1065 703 
Q 1334 388 1700 388 
Q 2069 388 2326 689 
Q 2584 991 2584 1609 
Q 2584 2291 2321 2609 
Q 2059 2928 1675 2928 
Q 1300 2928 1048 2622 
Q 797 2316 797 1656 
z
" transform="scale(0.015625)"/>
      <path id="ArialMT-78" d="M 47 0 
L 1259 1725 
L 138 3319 
L 841 3319 
L 1350 2541 
Q 1494 2319 1581 2169 
Q 1719 2375 1834 2534 
L 2394 3319 
L 3066 3319 
L 1919 1756 
L 3153 0 
L 2463 0 
L 1781 1031 
L 1600 1309 
L 728 0 
L 47 0 
z
" transform="scale(0.015625)"/>
      <path id="ArialMT-69" d="M 425 3934 
L 425 4581 
L 988 4581 
L 988 3934 
L 425 3934 
z
M 425 0 
L 425 3319 
L 988 3319 
L 988 0 
L 425 0 
z
" transform="scale(0.015625)"/>
      <path id="ArialMT-6e" d="M 422 0 
L 422 3319 
L 928 3319 
L 928 2847 
Q 1294 3394 1984 3394 
Q 2284 3394 2536 3286 
Q 2788 3178 2913 3003 
Q 3038 2828 3088 2588 
Q 3119 2431 3119 2041 
L 3119 0 
L 2556 0 
L 2556 2019 
Q 2556 2363 2490 2533 
Q 2425 2703 2258 2804 
Q 2091 2906 1866 2906 
Q 1506 2906 1245 2678 
Q 984 2450 984 1813 
L 984 0 
L 422 0 
z
" transform="scale(0.015625)"/>
      <path id="ArialMT-73" d="M 197 991 
L 753 1078 
Q 800 744 1014 566 
Q 1228 388 1613 388 
Q 2000 388 2187 545 
Q 2375 703 2375 916 
Q 2375 1106 2209 1216 
Q 2094 1291 1634 1406 
Q 1016 1563 777 1677 
Q 538 1791 414 1992 
Q 291 2194 291 2438 
Q 291 2659 392 2848 
Q 494 3038 669 3163 
Q 800 3259 1026 3326 
Q 1253 3394 1513 3394 
Q 1903 3394 2198 3281 
Q 2494 3169 2634 2976 
Q 2775 2784 2828 2463 
L 2278 2388 
Q 2241 2644 2061 2787 
Q 1881 2931 1553 2931 
Q 1166 2931 1000 2803 
Q 834 2675 834 2503 
Q 834 2394 903 2306 
Q 972 2216 1119 2156 
Q 1203 2125 1616 2013 
Q 2213 1853 2448 1751 
Q 2684 1650 2818 1456 
Q 2953 1263 2953 975 
Q 2953 694 2789 445 
Q 2625 197 2315 61 
Q 2006 -75 1616 -75 
Q 969 -75 630 194 
Q 291 463 197 991 
z
" transform="scale(0.015625)"/>
     </defs>
     <use xlink:href="#ArialMT-54"/>
     <use xlink:href="#ArialMT-65" x="49.958984"/>
     <use xlink:href="#ArialMT-74" x="105.574219"/>
     <use xlink:href="#ArialMT-72" x="133.357422"/>
     <use xlink:href="#ArialMT-6f" x="166.658203"/>
     <use xlink:href="#ArialMT-64" x="222.273438"/>
     <use xlink:href="#ArialMT-6f" x="277.888672"/>
     <use xlink:href="#ArialMT-74" x="333.503906"/>
     <use xlink:href="#ArialMT-6f" x="361.287109"/>
     <use xlink:href="#ArialMT-78" x="416.902344"/>
     <use xlink:href="#ArialMT-69" x="466.902344"/>
     <use xlink:href="#ArialMT-6e" x="489.119141"/>
     <use xlink:href="#ArialMT-73" x="544.734375"/>
    </g>
   </g>
   <g id="text_2">
    <!-- Acyclic guanidine alkaloids -->
    <g style="fill: #262626" transform="translate(-9.43951 21.921857) scale(0.1 -0.1)">
     <defs>
      <path id="ArialMT-41" d="M -9 0 
L 1750 4581 
L 2403 4581 
L 4278 0 
L 3588 0 
L 3053 1388 
L 1138 1388 
L 634 0 
L -9 0 
z
M 1313 1881 
L 2866 1881 
L 2388 3150 
Q 2169 3728 2063 4100 
Q 1975 3659 1816 3225 
L 1313 1881 
z
" transform="scale(0.015625)"/>
      <path id="ArialMT-63" d="M 2588 1216 
L 3141 1144 
Q 3050 572 2676 248 
Q 2303 -75 1759 -75 
Q 1078 -75 664 370 
Q 250 816 250 1647 
Q 250 2184 428 2587 
Q 606 2991 970 3192 
Q 1334 3394 1763 3394 
Q 2303 3394 2647 3120 
Q 2991 2847 3088 2344 
L 2541 2259 
Q 2463 2594 2264 2762 
Q 2066 2931 1784 2931 
Q 1359 2931 1093 2626 
Q 828 2322 828 1663 
Q 828 994 1084 691 
Q 1341 388 1753 388 
Q 2084 388 2306 591 
Q 2528 794 2588 1216 
z
" transform="scale(0.015625)"/>
      <path id="ArialMT-79" d="M 397 -1278 
L 334 -750 
Q 519 -800 656 -800 
Q 844 -800 956 -737 
Q 1069 -675 1141 -563 
Q 1194 -478 1313 -144 
Q 1328 -97 1363 -6 
L 103 3319 
L 709 3319 
L 1400 1397 
Q 1534 1031 1641 628 
Q 1738 1016 1872 1384 
L 2581 3319 
L 3144 3319 
L 1881 -56 
Q 1678 -603 1566 -809 
Q 1416 -1088 1222 -1217 
Q 1028 -1347 759 -1347 
Q 597 -1347 397 -1278 
z
" transform="scale(0.015625)"/>
      <path id="ArialMT-6c" d="M 409 0 
L 409 4581 
L 972 4581 
L 972 0 
L 409 0 
z
" transform="scale(0.015625)"/>
      <path id="ArialMT-20" transform="scale(0.015625)"/>
      <path id="ArialMT-67" d="M 319 -275 
L 866 -356 
Q 900 -609 1056 -725 
Q 1266 -881 1628 -881 
Q 2019 -881 2231 -725 
Q 2444 -569 2519 -288 
Q 2563 -116 2559 434 
Q 2191 0 1641 0 
Q 956 0 581 494 
Q 206 988 206 1678 
Q 206 2153 378 2554 
Q 550 2956 876 3175 
Q 1203 3394 1644 3394 
Q 2231 3394 2613 2919 
L 2613 3319 
L 3131 3319 
L 3131 450 
Q 3131 -325 2973 -648 
Q 2816 -972 2473 -1159 
Q 2131 -1347 1631 -1347 
Q 1038 -1347 672 -1080 
Q 306 -813 319 -275 
z
M 784 1719 
Q 784 1066 1043 766 
Q 1303 466 1694 466 
Q 2081 466 2343 764 
Q 2606 1063 2606 1700 
Q 2606 2309 2336 2618 
Q 2066 2928 1684 2928 
Q 1309 2928 1046 2623 
Q 784 2319 784 1719 
z
" transform="scale(0.015625)"/>
      <path id="ArialMT-75" d="M 2597 0 
L 2597 488 
Q 2209 -75 1544 -75 
Q 1250 -75 995 37 
Q 741 150 617 320 
Q 494 491 444 738 
Q 409 903 409 1263 
L 409 3319 
L 972 3319 
L 972 1478 
Q 972 1038 1006 884 
Q 1059 663 1231 536 
Q 1403 409 1656 409 
Q 1909 409 2131 539 
Q 2353 669 2445 892 
Q 2538 1116 2538 1541 
L 2538 3319 
L 3100 3319 
L 3100 0 
L 2597 0 
z
" transform="scale(0.015625)"/>
      <path id="ArialMT-61" d="M 2588 409 
Q 2275 144 1986 34 
Q 1697 -75 1366 -75 
Q 819 -75 525 192 
Q 231 459 231 875 
Q 231 1119 342 1320 
Q 453 1522 633 1644 
Q 813 1766 1038 1828 
Q 1203 1872 1538 1913 
Q 2219 1994 2541 2106 
Q 2544 2222 2544 2253 
Q 2544 2597 2384 2738 
Q 2169 2928 1744 2928 
Q 1347 2928 1158 2789 
Q 969 2650 878 2297 
L 328 2372 
Q 403 2725 575 2942 
Q 747 3159 1072 3276 
Q 1397 3394 1825 3394 
Q 2250 3394 2515 3294 
Q 2781 3194 2906 3042 
Q 3031 2891 3081 2659 
Q 3109 2516 3109 2141 
L 3109 1391 
Q 3109 606 3145 398 
Q 3181 191 3288 0 
L 2700 0 
Q 2613 175 2588 409 
z
M 2541 1666 
Q 2234 1541 1622 1453 
Q 1275 1403 1131 1340 
Q 988 1278 909 1158 
Q 831 1038 831 891 
Q 831 666 1001 516 
Q 1172 366 1500 366 
Q 1825 366 2078 508 
Q 2331 650 2450 897 
Q 2541 1088 2541 1459 
L 2541 1666 
z
" transform="scale(0.015625)"/>
      <path id="ArialMT-6b" d="M 425 0 
L 425 4581 
L 988 4581 
L 988 1969 
L 2319 3319 
L 3047 3319 
L 1778 2088 
L 3175 0 
L 2481 0 
L 1384 1697 
L 988 1316 
L 988 0 
L 425 0 
z
" transform="scale(0.015625)"/>
     </defs>
     <use xlink:href="#ArialMT-41"/>
     <use xlink:href="#ArialMT-63" x="66.699219"/>
     <use xlink:href="#ArialMT-79" x="116.699219"/>
     <use xlink:href="#ArialMT-63" x="166.699219"/>
     <use xlink:href="#ArialMT-6c" x="216.699219"/>
     <use xlink:href="#ArialMT-69" x="238.916016"/>
     <use xlink:href="#ArialMT-63" x="261.132812"/>
     <use xlink:href="#ArialMT-20" x="311.132812"/>
     <use xlink:href="#ArialMT-67" x="338.916016"/>
     <use xlink:href="#ArialMT-75" x="394.53125"/>
     <use xlink:href="#ArialMT-61" x="450.146484"/>
     <use xlink:href="#ArialMT-6e" x="505.761719"/>
     <use xlink:href="#ArialMT-69" x="561.376953"/>
     <use xlink:href="#ArialMT-64" x="583.59375"/>
     <use xlink:href="#ArialMT-69" x="639.208984"/>
     <use xlink:href="#ArialMT-6e" x="661.425781"/>
     <use xlink:href="#ArialMT-65" x="717.041016"/>
     <use xlink:href="#ArialMT-20" x="772.65625"/>
     <use xlink:href="#ArialMT-61" x="800.439453"/>
     <use xlink:href="#ArialMT-6c" x="856.054688"/>
     <use xlink:href="#ArialMT-6b" x="878.271484"/>
     <use xlink:href="#ArialMT-61" x="928.271484"/>
     <use xlink:href="#ArialMT-6c" x="983.886719"/>
     <use xlink:href="#ArialMT-6f" x="1006.103516"/>
     <use xlink:href="#ArialMT-69" x="1061.71875"/>
     <use xlink:href="#ArialMT-64" x="1083.935547"/>
     <use xlink:href="#ArialMT-73" x="1139.550781"/>
    </g>
   </g>
   <g id="text_3">
    <!-- LTS0035190 -->
    <g style="fill: #262626" transform="translate(287.108239 47.674568) scale(0.1 -0.1)">
     <defs>
      <path id="ArialMT-4c" d="M 469 0 
L 469 4581 
L 1075 4581 
L 1075 541 
L 3331 541 
L 3331 0 
L 469 0 
z
" transform="scale(0.015625)"/>
      <path id="ArialMT-53" d="M 288 1472 
L 859 1522 
Q 900 1178 1048 958 
Q 1197 738 1509 602 
Q 1822 466 2213 466 
Q 2559 466 2825 569 
Q 3091 672 3220 851 
Q 3350 1031 3350 1244 
Q 3350 1459 3225 1620 
Q 3100 1781 2813 1891 
Q 2628 1963 1997 2114 
Q 1366 2266 1113 2400 
Q 784 2572 623 2826 
Q 463 3081 463 3397 
Q 463 3744 659 4045 
Q 856 4347 1234 4503 
Q 1613 4659 2075 4659 
Q 2584 4659 2973 4495 
Q 3363 4331 3572 4012 
Q 3781 3694 3797 3291 
L 3216 3247 
Q 3169 3681 2898 3903 
Q 2628 4125 2100 4125 
Q 1550 4125 1298 3923 
Q 1047 3722 1047 3438 
Q 1047 3191 1225 3031 
Q 1400 2872 2139 2705 
Q 2878 2538 3153 2413 
Q 3553 2228 3743 1945 
Q 3934 1663 3934 1294 
Q 3934 928 3725 604 
Q 3516 281 3123 101 
Q 2731 -78 2241 -78 
Q 1619 -78 1198 103 
Q 778 284 539 648 
Q 300 1013 288 1472 
z
" transform="scale(0.015625)"/>
      <path id="ArialMT-30" d="M 266 2259 
Q 266 3072 433 3567 
Q 600 4063 929 4331 
Q 1259 4600 1759 4600 
Q 2128 4600 2406 4451 
Q 2684 4303 2865 4023 
Q 3047 3744 3150 3342 
Q 3253 2941 3253 2259 
Q 3253 1453 3087 958 
Q 2922 463 2592 192 
Q 2263 -78 1759 -78 
Q 1097 -78 719 397 
Q 266 969 266 2259 
z
M 844 2259 
Q 844 1131 1108 757 
Q 1372 384 1759 384 
Q 2147 384 2411 759 
Q 2675 1134 2675 2259 
Q 2675 3391 2411 3762 
Q 2147 4134 1753 4134 
Q 1366 4134 1134 3806 
Q 844 3388 844 2259 
z
" transform="scale(0.015625)"/>
      <path id="ArialMT-33" d="M 269 1209 
L 831 1284 
Q 928 806 1161 595 
Q 1394 384 1728 384 
Q 2125 384 2398 659 
Q 2672 934 2672 1341 
Q 2672 1728 2419 1979 
Q 2166 2231 1775 2231 
Q 1616 2231 1378 2169 
L 1441 2663 
Q 1497 2656 1531 2656 
Q 1891 2656 2178 2843 
Q 2466 3031 2466 3422 
Q 2466 3731 2256 3934 
Q 2047 4138 1716 4138 
Q 1388 4138 1169 3931 
Q 950 3725 888 3313 
L 325 3413 
Q 428 3978 793 4289 
Q 1159 4600 1703 4600 
Q 2078 4600 2393 4439 
Q 2709 4278 2876 4000 
Q 3044 3722 3044 3409 
Q 3044 3113 2884 2869 
Q 2725 2625 2413 2481 
Q 2819 2388 3044 2092 
Q 3269 1797 3269 1353 
Q 3269 753 2831 336 
Q 2394 -81 1725 -81 
Q 1122 -81 723 278 
Q 325 638 269 1209 
z
" transform="scale(0.015625)"/>
      <path id="ArialMT-35" d="M 266 1200 
L 856 1250 
Q 922 819 1161 601 
Q 1400 384 1738 384 
Q 2144 384 2425 690 
Q 2706 997 2706 1503 
Q 2706 1984 2436 2262 
Q 2166 2541 1728 2541 
Q 1456 2541 1237 2417 
Q 1019 2294 894 2097 
L 366 2166 
L 809 4519 
L 3088 4519 
L 3088 3981 
L 1259 3981 
L 1013 2750 
Q 1425 3038 1878 3038 
Q 2478 3038 2890 2622 
Q 3303 2206 3303 1553 
Q 3303 931 2941 478 
Q 2500 -78 1738 -78 
Q 1113 -78 717 272 
Q 322 622 266 1200 
z
" transform="scale(0.015625)"/>
      <path id="ArialMT-31" d="M 2384 0 
L 1822 0 
L 1822 3584 
Q 1619 3391 1289 3197 
Q 959 3003 697 2906 
L 697 3450 
Q 1169 3672 1522 3987 
Q 1875 4303 2022 4600 
L 2384 4600 
L 2384 0 
z
" transform="scale(0.015625)"/>
      <path id="ArialMT-39" d="M 350 1059 
L 891 1109 
Q 959 728 1153 556 
Q 1347 384 1650 384 
Q 1909 384 2104 503 
Q 2300 622 2425 820 
Q 2550 1019 2634 1356 
Q 2719 1694 2719 2044 
Q 2719 2081 2716 2156 
Q 2547 1888 2255 1720 
Q 1963 1553 1622 1553 
Q 1053 1553 659 1965 
Q 266 2378 266 3053 
Q 266 3750 677 4175 
Q 1088 4600 1706 4600 
Q 2153 4600 2523 4359 
Q 2894 4119 3086 3673 
Q 3278 3228 3278 2384 
Q 3278 1506 3087 986 
Q 2897 466 2520 194 
Q 2144 -78 1638 -78 
Q 1100 -78 759 220 
Q 419 519 350 1059 
z
M 2653 3081 
Q 2653 3566 2395 3850 
Q 2138 4134 1775 4134 
Q 1400 4134 1122 3828 
Q 844 3522 844 3034 
Q 844 2597 1108 2323 
Q 1372 2050 1759 2050 
Q 2150 2050 2401 2323 
Q 2653 2597 2653 3081 
z
" transform="scale(0.015625)"/>
     </defs>
     <use xlink:href="#ArialMT-4c"/>
     <use xlink:href="#ArialMT-54" x="48.240234"/>
     <use xlink:href="#ArialMT-53" x="109.324219"/>
     <use xlink:href="#ArialMT-30" x="176.023438"/>
     <use xlink:href="#ArialMT-30" x="231.638672"/>
     <use xlink:href="#ArialMT-33" x="287.253906"/>
     <use xlink:href="#ArialMT-35" x="342.869141"/>
     <use xlink:href="#ArialMT-31" x="398.484375"/>
     <use xlink:href="#ArialMT-39" x="454.099609"/>
     <use xlink:href="#ArialMT-30" x="509.714844"/>
    </g>
   </g>
   <g id="text_4">
    <!-- LTS0014192 -->
    <g style="fill: #262626" transform="translate(287.108239 21.98045) scale(0.1 -0.1)">
     <defs>
      <path id="ArialMT-34" d="M 2069 0 
L 2069 1097 
L 81 1097 
L 81 1613 
L 2172 4581 
L 2631 4581 
L 2631 1613 
L 3250 1613 
L 3250 1097 
L 2631 1097 
L 2631 0 
L 2069 0 
z
M 2069 1613 
L 2069 3678 
L 634 1613 
L 2069 1613 
z
" transform="scale(0.015625)"/>
      <path id="ArialMT-32" d="M 3222 541 
L 3222 0 
L 194 0 
Q 188 203 259 391 
Q 375 700 629 1000 
Q 884 1300 1366 1694 
Q 2113 2306 2375 2664 
Q 2638 3022 2638 3341 
Q 2638 3675 2398 3904 
Q 2159 4134 1775 4134 
Q 1369 4134 1125 3890 
Q 881 3647 878 3216 
L 300 3275 
Q 359 3922 746 4261 
Q 1134 4600 1788 4600 
Q 2447 4600 2831 4234 
Q 3216 3869 3216 3328 
Q 3216 3053 3103 2787 
Q 2991 2522 2730 2228 
Q 2469 1934 1863 1422 
Q 1356 997 1212 845 
Q 1069 694 975 541 
L 3222 541 
z
" transform="scale(0.015625)"/>
     </defs>
     <use xlink:href="#ArialMT-4c"/>
     <use xlink:href="#ArialMT-54" x="48.240234"/>
     <use xlink:href="#ArialMT-53" x="109.324219"/>
     <use xlink:href="#ArialMT-30" x="176.023438"/>
     <use xlink:href="#ArialMT-30" x="231.638672"/>
     <use xlink:href="#ArialMT-31" x="287.253906"/>
     <use xlink:href="#ArialMT-34" x="342.869141"/>
     <use xlink:href="#ArialMT-31" x="398.484375"/>
     <use xlink:href="#ArialMT-39" x="454.099609"/>
     <use xlink:href="#ArialMT-32" x="509.714844"/>
    </g>
   </g>
   <g id="text_5">
    <!-- Voltage-gated sodium channel -->
    <g style="fill: #262626" transform="translate(443.229425 47.615974) scale(0.1 -0.1)">
     <defs>
      <path id="ArialMT-56" d="M 1803 0 
L 28 4581 
L 684 4581 
L 1875 1253 
Q 2019 853 2116 503 
Q 2222 878 2363 1253 
L 3600 4581 
L 4219 4581 
L 2425 0 
L 1803 0 
z
" transform="scale(0.015625)"/>
      <path id="ArialMT-2d" d="M 203 1375 
L 203 1941 
L 1931 1941 
L 1931 1375 
L 203 1375 
z
" transform="scale(0.015625)"/>
      <path id="ArialMT-6d" d="M 422 0 
L 422 3319 
L 925 3319 
L 925 2853 
Q 1081 3097 1340 3245 
Q 1600 3394 1931 3394 
Q 2300 3394 2536 3241 
Q 2772 3088 2869 2813 
Q 3263 3394 3894 3394 
Q 4388 3394 4653 3120 
Q 4919 2847 4919 2278 
L 4919 0 
L 4359 0 
L 4359 2091 
Q 4359 2428 4304 2576 
Q 4250 2725 4106 2815 
Q 3963 2906 3769 2906 
Q 3419 2906 3187 2673 
Q 2956 2441 2956 1928 
L 2956 0 
L 2394 0 
L 2394 2156 
Q 2394 2531 2256 2718 
Q 2119 2906 1806 2906 
Q 1569 2906 1367 2781 
Q 1166 2656 1075 2415 
Q 984 2175 984 1722 
L 984 0 
L 422 0 
z
" transform="scale(0.015625)"/>
      <path id="ArialMT-68" d="M 422 0 
L 422 4581 
L 984 4581 
L 984 2938 
Q 1378 3394 1978 3394 
Q 2347 3394 2619 3248 
Q 2891 3103 3008 2847 
Q 3125 2591 3125 2103 
L 3125 0 
L 2563 0 
L 2563 2103 
Q 2563 2525 2380 2717 
Q 2197 2909 1863 2909 
Q 1613 2909 1392 2779 
Q 1172 2650 1078 2428 
Q 984 2206 984 1816 
L 984 0 
L 422 0 
z
" transform="scale(0.015625)"/>
     </defs>
     <use xlink:href="#ArialMT-56"/>
     <use xlink:href="#ArialMT-6f" x="61.199219"/>
     <use xlink:href="#ArialMT-6c" x="116.814453"/>
     <use xlink:href="#ArialMT-74" x="139.03125"/>
     <use xlink:href="#ArialMT-61" x="166.814453"/>
     <use xlink:href="#ArialMT-67" x="222.429688"/>
     <use xlink:href="#ArialMT-65" x="278.044922"/>
     <use xlink:href="#ArialMT-2d" x="333.660156"/>
     <use xlink:href="#ArialMT-67" x="366.960938"/>
     <use xlink:href="#ArialMT-61" x="422.576172"/>
     <use xlink:href="#ArialMT-74" x="478.191406"/>
     <use xlink:href="#ArialMT-65" x="505.974609"/>
     <use xlink:href="#ArialMT-64" x="561.589844"/>
     <use xlink:href="#ArialMT-20" x="617.205078"/>
     <use xlink:href="#ArialMT-73" x="644.988281"/>
     <use xlink:href="#ArialMT-6f" x="694.988281"/>
     <use xlink:href="#ArialMT-64" x="750.603516"/>
     <use xlink:href="#ArialMT-69" x="806.21875"/>
     <use xlink:href="#ArialMT-75" x="828.435547"/>
     <use xlink:href="#ArialMT-6d" x="884.050781"/>
     <use xlink:href="#ArialMT-20" x="967.351562"/>
     <use xlink:href="#ArialMT-63" x="995.134766"/>
     <use xlink:href="#ArialMT-68" x="1045.134766"/>
     <use xlink:href="#ArialMT-61" x="1100.75"/>
     <use xlink:href="#ArialMT-6e" x="1156.365234"/>
     <use xlink:href="#ArialMT-6e" x="1211.980469"/>
     <use xlink:href="#ArialMT-65" x="1267.595703"/>
     <use xlink:href="#ArialMT-6c" x="1323.210938"/>
    </g>
   </g>
   <g id="text_6">
    <!-- Acetylcholine receptor -->
    <g style="fill: #262626" transform="translate(479.384113 21.921857) scale(0.1 -0.1)">
     <defs>
      <path id="ArialMT-70" d="M 422 -1272 
L 422 3319 
L 934 3319 
L 934 2888 
Q 1116 3141 1344 3267 
Q 1572 3394 1897 3394 
Q 2322 3394 2647 3175 
Q 2972 2956 3137 2557 
Q 3303 2159 3303 1684 
Q 3303 1175 3120 767 
Q 2938 359 2589 142 
Q 2241 -75 1856 -75 
Q 1575 -75 1351 44 
Q 1128 163 984 344 
L 984 -1272 
L 422 -1272 
z
M 931 1641 
Q 931 1000 1190 694 
Q 1450 388 1819 388 
Q 2194 388 2461 705 
Q 2728 1022 2728 1688 
Q 2728 2322 2467 2637 
Q 2206 2953 1844 2953 
Q 1484 2953 1207 2617 
Q 931 2281 931 1641 
z
" transform="scale(0.015625)"/>
     </defs>
     <use xlink:href="#ArialMT-41"/>
     <use xlink:href="#ArialMT-63" x="66.699219"/>
     <use xlink:href="#ArialMT-65" x="116.699219"/>
     <use xlink:href="#ArialMT-74" x="172.314453"/>
     <use xlink:href="#ArialMT-79" x="200.097656"/>
     <use xlink:href="#ArialMT-6c" x="250.097656"/>
     <use xlink:href="#ArialMT-63" x="272.314453"/>
     <use xlink:href="#ArialMT-68" x="322.314453"/>
     <use xlink:href="#ArialMT-6f" x="377.929688"/>
     <use xlink:href="#ArialMT-6c" x="433.544922"/>
     <use xlink:href="#ArialMT-69" x="455.761719"/>
     <use xlink:href="#ArialMT-6e" x="477.978516"/>
     <use xlink:href="#ArialMT-65" x="533.59375"/>
     <use xlink:href="#ArialMT-20" x="589.208984"/>
     <use xlink:href="#ArialMT-72" x="616.992188"/>
     <use xlink:href="#ArialMT-65" x="650.292969"/>
     <use xlink:href="#ArialMT-63" x="705.908203"/>
     <use xlink:href="#ArialMT-65" x="755.908203"/>
     <use xlink:href="#ArialMT-70" x="811.523438"/>
     <use xlink:href="#ArialMT-74" x="867.138672"/>
     <use xlink:href="#ArialMT-6f" x="894.921875"/>
     <use xlink:href="#ArialMT-72" x="950.537109"/>
    </g>
   </g>
   <g id="text_7">
    <!-- Alkaloids, Guanidine alkaloids -->
    <g style="fill: #262626" transform="translate(289.29 2.64) scale(0.12 -0.12)">
     <defs>
      <path id="ArialMT-2c" d="M 569 0 
L 569 641 
L 1209 641 
L 1209 0 
Q 1209 -353 1084 -570 
Q 959 -788 688 -906 
L 531 -666 
Q 709 -588 793 -436 
Q 878 -284 888 0 
L 569 0 
z
" transform="scale(0.015625)"/>
      <path id="ArialMT-47" d="M 2638 1797 
L 2638 2334 
L 4578 2338 
L 4578 638 
Q 4131 281 3656 101 
Q 3181 -78 2681 -78 
Q 2006 -78 1454 211 
Q 903 500 622 1047 
Q 341 1594 341 2269 
Q 341 2938 620 3517 
Q 900 4097 1425 4378 
Q 1950 4659 2634 4659 
Q 3131 4659 3532 4498 
Q 3934 4338 4162 4050 
Q 4391 3763 4509 3300 
L 3963 3150 
Q 3859 3500 3706 3700 
Q 3553 3900 3268 4020 
Q 2984 4141 2638 4141 
Q 2222 4141 1919 4014 
Q 1616 3888 1430 3681 
Q 1244 3475 1141 3228 
Q 966 2803 966 2306 
Q 966 1694 1177 1281 
Q 1388 869 1791 669 
Q 2194 469 2647 469 
Q 3041 469 3416 620 
Q 3791 772 3984 944 
L 3984 1797 
L 2638 1797 
z
" transform="scale(0.015625)"/>
     </defs>
     <use xlink:href="#ArialMT-41"/>
     <use xlink:href="#ArialMT-6c" x="66.699219"/>
     <use xlink:href="#ArialMT-6b" x="88.916016"/>
     <use xlink:href="#ArialMT-61" x="138.916016"/>
     <use xlink:href="#ArialMT-6c" x="194.53125"/>
     <use xlink:href="#ArialMT-6f" x="216.748047"/>
     <use xlink:href="#ArialMT-69" x="272.363281"/>
     <use xlink:href="#ArialMT-64" x="294.580078"/>
     <use xlink:href="#ArialMT-73" x="350.195312"/>
     <use xlink:href="#ArialMT-2c" x="400.195312"/>
     <use xlink:href="#ArialMT-20" x="427.978516"/>
     <use xlink:href="#ArialMT-47" x="455.761719"/>
     <use xlink:href="#ArialMT-75" x="533.544922"/>
     <use xlink:href="#ArialMT-61" x="589.160156"/>
     <use xlink:href="#ArialMT-6e" x="644.775391"/>
     <use xlink:href="#ArialMT-69" x="700.390625"/>
     <use xlink:href="#ArialMT-64" x="722.607422"/>
     <use xlink:href="#ArialMT-69" x="778.222656"/>
     <use xlink:href="#ArialMT-6e" x="800.439453"/>
     <use xlink:href="#ArialMT-65" x="856.054688"/>
     <use xlink:href="#ArialMT-20" x="911.669922"/>
     <use xlink:href="#ArialMT-61" x="939.453125"/>
     <use xlink:href="#ArialMT-6c" x="995.068359"/>
     <use xlink:href="#ArialMT-6b" x="1017.285156"/>
     <use xlink:href="#ArialMT-61" x="1067.285156"/>
     <use xlink:href="#ArialMT-6c" x="1122.900391"/>
     <use xlink:href="#ArialMT-6f" x="1145.117188"/>
     <use xlink:href="#ArialMT-69" x="1200.732422"/>
     <use xlink:href="#ArialMT-64" x="1222.949219"/>
     <use xlink:href="#ArialMT-73" x="1278.564453"/>
    </g>
   </g>
  </g>
 </g>
 <defs>
  <clipPath id="pc4e70738c3">
   <rect x="90" y="8.64" width="558" height="55.44"/>
  </clipPath>
 </defs>
</svg>
