<?xml version="1.0" encoding="utf-8" standalone="no"?>
<!DOCTYPE svg PUBLIC "-//W3C//DTD SVG 1.1//EN"
  "http://www.w3.org/Graphics/SVG/1.1/DTD/svg11.dtd">
<svg xmlns:xlink="http://www.w3.org/1999/xlink" width="720pt" height="144pt" viewBox="0 0 720 144" xmlns="http://www.w3.org/2000/svg" version="1.1">
 <metadata>
  <rdf:RDF xmlns:dc="http://purl.org/dc/elements/1.1/" xmlns:cc="http://creativecommons.org/ns#" xmlns:rdf="http://www.w3.org/1999/02/22-rdf-syntax-ns#">
   <cc:Work>
    <dc:type rdf:resource="http://purl.org/dc/dcmitype/StillImage"/>
    <dc:date>2023-06-15T10:33:35.446805</dc:date>
    <dc:format>image/svg+xml</dc:format>
    <dc:creator>
     <cc:Agent>
      <dc:title>Matplotlib v3.7.1, https://matplotlib.org/</dc:title>
     </cc:Agent>
    </dc:creator>
   </cc:Work>
  </rdf:RDF>
 </metadata>
 <defs>
  <style type="text/css">*{stroke-linejoin: round; stroke-linecap: butt}</style>
 </defs>
 <g id="figure_1">
  <g id="patch_1">
   <path d="M 0 144 
L 720 144 
L 720 0 
L 0 0 
L 0 144 
z
" style="fill: none"/>
  </g>
  <g id="axes_1">
   <g id="PolyCollection_1">
    <defs>
     <path id="m26b641c0cf" d="M 115.363636 -42.418462 
L 115.363636 -20.88 
L 154.384615 -20.88 
L 154.384615 -42.418462 
L 154.384615 -42.418462 
L 115.363636 -42.418462 
z
" style="stroke: #ffffff; stroke-opacity: 0.9"/>
    </defs>
    <g clip-path="url(#pbba05e16b5)">
     <use xlink:href="#m26b641c0cf" x="0" y="144" style="fill: #1f77b4; fill-opacity: 0.9; stroke: #ffffff; stroke-opacity: 0.9"/>
    </g>
   </g>
   <g id="PolyCollection_2">
    <defs>
     <path id="m717652122a" d="M 115.363636 -119.741538 
L 115.363636 -44.356923 
L 154.384615 -44.356923 
L 154.384615 -119.741538 
L 154.384615 -119.741538 
L 115.363636 -119.741538 
z
" style="stroke: #ffffff; stroke-opacity: 0.9"/>
    </defs>
    <g clip-path="url(#pbba05e16b5)">
     <use xlink:href="#m717652122a" x="0" y="144" style="fill: #d62728; fill-opacity: 0.9; stroke: #ffffff; stroke-opacity: 0.9"/>
    </g>
   </g>
   <g id="PolyCollection_3">
    <defs>
     <path id="mf8887dfae5" d="M 349.48951 -42.418462 
L 349.48951 -20.88 
L 388.51049 -20.88 
L 388.51049 -42.418462 
L 388.51049 -42.418462 
L 349.48951 -42.418462 
z
" style="stroke: #ffffff; stroke-opacity: 0.9"/>
    </defs>
    <g clip-path="url(#pbba05e16b5)">
     <use xlink:href="#mf8887dfae5" x="0" y="144" style="fill: #ffbb78; fill-opacity: 0.9; stroke: #ffffff; stroke-opacity: 0.9"/>
    </g>
   </g>
   <g id="PolyCollection_4">
    <defs>
     <path id="m41438eac1e" d="M 349.48951 -98.203077 
L 349.48951 -44.356923 
L 388.51049 -44.356923 
L 388.51049 -98.203077 
L 388.51049 -98.203077 
L 349.48951 -98.203077 
z
" style="stroke: #ffffff; stroke-opacity: 0.9"/>
    </defs>
    <g clip-path="url(#pbba05e16b5)">
     <use xlink:href="#m41438eac1e" x="0" y="144" style="fill: #2ca02c; fill-opacity: 0.9; stroke: #ffffff; stroke-opacity: 0.9"/>
    </g>
   </g>
   <g id="PolyCollection_5">
    <defs>
     <path id="m931e482aef" d="M 349.48951 -121.68 
L 349.48951 -100.141538 
L 388.51049 -100.141538 
L 388.51049 -121.68 
L 388.51049 -121.68 
L 349.48951 -121.68 
z
" style="stroke: #ffffff; stroke-opacity: 0.9"/>
    </defs>
    <g clip-path="url(#pbba05e16b5)">
     <use xlink:href="#m931e482aef" x="0" y="144" style="fill: #98df8a; fill-opacity: 0.9; stroke: #ffffff; stroke-opacity: 0.9"/>
    </g>
   </g>
   <g id="PolyCollection_6">
    <defs>
     <path id="m499534730c" d="M 583.615385 -42.418462 
L 583.615385 -20.88 
L 622.636364 -20.88 
L 622.636364 -42.418462 
L 622.636364 -42.418462 
L 583.615385 -42.418462 
z
" style="stroke: #ffffff; stroke-opacity: 0.9"/>
    </defs>
    <g clip-path="url(#pbba05e16b5)">
     <use xlink:href="#m499534730c" x="0" y="144" style="fill: #aec7e8; fill-opacity: 0.9; stroke: #ffffff; stroke-opacity: 0.9"/>
    </g>
   </g>
   <g id="PolyCollection_7">
    <defs>
     <path id="mf978db9288" d="M 583.615385 -119.741538 
L 583.615385 -44.356923 
L 622.636364 -44.356923 
L 622.636364 -119.741538 
L 622.636364 -119.741538 
L 583.615385 -119.741538 
z
" style="stroke: #ffffff; stroke-opacity: 0.9"/>
    </defs>
    <g clip-path="url(#pbba05e16b5)">
     <use xlink:href="#mf978db9288" x="0" y="144" style="fill: #ff7f0e; fill-opacity: 0.9; stroke: #ffffff; stroke-opacity: 0.9"/>
    </g>
   </g>
   <g id="PolyCollection_8">
    <defs>
     <path id="m2d1505792a" d="M 154.384615 -42.418462 
L 154.384615 -20.88 
L 158.210202 -20.88 
L 162.035788 -20.88 
L 165.861374 -20.88 
L 169.68696 -20.88 
L 173.512546 -20.88 
L 177.338132 -20.88 
L 181.163719 -20.88 
L 184.989305 -20.88 
L 188.814891 -20.88 
L 192.640477 -20.88 
L 196.466063 -20.88 
L 200.29165 -20.88 
L 204.117236 -20.88 
L 207.942822 -20.88 
L 211.768408 -20.88 
L 215.593994 -20.88 
L 219.41958 -20.88 
L 223.245167 -20.88 
L 227.070753 -20.88 
L 230.896339 -20.88 
L 234.721925 -20.88 
L 238.547511 -20.88 
L 242.373097 -20.88 
L 246.198684 -20.88 
L 250.02427 -20.88 
L 253.849856 -20.88 
L 257.675442 -20.88 
L 261.501028 -20.88 
L 265.326615 -20.88 
L 269.152201 -20.88 
L 272.977787 -20.88 
L 276.803373 -20.88 
L 280.628959 -20.88 
L 284.454545 -20.88 
L 288.280132 -20.88 
L 292.105718 -20.88 
L 295.931304 -20.88 
L 299.75689 -20.88 
L 303.582476 -20.88 
L 307.408063 -20.88 
L 311.233649 -20.88 
L 315.059235 -20.88 
L 318.884821 -20.88 
L 322.710407 -20.88 
L 326.535993 -20.88 
L 330.36158 -20.88 
L 334.187166 -20.88 
L 338.012752 -20.88 
L 341.838338 -20.88 
L 345.663924 -20.88 
L 349.48951 -20.88 
L 349.48951 -42.418462 
L 349.48951 -42.418462 
L 345.663924 -42.418462 
L 341.838338 -42.418462 
L 338.012752 -42.418462 
L 334.187166 -42.418462 
L 330.36158 -42.418462 
L 326.535993 -42.418462 
L 322.710407 -42.418462 
L 318.884821 -42.418462 
L 315.059235 -42.418462 
L 311.233649 -42.418462 
L 307.408063 -42.418462 
L 303.582476 -42.418462 
L 299.75689 -42.418462 
L 295.931304 -42.418462 
L 292.105718 -42.418462 
L 288.280132 -42.418462 
L 284.454545 -42.418462 
L 280.628959 -42.418462 
L 276.803373 -42.418462 
L 272.977787 -42.418462 
L 269.152201 -42.418462 
L 265.326615 -42.418462 
L 261.501028 -42.418462 
L 257.675442 -42.418462 
L 253.849856 -42.418462 
L 250.02427 -42.418462 
L 246.198684 -42.418462 
L 242.373097 -42.418462 
L 238.547511 -42.418462 
L 234.721925 -42.418462 
L 230.896339 -42.418462 
L 227.070753 -42.418462 
L 223.245167 -42.418462 
L 219.41958 -42.418462 
L 215.593994 -42.418462 
L 211.768408 -42.418462 
L 207.942822 -42.418462 
L 204.117236 -42.418462 
L 200.29165 -42.418462 
L 196.466063 -42.418462 
L 192.640477 -42.418462 
L 188.814891 -42.418462 
L 184.989305 -42.418462 
L 181.163719 -42.418462 
L 177.338132 -42.418462 
L 173.512546 -42.418462 
L 169.68696 -42.418462 
L 165.861374 -42.418462 
L 162.035788 -42.418462 
L 158.210202 -42.418462 
L 154.384615 -42.418462 
z
" style="stroke: #1f77b4; stroke-opacity: 0.4"/>
    </defs>
    <g clip-path="url(#pbba05e16b5)">
     <use xlink:href="#m2d1505792a" x="0" y="144" style="fill: #1f77b4; fill-opacity: 0.4; stroke: #1f77b4; stroke-opacity: 0.4"/>
    </g>
   </g>
   <g id="PolyCollection_9">
    <defs>
     <path id="mbb153d77d9" d="M 154.384615 -98.203077 
L 154.384615 -44.356923 
L 158.210202 -44.356923 
L 162.035788 -44.356923 
L 165.861374 -44.356923 
L 169.68696 -44.356923 
L 173.512546 -44.356923 
L 177.338132 -44.356923 
L 181.163719 -44.356923 
L 184.989305 -44.356923 
L 188.814891 -44.356923 
L 192.640477 -44.356923 
L 196.466063 -44.356923 
L 200.29165 -44.356923 
L 204.117236 -44.356923 
L 207.942822 -44.356923 
L 211.768408 -44.356923 
L 215.593994 -44.356923 
L 219.41958 -44.356923 
L 223.245167 -44.356923 
L 227.070753 -44.356923 
L 230.896339 -44.356923 
L 234.721925 -44.356923 
L 238.547511 -44.356923 
L 242.373097 -44.356923 
L 246.198684 -44.356923 
L 250.02427 -44.356923 
L 253.849856 -44.356923 
L 257.675442 -44.356923 
L 261.501028 -44.356923 
L 265.326615 -44.356923 
L 269.152201 -44.356923 
L 272.977787 -44.356923 
L 276.803373 -44.356923 
L 280.628959 -44.356923 
L 284.454545 -44.356923 
L 288.280132 -44.356923 
L 292.105718 -44.356923 
L 295.931304 -44.356923 
L 299.75689 -44.356923 
L 303.582476 -44.356923 
L 307.408063 -44.356923 
L 311.233649 -44.356923 
L 315.059235 -44.356923 
L 318.884821 -44.356923 
L 322.710407 -44.356923 
L 326.535993 -44.356923 
L 330.36158 -44.356923 
L 334.187166 -44.356923 
L 338.012752 -44.356923 
L 341.838338 -44.356923 
L 345.663924 -44.356923 
L 349.48951 -44.356923 
L 349.48951 -98.203077 
L 349.48951 -98.203077 
L 345.663924 -98.203077 
L 341.838338 -98.203077 
L 338.012752 -98.203077 
L 334.187166 -98.203077 
L 330.36158 -98.203077 
L 326.535993 -98.203077 
L 322.710407 -98.203077 
L 318.884821 -98.203077 
L 315.059235 -98.203077 
L 311.233649 -98.203077 
L 307.408063 -98.203077 
L 303.582476 -98.203077 
L 299.75689 -98.203077 
L 295.931304 -98.203077 
L 292.105718 -98.203077 
L 288.280132 -98.203077 
L 284.454545 -98.203077 
L 280.628959 -98.203077 
L 276.803373 -98.203077 
L 272.977787 -98.203077 
L 269.152201 -98.203077 
L 265.326615 -98.203077 
L 261.501028 -98.203077 
L 257.675442 -98.203077 
L 253.849856 -98.203077 
L 250.02427 -98.203077 
L 246.198684 -98.203077 
L 242.373097 -98.203077 
L 238.547511 -98.203077 
L 234.721925 -98.203077 
L 230.896339 -98.203077 
L 227.070753 -98.203077 
L 223.245167 -98.203077 
L 219.41958 -98.203077 
L 215.593994 -98.203077 
L 211.768408 -98.203077 
L 207.942822 -98.203077 
L 204.117236 -98.203077 
L 200.29165 -98.203077 
L 196.466063 -98.203077 
L 192.640477 -98.203077 
L 188.814891 -98.203077 
L 184.989305 -98.203077 
L 181.163719 -98.203077 
L 177.338132 -98.203077 
L 173.512546 -98.203077 
L 169.68696 -98.203077 
L 165.861374 -98.203077 
L 162.035788 -98.203077 
L 158.210202 -98.203077 
L 154.384615 -98.203077 
z
" style="stroke: #d62728; stroke-opacity: 0.4"/>
    </defs>
    <g clip-path="url(#pbba05e16b5)">
     <use xlink:href="#mbb153d77d9" x="0" y="144" style="fill: #d62728; fill-opacity: 0.4; stroke: #d62728; stroke-opacity: 0.4"/>
    </g>
   </g>
   <g id="PolyCollection_10">
    <defs>
     <path id="m9f7b13cbc6" d="M 154.384615 -119.741538 
L 154.384615 -98.203077 
L 158.210202 -98.203077 
L 162.035788 -98.206178 
L 165.861374 -98.212382 
L 169.68696 -98.221686 
L 173.512546 -98.234092 
L 177.338132 -98.2496 
L 181.163719 -98.268209 
L 184.989305 -98.28992 
L 188.814891 -98.314732 
L 192.640477 -98.342646 
L 196.466063 -98.373662 
L 200.29165 -98.407778 
L 204.117236 -98.444997 
L 207.942822 -98.485317 
L 211.768408 -98.528738 
L 215.593994 -98.575262 
L 219.41958 -98.624886 
L 223.245167 -98.677612 
L 227.070753 -98.73344 
L 230.896339 -98.792369 
L 234.721925 -98.8544 
L 238.547511 -98.919532 
L 242.373097 -98.987766 
L 246.198684 -99.059102 
L 250.02427 -99.133538 
L 253.849856 -99.211077 
L 257.675442 -99.285514 
L 261.501028 -99.356849 
L 265.326615 -99.425083 
L 269.152201 -99.490215 
L 272.977787 -99.552246 
L 276.803373 -99.611175 
L 280.628959 -99.667003 
L 284.454545 -99.719729 
L 288.280132 -99.769354 
L 292.105718 -99.815877 
L 295.931304 -99.859298 
L 299.75689 -99.899618 
L 303.582476 -99.936837 
L 307.408063 -99.970954 
L 311.233649 -100.001969 
L 315.059235 -100.029883 
L 318.884821 -100.054695 
L 322.710407 -100.076406 
L 326.535993 -100.095015 
L 330.36158 -100.110523 
L 334.187166 -100.122929 
L 338.012752 -100.132234 
L 341.838338 -100.138437 
L 345.663924 -100.141538 
L 349.48951 -100.141538 
L 349.48951 -121.68 
L 349.48951 -121.68 
L 345.663924 -121.68 
L 341.838338 -121.676898 
L 338.012752 -121.670695 
L 334.187166 -121.661391 
L 330.36158 -121.648985 
L 326.535993 -121.633477 
L 322.710407 -121.614868 
L 318.884821 -121.593157 
L 315.059235 -121.568345 
L 311.233649 -121.540431 
L 307.408063 -121.509415 
L 303.582476 -121.475298 
L 299.75689 -121.43808 
L 295.931304 -121.39776 
L 292.105718 -121.354338 
L 288.280132 -121.307815 
L 284.454545 -121.258191 
L 280.628959 -121.205465 
L 276.803373 -121.149637 
L 272.977787 -121.090708 
L 269.152201 -121.028677 
L 265.326615 -120.963545 
L 261.501028 -120.895311 
L 257.675442 -120.823975 
L 253.849856 -120.749538 
L 250.02427 -120.672 
L 246.198684 -120.597563 
L 242.373097 -120.526228 
L 238.547511 -120.457994 
L 234.721925 -120.392862 
L 230.896339 -120.330831 
L 227.070753 -120.271902 
L 223.245167 -120.216074 
L 219.41958 -120.163348 
L 215.593994 -120.113723 
L 211.768408 -120.0672 
L 207.942822 -120.023778 
L 204.117236 -119.983458 
L 200.29165 -119.94624 
L 196.466063 -119.912123 
L 192.640477 -119.881108 
L 188.814891 -119.853194 
L 184.989305 -119.828382 
L 181.163719 -119.806671 
L 177.338132 -119.788062 
L 173.512546 -119.772554 
L 169.68696 -119.760148 
L 165.861374 -119.750843 
L 162.035788 -119.74464 
L 158.210202 -119.741538 
L 154.384615 -119.741538 
z
" style="stroke: #d62728; stroke-opacity: 0.4"/>
    </defs>
    <g clip-path="url(#pbba05e16b5)">
     <use xlink:href="#m9f7b13cbc6" x="0" y="144" style="fill: #d62728; fill-opacity: 0.4; stroke: #d62728; stroke-opacity: 0.4"/>
    </g>
   </g>
   <g id="PolyCollection_11">
    <defs>
     <path id="mdb907c1538" d="M 388.51049 -42.418462 
L 388.51049 -20.88 
L 392.336076 -20.88 
L 396.161662 -20.88 
L 399.987248 -20.88 
L 403.812834 -20.88 
L 407.63842 -20.88 
L 411.464007 -20.88 
L 415.289593 -20.88 
L 419.115179 -20.88 
L 422.940765 -20.88 
L 426.766351 -20.88 
L 430.591937 -20.88 
L 434.417524 -20.88 
L 438.24311 -20.88 
L 442.068696 -20.88 
L 445.894282 -20.88 
L 449.719868 -20.88 
L 453.545455 -20.88 
L 457.371041 -20.88 
L 461.196627 -20.88 
L 465.022213 -20.88 
L 468.847799 -20.88 
L 472.673385 -20.88 
L 476.498972 -20.88 
L 480.324558 -20.88 
L 484.150144 -20.88 
L 487.97573 -20.88 
L 491.801316 -20.88 
L 495.626903 -20.88 
L 499.452489 -20.88 
L 503.278075 -20.88 
L 507.103661 -20.88 
L 510.929247 -20.88 
L 514.754833 -20.88 
L 518.58042 -20.88 
L 522.406006 -20.88 
L 526.231592 -20.88 
L 530.057178 -20.88 
L 533.882764 -20.88 
L 537.70835 -20.88 
L 541.533937 -20.88 
L 545.359523 -20.88 
L 549.185109 -20.88 
L 553.010695 -20.88 
L 556.836281 -20.88 
L 560.661868 -20.88 
L 564.487454 -20.88 
L 568.31304 -20.88 
L 572.138626 -20.88 
L 575.964212 -20.88 
L 579.789798 -20.88 
L 583.615385 -20.88 
L 583.615385 -42.418462 
L 583.615385 -42.418462 
L 579.789798 -42.418462 
L 575.964212 -42.418462 
L 572.138626 -42.418462 
L 568.31304 -42.418462 
L 564.487454 -42.418462 
L 560.661868 -42.418462 
L 556.836281 -42.418462 
L 553.010695 -42.418462 
L 549.185109 -42.418462 
L 545.359523 -42.418462 
L 541.533937 -42.418462 
L 537.70835 -42.418462 
L 533.882764 -42.418462 
L 530.057178 -42.418462 
L 526.231592 -42.418462 
L 522.406006 -42.418462 
L 518.58042 -42.418462 
L 514.754833 -42.418462 
L 510.929247 -42.418462 
L 507.103661 -42.418462 
L 503.278075 -42.418462 
L 499.452489 -42.418462 
L 495.626903 -42.418462 
L 491.801316 -42.418462 
L 487.97573 -42.418462 
L 484.150144 -42.418462 
L 480.324558 -42.418462 
L 476.498972 -42.418462 
L 472.673385 -42.418462 
L 468.847799 -42.418462 
L 465.022213 -42.418462 
L 461.196627 -42.418462 
L 457.371041 -42.418462 
L 453.545455 -42.418462 
L 449.719868 -42.418462 
L 445.894282 -42.418462 
L 442.068696 -42.418462 
L 438.24311 -42.418462 
L 434.417524 -42.418462 
L 430.591937 -42.418462 
L 426.766351 -42.418462 
L 422.940765 -42.418462 
L 419.115179 -42.418462 
L 415.289593 -42.418462 
L 411.464007 -42.418462 
L 407.63842 -42.418462 
L 403.812834 -42.418462 
L 399.987248 -42.418462 
L 396.161662 -42.418462 
L 392.336076 -42.418462 
L 388.51049 -42.418462 
z
" style="stroke: #ffbb78; stroke-opacity: 0.4"/>
    </defs>
    <g clip-path="url(#pbba05e16b5)">
     <use xlink:href="#mdb907c1538" x="0" y="144" style="fill: #ffbb78; fill-opacity: 0.4; stroke: #ffbb78; stroke-opacity: 0.4"/>
    </g>
   </g>
   <g id="PolyCollection_12">
    <defs>
     <path id="me5fb9fa62b" d="M 388.51049 -98.203077 
L 388.51049 -44.356923 
L 392.336076 -44.356923 
L 396.161662 -44.356923 
L 399.987248 -44.356923 
L 403.812834 -44.356923 
L 407.63842 -44.356923 
L 411.464007 -44.356923 
L 415.289593 -44.356923 
L 419.115179 -44.356923 
L 422.940765 -44.356923 
L 426.766351 -44.356923 
L 430.591937 -44.356923 
L 434.417524 -44.356923 
L 438.24311 -44.356923 
L 442.068696 -44.356923 
L 445.894282 -44.356923 
L 449.719868 -44.356923 
L 453.545455 -44.356923 
L 457.371041 -44.356923 
L 461.196627 -44.356923 
L 465.022213 -44.356923 
L 468.847799 -44.356923 
L 472.673385 -44.356923 
L 476.498972 -44.356923 
L 480.324558 -44.356923 
L 484.150144 -44.356923 
L 487.97573 -44.356923 
L 491.801316 -44.356923 
L 495.626903 -44.356923 
L 499.452489 -44.356923 
L 503.278075 -44.356923 
L 507.103661 -44.356923 
L 510.929247 -44.356923 
L 514.754833 -44.356923 
L 518.58042 -44.356923 
L 522.406006 -44.356923 
L 526.231592 -44.356923 
L 530.057178 -44.356923 
L 533.882764 -44.356923 
L 537.70835 -44.356923 
L 541.533937 -44.356923 
L 545.359523 -44.356923 
L 549.185109 -44.356923 
L 553.010695 -44.356923 
L 556.836281 -44.356923 
L 560.661868 -44.356923 
L 564.487454 -44.356923 
L 568.31304 -44.356923 
L 572.138626 -44.356923 
L 575.964212 -44.356923 
L 579.789798 -44.356923 
L 583.615385 -44.356923 
L 583.615385 -98.203077 
L 583.615385 -98.203077 
L 579.789798 -98.203077 
L 575.964212 -98.203077 
L 572.138626 -98.203077 
L 568.31304 -98.203077 
L 564.487454 -98.203077 
L 560.661868 -98.203077 
L 556.836281 -98.203077 
L 553.010695 -98.203077 
L 549.185109 -98.203077 
L 545.359523 -98.203077 
L 541.533937 -98.203077 
L 537.70835 -98.203077 
L 533.882764 -98.203077 
L 530.057178 -98.203077 
L 526.231592 -98.203077 
L 522.406006 -98.203077 
L 518.58042 -98.203077 
L 514.754833 -98.203077 
L 510.929247 -98.203077 
L 507.103661 -98.203077 
L 503.278075 -98.203077 
L 499.452489 -98.203077 
L 495.626903 -98.203077 
L 491.801316 -98.203077 
L 487.97573 -98.203077 
L 484.150144 -98.203077 
L 480.324558 -98.203077 
L 476.498972 -98.203077 
L 472.673385 -98.203077 
L 468.847799 -98.203077 
L 465.022213 -98.203077 
L 461.196627 -98.203077 
L 457.371041 -98.203077 
L 453.545455 -98.203077 
L 449.719868 -98.203077 
L 445.894282 -98.203077 
L 442.068696 -98.203077 
L 438.24311 -98.203077 
L 434.417524 -98.203077 
L 430.591937 -98.203077 
L 426.766351 -98.203077 
L 422.940765 -98.203077 
L 419.115179 -98.203077 
L 415.289593 -98.203077 
L 411.464007 -98.203077 
L 407.63842 -98.203077 
L 403.812834 -98.203077 
L 399.987248 -98.203077 
L 396.161662 -98.203077 
L 392.336076 -98.203077 
L 388.51049 -98.203077 
z
" style="stroke: #2ca02c; stroke-opacity: 0.4"/>
    </defs>
    <g clip-path="url(#pbba05e16b5)">
     <use xlink:href="#me5fb9fa62b" x="0" y="144" style="fill: #2ca02c; fill-opacity: 0.4; stroke: #2ca02c; stroke-opacity: 0.4"/>
    </g>
   </g>
   <g id="PolyCollection_13">
    <defs>
     <path id="m74a0835d3b" d="M 388.51049 -121.68 
L 388.51049 -100.141538 
L 392.336076 -100.141538 
L 396.161662 -100.138437 
L 399.987248 -100.132234 
L 403.812834 -100.122929 
L 407.63842 -100.110523 
L 411.464007 -100.095015 
L 415.289593 -100.076406 
L 419.115179 -100.054695 
L 422.940765 -100.029883 
L 426.766351 -100.001969 
L 430.591937 -99.970954 
L 434.417524 -99.936837 
L 438.24311 -99.899618 
L 442.068696 -99.859298 
L 445.894282 -99.815877 
L 449.719868 -99.769354 
L 453.545455 -99.719729 
L 457.371041 -99.667003 
L 461.196627 -99.611175 
L 465.022213 -99.552246 
L 468.847799 -99.490215 
L 472.673385 -99.425083 
L 476.498972 -99.356849 
L 480.324558 -99.285514 
L 484.150144 -99.211077 
L 487.97573 -99.133538 
L 491.801316 -99.059102 
L 495.626903 -98.987766 
L 499.452489 -98.919532 
L 503.278075 -98.8544 
L 507.103661 -98.792369 
L 510.929247 -98.73344 
L 514.754833 -98.677612 
L 518.58042 -98.624886 
L 522.406006 -98.575262 
L 526.231592 -98.528738 
L 530.057178 -98.485317 
L 533.882764 -98.444997 
L 537.70835 -98.407778 
L 541.533937 -98.373662 
L 545.359523 -98.342646 
L 549.185109 -98.314732 
L 553.010695 -98.28992 
L 556.836281 -98.268209 
L 560.661868 -98.2496 
L 564.487454 -98.234092 
L 568.31304 -98.221686 
L 572.138626 -98.212382 
L 575.964212 -98.206178 
L 579.789798 -98.203077 
L 583.615385 -98.203077 
L 583.615385 -119.741538 
L 583.615385 -119.741538 
L 579.789798 -119.741538 
L 575.964212 -119.74464 
L 572.138626 -119.750843 
L 568.31304 -119.760148 
L 564.487454 -119.772554 
L 560.661868 -119.788062 
L 556.836281 -119.806671 
L 553.010695 -119.828382 
L 549.185109 -119.853194 
L 545.359523 -119.881108 
L 541.533937 -119.912123 
L 537.70835 -119.94624 
L 533.882764 -119.983458 
L 530.057178 -120.023778 
L 526.231592 -120.0672 
L 522.406006 -120.113723 
L 518.58042 -120.163348 
L 514.754833 -120.216074 
L 510.929247 -120.271902 
L 507.103661 -120.330831 
L 503.278075 -120.392862 
L 499.452489 -120.457994 
L 495.626903 -120.526228 
L 491.801316 -120.597563 
L 487.97573 -120.672 
L 484.150144 -120.749538 
L 480.324558 -120.823975 
L 476.498972 -120.895311 
L 472.673385 -120.963545 
L 468.847799 -121.028677 
L 465.022213 -121.090708 
L 461.196627 -121.149637 
L 457.371041 -121.205465 
L 453.545455 -121.258191 
L 449.719868 -121.307815 
L 445.894282 -121.354338 
L 442.068696 -121.39776 
L 438.24311 -121.43808 
L 434.417524 -121.475298 
L 430.591937 -121.509415 
L 426.766351 -121.540431 
L 422.940765 -121.568345 
L 419.115179 -121.593157 
L 415.289593 -121.614868 
L 411.464007 -121.633477 
L 407.63842 -121.648985 
L 403.812834 -121.661391 
L 399.987248 -121.670695 
L 396.161662 -121.676898 
L 392.336076 -121.68 
L 388.51049 -121.68 
z
" style="stroke: #98df8a; stroke-opacity: 0.4"/>
    </defs>
    <g clip-path="url(#pbba05e16b5)">
     <use xlink:href="#m74a0835d3b" x="0" y="144" style="fill: #98df8a; fill-opacity: 0.4; stroke: #98df8a; stroke-opacity: 0.4"/>
    </g>
   </g>
   <g id="text_1">
    <!-- Leukotrienes -->
    <g style="fill: #262626" transform="translate(52.25424 114.935925) scale(0.1 -0.1)">
     <defs>
      <path id="ArialMT-4c" d="M 469 0 
L 469 4581 
L 1075 4581 
L 1075 541 
L 3331 541 
L 3331 0 
L 469 0 
z
" transform="scale(0.015625)"/>
      <path id="ArialMT-65" d="M 2694 1069 
L 3275 997 
Q 3138 488 2766 206 
Q 2394 -75 1816 -75 
Q 1088 -75 661 373 
Q 234 822 234 1631 
Q 234 2469 665 2931 
Q 1097 3394 1784 3394 
Q 2450 3394 2872 2941 
Q 3294 2488 3294 1666 
Q 3294 1616 3291 1516 
L 816 1516 
Q 847 969 1125 678 
Q 1403 388 1819 388 
Q 2128 388 2347 550 
Q 2566 713 2694 1069 
z
M 847 1978 
L 2700 1978 
Q 2663 2397 2488 2606 
Q 2219 2931 1791 2931 
Q 1403 2931 1139 2672 
Q 875 2413 847 1978 
z
" transform="scale(0.015625)"/>
      <path id="ArialMT-75" d="M 2597 0 
L 2597 488 
Q 2209 -75 1544 -75 
Q 1250 -75 995 37 
Q 741 150 617 320 
Q 494 491 444 738 
Q 409 903 409 1263 
L 409 3319 
L 972 3319 
L 972 1478 
Q 972 1038 1006 884 
Q 1059 663 1231 536 
Q 1403 409 1656 409 
Q 1909 409 2131 539 
Q 2353 669 2445 892 
Q 2538 1116 2538 1541 
L 2538 3319 
L 3100 3319 
L 3100 0 
L 2597 0 
z
" transform="scale(0.015625)"/>
      <path id="ArialMT-6b" d="M 425 0 
L 425 4581 
L 988 4581 
L 988 1969 
L 2319 3319 
L 3047 3319 
L 1778 2088 
L 3175 0 
L 2481 0 
L 1384 1697 
L 988 1316 
L 988 0 
L 425 0 
z
" transform="scale(0.015625)"/>
      <path id="ArialMT-6f" d="M 213 1659 
Q 213 2581 725 3025 
Q 1153 3394 1769 3394 
Q 2453 3394 2887 2945 
Q 3322 2497 3322 1706 
Q 3322 1066 3130 698 
Q 2938 331 2570 128 
Q 2203 -75 1769 -75 
Q 1072 -75 642 372 
Q 213 819 213 1659 
z
M 791 1659 
Q 791 1022 1069 705 
Q 1347 388 1769 388 
Q 2188 388 2466 706 
Q 2744 1025 2744 1678 
Q 2744 2294 2464 2611 
Q 2184 2928 1769 2928 
Q 1347 2928 1069 2612 
Q 791 2297 791 1659 
z
" transform="scale(0.015625)"/>
      <path id="ArialMT-74" d="M 1650 503 
L 1731 6 
Q 1494 -44 1306 -44 
Q 1000 -44 831 53 
Q 663 150 594 308 
Q 525 466 525 972 
L 525 2881 
L 113 2881 
L 113 3319 
L 525 3319 
L 525 4141 
L 1084 4478 
L 1084 3319 
L 1650 3319 
L 1650 2881 
L 1084 2881 
L 1084 941 
Q 1084 700 1114 631 
Q 1144 563 1211 522 
Q 1278 481 1403 481 
Q 1497 481 1650 503 
z
" transform="scale(0.015625)"/>
      <path id="ArialMT-72" d="M 416 0 
L 416 3319 
L 922 3319 
L 922 2816 
Q 1116 3169 1280 3281 
Q 1444 3394 1641 3394 
Q 1925 3394 2219 3213 
L 2025 2691 
Q 1819 2813 1613 2813 
Q 1428 2813 1281 2702 
Q 1134 2591 1072 2394 
Q 978 2094 978 1738 
L 978 0 
L 416 0 
z
" transform="scale(0.015625)"/>
      <path id="ArialMT-69" d="M 425 3934 
L 425 4581 
L 988 4581 
L 988 3934 
L 425 3934 
z
M 425 0 
L 425 3319 
L 988 3319 
L 988 0 
L 425 0 
z
" transform="scale(0.015625)"/>
      <path id="ArialMT-6e" d="M 422 0 
L 422 3319 
L 928 3319 
L 928 2847 
Q 1294 3394 1984 3394 
Q 2284 3394 2536 3286 
Q 2788 3178 2913 3003 
Q 3038 2828 3088 2588 
Q 3119 2431 3119 2041 
L 3119 0 
L 2556 0 
L 2556 2019 
Q 2556 2363 2490 2533 
Q 2425 2703 2258 2804 
Q 2091 2906 1866 2906 
Q 1506 2906 1245 2678 
Q 984 2450 984 1813 
L 984 0 
L 422 0 
z
" transform="scale(0.015625)"/>
      <path id="ArialMT-73" d="M 197 991 
L 753 1078 
Q 800 744 1014 566 
Q 1228 388 1613 388 
Q 2000 388 2187 545 
Q 2375 703 2375 916 
Q 2375 1106 2209 1216 
Q 2094 1291 1634 1406 
Q 1016 1563 777 1677 
Q 538 1791 414 1992 
Q 291 2194 291 2438 
Q 291 2659 392 2848 
Q 494 3038 669 3163 
Q 800 3259 1026 3326 
Q 1253 3394 1513 3394 
Q 1903 3394 2198 3281 
Q 2494 3169 2634 2976 
Q 2775 2784 2828 2463 
L 2278 2388 
Q 2241 2644 2061 2787 
Q 1881 2931 1553 2931 
Q 1166 2931 1000 2803 
Q 834 2675 834 2503 
Q 834 2394 903 2306 
Q 972 2216 1119 2156 
Q 1203 2125 1616 2013 
Q 2213 1853 2448 1751 
Q 2684 1650 2818 1456 
Q 2953 1263 2953 975 
Q 2953 694 2789 445 
Q 2625 197 2315 61 
Q 2006 -75 1616 -75 
Q 969 -75 630 194 
Q 291 463 197 991 
z
" transform="scale(0.015625)"/>
     </defs>
     <use xlink:href="#ArialMT-4c"/>
     <use xlink:href="#ArialMT-65" x="55.615234"/>
     <use xlink:href="#ArialMT-75" x="111.230469"/>
     <use xlink:href="#ArialMT-6b" x="166.845703"/>
     <use xlink:href="#ArialMT-6f" x="216.845703"/>
     <use xlink:href="#ArialMT-74" x="272.460938"/>
     <use xlink:href="#ArialMT-72" x="300.244141"/>
     <use xlink:href="#ArialMT-69" x="333.544922"/>
     <use xlink:href="#ArialMT-65" x="355.761719"/>
     <use xlink:href="#ArialMT-6e" x="411.376953"/>
     <use xlink:href="#ArialMT-65" x="466.992188"/>
     <use xlink:href="#ArialMT-73" x="522.607422"/>
    </g>
   </g>
   <g id="text_2">
    <!-- Isoprostanes -->
    <g style="fill: #262626" transform="translate(52.258927 64.535925) scale(0.1 -0.1)">
     <defs>
      <path id="ArialMT-49" d="M 597 0 
L 597 4581 
L 1203 4581 
L 1203 0 
L 597 0 
z
" transform="scale(0.015625)"/>
      <path id="ArialMT-70" d="M 422 -1272 
L 422 3319 
L 934 3319 
L 934 2888 
Q 1116 3141 1344 3267 
Q 1572 3394 1897 3394 
Q 2322 3394 2647 3175 
Q 2972 2956 3137 2557 
Q 3303 2159 3303 1684 
Q 3303 1175 3120 767 
Q 2938 359 2589 142 
Q 2241 -75 1856 -75 
Q 1575 -75 1351 44 
Q 1128 163 984 344 
L 984 -1272 
L 422 -1272 
z
M 931 1641 
Q 931 1000 1190 694 
Q 1450 388 1819 388 
Q 2194 388 2461 705 
Q 2728 1022 2728 1688 
Q 2728 2322 2467 2637 
Q 2206 2953 1844 2953 
Q 1484 2953 1207 2617 
Q 931 2281 931 1641 
z
" transform="scale(0.015625)"/>
      <path id="ArialMT-61" d="M 2588 409 
Q 2275 144 1986 34 
Q 1697 -75 1366 -75 
Q 819 -75 525 192 
Q 231 459 231 875 
Q 231 1119 342 1320 
Q 453 1522 633 1644 
Q 813 1766 1038 1828 
Q 1203 1872 1538 1913 
Q 2219 1994 2541 2106 
Q 2544 2222 2544 2253 
Q 2544 2597 2384 2738 
Q 2169 2928 1744 2928 
Q 1347 2928 1158 2789 
Q 969 2650 878 2297 
L 328 2372 
Q 403 2725 575 2942 
Q 747 3159 1072 3276 
Q 1397 3394 1825 3394 
Q 2250 3394 2515 3294 
Q 2781 3194 2906 3042 
Q 3031 2891 3081 2659 
Q 3109 2516 3109 2141 
L 3109 1391 
Q 3109 606 3145 398 
Q 3181 191 3288 0 
L 2700 0 
Q 2613 175 2588 409 
z
M 2541 1666 
Q 2234 1541 1622 1453 
Q 1275 1403 1131 1340 
Q 988 1278 909 1158 
Q 831 1038 831 891 
Q 831 666 1001 516 
Q 1172 366 1500 366 
Q 1825 366 2078 508 
Q 2331 650 2450 897 
Q 2541 1088 2541 1459 
L 2541 1666 
z
" transform="scale(0.015625)"/>
     </defs>
     <use xlink:href="#ArialMT-49"/>
     <use xlink:href="#ArialMT-73" x="27.783203"/>
     <use xlink:href="#ArialMT-6f" x="77.783203"/>
     <use xlink:href="#ArialMT-70" x="133.398438"/>
     <use xlink:href="#ArialMT-72" x="189.013672"/>
     <use xlink:href="#ArialMT-6f" x="222.314453"/>
     <use xlink:href="#ArialMT-73" x="277.929688"/>
     <use xlink:href="#ArialMT-74" x="327.929688"/>
     <use xlink:href="#ArialMT-61" x="355.712891"/>
     <use xlink:href="#ArialMT-6e" x="411.328125"/>
     <use xlink:href="#ArialMT-65" x="466.943359"/>
     <use xlink:href="#ArialMT-73" x="522.558594"/>
    </g>
   </g>
   <g id="text_3">
    <!-- LTS0050236 -->
    <g style="fill: #262626" transform="translate(287.108239 114.935925) scale(0.1 -0.1)">
     <defs>
      <path id="ArialMT-54" d="M 1659 0 
L 1659 4041 
L 150 4041 
L 150 4581 
L 3781 4581 
L 3781 4041 
L 2266 4041 
L 2266 0 
L 1659 0 
z
" transform="scale(0.015625)"/>
      <path id="ArialMT-53" d="M 288 1472 
L 859 1522 
Q 900 1178 1048 958 
Q 1197 738 1509 602 
Q 1822 466 2213 466 
Q 2559 466 2825 569 
Q 3091 672 3220 851 
Q 3350 1031 3350 1244 
Q 3350 1459 3225 1620 
Q 3100 1781 2813 1891 
Q 2628 1963 1997 2114 
Q 1366 2266 1113 2400 
Q 784 2572 623 2826 
Q 463 3081 463 3397 
Q 463 3744 659 4045 
Q 856 4347 1234 4503 
Q 1613 4659 2075 4659 
Q 2584 4659 2973 4495 
Q 3363 4331 3572 4012 
Q 3781 3694 3797 3291 
L 3216 3247 
Q 3169 3681 2898 3903 
Q 2628 4125 2100 4125 
Q 1550 4125 1298 3923 
Q 1047 3722 1047 3438 
Q 1047 3191 1225 3031 
Q 1400 2872 2139 2705 
Q 2878 2538 3153 2413 
Q 3553 2228 3743 1945 
Q 3934 1663 3934 1294 
Q 3934 928 3725 604 
Q 3516 281 3123 101 
Q 2731 -78 2241 -78 
Q 1619 -78 1198 103 
Q 778 284 539 648 
Q 300 1013 288 1472 
z
" transform="scale(0.015625)"/>
      <path id="ArialMT-30" d="M 266 2259 
Q 266 3072 433 3567 
Q 600 4063 929 4331 
Q 1259 4600 1759 4600 
Q 2128 4600 2406 4451 
Q 2684 4303 2865 4023 
Q 3047 3744 3150 3342 
Q 3253 2941 3253 2259 
Q 3253 1453 3087 958 
Q 2922 463 2592 192 
Q 2263 -78 1759 -78 
Q 1097 -78 719 397 
Q 266 969 266 2259 
z
M 844 2259 
Q 844 1131 1108 757 
Q 1372 384 1759 384 
Q 2147 384 2411 759 
Q 2675 1134 2675 2259 
Q 2675 3391 2411 3762 
Q 2147 4134 1753 4134 
Q 1366 4134 1134 3806 
Q 844 3388 844 2259 
z
" transform="scale(0.015625)"/>
      <path id="ArialMT-35" d="M 266 1200 
L 856 1250 
Q 922 819 1161 601 
Q 1400 384 1738 384 
Q 2144 384 2425 690 
Q 2706 997 2706 1503 
Q 2706 1984 2436 2262 
Q 2166 2541 1728 2541 
Q 1456 2541 1237 2417 
Q 1019 2294 894 2097 
L 366 2166 
L 809 4519 
L 3088 4519 
L 3088 3981 
L 1259 3981 
L 1013 2750 
Q 1425 3038 1878 3038 
Q 2478 3038 2890 2622 
Q 3303 2206 3303 1553 
Q 3303 931 2941 478 
Q 2500 -78 1738 -78 
Q 1113 -78 717 272 
Q 322 622 266 1200 
z
" transform="scale(0.015625)"/>
      <path id="ArialMT-32" d="M 3222 541 
L 3222 0 
L 194 0 
Q 188 203 259 391 
Q 375 700 629 1000 
Q 884 1300 1366 1694 
Q 2113 2306 2375 2664 
Q 2638 3022 2638 3341 
Q 2638 3675 2398 3904 
Q 2159 4134 1775 4134 
Q 1369 4134 1125 3890 
Q 881 3647 878 3216 
L 300 3275 
Q 359 3922 746 4261 
Q 1134 4600 1788 4600 
Q 2447 4600 2831 4234 
Q 3216 3869 3216 3328 
Q 3216 3053 3103 2787 
Q 2991 2522 2730 2228 
Q 2469 1934 1863 1422 
Q 1356 997 1212 845 
Q 1069 694 975 541 
L 3222 541 
z
" transform="scale(0.015625)"/>
      <path id="ArialMT-33" d="M 269 1209 
L 831 1284 
Q 928 806 1161 595 
Q 1394 384 1728 384 
Q 2125 384 2398 659 
Q 2672 934 2672 1341 
Q 2672 1728 2419 1979 
Q 2166 2231 1775 2231 
Q 1616 2231 1378 2169 
L 1441 2663 
Q 1497 2656 1531 2656 
Q 1891 2656 2178 2843 
Q 2466 3031 2466 3422 
Q 2466 3731 2256 3934 
Q 2047 4138 1716 4138 
Q 1388 4138 1169 3931 
Q 950 3725 888 3313 
L 325 3413 
Q 428 3978 793 4289 
Q 1159 4600 1703 4600 
Q 2078 4600 2393 4439 
Q 2709 4278 2876 4000 
Q 3044 3722 3044 3409 
Q 3044 3113 2884 2869 
Q 2725 2625 2413 2481 
Q 2819 2388 3044 2092 
Q 3269 1797 3269 1353 
Q 3269 753 2831 336 
Q 2394 -81 1725 -81 
Q 1122 -81 723 278 
Q 325 638 269 1209 
z
" transform="scale(0.015625)"/>
      <path id="ArialMT-36" d="M 3184 3459 
L 2625 3416 
Q 2550 3747 2413 3897 
Q 2184 4138 1850 4138 
Q 1581 4138 1378 3988 
Q 1113 3794 959 3422 
Q 806 3050 800 2363 
Q 1003 2672 1297 2822 
Q 1591 2972 1913 2972 
Q 2475 2972 2870 2558 
Q 3266 2144 3266 1488 
Q 3266 1056 3080 686 
Q 2894 316 2569 119 
Q 2244 -78 1831 -78 
Q 1128 -78 684 439 
Q 241 956 241 2144 
Q 241 3472 731 4075 
Q 1159 4600 1884 4600 
Q 2425 4600 2770 4297 
Q 3116 3994 3184 3459 
z
M 888 1484 
Q 888 1194 1011 928 
Q 1134 663 1356 523 
Q 1578 384 1822 384 
Q 2178 384 2434 671 
Q 2691 959 2691 1453 
Q 2691 1928 2437 2201 
Q 2184 2475 1800 2475 
Q 1419 2475 1153 2201 
Q 888 1928 888 1484 
z
" transform="scale(0.015625)"/>
     </defs>
     <use xlink:href="#ArialMT-4c"/>
     <use xlink:href="#ArialMT-54" x="48.240234"/>
     <use xlink:href="#ArialMT-53" x="109.324219"/>
     <use xlink:href="#ArialMT-30" x="176.023438"/>
     <use xlink:href="#ArialMT-30" x="231.638672"/>
     <use xlink:href="#ArialMT-35" x="287.253906"/>
     <use xlink:href="#ArialMT-30" x="342.869141"/>
     <use xlink:href="#ArialMT-32" x="398.484375"/>
     <use xlink:href="#ArialMT-33" x="454.099609"/>
     <use xlink:href="#ArialMT-36" x="509.714844"/>
    </g>
   </g>
   <g id="text_4">
    <!-- LTS0074404 -->
    <g style="fill: #262626" transform="translate(287.108239 75.305156) scale(0.1 -0.1)">
     <defs>
      <path id="ArialMT-37" d="M 303 3981 
L 303 4522 
L 3269 4522 
L 3269 4084 
Q 2831 3619 2401 2847 
Q 1972 2075 1738 1259 
Q 1569 684 1522 0 
L 944 0 
Q 953 541 1156 1306 
Q 1359 2072 1739 2783 
Q 2119 3494 2547 3981 
L 303 3981 
z
" transform="scale(0.015625)"/>
      <path id="ArialMT-34" d="M 2069 0 
L 2069 1097 
L 81 1097 
L 81 1613 
L 2172 4581 
L 2631 4581 
L 2631 1613 
L 3250 1613 
L 3250 1097 
L 2631 1097 
L 2631 0 
L 2069 0 
z
M 2069 1613 
L 2069 3678 
L 634 1613 
L 2069 1613 
z
" transform="scale(0.015625)"/>
     </defs>
     <use xlink:href="#ArialMT-4c"/>
     <use xlink:href="#ArialMT-54" x="48.240234"/>
     <use xlink:href="#ArialMT-53" x="109.324219"/>
     <use xlink:href="#ArialMT-30" x="176.023438"/>
     <use xlink:href="#ArialMT-30" x="231.638672"/>
     <use xlink:href="#ArialMT-37" x="287.253906"/>
     <use xlink:href="#ArialMT-34" x="342.869141"/>
     <use xlink:href="#ArialMT-34" x="398.484375"/>
     <use xlink:href="#ArialMT-30" x="454.099609"/>
     <use xlink:href="#ArialMT-34" x="509.714844"/>
    </g>
   </g>
   <g id="text_5">
    <!-- LTS0013565 -->
    <g style="fill: #262626" transform="translate(287.108239 35.674387) scale(0.1 -0.1)">
     <defs>
      <path id="ArialMT-31" d="M 2384 0 
L 1822 0 
L 1822 3584 
Q 1619 3391 1289 3197 
Q 959 3003 697 2906 
L 697 3450 
Q 1169 3672 1522 3987 
Q 1875 4303 2022 4600 
L 2384 4600 
L 2384 0 
z
" transform="scale(0.015625)"/>
     </defs>
     <use xlink:href="#ArialMT-4c"/>
     <use xlink:href="#ArialMT-54" x="48.240234"/>
     <use xlink:href="#ArialMT-53" x="109.324219"/>
     <use xlink:href="#ArialMT-30" x="176.023438"/>
     <use xlink:href="#ArialMT-30" x="231.638672"/>
     <use xlink:href="#ArialMT-31" x="287.253906"/>
     <use xlink:href="#ArialMT-33" x="342.869141"/>
     <use xlink:href="#ArialMT-35" x="398.484375"/>
     <use xlink:href="#ArialMT-36" x="454.099609"/>
     <use xlink:href="#ArialMT-35" x="509.714844"/>
    </g>
   </g>
   <g id="text_6">
    <!-- Leukotriene receptor -->
    <g style="fill: #262626" transform="translate(486.046613 114.935925) scale(0.1 -0.1)">
     <defs>
      <path id="ArialMT-20" transform="scale(0.015625)"/>
      <path id="ArialMT-63" d="M 2588 1216 
L 3141 1144 
Q 3050 572 2676 248 
Q 2303 -75 1759 -75 
Q 1078 -75 664 370 
Q 250 816 250 1647 
Q 250 2184 428 2587 
Q 606 2991 970 3192 
Q 1334 3394 1763 3394 
Q 2303 3394 2647 3120 
Q 2991 2847 3088 2344 
L 2541 2259 
Q 2463 2594 2264 2762 
Q 2066 2931 1784 2931 
Q 1359 2931 1093 2626 
Q 828 2322 828 1663 
Q 828 994 1084 691 
Q 1341 388 1753 388 
Q 2084 388 2306 591 
Q 2528 794 2588 1216 
z
" transform="scale(0.015625)"/>
     </defs>
     <use xlink:href="#ArialMT-4c"/>
     <use xlink:href="#ArialMT-65" x="55.615234"/>
     <use xlink:href="#ArialMT-75" x="111.230469"/>
     <use xlink:href="#ArialMT-6b" x="166.845703"/>
     <use xlink:href="#ArialMT-6f" x="216.845703"/>
     <use xlink:href="#ArialMT-74" x="272.460938"/>
     <use xlink:href="#ArialMT-72" x="300.244141"/>
     <use xlink:href="#ArialMT-69" x="333.544922"/>
     <use xlink:href="#ArialMT-65" x="355.761719"/>
     <use xlink:href="#ArialMT-6e" x="411.376953"/>
     <use xlink:href="#ArialMT-65" x="466.992188"/>
     <use xlink:href="#ArialMT-20" x="522.607422"/>
     <use xlink:href="#ArialMT-72" x="550.390625"/>
     <use xlink:href="#ArialMT-65" x="583.691406"/>
     <use xlink:href="#ArialMT-63" x="639.306641"/>
     <use xlink:href="#ArialMT-65" x="689.306641"/>
     <use xlink:href="#ArialMT-70" x="744.921875"/>
     <use xlink:href="#ArialMT-74" x="800.537109"/>
     <use xlink:href="#ArialMT-6f" x="828.320312"/>
     <use xlink:href="#ArialMT-72" x="883.935547"/>
    </g>
   </g>
   <g id="text_7">
    <!-- Prostanoid receptor -->
    <g style="fill: #262626" transform="translate(490.498175 64.535925) scale(0.1 -0.1)">
     <defs>
      <path id="ArialMT-50" d="M 494 0 
L 494 4581 
L 2222 4581 
Q 2678 4581 2919 4538 
Q 3256 4481 3484 4323 
Q 3713 4166 3852 3881 
Q 3991 3597 3991 3256 
Q 3991 2672 3619 2267 
Q 3247 1863 2275 1863 
L 1100 1863 
L 1100 0 
L 494 0 
z
M 1100 2403 
L 2284 2403 
Q 2872 2403 3119 2622 
Q 3366 2841 3366 3238 
Q 3366 3525 3220 3729 
Q 3075 3934 2838 4000 
Q 2684 4041 2272 4041 
L 1100 4041 
L 1100 2403 
z
" transform="scale(0.015625)"/>
      <path id="ArialMT-64" d="M 2575 0 
L 2575 419 
Q 2259 -75 1647 -75 
Q 1250 -75 917 144 
Q 584 363 401 755 
Q 219 1147 219 1656 
Q 219 2153 384 2558 
Q 550 2963 881 3178 
Q 1213 3394 1622 3394 
Q 1922 3394 2156 3267 
Q 2391 3141 2538 2938 
L 2538 4581 
L 3097 4581 
L 3097 0 
L 2575 0 
z
M 797 1656 
Q 797 1019 1065 703 
Q 1334 388 1700 388 
Q 2069 388 2326 689 
Q 2584 991 2584 1609 
Q 2584 2291 2321 2609 
Q 2059 2928 1675 2928 
Q 1300 2928 1048 2622 
Q 797 2316 797 1656 
z
" transform="scale(0.015625)"/>
     </defs>
     <use xlink:href="#ArialMT-50"/>
     <use xlink:href="#ArialMT-72" x="66.699219"/>
     <use xlink:href="#ArialMT-6f" x="100"/>
     <use xlink:href="#ArialMT-73" x="155.615234"/>
     <use xlink:href="#ArialMT-74" x="205.615234"/>
     <use xlink:href="#ArialMT-61" x="233.398438"/>
     <use xlink:href="#ArialMT-6e" x="289.013672"/>
     <use xlink:href="#ArialMT-6f" x="344.628906"/>
     <use xlink:href="#ArialMT-69" x="400.244141"/>
     <use xlink:href="#ArialMT-64" x="422.460938"/>
     <use xlink:href="#ArialMT-20" x="478.076172"/>
     <use xlink:href="#ArialMT-72" x="505.859375"/>
     <use xlink:href="#ArialMT-65" x="539.160156"/>
     <use xlink:href="#ArialMT-63" x="594.775391"/>
     <use xlink:href="#ArialMT-65" x="644.775391"/>
     <use xlink:href="#ArialMT-70" x="700.390625"/>
     <use xlink:href="#ArialMT-74" x="756.005859"/>
     <use xlink:href="#ArialMT-6f" x="783.789062"/>
     <use xlink:href="#ArialMT-72" x="839.404297"/>
    </g>
   </g>
   <g id="text_8">
    <!-- Fatty acids, Eicosanoids -->
    <g style="fill: #262626" transform="translate(304.306875 11.28) scale(0.12 -0.12)">
     <defs>
      <path id="ArialMT-46" d="M 525 0 
L 525 4581 
L 3616 4581 
L 3616 4041 
L 1131 4041 
L 1131 2622 
L 3281 2622 
L 3281 2081 
L 1131 2081 
L 1131 0 
L 525 0 
z
" transform="scale(0.015625)"/>
      <path id="ArialMT-79" d="M 397 -1278 
L 334 -750 
Q 519 -800 656 -800 
Q 844 -800 956 -737 
Q 1069 -675 1141 -563 
Q 1194 -478 1313 -144 
Q 1328 -97 1363 -6 
L 103 3319 
L 709 3319 
L 1400 1397 
Q 1534 1031 1641 628 
Q 1738 1016 1872 1384 
L 2581 3319 
L 3144 3319 
L 1881 -56 
Q 1678 -603 1566 -809 
Q 1416 -1088 1222 -1217 
Q 1028 -1347 759 -1347 
Q 597 -1347 397 -1278 
z
" transform="scale(0.015625)"/>
      <path id="ArialMT-2c" d="M 569 0 
L 569 641 
L 1209 641 
L 1209 0 
Q 1209 -353 1084 -570 
Q 959 -788 688 -906 
L 531 -666 
Q 709 -588 793 -436 
Q 878 -284 888 0 
L 569 0 
z
" transform="scale(0.015625)"/>
      <path id="ArialMT-45" d="M 506 0 
L 506 4581 
L 3819 4581 
L 3819 4041 
L 1113 4041 
L 1113 2638 
L 3647 2638 
L 3647 2100 
L 1113 2100 
L 1113 541 
L 3925 541 
L 3925 0 
L 506 0 
z
" transform="scale(0.015625)"/>
     </defs>
     <use xlink:href="#ArialMT-46"/>
     <use xlink:href="#ArialMT-61" x="61.083984"/>
     <use xlink:href="#ArialMT-74" x="116.699219"/>
     <use xlink:href="#ArialMT-74" x="144.482422"/>
     <use xlink:href="#ArialMT-79" x="172.265625"/>
     <use xlink:href="#ArialMT-20" x="222.265625"/>
     <use xlink:href="#ArialMT-61" x="250.048828"/>
     <use xlink:href="#ArialMT-63" x="305.664062"/>
     <use xlink:href="#ArialMT-69" x="355.664062"/>
     <use xlink:href="#ArialMT-64" x="377.880859"/>
     <use xlink:href="#ArialMT-73" x="433.496094"/>
     <use xlink:href="#ArialMT-2c" x="483.496094"/>
     <use xlink:href="#ArialMT-20" x="511.279297"/>
     <use xlink:href="#ArialMT-45" x="539.0625"/>
     <use xlink:href="#ArialMT-69" x="605.761719"/>
     <use xlink:href="#ArialMT-63" x="627.978516"/>
     <use xlink:href="#ArialMT-6f" x="677.978516"/>
     <use xlink:href="#ArialMT-73" x="733.59375"/>
     <use xlink:href="#ArialMT-61" x="783.59375"/>
     <use xlink:href="#ArialMT-6e" x="839.208984"/>
     <use xlink:href="#ArialMT-6f" x="894.824219"/>
     <use xlink:href="#ArialMT-69" x="950.439453"/>
     <use xlink:href="#ArialMT-64" x="972.65625"/>
     <use xlink:href="#ArialMT-73" x="1028.271484"/>
    </g>
   </g>
  </g>
 </g>
 <defs>
  <clipPath id="pbba05e16b5">
   <rect x="90" y="17.28" width="558" height="110.88"/>
  </clipPath>
 </defs>
</svg>
