<?xml version="1.0" encoding="utf-8" standalone="no"?>
<!DOCTYPE svg PUBLIC "-//W3C//DTD SVG 1.1//EN"
  "http://www.w3.org/Graphics/SVG/1.1/DTD/svg11.dtd">
<svg xmlns:xlink="http://www.w3.org/1999/xlink" width="324pt" height="195.12pt" viewBox="0 0 324 195.12" xmlns="http://www.w3.org/2000/svg" version="1.1">
 <metadata>
  <rdf:RDF xmlns:dc="http://purl.org/dc/elements/1.1/" xmlns:cc="http://creativecommons.org/ns#" xmlns:rdf="http://www.w3.org/1999/02/22-rdf-syntax-ns#">
   <cc:Work>
    <dc:type rdf:resource="http://purl.org/dc/dcmitype/StillImage"/>
    <dc:date>2023-06-15T10:33:32.363995</dc:date>
    <dc:format>image/svg+xml</dc:format>
    <dc:creator>
     <cc:Agent>
      <dc:title>Matplotlib v3.7.1, https://matplotlib.org/</dc:title>
     </cc:Agent>
    </dc:creator>
   </cc:Work>
  </rdf:RDF>
 </metadata>
 <defs>
  <style type="text/css">*{stroke-linejoin: round; stroke-linecap: butt}</style>
 </defs>
 <g id="figure_1">
  <g id="patch_1">
   <path d="M 0 195.12 
L 324 195.12 
L 324 0 
L 0 0 
L 0 195.12 
z
" style="fill: none"/>
  </g>
  <g id="axes_1">
   <g id="patch_2">
    <path d="M 178.453125 179.083575 
L 296.933712 179.083575 
L 296.933712 4.3902 
L 178.453125 4.3902 
L 178.453125 179.083575 
z
" style="fill: none"/>
   </g>
   <g id="matplotlib.axis_1">
    <g id="xtick_1">
     <g id="line2d_1">
      <path d="M 180.731598 179.083575 
L 180.731598 4.3902 
" clip-path="url(#p946d09e04a)" style="fill: none; stroke: #cccccc; stroke-linecap: round"/>
     </g>
     <g id="text_1">
      <!-- Acetogenins -->
      <g style="fill: #262626" transform="translate(183.510817 249.123106) rotate(-90) scale(0.11 -0.11)">
       <defs>
        <path id="ArialMT-41" d="M -9 0 
L 1750 4581 
L 2403 4581 
L 4278 0 
L 3588 0 
L 3053 1388 
L 1138 1388 
L 634 0 
L -9 0 
z
M 1313 1881 
L 2866 1881 
L 2388 3150 
Q 2169 3728 2063 4100 
Q 1975 3659 1816 3225 
L 1313 1881 
z
" transform="scale(0.015625)"/>
        <path id="ArialMT-63" d="M 2588 1216 
L 3141 1144 
Q 3050 572 2676 248 
Q 2303 -75 1759 -75 
Q 1078 -75 664 370 
Q 250 816 250 1647 
Q 250 2184 428 2587 
Q 606 2991 970 3192 
Q 1334 3394 1763 3394 
Q 2303 3394 2647 3120 
Q 2991 2847 3088 2344 
L 2541 2259 
Q 2463 2594 2264 2762 
Q 2066 2931 1784 2931 
Q 1359 2931 1093 2626 
Q 828 2322 828 1663 
Q 828 994 1084 691 
Q 1341 388 1753 388 
Q 2084 388 2306 591 
Q 2528 794 2588 1216 
z
" transform="scale(0.015625)"/>
        <path id="ArialMT-65" d="M 2694 1069 
L 3275 997 
Q 3138 488 2766 206 
Q 2394 -75 1816 -75 
Q 1088 -75 661 373 
Q 234 822 234 1631 
Q 234 2469 665 2931 
Q 1097 3394 1784 3394 
Q 2450 3394 2872 2941 
Q 3294 2488 3294 1666 
Q 3294 1616 3291 1516 
L 816 1516 
Q 847 969 1125 678 
Q 1403 388 1819 388 
Q 2128 388 2347 550 
Q 2566 713 2694 1069 
z
M 847 1978 
L 2700 1978 
Q 2663 2397 2488 2606 
Q 2219 2931 1791 2931 
Q 1403 2931 1139 2672 
Q 875 2413 847 1978 
z
" transform="scale(0.015625)"/>
        <path id="ArialMT-74" d="M 1650 503 
L 1731 6 
Q 1494 -44 1306 -44 
Q 1000 -44 831 53 
Q 663 150 594 308 
Q 525 466 525 972 
L 525 2881 
L 113 2881 
L 113 3319 
L 525 3319 
L 525 4141 
L 1084 4478 
L 1084 3319 
L 1650 3319 
L 1650 2881 
L 1084 2881 
L 1084 941 
Q 1084 700 1114 631 
Q 1144 563 1211 522 
Q 1278 481 1403 481 
Q 1497 481 1650 503 
z
" transform="scale(0.015625)"/>
        <path id="ArialMT-6f" d="M 213 1659 
Q 213 2581 725 3025 
Q 1153 3394 1769 3394 
Q 2453 3394 2887 2945 
Q 3322 2497 3322 1706 
Q 3322 1066 3130 698 
Q 2938 331 2570 128 
Q 2203 -75 1769 -75 
Q 1072 -75 642 372 
Q 213 819 213 1659 
z
M 791 1659 
Q 791 1022 1069 705 
Q 1347 388 1769 388 
Q 2188 388 2466 706 
Q 2744 1025 2744 1678 
Q 2744 2294 2464 2611 
Q 2184 2928 1769 2928 
Q 1347 2928 1069 2612 
Q 791 2297 791 1659 
z
" transform="scale(0.015625)"/>
        <path id="ArialMT-67" d="M 319 -275 
L 866 -356 
Q 900 -609 1056 -725 
Q 1266 -881 1628 -881 
Q 2019 -881 2231 -725 
Q 2444 -569 2519 -288 
Q 2563 -116 2559 434 
Q 2191 0 1641 0 
Q 956 0 581 494 
Q 206 988 206 1678 
Q 206 2153 378 2554 
Q 550 2956 876 3175 
Q 1203 3394 1644 3394 
Q 2231 3394 2613 2919 
L 2613 3319 
L 3131 3319 
L 3131 450 
Q 3131 -325 2973 -648 
Q 2816 -972 2473 -1159 
Q 2131 -1347 1631 -1347 
Q 1038 -1347 672 -1080 
Q 306 -813 319 -275 
z
M 784 1719 
Q 784 1066 1043 766 
Q 1303 466 1694 466 
Q 2081 466 2343 764 
Q 2606 1063 2606 1700 
Q 2606 2309 2336 2618 
Q 2066 2928 1684 2928 
Q 1309 2928 1046 2623 
Q 784 2319 784 1719 
z
" transform="scale(0.015625)"/>
        <path id="ArialMT-6e" d="M 422 0 
L 422 3319 
L 928 3319 
L 928 2847 
Q 1294 3394 1984 3394 
Q 2284 3394 2536 3286 
Q 2788 3178 2913 3003 
Q 3038 2828 3088 2588 
Q 3119 2431 3119 2041 
L 3119 0 
L 2556 0 
L 2556 2019 
Q 2556 2363 2490 2533 
Q 2425 2703 2258 2804 
Q 2091 2906 1866 2906 
Q 1506 2906 1245 2678 
Q 984 2450 984 1813 
L 984 0 
L 422 0 
z
" transform="scale(0.015625)"/>
        <path id="ArialMT-69" d="M 425 3934 
L 425 4581 
L 988 4581 
L 988 3934 
L 425 3934 
z
M 425 0 
L 425 3319 
L 988 3319 
L 988 0 
L 425 0 
z
" transform="scale(0.015625)"/>
        <path id="ArialMT-73" d="M 197 991 
L 753 1078 
Q 800 744 1014 566 
Q 1228 388 1613 388 
Q 2000 388 2187 545 
Q 2375 703 2375 916 
Q 2375 1106 2209 1216 
Q 2094 1291 1634 1406 
Q 1016 1563 777 1677 
Q 538 1791 414 1992 
Q 291 2194 291 2438 
Q 291 2659 392 2848 
Q 494 3038 669 3163 
Q 800 3259 1026 3326 
Q 1253 3394 1513 3394 
Q 1903 3394 2198 3281 
Q 2494 3169 2634 2976 
Q 2775 2784 2828 2463 
L 2278 2388 
Q 2241 2644 2061 2787 
Q 1881 2931 1553 2931 
Q 1166 2931 1000 2803 
Q 834 2675 834 2503 
Q 834 2394 903 2306 
Q 972 2216 1119 2156 
Q 1203 2125 1616 2013 
Q 2213 1853 2448 1751 
Q 2684 1650 2818 1456 
Q 2953 1263 2953 975 
Q 2953 694 2789 445 
Q 2625 197 2315 61 
Q 2006 -75 1616 -75 
Q 969 -75 630 194 
Q 291 463 197 991 
z
" transform="scale(0.015625)"/>
       </defs>
       <use xlink:href="#ArialMT-41"/>
       <use xlink:href="#ArialMT-63" x="66.699219"/>
       <use xlink:href="#ArialMT-65" x="116.699219"/>
       <use xlink:href="#ArialMT-74" x="172.314453"/>
       <use xlink:href="#ArialMT-6f" x="200.097656"/>
       <use xlink:href="#ArialMT-67" x="255.712891"/>
       <use xlink:href="#ArialMT-65" x="311.328125"/>
       <use xlink:href="#ArialMT-6e" x="366.943359"/>
       <use xlink:href="#ArialMT-69" x="422.558594"/>
       <use xlink:href="#ArialMT-6e" x="444.775391"/>
       <use xlink:href="#ArialMT-73" x="500.390625"/>
      </g>
     </g>
    </g>
    <g id="xtick_2">
     <g id="line2d_2">
      <path d="M 237.693418 179.083575 
L 237.693418 4.3902 
" clip-path="url(#p946d09e04a)" style="fill: none; stroke: #cccccc; stroke-linecap: round"/>
     </g>
     <g id="text_2">
      <!-- Open-chain polyketides -->
      <g style="fill: #262626" transform="translate(240.543106 303.533575) rotate(-90) scale(0.11 -0.11)">
       <defs>
        <path id="ArialMT-4f" d="M 309 2231 
Q 309 3372 921 4017 
Q 1534 4663 2503 4663 
Q 3138 4663 3647 4359 
Q 4156 4056 4423 3514 
Q 4691 2972 4691 2284 
Q 4691 1588 4409 1038 
Q 4128 488 3612 205 
Q 3097 -78 2500 -78 
Q 1853 -78 1343 234 
Q 834 547 571 1087 
Q 309 1628 309 2231 
z
M 934 2222 
Q 934 1394 1379 917 
Q 1825 441 2497 441 
Q 3181 441 3623 922 
Q 4066 1403 4066 2288 
Q 4066 2847 3877 3264 
Q 3688 3681 3323 3911 
Q 2959 4141 2506 4141 
Q 1863 4141 1398 3698 
Q 934 3256 934 2222 
z
" transform="scale(0.015625)"/>
        <path id="ArialMT-70" d="M 422 -1272 
L 422 3319 
L 934 3319 
L 934 2888 
Q 1116 3141 1344 3267 
Q 1572 3394 1897 3394 
Q 2322 3394 2647 3175 
Q 2972 2956 3137 2557 
Q 3303 2159 3303 1684 
Q 3303 1175 3120 767 
Q 2938 359 2589 142 
Q 2241 -75 1856 -75 
Q 1575 -75 1351 44 
Q 1128 163 984 344 
L 984 -1272 
L 422 -1272 
z
M 931 1641 
Q 931 1000 1190 694 
Q 1450 388 1819 388 
Q 2194 388 2461 705 
Q 2728 1022 2728 1688 
Q 2728 2322 2467 2637 
Q 2206 2953 1844 2953 
Q 1484 2953 1207 2617 
Q 931 2281 931 1641 
z
" transform="scale(0.015625)"/>
        <path id="ArialMT-2d" d="M 203 1375 
L 203 1941 
L 1931 1941 
L 1931 1375 
L 203 1375 
z
" transform="scale(0.015625)"/>
        <path id="ArialMT-68" d="M 422 0 
L 422 4581 
L 984 4581 
L 984 2938 
Q 1378 3394 1978 3394 
Q 2347 3394 2619 3248 
Q 2891 3103 3008 2847 
Q 3125 2591 3125 2103 
L 3125 0 
L 2563 0 
L 2563 2103 
Q 2563 2525 2380 2717 
Q 2197 2909 1863 2909 
Q 1613 2909 1392 2779 
Q 1172 2650 1078 2428 
Q 984 2206 984 1816 
L 984 0 
L 422 0 
z
" transform="scale(0.015625)"/>
        <path id="ArialMT-61" d="M 2588 409 
Q 2275 144 1986 34 
Q 1697 -75 1366 -75 
Q 819 -75 525 192 
Q 231 459 231 875 
Q 231 1119 342 1320 
Q 453 1522 633 1644 
Q 813 1766 1038 1828 
Q 1203 1872 1538 1913 
Q 2219 1994 2541 2106 
Q 2544 2222 2544 2253 
Q 2544 2597 2384 2738 
Q 2169 2928 1744 2928 
Q 1347 2928 1158 2789 
Q 969 2650 878 2297 
L 328 2372 
Q 403 2725 575 2942 
Q 747 3159 1072 3276 
Q 1397 3394 1825 3394 
Q 2250 3394 2515 3294 
Q 2781 3194 2906 3042 
Q 3031 2891 3081 2659 
Q 3109 2516 3109 2141 
L 3109 1391 
Q 3109 606 3145 398 
Q 3181 191 3288 0 
L 2700 0 
Q 2613 175 2588 409 
z
M 2541 1666 
Q 2234 1541 1622 1453 
Q 1275 1403 1131 1340 
Q 988 1278 909 1158 
Q 831 1038 831 891 
Q 831 666 1001 516 
Q 1172 366 1500 366 
Q 1825 366 2078 508 
Q 2331 650 2450 897 
Q 2541 1088 2541 1459 
L 2541 1666 
z
" transform="scale(0.015625)"/>
        <path id="ArialMT-20" transform="scale(0.015625)"/>
        <path id="ArialMT-6c" d="M 409 0 
L 409 4581 
L 972 4581 
L 972 0 
L 409 0 
z
" transform="scale(0.015625)"/>
        <path id="ArialMT-79" d="M 397 -1278 
L 334 -750 
Q 519 -800 656 -800 
Q 844 -800 956 -737 
Q 1069 -675 1141 -563 
Q 1194 -478 1313 -144 
Q 1328 -97 1363 -6 
L 103 3319 
L 709 3319 
L 1400 1397 
Q 1534 1031 1641 628 
Q 1738 1016 1872 1384 
L 2581 3319 
L 3144 3319 
L 1881 -56 
Q 1678 -603 1566 -809 
Q 1416 -1088 1222 -1217 
Q 1028 -1347 759 -1347 
Q 597 -1347 397 -1278 
z
" transform="scale(0.015625)"/>
        <path id="ArialMT-6b" d="M 425 0 
L 425 4581 
L 988 4581 
L 988 1969 
L 2319 3319 
L 3047 3319 
L 1778 2088 
L 3175 0 
L 2481 0 
L 1384 1697 
L 988 1316 
L 988 0 
L 425 0 
z
" transform="scale(0.015625)"/>
        <path id="ArialMT-64" d="M 2575 0 
L 2575 419 
Q 2259 -75 1647 -75 
Q 1250 -75 917 144 
Q 584 363 401 755 
Q 219 1147 219 1656 
Q 219 2153 384 2558 
Q 550 2963 881 3178 
Q 1213 3394 1622 3394 
Q 1922 3394 2156 3267 
Q 2391 3141 2538 2938 
L 2538 4581 
L 3097 4581 
L 3097 0 
L 2575 0 
z
M 797 1656 
Q 797 1019 1065 703 
Q 1334 388 1700 388 
Q 2069 388 2326 689 
Q 2584 991 2584 1609 
Q 2584 2291 2321 2609 
Q 2059 2928 1675 2928 
Q 1300 2928 1048 2622 
Q 797 2316 797 1656 
z
" transform="scale(0.015625)"/>
       </defs>
       <use xlink:href="#ArialMT-4f"/>
       <use xlink:href="#ArialMT-70" x="77.783203"/>
       <use xlink:href="#ArialMT-65" x="133.398438"/>
       <use xlink:href="#ArialMT-6e" x="189.013672"/>
       <use xlink:href="#ArialMT-2d" x="244.628906"/>
       <use xlink:href="#ArialMT-63" x="277.929688"/>
       <use xlink:href="#ArialMT-68" x="327.929688"/>
       <use xlink:href="#ArialMT-61" x="383.544922"/>
       <use xlink:href="#ArialMT-69" x="439.160156"/>
       <use xlink:href="#ArialMT-6e" x="461.376953"/>
       <use xlink:href="#ArialMT-20" x="516.992188"/>
       <use xlink:href="#ArialMT-70" x="544.775391"/>
       <use xlink:href="#ArialMT-6f" x="600.390625"/>
       <use xlink:href="#ArialMT-6c" x="656.005859"/>
       <use xlink:href="#ArialMT-79" x="678.222656"/>
       <use xlink:href="#ArialMT-6b" x="728.222656"/>
       <use xlink:href="#ArialMT-65" x="778.222656"/>
       <use xlink:href="#ArialMT-74" x="833.837891"/>
       <use xlink:href="#ArialMT-69" x="861.621094"/>
       <use xlink:href="#ArialMT-64" x="883.837891"/>
       <use xlink:href="#ArialMT-65" x="939.453125"/>
       <use xlink:href="#ArialMT-73" x="995.068359"/>
      </g>
     </g>
    </g>
    <g id="xtick_3">
     <g id="line2d_3">
      <path d="M 294.655239 179.083575 
L 294.655239 4.3902 
" clip-path="url(#p946d09e04a)" style="fill: none; stroke: #cccccc; stroke-linecap: round"/>
     </g>
     <g id="text_3">
      <!-- Phoslactomycins or Phosphazomycins -->
      <g style="fill: #262626" transform="translate(297.434458 376.267638) rotate(-90) scale(0.11 -0.11)">
       <defs>
        <path id="ArialMT-50" d="M 494 0 
L 494 4581 
L 2222 4581 
Q 2678 4581 2919 4538 
Q 3256 4481 3484 4323 
Q 3713 4166 3852 3881 
Q 3991 3597 3991 3256 
Q 3991 2672 3619 2267 
Q 3247 1863 2275 1863 
L 1100 1863 
L 1100 0 
L 494 0 
z
M 1100 2403 
L 2284 2403 
Q 2872 2403 3119 2622 
Q 3366 2841 3366 3238 
Q 3366 3525 3220 3729 
Q 3075 3934 2838 4000 
Q 2684 4041 2272 4041 
L 1100 4041 
L 1100 2403 
z
" transform="scale(0.015625)"/>
        <path id="ArialMT-6d" d="M 422 0 
L 422 3319 
L 925 3319 
L 925 2853 
Q 1081 3097 1340 3245 
Q 1600 3394 1931 3394 
Q 2300 3394 2536 3241 
Q 2772 3088 2869 2813 
Q 3263 3394 3894 3394 
Q 4388 3394 4653 3120 
Q 4919 2847 4919 2278 
L 4919 0 
L 4359 0 
L 4359 2091 
Q 4359 2428 4304 2576 
Q 4250 2725 4106 2815 
Q 3963 2906 3769 2906 
Q 3419 2906 3187 2673 
Q 2956 2441 2956 1928 
L 2956 0 
L 2394 0 
L 2394 2156 
Q 2394 2531 2256 2718 
Q 2119 2906 1806 2906 
Q 1569 2906 1367 2781 
Q 1166 2656 1075 2415 
Q 984 2175 984 1722 
L 984 0 
L 422 0 
z
" transform="scale(0.015625)"/>
        <path id="ArialMT-72" d="M 416 0 
L 416 3319 
L 922 3319 
L 922 2816 
Q 1116 3169 1280 3281 
Q 1444 3394 1641 3394 
Q 1925 3394 2219 3213 
L 2025 2691 
Q 1819 2813 1613 2813 
Q 1428 2813 1281 2702 
Q 1134 2591 1072 2394 
Q 978 2094 978 1738 
L 978 0 
L 416 0 
z
" transform="scale(0.015625)"/>
        <path id="ArialMT-7a" d="M 125 0 
L 125 456 
L 2238 2881 
Q 1878 2863 1603 2863 
L 250 2863 
L 250 3319 
L 2963 3319 
L 2963 2947 
L 1166 841 
L 819 456 
Q 1197 484 1528 484 
L 3063 484 
L 3063 0 
L 125 0 
z
" transform="scale(0.015625)"/>
       </defs>
       <use xlink:href="#ArialMT-50"/>
       <use xlink:href="#ArialMT-68" x="66.699219"/>
       <use xlink:href="#ArialMT-6f" x="122.314453"/>
       <use xlink:href="#ArialMT-73" x="177.929688"/>
       <use xlink:href="#ArialMT-6c" x="227.929688"/>
       <use xlink:href="#ArialMT-61" x="250.146484"/>
       <use xlink:href="#ArialMT-63" x="305.761719"/>
       <use xlink:href="#ArialMT-74" x="355.761719"/>
       <use xlink:href="#ArialMT-6f" x="383.544922"/>
       <use xlink:href="#ArialMT-6d" x="439.160156"/>
       <use xlink:href="#ArialMT-79" x="522.460938"/>
       <use xlink:href="#ArialMT-63" x="572.460938"/>
       <use xlink:href="#ArialMT-69" x="622.460938"/>
       <use xlink:href="#ArialMT-6e" x="644.677734"/>
       <use xlink:href="#ArialMT-73" x="700.292969"/>
       <use xlink:href="#ArialMT-20" x="750.292969"/>
       <use xlink:href="#ArialMT-6f" x="778.076172"/>
       <use xlink:href="#ArialMT-72" x="833.691406"/>
       <use xlink:href="#ArialMT-20" x="866.992188"/>
       <use xlink:href="#ArialMT-50" x="894.775391"/>
       <use xlink:href="#ArialMT-68" x="961.474609"/>
       <use xlink:href="#ArialMT-6f" x="1017.089844"/>
       <use xlink:href="#ArialMT-73" x="1072.705078"/>
       <use xlink:href="#ArialMT-70" x="1122.705078"/>
       <use xlink:href="#ArialMT-68" x="1178.320312"/>
       <use xlink:href="#ArialMT-61" x="1233.935547"/>
       <use xlink:href="#ArialMT-7a" x="1289.550781"/>
       <use xlink:href="#ArialMT-6f" x="1339.550781"/>
       <use xlink:href="#ArialMT-6d" x="1395.166016"/>
       <use xlink:href="#ArialMT-79" x="1478.466797"/>
       <use xlink:href="#ArialMT-63" x="1528.466797"/>
       <use xlink:href="#ArialMT-69" x="1578.466797"/>
       <use xlink:href="#ArialMT-6e" x="1600.683594"/>
       <use xlink:href="#ArialMT-73" x="1656.298828"/>
      </g>
     </g>
    </g>
    <g id="text_4">
     <!-- class -->
     <g style="fill: #262626" transform="translate(224.023731 388.857012) scale(0.12 -0.12)">
      <use xlink:href="#ArialMT-63"/>
      <use xlink:href="#ArialMT-6c" x="50"/>
      <use xlink:href="#ArialMT-61" x="72.216797"/>
      <use xlink:href="#ArialMT-73" x="127.832031"/>
      <use xlink:href="#ArialMT-73" x="177.832031"/>
     </g>
    </g>
   </g>
   <g id="matplotlib.axis_2">
    <g id="ytick_1">
     <g id="line2d_4">
      <path d="M 178.453125 7.749688 
L 296.933712 7.749688 
" clip-path="url(#p946d09e04a)" style="fill: none; stroke: #cccccc; stroke-linecap: round"/>
     </g>
     <g id="text_5">
      <!-- Oxidoreductase -->
      <g style="fill: #262626" transform="translate(91.915312 11.686485) scale(0.11 -0.11)">
       <defs>
        <path id="ArialMT-78" d="M 47 0 
L 1259 1725 
L 138 3319 
L 841 3319 
L 1350 2541 
Q 1494 2319 1581 2169 
Q 1719 2375 1834 2534 
L 2394 3319 
L 3066 3319 
L 1919 1756 
L 3153 0 
L 2463 0 
L 1781 1031 
L 1600 1309 
L 728 0 
L 47 0 
z
" transform="scale(0.015625)"/>
        <path id="ArialMT-75" d="M 2597 0 
L 2597 488 
Q 2209 -75 1544 -75 
Q 1250 -75 995 37 
Q 741 150 617 320 
Q 494 491 444 738 
Q 409 903 409 1263 
L 409 3319 
L 972 3319 
L 972 1478 
Q 972 1038 1006 884 
Q 1059 663 1231 536 
Q 1403 409 1656 409 
Q 1909 409 2131 539 
Q 2353 669 2445 892 
Q 2538 1116 2538 1541 
L 2538 3319 
L 3100 3319 
L 3100 0 
L 2597 0 
z
" transform="scale(0.015625)"/>
       </defs>
       <use xlink:href="#ArialMT-4f"/>
       <use xlink:href="#ArialMT-78" x="77.783203"/>
       <use xlink:href="#ArialMT-69" x="127.783203"/>
       <use xlink:href="#ArialMT-64" x="150"/>
       <use xlink:href="#ArialMT-6f" x="205.615234"/>
       <use xlink:href="#ArialMT-72" x="261.230469"/>
       <use xlink:href="#ArialMT-65" x="294.53125"/>
       <use xlink:href="#ArialMT-64" x="350.146484"/>
       <use xlink:href="#ArialMT-75" x="405.761719"/>
       <use xlink:href="#ArialMT-63" x="461.376953"/>
       <use xlink:href="#ArialMT-74" x="511.376953"/>
       <use xlink:href="#ArialMT-61" x="539.160156"/>
       <use xlink:href="#ArialMT-73" x="594.775391"/>
       <use xlink:href="#ArialMT-65" x="644.775391"/>
      </g>
     </g>
    </g>
    <g id="ytick_2">
     <g id="line2d_5">
      <path d="M 178.453125 26.41351 
L 296.933712 26.41351 
" clip-path="url(#p946d09e04a)" style="fill: none; stroke: #cccccc; stroke-linecap: round"/>
     </g>
     <g id="text_6">
      <!-- Aspartic protease A1A subfamily -->
      <g style="fill: #262626" transform="translate(11.207969 30.417338) scale(0.11 -0.11)">
       <defs>
        <path id="ArialMT-31" d="M 2384 0 
L 1822 0 
L 1822 3584 
Q 1619 3391 1289 3197 
Q 959 3003 697 2906 
L 697 3450 
Q 1169 3672 1522 3987 
Q 1875 4303 2022 4600 
L 2384 4600 
L 2384 0 
z
" transform="scale(0.015625)"/>
        <path id="ArialMT-62" d="M 941 0 
L 419 0 
L 419 4581 
L 981 4581 
L 981 2947 
Q 1338 3394 1891 3394 
Q 2197 3394 2470 3270 
Q 2744 3147 2920 2923 
Q 3097 2700 3197 2384 
Q 3297 2069 3297 1709 
Q 3297 856 2875 390 
Q 2453 -75 1863 -75 
Q 1275 -75 941 416 
L 941 0 
z
M 934 1684 
Q 934 1088 1097 822 
Q 1363 388 1816 388 
Q 2184 388 2453 708 
Q 2722 1028 2722 1663 
Q 2722 2313 2464 2622 
Q 2206 2931 1841 2931 
Q 1472 2931 1203 2611 
Q 934 2291 934 1684 
z
" transform="scale(0.015625)"/>
        <path id="ArialMT-66" d="M 556 0 
L 556 2881 
L 59 2881 
L 59 3319 
L 556 3319 
L 556 3672 
Q 556 4006 616 4169 
Q 697 4388 901 4523 
Q 1106 4659 1475 4659 
Q 1713 4659 2000 4603 
L 1916 4113 
Q 1741 4144 1584 4144 
Q 1328 4144 1222 4034 
Q 1116 3925 1116 3625 
L 1116 3319 
L 1763 3319 
L 1763 2881 
L 1116 2881 
L 1116 0 
L 556 0 
z
" transform="scale(0.015625)"/>
       </defs>
       <use xlink:href="#ArialMT-41"/>
       <use xlink:href="#ArialMT-73" x="66.699219"/>
       <use xlink:href="#ArialMT-70" x="116.699219"/>
       <use xlink:href="#ArialMT-61" x="172.314453"/>
       <use xlink:href="#ArialMT-72" x="227.929688"/>
       <use xlink:href="#ArialMT-74" x="261.230469"/>
       <use xlink:href="#ArialMT-69" x="289.013672"/>
       <use xlink:href="#ArialMT-63" x="311.230469"/>
       <use xlink:href="#ArialMT-20" x="361.230469"/>
       <use xlink:href="#ArialMT-70" x="389.013672"/>
       <use xlink:href="#ArialMT-72" x="444.628906"/>
       <use xlink:href="#ArialMT-6f" x="477.929688"/>
       <use xlink:href="#ArialMT-74" x="533.544922"/>
       <use xlink:href="#ArialMT-65" x="561.328125"/>
       <use xlink:href="#ArialMT-61" x="616.943359"/>
       <use xlink:href="#ArialMT-73" x="672.558594"/>
       <use xlink:href="#ArialMT-65" x="722.558594"/>
       <use xlink:href="#ArialMT-20" x="778.173828"/>
       <use xlink:href="#ArialMT-41" x="800.457031"/>
       <use xlink:href="#ArialMT-31" x="867.15625"/>
       <use xlink:href="#ArialMT-41" x="922.771484"/>
       <use xlink:href="#ArialMT-20" x="983.970703"/>
       <use xlink:href="#ArialMT-73" x="1011.753906"/>
       <use xlink:href="#ArialMT-75" x="1061.753906"/>
       <use xlink:href="#ArialMT-62" x="1117.369141"/>
       <use xlink:href="#ArialMT-66" x="1172.984375"/>
       <use xlink:href="#ArialMT-61" x="1200.767578"/>
       <use xlink:href="#ArialMT-6d" x="1256.382812"/>
       <use xlink:href="#ArialMT-69" x="1339.683594"/>
       <use xlink:href="#ArialMT-6c" x="1361.900391"/>
       <use xlink:href="#ArialMT-79" x="1384.117188"/>
      </g>
     </g>
    </g>
    <g id="ytick_3">
     <g id="line2d_6">
      <path d="M 178.453125 45.077332 
L 296.933712 45.077332 
" clip-path="url(#p946d09e04a)" style="fill: none; stroke: #cccccc; stroke-linecap: round"/>
     </g>
     <g id="text_7">
      <!-- HDAC class I -->
      <g style="fill: #262626" transform="translate(103.554688 49.014129) scale(0.11 -0.11)">
       <defs>
        <path id="ArialMT-48" d="M 513 0 
L 513 4581 
L 1119 4581 
L 1119 2700 
L 3500 2700 
L 3500 4581 
L 4106 4581 
L 4106 0 
L 3500 0 
L 3500 2159 
L 1119 2159 
L 1119 0 
L 513 0 
z
" transform="scale(0.015625)"/>
        <path id="ArialMT-44" d="M 494 0 
L 494 4581 
L 2072 4581 
Q 2606 4581 2888 4516 
Q 3281 4425 3559 4188 
Q 3922 3881 4101 3404 
Q 4281 2928 4281 2316 
Q 4281 1794 4159 1391 
Q 4038 988 3847 723 
Q 3656 459 3429 307 
Q 3203 156 2883 78 
Q 2563 0 2147 0 
L 494 0 
z
M 1100 541 
L 2078 541 
Q 2531 541 2789 625 
Q 3047 709 3200 863 
Q 3416 1078 3536 1442 
Q 3656 1806 3656 2325 
Q 3656 3044 3420 3430 
Q 3184 3816 2847 3947 
Q 2603 4041 2063 4041 
L 1100 4041 
L 1100 541 
z
" transform="scale(0.015625)"/>
        <path id="ArialMT-43" d="M 3763 1606 
L 4369 1453 
Q 4178 706 3683 314 
Q 3188 -78 2472 -78 
Q 1731 -78 1267 223 
Q 803 525 561 1097 
Q 319 1669 319 2325 
Q 319 3041 592 3573 
Q 866 4106 1370 4382 
Q 1875 4659 2481 4659 
Q 3169 4659 3637 4309 
Q 4106 3959 4291 3325 
L 3694 3184 
Q 3534 3684 3231 3912 
Q 2928 4141 2469 4141 
Q 1941 4141 1586 3887 
Q 1231 3634 1087 3207 
Q 944 2781 944 2328 
Q 944 1744 1114 1308 
Q 1284 872 1643 656 
Q 2003 441 2422 441 
Q 2931 441 3284 734 
Q 3638 1028 3763 1606 
z
" transform="scale(0.015625)"/>
        <path id="ArialMT-49" d="M 597 0 
L 597 4581 
L 1203 4581 
L 1203 0 
L 597 0 
z
" transform="scale(0.015625)"/>
       </defs>
       <use xlink:href="#ArialMT-48"/>
       <use xlink:href="#ArialMT-44" x="72.216797"/>
       <use xlink:href="#ArialMT-41" x="144.433594"/>
       <use xlink:href="#ArialMT-43" x="211.132812"/>
       <use xlink:href="#ArialMT-20" x="283.349609"/>
       <use xlink:href="#ArialMT-63" x="311.132812"/>
       <use xlink:href="#ArialMT-6c" x="361.132812"/>
       <use xlink:href="#ArialMT-61" x="383.349609"/>
       <use xlink:href="#ArialMT-73" x="438.964844"/>
       <use xlink:href="#ArialMT-73" x="488.964844"/>
       <use xlink:href="#ArialMT-20" x="538.964844"/>
       <use xlink:href="#ArialMT-49" x="566.748047"/>
      </g>
     </g>
    </g>
    <g id="ytick_4">
     <g id="line2d_7">
      <path d="M 178.453125 63.741154 
L 296.933712 63.741154 
" clip-path="url(#p946d09e04a)" style="fill: none; stroke: #cccccc; stroke-linecap: round"/>
     </g>
     <g id="text_8">
      <!-- Ligase -->
      <g style="fill: #262626" transform="translate(136.540937 67.677951) scale(0.11 -0.11)">
       <defs>
        <path id="ArialMT-4c" d="M 469 0 
L 469 4581 
L 1075 4581 
L 1075 541 
L 3331 541 
L 3331 0 
L 469 0 
z
" transform="scale(0.015625)"/>
       </defs>
       <use xlink:href="#ArialMT-4c"/>
       <use xlink:href="#ArialMT-69" x="55.615234"/>
       <use xlink:href="#ArialMT-67" x="77.832031"/>
       <use xlink:href="#ArialMT-61" x="133.447266"/>
       <use xlink:href="#ArialMT-73" x="189.0625"/>
       <use xlink:href="#ArialMT-65" x="239.0625"/>
      </g>
     </g>
    </g>
    <g id="ytick_5">
     <g id="line2d_8">
      <path d="M 178.453125 82.404976 
L 296.933712 82.404976 
" clip-path="url(#p946d09e04a)" style="fill: none; stroke: #cccccc; stroke-linecap: round"/>
     </g>
     <g id="text_9">
      <!-- Protein phosphatase regulatory subunit -->
      <g style="fill: #262626" transform="translate(-22.436563 86.341773) scale(0.11 -0.11)">
       <use xlink:href="#ArialMT-50"/>
       <use xlink:href="#ArialMT-72" x="66.699219"/>
       <use xlink:href="#ArialMT-6f" x="100"/>
       <use xlink:href="#ArialMT-74" x="155.615234"/>
       <use xlink:href="#ArialMT-65" x="183.398438"/>
       <use xlink:href="#ArialMT-69" x="239.013672"/>
       <use xlink:href="#ArialMT-6e" x="261.230469"/>
       <use xlink:href="#ArialMT-20" x="316.845703"/>
       <use xlink:href="#ArialMT-70" x="344.628906"/>
       <use xlink:href="#ArialMT-68" x="400.244141"/>
       <use xlink:href="#ArialMT-6f" x="455.859375"/>
       <use xlink:href="#ArialMT-73" x="511.474609"/>
       <use xlink:href="#ArialMT-70" x="561.474609"/>
       <use xlink:href="#ArialMT-68" x="617.089844"/>
       <use xlink:href="#ArialMT-61" x="672.705078"/>
       <use xlink:href="#ArialMT-74" x="728.320312"/>
       <use xlink:href="#ArialMT-61" x="756.103516"/>
       <use xlink:href="#ArialMT-73" x="811.71875"/>
       <use xlink:href="#ArialMT-65" x="861.71875"/>
       <use xlink:href="#ArialMT-20" x="917.333984"/>
       <use xlink:href="#ArialMT-72" x="945.117188"/>
       <use xlink:href="#ArialMT-65" x="978.417969"/>
       <use xlink:href="#ArialMT-67" x="1034.033203"/>
       <use xlink:href="#ArialMT-75" x="1089.648438"/>
       <use xlink:href="#ArialMT-6c" x="1145.263672"/>
       <use xlink:href="#ArialMT-61" x="1167.480469"/>
       <use xlink:href="#ArialMT-74" x="1223.095703"/>
       <use xlink:href="#ArialMT-6f" x="1250.878906"/>
       <use xlink:href="#ArialMT-72" x="1306.494141"/>
       <use xlink:href="#ArialMT-79" x="1339.794922"/>
       <use xlink:href="#ArialMT-20" x="1389.794922"/>
       <use xlink:href="#ArialMT-73" x="1417.578125"/>
       <use xlink:href="#ArialMT-75" x="1467.578125"/>
       <use xlink:href="#ArialMT-62" x="1523.193359"/>
       <use xlink:href="#ArialMT-75" x="1578.808594"/>
       <use xlink:href="#ArialMT-6e" x="1634.423828"/>
       <use xlink:href="#ArialMT-69" x="1690.039062"/>
       <use xlink:href="#ArialMT-74" x="1712.255859"/>
      </g>
     </g>
    </g>
    <g id="ytick_6">
     <g id="line2d_9">
      <path d="M 178.453125 101.068799 
L 296.933712 101.068799 
" clip-path="url(#p946d09e04a)" style="fill: none; stroke: #cccccc; stroke-linecap: round"/>
     </g>
     <g id="text_10">
      <!-- Tyrosine protein phosphatase -->
      <g style="fill: #262626" transform="translate(24.646875 105.005595) scale(0.11 -0.11)">
       <defs>
        <path id="ArialMT-54" d="M 1659 0 
L 1659 4041 
L 150 4041 
L 150 4581 
L 3781 4581 
L 3781 4041 
L 2266 4041 
L 2266 0 
L 1659 0 
z
" transform="scale(0.015625)"/>
       </defs>
       <use xlink:href="#ArialMT-54"/>
       <use xlink:href="#ArialMT-79" x="55.583984"/>
       <use xlink:href="#ArialMT-72" x="105.583984"/>
       <use xlink:href="#ArialMT-6f" x="138.884766"/>
       <use xlink:href="#ArialMT-73" x="194.5"/>
       <use xlink:href="#ArialMT-69" x="244.5"/>
       <use xlink:href="#ArialMT-6e" x="266.716797"/>
       <use xlink:href="#ArialMT-65" x="322.332031"/>
       <use xlink:href="#ArialMT-20" x="377.947266"/>
       <use xlink:href="#ArialMT-70" x="405.730469"/>
       <use xlink:href="#ArialMT-72" x="461.345703"/>
       <use xlink:href="#ArialMT-6f" x="494.646484"/>
       <use xlink:href="#ArialMT-74" x="550.261719"/>
       <use xlink:href="#ArialMT-65" x="578.044922"/>
       <use xlink:href="#ArialMT-69" x="633.660156"/>
       <use xlink:href="#ArialMT-6e" x="655.876953"/>
       <use xlink:href="#ArialMT-20" x="711.492188"/>
       <use xlink:href="#ArialMT-70" x="739.275391"/>
       <use xlink:href="#ArialMT-68" x="794.890625"/>
       <use xlink:href="#ArialMT-6f" x="850.505859"/>
       <use xlink:href="#ArialMT-73" x="906.121094"/>
       <use xlink:href="#ArialMT-70" x="956.121094"/>
       <use xlink:href="#ArialMT-68" x="1011.736328"/>
       <use xlink:href="#ArialMT-61" x="1067.351562"/>
       <use xlink:href="#ArialMT-74" x="1122.966797"/>
       <use xlink:href="#ArialMT-61" x="1150.75"/>
       <use xlink:href="#ArialMT-73" x="1206.365234"/>
       <use xlink:href="#ArialMT-65" x="1256.365234"/>
      </g>
     </g>
    </g>
    <g id="ytick_7">
     <g id="line2d_10">
      <path d="M 178.453125 119.732621 
L 296.933712 119.732621 
" clip-path="url(#p946d09e04a)" style="fill: none; stroke: #cccccc; stroke-linecap: round"/>
     </g>
     <g id="text_11">
      <!-- Aspartic protease -->
      <g style="fill: #262626" transform="translate(83.359375 123.669418) scale(0.11 -0.11)">
       <use xlink:href="#ArialMT-41"/>
       <use xlink:href="#ArialMT-73" x="66.699219"/>
       <use xlink:href="#ArialMT-70" x="116.699219"/>
       <use xlink:href="#ArialMT-61" x="172.314453"/>
       <use xlink:href="#ArialMT-72" x="227.929688"/>
       <use xlink:href="#ArialMT-74" x="261.230469"/>
       <use xlink:href="#ArialMT-69" x="289.013672"/>
       <use xlink:href="#ArialMT-63" x="311.230469"/>
       <use xlink:href="#ArialMT-20" x="361.230469"/>
       <use xlink:href="#ArialMT-70" x="389.013672"/>
       <use xlink:href="#ArialMT-72" x="444.628906"/>
       <use xlink:href="#ArialMT-6f" x="477.929688"/>
       <use xlink:href="#ArialMT-74" x="533.544922"/>
       <use xlink:href="#ArialMT-65" x="561.328125"/>
       <use xlink:href="#ArialMT-61" x="616.943359"/>
       <use xlink:href="#ArialMT-73" x="672.558594"/>
       <use xlink:href="#ArialMT-65" x="722.558594"/>
      </g>
     </g>
    </g>
    <g id="ytick_8">
     <g id="line2d_11">
      <path d="M 178.453125 138.396443 
L 296.933712 138.396443 
" clip-path="url(#p946d09e04a)" style="fill: none; stroke: #cccccc; stroke-linecap: round"/>
     </g>
     <g id="text_12">
      <!-- Cysteine protease C3A subfamily -->
      <g style="fill: #262626" transform="translate(6.935156 142.400271) scale(0.11 -0.11)">
       <defs>
        <path id="ArialMT-33" d="M 269 1209 
L 831 1284 
Q 928 806 1161 595 
Q 1394 384 1728 384 
Q 2125 384 2398 659 
Q 2672 934 2672 1341 
Q 2672 1728 2419 1979 
Q 2166 2231 1775 2231 
Q 1616 2231 1378 2169 
L 1441 2663 
Q 1497 2656 1531 2656 
Q 1891 2656 2178 2843 
Q 2466 3031 2466 3422 
Q 2466 3731 2256 3934 
Q 2047 4138 1716 4138 
Q 1388 4138 1169 3931 
Q 950 3725 888 3313 
L 325 3413 
Q 428 3978 793 4289 
Q 1159 4600 1703 4600 
Q 2078 4600 2393 4439 
Q 2709 4278 2876 4000 
Q 3044 3722 3044 3409 
Q 3044 3113 2884 2869 
Q 2725 2625 2413 2481 
Q 2819 2388 3044 2092 
Q 3269 1797 3269 1353 
Q 3269 753 2831 336 
Q 2394 -81 1725 -81 
Q 1122 -81 723 278 
Q 325 638 269 1209 
z
" transform="scale(0.015625)"/>
       </defs>
       <use xlink:href="#ArialMT-43"/>
       <use xlink:href="#ArialMT-79" x="72.216797"/>
       <use xlink:href="#ArialMT-73" x="122.216797"/>
       <use xlink:href="#ArialMT-74" x="172.216797"/>
       <use xlink:href="#ArialMT-65" x="200"/>
       <use xlink:href="#ArialMT-69" x="255.615234"/>
       <use xlink:href="#ArialMT-6e" x="277.832031"/>
       <use xlink:href="#ArialMT-65" x="333.447266"/>
       <use xlink:href="#ArialMT-20" x="389.0625"/>
       <use xlink:href="#ArialMT-70" x="416.845703"/>
       <use xlink:href="#ArialMT-72" x="472.460938"/>
       <use xlink:href="#ArialMT-6f" x="505.761719"/>
       <use xlink:href="#ArialMT-74" x="561.376953"/>
       <use xlink:href="#ArialMT-65" x="589.160156"/>
       <use xlink:href="#ArialMT-61" x="644.775391"/>
       <use xlink:href="#ArialMT-73" x="700.390625"/>
       <use xlink:href="#ArialMT-65" x="750.390625"/>
       <use xlink:href="#ArialMT-20" x="806.005859"/>
       <use xlink:href="#ArialMT-43" x="833.789062"/>
       <use xlink:href="#ArialMT-33" x="906.005859"/>
       <use xlink:href="#ArialMT-41" x="961.621094"/>
       <use xlink:href="#ArialMT-20" x="1022.820312"/>
       <use xlink:href="#ArialMT-73" x="1050.603516"/>
       <use xlink:href="#ArialMT-75" x="1100.603516"/>
       <use xlink:href="#ArialMT-62" x="1156.21875"/>
       <use xlink:href="#ArialMT-66" x="1211.833984"/>
       <use xlink:href="#ArialMT-61" x="1239.617188"/>
       <use xlink:href="#ArialMT-6d" x="1295.232422"/>
       <use xlink:href="#ArialMT-69" x="1378.533203"/>
       <use xlink:href="#ArialMT-6c" x="1400.75"/>
       <use xlink:href="#ArialMT-79" x="1422.966797"/>
      </g>
     </g>
    </g>
    <g id="ytick_9">
     <g id="line2d_12">
      <path d="M 178.453125 157.060265 
L 296.933712 157.060265 
" clip-path="url(#p946d09e04a)" style="fill: none; stroke: #cccccc; stroke-linecap: round"/>
     </g>
     <g id="text_13">
      <!-- Nuclear hormone receptor subfamily 1 group F member 3 -->
      <g style="fill: #262626" transform="translate(-111.036406 161.064093) scale(0.11 -0.11)">
       <defs>
        <path id="ArialMT-4e" d="M 488 0 
L 488 4581 
L 1109 4581 
L 3516 984 
L 3516 4581 
L 4097 4581 
L 4097 0 
L 3475 0 
L 1069 3600 
L 1069 0 
L 488 0 
z
" transform="scale(0.015625)"/>
        <path id="ArialMT-46" d="M 525 0 
L 525 4581 
L 3616 4581 
L 3616 4041 
L 1131 4041 
L 1131 2622 
L 3281 2622 
L 3281 2081 
L 1131 2081 
L 1131 0 
L 525 0 
z
" transform="scale(0.015625)"/>
       </defs>
       <use xlink:href="#ArialMT-4e"/>
       <use xlink:href="#ArialMT-75" x="72.216797"/>
       <use xlink:href="#ArialMT-63" x="127.832031"/>
       <use xlink:href="#ArialMT-6c" x="177.832031"/>
       <use xlink:href="#ArialMT-65" x="200.048828"/>
       <use xlink:href="#ArialMT-61" x="255.664062"/>
       <use xlink:href="#ArialMT-72" x="311.279297"/>
       <use xlink:href="#ArialMT-20" x="344.580078"/>
       <use xlink:href="#ArialMT-68" x="372.363281"/>
       <use xlink:href="#ArialMT-6f" x="427.978516"/>
       <use xlink:href="#ArialMT-72" x="483.59375"/>
       <use xlink:href="#ArialMT-6d" x="516.894531"/>
       <use xlink:href="#ArialMT-6f" x="600.195312"/>
       <use xlink:href="#ArialMT-6e" x="655.810547"/>
       <use xlink:href="#ArialMT-65" x="711.425781"/>
       <use xlink:href="#ArialMT-20" x="767.041016"/>
       <use xlink:href="#ArialMT-72" x="794.824219"/>
       <use xlink:href="#ArialMT-65" x="828.125"/>
       <use xlink:href="#ArialMT-63" x="883.740234"/>
       <use xlink:href="#ArialMT-65" x="933.740234"/>
       <use xlink:href="#ArialMT-70" x="989.355469"/>
       <use xlink:href="#ArialMT-74" x="1044.970703"/>
       <use xlink:href="#ArialMT-6f" x="1072.753906"/>
       <use xlink:href="#ArialMT-72" x="1128.369141"/>
       <use xlink:href="#ArialMT-20" x="1161.669922"/>
       <use xlink:href="#ArialMT-73" x="1189.453125"/>
       <use xlink:href="#ArialMT-75" x="1239.453125"/>
       <use xlink:href="#ArialMT-62" x="1295.068359"/>
       <use xlink:href="#ArialMT-66" x="1350.683594"/>
       <use xlink:href="#ArialMT-61" x="1378.466797"/>
       <use xlink:href="#ArialMT-6d" x="1434.082031"/>
       <use xlink:href="#ArialMT-69" x="1517.382812"/>
       <use xlink:href="#ArialMT-6c" x="1539.599609"/>
       <use xlink:href="#ArialMT-79" x="1561.816406"/>
       <use xlink:href="#ArialMT-20" x="1611.816406"/>
       <use xlink:href="#ArialMT-31" x="1639.599609"/>
       <use xlink:href="#ArialMT-20" x="1695.214844"/>
       <use xlink:href="#ArialMT-67" x="1722.998047"/>
       <use xlink:href="#ArialMT-72" x="1778.613281"/>
       <use xlink:href="#ArialMT-6f" x="1811.914062"/>
       <use xlink:href="#ArialMT-75" x="1867.529297"/>
       <use xlink:href="#ArialMT-70" x="1923.144531"/>
       <use xlink:href="#ArialMT-20" x="1978.759766"/>
       <use xlink:href="#ArialMT-46" x="2006.542969"/>
       <use xlink:href="#ArialMT-20" x="2067.626953"/>
       <use xlink:href="#ArialMT-6d" x="2095.410156"/>
       <use xlink:href="#ArialMT-65" x="2178.710938"/>
       <use xlink:href="#ArialMT-6d" x="2234.326172"/>
       <use xlink:href="#ArialMT-62" x="2317.626953"/>
       <use xlink:href="#ArialMT-65" x="2373.242188"/>
       <use xlink:href="#ArialMT-72" x="2428.857422"/>
       <use xlink:href="#ArialMT-20" x="2462.158203"/>
       <use xlink:href="#ArialMT-33" x="2489.941406"/>
      </g>
     </g>
    </g>
    <g id="ytick_10">
     <g id="line2d_13">
      <path d="M 178.453125 175.724087 
L 296.933712 175.724087 
" clip-path="url(#p946d09e04a)" style="fill: none; stroke: #cccccc; stroke-linecap: round"/>
     </g>
     <g id="text_14">
      <!-- SLC02 family of hexose and sugar alcohol transporters -->
      <g style="fill: #262626" transform="translate(-98.841875 179.727915) scale(0.11 -0.11)">
       <defs>
        <path id="ArialMT-53" d="M 288 1472 
L 859 1522 
Q 900 1178 1048 958 
Q 1197 738 1509 602 
Q 1822 466 2213 466 
Q 2559 466 2825 569 
Q 3091 672 3220 851 
Q 3350 1031 3350 1244 
Q 3350 1459 3225 1620 
Q 3100 1781 2813 1891 
Q 2628 1963 1997 2114 
Q 1366 2266 1113 2400 
Q 784 2572 623 2826 
Q 463 3081 463 3397 
Q 463 3744 659 4045 
Q 856 4347 1234 4503 
Q 1613 4659 2075 4659 
Q 2584 4659 2973 4495 
Q 3363 4331 3572 4012 
Q 3781 3694 3797 3291 
L 3216 3247 
Q 3169 3681 2898 3903 
Q 2628 4125 2100 4125 
Q 1550 4125 1298 3923 
Q 1047 3722 1047 3438 
Q 1047 3191 1225 3031 
Q 1400 2872 2139 2705 
Q 2878 2538 3153 2413 
Q 3553 2228 3743 1945 
Q 3934 1663 3934 1294 
Q 3934 928 3725 604 
Q 3516 281 3123 101 
Q 2731 -78 2241 -78 
Q 1619 -78 1198 103 
Q 778 284 539 648 
Q 300 1013 288 1472 
z
" transform="scale(0.015625)"/>
        <path id="ArialMT-30" d="M 266 2259 
Q 266 3072 433 3567 
Q 600 4063 929 4331 
Q 1259 4600 1759 4600 
Q 2128 4600 2406 4451 
Q 2684 4303 2865 4023 
Q 3047 3744 3150 3342 
Q 3253 2941 3253 2259 
Q 3253 1453 3087 958 
Q 2922 463 2592 192 
Q 2263 -78 1759 -78 
Q 1097 -78 719 397 
Q 266 969 266 2259 
z
M 844 2259 
Q 844 1131 1108 757 
Q 1372 384 1759 384 
Q 2147 384 2411 759 
Q 2675 1134 2675 2259 
Q 2675 3391 2411 3762 
Q 2147 4134 1753 4134 
Q 1366 4134 1134 3806 
Q 844 3388 844 2259 
z
" transform="scale(0.015625)"/>
        <path id="ArialMT-32" d="M 3222 541 
L 3222 0 
L 194 0 
Q 188 203 259 391 
Q 375 700 629 1000 
Q 884 1300 1366 1694 
Q 2113 2306 2375 2664 
Q 2638 3022 2638 3341 
Q 2638 3675 2398 3904 
Q 2159 4134 1775 4134 
Q 1369 4134 1125 3890 
Q 881 3647 878 3216 
L 300 3275 
Q 359 3922 746 4261 
Q 1134 4600 1788 4600 
Q 2447 4600 2831 4234 
Q 3216 3869 3216 3328 
Q 3216 3053 3103 2787 
Q 2991 2522 2730 2228 
Q 2469 1934 1863 1422 
Q 1356 997 1212 845 
Q 1069 694 975 541 
L 3222 541 
z
" transform="scale(0.015625)"/>
       </defs>
       <use xlink:href="#ArialMT-53"/>
       <use xlink:href="#ArialMT-4c" x="66.699219"/>
       <use xlink:href="#ArialMT-43" x="122.314453"/>
       <use xlink:href="#ArialMT-30" x="194.53125"/>
       <use xlink:href="#ArialMT-32" x="250.146484"/>
       <use xlink:href="#ArialMT-20" x="305.761719"/>
       <use xlink:href="#ArialMT-66" x="333.544922"/>
       <use xlink:href="#ArialMT-61" x="361.328125"/>
       <use xlink:href="#ArialMT-6d" x="416.943359"/>
       <use xlink:href="#ArialMT-69" x="500.244141"/>
       <use xlink:href="#ArialMT-6c" x="522.460938"/>
       <use xlink:href="#ArialMT-79" x="544.677734"/>
       <use xlink:href="#ArialMT-20" x="594.677734"/>
       <use xlink:href="#ArialMT-6f" x="622.460938"/>
       <use xlink:href="#ArialMT-66" x="678.076172"/>
       <use xlink:href="#ArialMT-20" x="705.859375"/>
       <use xlink:href="#ArialMT-68" x="733.642578"/>
       <use xlink:href="#ArialMT-65" x="789.257812"/>
       <use xlink:href="#ArialMT-78" x="844.873047"/>
       <use xlink:href="#ArialMT-6f" x="894.873047"/>
       <use xlink:href="#ArialMT-73" x="950.488281"/>
       <use xlink:href="#ArialMT-65" x="1000.488281"/>
       <use xlink:href="#ArialMT-20" x="1056.103516"/>
       <use xlink:href="#ArialMT-61" x="1083.886719"/>
       <use xlink:href="#ArialMT-6e" x="1139.501953"/>
       <use xlink:href="#ArialMT-64" x="1195.117188"/>
       <use xlink:href="#ArialMT-20" x="1250.732422"/>
       <use xlink:href="#ArialMT-73" x="1278.515625"/>
       <use xlink:href="#ArialMT-75" x="1328.515625"/>
       <use xlink:href="#ArialMT-67" x="1384.130859"/>
       <use xlink:href="#ArialMT-61" x="1439.746094"/>
       <use xlink:href="#ArialMT-72" x="1495.361328"/>
       <use xlink:href="#ArialMT-20" x="1528.662109"/>
       <use xlink:href="#ArialMT-61" x="1556.445312"/>
       <use xlink:href="#ArialMT-6c" x="1612.060547"/>
       <use xlink:href="#ArialMT-63" x="1634.277344"/>
       <use xlink:href="#ArialMT-6f" x="1684.277344"/>
       <use xlink:href="#ArialMT-68" x="1739.892578"/>
       <use xlink:href="#ArialMT-6f" x="1795.507812"/>
       <use xlink:href="#ArialMT-6c" x="1851.123047"/>
       <use xlink:href="#ArialMT-20" x="1873.339844"/>
       <use xlink:href="#ArialMT-74" x="1901.123047"/>
       <use xlink:href="#ArialMT-72" x="1928.90625"/>
       <use xlink:href="#ArialMT-61" x="1962.207031"/>
       <use xlink:href="#ArialMT-6e" x="2017.822266"/>
       <use xlink:href="#ArialMT-73" x="2073.4375"/>
       <use xlink:href="#ArialMT-70" x="2123.4375"/>
       <use xlink:href="#ArialMT-6f" x="2179.052734"/>
       <use xlink:href="#ArialMT-72" x="2234.667969"/>
       <use xlink:href="#ArialMT-74" x="2267.96875"/>
       <use xlink:href="#ArialMT-65" x="2295.751953"/>
       <use xlink:href="#ArialMT-72" x="2351.367188"/>
       <use xlink:href="#ArialMT-73" x="2384.667969"/>
      </g>
     </g>
    </g>
    <g id="text_15">
     <!-- pref_name -->
     <g style="fill: #262626" transform="translate(-117.421406 120.418763) rotate(-90) scale(0.12 -0.12)">
      <defs>
       <path id="ArialMT-5f" d="M -97 -1272 
L -97 -866 
L 3631 -866 
L 3631 -1272 
L -97 -1272 
z
" transform="scale(0.015625)"/>
      </defs>
      <use xlink:href="#ArialMT-70"/>
      <use xlink:href="#ArialMT-72" x="55.615234"/>
      <use xlink:href="#ArialMT-65" x="88.916016"/>
      <use xlink:href="#ArialMT-66" x="144.53125"/>
      <use xlink:href="#ArialMT-5f" x="172.314453"/>
      <use xlink:href="#ArialMT-6e" x="227.929688"/>
      <use xlink:href="#ArialMT-61" x="283.544922"/>
      <use xlink:href="#ArialMT-6d" x="339.160156"/>
      <use xlink:href="#ArialMT-65" x="422.460938"/>
     </g>
    </g>
   </g>
   <g id="PathCollection_1">
    <path d="M 180.731598 11.992329 
C 181.856759 11.992329 182.935989 11.545297 183.731598 10.749688 
C 184.527207 9.954079 184.974239 8.874849 184.974239 7.749688 
C 184.974239 6.624527 184.527207 5.545297 183.731598 4.749688 
C 182.935989 3.954079 181.856759 3.507047 180.731598 3.507047 
C 179.606436 3.507047 178.527207 3.954079 177.731598 4.749688 
C 176.935989 5.545297 176.488957 6.624527 176.488957 7.749688 
C 176.488957 8.874849 176.935989 9.954079 177.731598 10.749688 
C 178.527207 11.545297 179.606436 11.992329 180.731598 11.992329 
z
" clip-path="url(#p946d09e04a)" style="fill: #a9373b; stroke: #ffffff; stroke-width: 0.339411"/>
    <path d="M 237.693418 29.41351 
C 238.489028 29.41351 239.252158 29.097411 239.814739 28.53483 
C 240.377319 27.97225 240.693418 27.209119 240.693418 26.41351 
C 240.693418 25.617901 240.377319 24.85477 239.814739 24.29219 
C 239.252158 23.729609 238.489028 23.41351 237.693418 23.41351 
C 236.897809 23.41351 236.134679 23.729609 235.572098 24.29219 
C 235.009517 24.85477 234.693418 25.617901 234.693418 26.41351 
C 234.693418 27.209119 235.009517 27.97225 235.572098 28.53483 
C 236.134679 29.097411 236.897809 29.41351 237.693418 29.41351 
z
" clip-path="url(#p946d09e04a)" style="fill: #bdc6d7; stroke: #ffffff; stroke-width: 0.339411"/>
    <path d="M 237.693418 48.077332 
C 238.489028 48.077332 239.252158 47.761233 239.814739 47.198653 
C 240.377319 46.636072 240.693418 45.872942 240.693418 45.077332 
C 240.693418 44.281723 240.377319 43.518593 239.814739 42.956012 
C 239.252158 42.393431 238.489028 42.077332 237.693418 42.077332 
C 236.897809 42.077332 236.134679 42.393431 235.572098 42.956012 
C 235.009517 43.518593 234.693418 44.281723 234.693418 45.077332 
C 234.693418 45.872942 235.009517 46.636072 235.572098 47.198653 
C 236.134679 47.761233 236.897809 48.077332 237.693418 48.077332 
z
" clip-path="url(#p946d09e04a)" style="fill: #bdc6d7; stroke: #ffffff; stroke-width: 0.339411"/>
    <path d="M 237.693418 66.741154 
C 238.489028 66.741154 239.252158 66.425055 239.814739 65.862475 
C 240.377319 65.299894 240.693418 64.536764 240.693418 63.741154 
C 240.693418 62.945545 240.377319 62.182415 239.814739 61.619834 
C 239.252158 61.057253 238.489028 60.741154 237.693418 60.741154 
C 236.897809 60.741154 236.134679 61.057253 235.572098 61.619834 
C 235.009517 62.182415 234.693418 62.945545 234.693418 63.741154 
C 234.693418 64.536764 235.009517 65.299894 235.572098 65.862475 
C 236.134679 66.425055 236.897809 66.741154 237.693418 66.741154 
z
" clip-path="url(#p946d09e04a)" style="fill: #bdc6d7; stroke: #ffffff; stroke-width: 0.339411"/>
    <path d="M 237.693418 85.404976 
C 238.489028 85.404976 239.252158 85.088878 239.814739 84.526297 
C 240.377319 83.963716 240.693418 83.200586 240.693418 82.404976 
C 240.693418 81.609367 240.377319 80.846237 239.814739 80.283656 
C 239.252158 79.721075 238.489028 79.404976 237.693418 79.404976 
C 236.897809 79.404976 236.134679 79.721075 235.572098 80.283656 
C 235.009517 80.846237 234.693418 81.609367 234.693418 82.404976 
C 234.693418 83.200586 235.009517 83.963716 235.572098 84.526297 
C 236.134679 85.088878 236.897809 85.404976 237.693418 85.404976 
z
" clip-path="url(#p946d09e04a)" style="fill: #bdc6d7; stroke: #ffffff; stroke-width: 0.339411"/>
    <path d="M 237.693418 104.068799 
C 238.489028 104.068799 239.252158 103.7527 239.814739 103.190119 
C 240.377319 102.627538 240.693418 101.864408 240.693418 101.068799 
C 240.693418 100.273189 240.377319 99.510059 239.814739 98.947478 
C 239.252158 98.384897 238.489028 98.068799 237.693418 98.068799 
C 236.897809 98.068799 236.134679 98.384897 235.572098 98.947478 
C 235.009517 99.510059 234.693418 100.273189 234.693418 101.068799 
C 234.693418 101.864408 235.009517 102.627538 235.572098 103.190119 
C 236.134679 103.7527 236.897809 104.068799 237.693418 104.068799 
z
" clip-path="url(#p946d09e04a)" style="fill: #bdc6d7; stroke: #ffffff; stroke-width: 0.339411"/>
    <path d="M 237.693418 121.853941 
C 238.255999 121.853941 238.795614 121.630425 239.193418 121.232621 
C 239.591223 120.834816 239.814739 120.295201 239.814739 119.732621 
C 239.814739 119.17004 239.591223 118.630425 239.193418 118.232621 
C 238.795614 117.834816 238.255999 117.6113 237.693418 117.6113 
C 237.130838 117.6113 236.591223 117.834816 236.193418 118.232621 
C 235.795614 118.630425 235.572098 119.17004 235.572098 119.732621 
C 235.572098 120.295201 235.795614 120.834816 236.193418 121.232621 
C 236.591223 121.630425 237.130838 121.853941 237.693418 121.853941 
z
" clip-path="url(#p946d09e04a)" style="fill: #2369bd; stroke: #ffffff; stroke-width: 0.339411"/>
    <path d="M 237.693418 140.517763 
C 238.255999 140.517763 238.795614 140.294247 239.193418 139.896443 
C 239.591223 139.498638 239.814739 138.959024 239.814739 138.396443 
C 239.814739 137.833862 239.591223 137.294247 239.193418 136.896443 
C 238.795614 136.498638 238.255999 136.275122 237.693418 136.275122 
C 237.130838 136.275122 236.591223 136.498638 236.193418 136.896443 
C 235.795614 137.294247 235.572098 137.833862 235.572098 138.396443 
C 235.572098 138.959024 235.795614 139.498638 236.193418 139.896443 
C 236.591223 140.294247 237.130838 140.517763 237.693418 140.517763 
z
" clip-path="url(#p946d09e04a)" style="fill: #2369bd; stroke: #ffffff; stroke-width: 0.339411"/>
    <path d="M 237.693418 159.181585 
C 238.255999 159.181585 238.795614 158.95807 239.193418 158.560265 
C 239.591223 158.16246 239.814739 157.622846 239.814739 157.060265 
C 239.814739 156.497684 239.591223 155.95807 239.193418 155.560265 
C 238.795614 155.16246 238.255999 154.938945 237.693418 154.938945 
C 237.130838 154.938945 236.591223 155.16246 236.193418 155.560265 
C 235.795614 155.95807 235.572098 156.497684 235.572098 157.060265 
C 235.572098 157.622846 235.795614 158.16246 236.193418 158.560265 
C 236.591223 158.95807 237.130838 159.181585 237.693418 159.181585 
z
" clip-path="url(#p946d09e04a)" style="fill: #2369bd; stroke: #ffffff; stroke-width: 0.339411"/>
    <path d="M 237.693418 9.871008 
C 238.255999 9.871008 238.795614 9.647493 239.193418 9.249688 
C 239.591223 8.851883 239.814739 8.312269 239.814739 7.749688 
C 239.814739 7.187107 239.591223 6.647493 239.193418 6.249688 
C 238.795614 5.851883 238.255999 5.628368 237.693418 5.628368 
C 237.130838 5.628368 236.591223 5.851883 236.193418 6.249688 
C 235.795614 6.647493 235.572098 7.187107 235.572098 7.749688 
C 235.572098 8.312269 235.795614 8.851883 236.193418 9.249688 
C 236.591223 9.647493 237.130838 9.871008 237.693418 9.871008 
z
" clip-path="url(#p946d09e04a)" style="fill: #2369bd; stroke: #ffffff; stroke-width: 0.339411"/>
    <path d="M 237.693418 177.845407 
C 238.255999 177.845407 238.795614 177.621892 239.193418 177.224087 
C 239.591223 176.826282 239.814739 176.286668 239.814739 175.724087 
C 239.814739 175.161506 239.591223 174.621892 239.193418 174.224087 
C 238.795614 173.826282 238.255999 173.602767 237.693418 173.602767 
C 237.130838 173.602767 236.591223 173.826282 236.193418 174.224087 
C 235.795614 174.621892 235.572098 175.161506 235.572098 175.724087 
C 235.572098 176.286668 235.795614 176.826282 236.193418 177.224087 
C 236.591223 177.621892 237.130838 177.845407 237.693418 177.845407 
z
" clip-path="url(#p946d09e04a)" style="fill: #2369bd; stroke: #ffffff; stroke-width: 0.339411"/>
    <path d="M 294.655239 84.526297 
C 295.21782 84.526297 295.757434 84.302781 296.155239 83.904976 
C 296.553043 83.507172 296.776559 82.967557 296.776559 82.404976 
C 296.776559 81.842396 296.553043 81.302781 296.155239 80.904976 
C 295.757434 80.507172 295.21782 80.283656 294.655239 80.283656 
C 294.092658 80.283656 293.553043 80.507172 293.155239 80.904976 
C 292.757434 81.302781 292.533918 81.842396 292.533918 82.404976 
C 292.533918 82.967557 292.757434 83.507172 293.155239 83.904976 
C 293.553043 84.302781 294.092658 84.526297 294.655239 84.526297 
z
" clip-path="url(#p946d09e04a)" style="fill: #2369bd; stroke: #ffffff; stroke-width: 0.339411"/>
   </g>
   <g id="PathCollection_2"/>
   <g id="PathCollection_3"/>
   <g id="PathCollection_4"/>
   <g id="text_16">
    <!-- Polyketides, Linear polyketides -->
    <g style="fill: #262626" transform="translate(155.318106 -1.6098) scale(0.12 -0.12)">
     <defs>
      <path id="ArialMT-2c" d="M 569 0 
L 569 641 
L 1209 641 
L 1209 0 
Q 1209 -353 1084 -570 
Q 959 -788 688 -906 
L 531 -666 
Q 709 -588 793 -436 
Q 878 -284 888 0 
L 569 0 
z
" transform="scale(0.015625)"/>
     </defs>
     <use xlink:href="#ArialMT-50"/>
     <use xlink:href="#ArialMT-6f" x="66.699219"/>
     <use xlink:href="#ArialMT-6c" x="122.314453"/>
     <use xlink:href="#ArialMT-79" x="144.53125"/>
     <use xlink:href="#ArialMT-6b" x="194.53125"/>
     <use xlink:href="#ArialMT-65" x="244.53125"/>
     <use xlink:href="#ArialMT-74" x="300.146484"/>
     <use xlink:href="#ArialMT-69" x="327.929688"/>
     <use xlink:href="#ArialMT-64" x="350.146484"/>
     <use xlink:href="#ArialMT-65" x="405.761719"/>
     <use xlink:href="#ArialMT-73" x="461.376953"/>
     <use xlink:href="#ArialMT-2c" x="511.376953"/>
     <use xlink:href="#ArialMT-20" x="539.160156"/>
     <use xlink:href="#ArialMT-4c" x="566.943359"/>
     <use xlink:href="#ArialMT-69" x="622.558594"/>
     <use xlink:href="#ArialMT-6e" x="644.775391"/>
     <use xlink:href="#ArialMT-65" x="700.390625"/>
     <use xlink:href="#ArialMT-61" x="756.005859"/>
     <use xlink:href="#ArialMT-72" x="811.621094"/>
     <use xlink:href="#ArialMT-20" x="844.921875"/>
     <use xlink:href="#ArialMT-70" x="872.705078"/>
     <use xlink:href="#ArialMT-6f" x="928.320312"/>
     <use xlink:href="#ArialMT-6c" x="983.935547"/>
     <use xlink:href="#ArialMT-79" x="1006.152344"/>
     <use xlink:href="#ArialMT-6b" x="1056.152344"/>
     <use xlink:href="#ArialMT-65" x="1106.152344"/>
     <use xlink:href="#ArialMT-74" x="1161.767578"/>
     <use xlink:href="#ArialMT-69" x="1189.550781"/>
     <use xlink:href="#ArialMT-64" x="1211.767578"/>
     <use xlink:href="#ArialMT-65" x="1267.382812"/>
     <use xlink:href="#ArialMT-73" x="1322.998047"/>
    </g>
   </g>
  </g>
  <g id="legend_1">
   <g id="text_17">
    <!-- count -->
    <g style="fill: #262626" transform="translate(280.964922 77.322422) scale(0.12 -0.12)">
     <use xlink:href="#ArialMT-63"/>
     <use xlink:href="#ArialMT-6f" x="50"/>
     <use xlink:href="#ArialMT-75" x="105.615234"/>
     <use xlink:href="#ArialMT-6e" x="161.230469"/>
     <use xlink:href="#ArialMT-74" x="216.845703"/>
    </g>
   </g>
   <g id="PathCollection_5">
    <defs>
     <path id="mf2efc047ad" d="M 0 2.12132 
C 0.562581 2.12132 1.102195 1.897805 1.5 1.5 
C 1.897805 1.102195 2.12132 0.562581 2.12132 0 
C 2.12132 -0.562581 1.897805 -1.102195 1.5 -1.5 
C 1.102195 -1.897805 0.562581 -2.12132 0 -2.12132 
C -0.562581 -2.12132 -1.102195 -1.897805 -1.5 -1.5 
C -1.897805 -1.102195 -2.12132 -0.562581 -2.12132 0 
C -2.12132 0.562581 -1.897805 1.102195 -1.5 1.5 
C -1.102195 1.897805 -0.562581 2.12132 0 2.12132 
z
" style="stroke: #2369bd"/>
    </defs>
    <g>
     <use xlink:href="#mf2efc047ad" x="288.182969" y="90.193516" style="fill: #2369bd; stroke: #2369bd"/>
    </g>
   </g>
   <g id="text_18">
    <!-- 1 -->
    <g style="fill: #262626" transform="translate(307.982969 93.081016) scale(0.11 -0.11)">
     <use xlink:href="#ArialMT-31"/>
    </g>
   </g>
   <g id="PathCollection_6">
    <defs>
     <path id="m9fa7900d80" d="M 0 3 
C 0.795609 3 1.55874 2.683901 2.12132 2.12132 
C 2.683901 1.55874 3 0.795609 3 0 
C 3 -0.795609 2.683901 -1.55874 2.12132 -2.12132 
C 1.55874 -2.683901 0.795609 -3 0 -3 
C -0.795609 -3 -1.55874 -2.683901 -2.12132 -2.12132 
C -2.683901 -1.55874 -3 -0.795609 -3 0 
C -3 0.795609 -2.683901 1.55874 -2.12132 2.12132 
C -1.55874 2.683901 -0.795609 3 0 3 
z
" style="stroke: #bdc6d7"/>
    </defs>
    <g>
     <use xlink:href="#m9fa7900d80" x="288.182969" y="105.753359" style="fill: #bdc6d7; stroke: #bdc6d7"/>
    </g>
   </g>
   <g id="text_19">
    <!-- 2 -->
    <g style="fill: #262626" transform="translate(307.982969 108.640859) scale(0.11 -0.11)">
     <use xlink:href="#ArialMT-32"/>
    </g>
   </g>
   <g id="PathCollection_7">
    <defs>
     <path id="ma7378c89db" d="M 0 4.242641 
C 1.125161 4.242641 2.204391 3.795609 3 3 
C 3.795609 2.204391 4.242641 1.125161 4.242641 0 
C 4.242641 -1.125161 3.795609 -2.204391 3 -3 
C 2.204391 -3.795609 1.125161 -4.242641 0 -4.242641 
C -1.125161 -4.242641 -2.204391 -3.795609 -3 -3 
C -3.795609 -2.204391 -4.242641 -1.125161 -4.242641 0 
C -4.242641 1.125161 -3.795609 2.204391 -3 3 
C -2.204391 3.795609 -1.125161 4.242641 0 4.242641 
z
" style="stroke: #a9373b"/>
    </defs>
    <g>
     <use xlink:href="#ma7378c89db" x="288.182969" y="121.313203" style="fill: #a9373b; stroke: #a9373b"/>
    </g>
   </g>
   <g id="text_20">
    <!-- 4 -->
    <g style="fill: #262626" transform="translate(307.982969 124.200703) scale(0.11 -0.11)">
     <defs>
      <path id="ArialMT-34" d="M 2069 0 
L 2069 1097 
L 81 1097 
L 81 1613 
L 2172 4581 
L 2631 4581 
L 2631 1613 
L 3250 1613 
L 3250 1097 
L 2631 1097 
L 2631 0 
L 2069 0 
z
M 2069 1613 
L 2069 3678 
L 634 1613 
L 2069 1613 
z
" transform="scale(0.015625)"/>
     </defs>
     <use xlink:href="#ArialMT-34"/>
    </g>
   </g>
  </g>
 </g>
 <defs>
  <clipPath id="p946d09e04a">
   <rect x="178.453125" y="4.3902" width="118.480587" height="174.693375"/>
  </clipPath>
 </defs>
</svg>
