<?xml version="1.0" encoding="utf-8" standalone="no"?>
<!DOCTYPE svg PUBLIC "-//W3C//DTD SVG 1.1//EN"
  "http://www.w3.org/Graphics/SVG/1.1/DTD/svg11.dtd">
<svg xmlns:xlink="http://www.w3.org/1999/xlink" width="460.8pt" height="345.6pt" viewBox="0 0 460.8 345.6" xmlns="http://www.w3.org/2000/svg" version="1.1">
 <metadata>
  <rdf:RDF xmlns:dc="http://purl.org/dc/elements/1.1/" xmlns:cc="http://creativecommons.org/ns#" xmlns:rdf="http://www.w3.org/1999/02/22-rdf-syntax-ns#">
   <cc:Work>
    <dc:type rdf:resource="http://purl.org/dc/dcmitype/StillImage"/>
    <dc:date>2023-06-15T10:33:29.884251</dc:date>
    <dc:format>image/svg+xml</dc:format>
    <dc:creator>
     <cc:Agent>
      <dc:title>Matplotlib v3.7.1, https://matplotlib.org/</dc:title>
     </cc:Agent>
    </dc:creator>
   </cc:Work>
  </rdf:RDF>
 </metadata>
 <defs>
  <style type="text/css">*{stroke-linejoin: round; stroke-linecap: butt}</style>
 </defs>
 <g id="figure_1">
  <g id="patch_1">
   <path d="M 0 345.6 
L 460.8 345.6 
L 460.8 0 
L 0 0 
L 0 345.6 
z
" style="fill: none"/>
  </g>
  <g id="axes_1">
   <g id="patch_2">
    <path d="M 57.6 307.584 
L 414.72 307.584 
L 414.72 41.472 
L 57.6 41.472 
L 57.6 307.584 
z
" style="fill: none"/>
   </g>
   <g id="matplotlib.axis_1">
    <g id="xtick_1">
     <g id="line2d_1">
      <defs>
       <path id="m76f95c4fa1" d="M 0 0 
L 0 6 
" style="stroke: #262626; stroke-width: 1.25"/>
      </defs>
      <g>
       <use xlink:href="#m76f95c4fa1" x="57.6" y="307.584" style="fill: #262626; stroke: #262626; stroke-width: 1.25"/>
      </g>
     </g>
     <g id="text_1">
      <!-- 0 -->
      <g style="fill: #262626" transform="translate(53.929781 326.532312) scale(0.132 -0.132)">
       <defs>
        <path id="ArialMT-30" d="M 266 2259 
Q 266 3072 433 3567 
Q 600 4063 929 4331 
Q 1259 4600 1759 4600 
Q 2128 4600 2406 4451 
Q 2684 4303 2865 4023 
Q 3047 3744 3150 3342 
Q 3253 2941 3253 2259 
Q 3253 1453 3087 958 
Q 2922 463 2592 192 
Q 2263 -78 1759 -78 
Q 1097 -78 719 397 
Q 266 969 266 2259 
z
M 844 2259 
Q 844 1131 1108 757 
Q 1372 384 1759 384 
Q 2147 384 2411 759 
Q 2675 1134 2675 2259 
Q 2675 3391 2411 3762 
Q 2147 4134 1753 4134 
Q 1366 4134 1134 3806 
Q 844 3388 844 2259 
z
" transform="scale(0.015625)"/>
       </defs>
       <use xlink:href="#ArialMT-30"/>
      </g>
     </g>
    </g>
    <g id="xtick_2">
     <g id="line2d_2">
      <g>
       <use xlink:href="#m76f95c4fa1" x="129.024" y="307.584" style="fill: #262626; stroke: #262626; stroke-width: 1.25"/>
      </g>
     </g>
     <g id="text_2">
      <!-- 5 -->
      <g style="fill: #262626" transform="translate(125.353781 326.532312) scale(0.132 -0.132)">
       <defs>
        <path id="ArialMT-35" d="M 266 1200 
L 856 1250 
Q 922 819 1161 601 
Q 1400 384 1738 384 
Q 2144 384 2425 690 
Q 2706 997 2706 1503 
Q 2706 1984 2436 2262 
Q 2166 2541 1728 2541 
Q 1456 2541 1237 2417 
Q 1019 2294 894 2097 
L 366 2166 
L 809 4519 
L 3088 4519 
L 3088 3981 
L 1259 3981 
L 1013 2750 
Q 1425 3038 1878 3038 
Q 2478 3038 2890 2622 
Q 3303 2206 3303 1553 
Q 3303 931 2941 478 
Q 2500 -78 1738 -78 
Q 1113 -78 717 272 
Q 322 622 266 1200 
z
" transform="scale(0.015625)"/>
       </defs>
       <use xlink:href="#ArialMT-35"/>
      </g>
     </g>
    </g>
    <g id="xtick_3">
     <g id="line2d_3">
      <g>
       <use xlink:href="#m76f95c4fa1" x="200.448" y="307.584" style="fill: #262626; stroke: #262626; stroke-width: 1.25"/>
      </g>
     </g>
     <g id="text_3">
      <!-- 10 -->
      <g style="fill: #262626" transform="translate(193.107563 326.532312) scale(0.132 -0.132)">
       <defs>
        <path id="ArialMT-31" d="M 2384 0 
L 1822 0 
L 1822 3584 
Q 1619 3391 1289 3197 
Q 959 3003 697 2906 
L 697 3450 
Q 1169 3672 1522 3987 
Q 1875 4303 2022 4600 
L 2384 4600 
L 2384 0 
z
" transform="scale(0.015625)"/>
       </defs>
       <use xlink:href="#ArialMT-31"/>
       <use xlink:href="#ArialMT-30" x="55.615234"/>
      </g>
     </g>
    </g>
    <g id="xtick_4">
     <g id="line2d_4">
      <g>
       <use xlink:href="#m76f95c4fa1" x="271.872" y="307.584" style="fill: #262626; stroke: #262626; stroke-width: 1.25"/>
      </g>
     </g>
     <g id="text_4">
      <!-- 15 -->
      <g style="fill: #262626" transform="translate(264.531563 326.532312) scale(0.132 -0.132)">
       <use xlink:href="#ArialMT-31"/>
       <use xlink:href="#ArialMT-35" x="55.615234"/>
      </g>
     </g>
    </g>
    <g id="xtick_5">
     <g id="line2d_5">
      <g>
       <use xlink:href="#m76f95c4fa1" x="343.296" y="307.584" style="fill: #262626; stroke: #262626; stroke-width: 1.25"/>
      </g>
     </g>
     <g id="text_5">
      <!-- 20 -->
      <g style="fill: #262626" transform="translate(335.955563 326.532312) scale(0.132 -0.132)">
       <defs>
        <path id="ArialMT-32" d="M 3222 541 
L 3222 0 
L 194 0 
Q 188 203 259 391 
Q 375 700 629 1000 
Q 884 1300 1366 1694 
Q 2113 2306 2375 2664 
Q 2638 3022 2638 3341 
Q 2638 3675 2398 3904 
Q 2159 4134 1775 4134 
Q 1369 4134 1125 3890 
Q 881 3647 878 3216 
L 300 3275 
Q 359 3922 746 4261 
Q 1134 4600 1788 4600 
Q 2447 4600 2831 4234 
Q 3216 3869 3216 3328 
Q 3216 3053 3103 2787 
Q 2991 2522 2730 2228 
Q 2469 1934 1863 1422 
Q 1356 997 1212 845 
Q 1069 694 975 541 
L 3222 541 
z
" transform="scale(0.015625)"/>
       </defs>
       <use xlink:href="#ArialMT-32"/>
       <use xlink:href="#ArialMT-30" x="55.615234"/>
      </g>
     </g>
    </g>
    <g id="xtick_6">
     <g id="line2d_6">
      <g>
       <use xlink:href="#m76f95c4fa1" x="414.72" y="307.584" style="fill: #262626; stroke: #262626; stroke-width: 1.25"/>
      </g>
     </g>
     <g id="text_6">
      <!-- 25 -->
      <g style="fill: #262626" transform="translate(407.379563 326.532312) scale(0.132 -0.132)">
       <use xlink:href="#ArialMT-32"/>
       <use xlink:href="#ArialMT-35" x="55.615234"/>
      </g>
     </g>
    </g>
    <g id="text_7">
     <!-- Hit rate (%) -->
     <g style="fill: #262626" transform="translate(199.75725 343.638562) scale(0.144 -0.144)">
      <defs>
       <path id="ArialMT-48" d="M 513 0 
L 513 4581 
L 1119 4581 
L 1119 2700 
L 3500 2700 
L 3500 4581 
L 4106 4581 
L 4106 0 
L 3500 0 
L 3500 2159 
L 1119 2159 
L 1119 0 
L 513 0 
z
" transform="scale(0.015625)"/>
       <path id="ArialMT-69" d="M 425 3934 
L 425 4581 
L 988 4581 
L 988 3934 
L 425 3934 
z
M 425 0 
L 425 3319 
L 988 3319 
L 988 0 
L 425 0 
z
" transform="scale(0.015625)"/>
       <path id="ArialMT-74" d="M 1650 503 
L 1731 6 
Q 1494 -44 1306 -44 
Q 1000 -44 831 53 
Q 663 150 594 308 
Q 525 466 525 972 
L 525 2881 
L 113 2881 
L 113 3319 
L 525 3319 
L 525 4141 
L 1084 4478 
L 1084 3319 
L 1650 3319 
L 1650 2881 
L 1084 2881 
L 1084 941 
Q 1084 700 1114 631 
Q 1144 563 1211 522 
Q 1278 481 1403 481 
Q 1497 481 1650 503 
z
" transform="scale(0.015625)"/>
       <path id="ArialMT-20" transform="scale(0.015625)"/>
       <path id="ArialMT-72" d="M 416 0 
L 416 3319 
L 922 3319 
L 922 2816 
Q 1116 3169 1280 3281 
Q 1444 3394 1641 3394 
Q 1925 3394 2219 3213 
L 2025 2691 
Q 1819 2813 1613 2813 
Q 1428 2813 1281 2702 
Q 1134 2591 1072 2394 
Q 978 2094 978 1738 
L 978 0 
L 416 0 
z
" transform="scale(0.015625)"/>
       <path id="ArialMT-61" d="M 2588 409 
Q 2275 144 1986 34 
Q 1697 -75 1366 -75 
Q 819 -75 525 192 
Q 231 459 231 875 
Q 231 1119 342 1320 
Q 453 1522 633 1644 
Q 813 1766 1038 1828 
Q 1203 1872 1538 1913 
Q 2219 1994 2541 2106 
Q 2544 2222 2544 2253 
Q 2544 2597 2384 2738 
Q 2169 2928 1744 2928 
Q 1347 2928 1158 2789 
Q 969 2650 878 2297 
L 328 2372 
Q 403 2725 575 2942 
Q 747 3159 1072 3276 
Q 1397 3394 1825 3394 
Q 2250 3394 2515 3294 
Q 2781 3194 2906 3042 
Q 3031 2891 3081 2659 
Q 3109 2516 3109 2141 
L 3109 1391 
Q 3109 606 3145 398 
Q 3181 191 3288 0 
L 2700 0 
Q 2613 175 2588 409 
z
M 2541 1666 
Q 2234 1541 1622 1453 
Q 1275 1403 1131 1340 
Q 988 1278 909 1158 
Q 831 1038 831 891 
Q 831 666 1001 516 
Q 1172 366 1500 366 
Q 1825 366 2078 508 
Q 2331 650 2450 897 
Q 2541 1088 2541 1459 
L 2541 1666 
z
" transform="scale(0.015625)"/>
       <path id="ArialMT-65" d="M 2694 1069 
L 3275 997 
Q 3138 488 2766 206 
Q 2394 -75 1816 -75 
Q 1088 -75 661 373 
Q 234 822 234 1631 
Q 234 2469 665 2931 
Q 1097 3394 1784 3394 
Q 2450 3394 2872 2941 
Q 3294 2488 3294 1666 
Q 3294 1616 3291 1516 
L 816 1516 
Q 847 969 1125 678 
Q 1403 388 1819 388 
Q 2128 388 2347 550 
Q 2566 713 2694 1069 
z
M 847 1978 
L 2700 1978 
Q 2663 2397 2488 2606 
Q 2219 2931 1791 2931 
Q 1403 2931 1139 2672 
Q 875 2413 847 1978 
z
" transform="scale(0.015625)"/>
       <path id="ArialMT-28" d="M 1497 -1347 
Q 1031 -759 709 28 
Q 388 816 388 1659 
Q 388 2403 628 3084 
Q 909 3875 1497 4659 
L 1900 4659 
Q 1522 4009 1400 3731 
Q 1209 3300 1100 2831 
Q 966 2247 966 1656 
Q 966 153 1900 -1347 
L 1497 -1347 
z
" transform="scale(0.015625)"/>
       <path id="ArialMT-25" d="M 372 3481 
Q 372 3972 619 4315 
Q 866 4659 1334 4659 
Q 1766 4659 2048 4351 
Q 2331 4044 2331 3447 
Q 2331 2866 2045 2552 
Q 1759 2238 1341 2238 
Q 925 2238 648 2547 
Q 372 2856 372 3481 
z
M 1350 4272 
Q 1141 4272 1002 4090 
Q 863 3909 863 3425 
Q 863 2984 1003 2804 
Q 1144 2625 1350 2625 
Q 1563 2625 1702 2806 
Q 1841 2988 1841 3469 
Q 1841 3913 1700 4092 
Q 1559 4272 1350 4272 
z
M 1353 -169 
L 3859 4659 
L 4316 4659 
L 1819 -169 
L 1353 -169 
z
M 3334 1075 
Q 3334 1569 3581 1911 
Q 3828 2253 4300 2253 
Q 4731 2253 5014 1945 
Q 5297 1638 5297 1041 
Q 5297 459 5011 145 
Q 4725 -169 4303 -169 
Q 3888 -169 3611 142 
Q 3334 453 3334 1075 
z
M 4316 1866 
Q 4103 1866 3964 1684 
Q 3825 1503 3825 1019 
Q 3825 581 3965 400 
Q 4106 219 4313 219 
Q 4528 219 4667 400 
Q 4806 581 4806 1063 
Q 4806 1506 4665 1686 
Q 4525 1866 4316 1866 
z
" transform="scale(0.015625)"/>
       <path id="ArialMT-29" d="M 791 -1347 
L 388 -1347 
Q 1322 153 1322 1656 
Q 1322 2244 1188 2822 
Q 1081 3291 891 3722 
Q 769 4003 388 4659 
L 791 4659 
Q 1378 3875 1659 3084 
Q 1900 2403 1900 1659 
Q 1900 816 1576 28 
Q 1253 -759 791 -1347 
z
" transform="scale(0.015625)"/>
      </defs>
      <use xlink:href="#ArialMT-48"/>
      <use xlink:href="#ArialMT-69" x="72.216797"/>
      <use xlink:href="#ArialMT-74" x="94.433594"/>
      <use xlink:href="#ArialMT-20" x="122.216797"/>
      <use xlink:href="#ArialMT-72" x="150"/>
      <use xlink:href="#ArialMT-61" x="183.300781"/>
      <use xlink:href="#ArialMT-74" x="238.916016"/>
      <use xlink:href="#ArialMT-65" x="266.699219"/>
      <use xlink:href="#ArialMT-20" x="322.314453"/>
      <use xlink:href="#ArialMT-28" x="350.097656"/>
      <use xlink:href="#ArialMT-25" x="383.398438"/>
      <use xlink:href="#ArialMT-29" x="472.314453"/>
     </g>
    </g>
   </g>
   <g id="matplotlib.axis_2">
    <g id="ytick_1">
     <g id="line2d_7">
      <defs>
       <path id="m87efebcfde" d="M 0 0 
L -6 0 
" style="stroke: #262626; stroke-width: 1.25"/>
      </defs>
      <g>
       <use xlink:href="#m87efebcfde" x="57.6" y="50.3424" style="fill: #262626; stroke: #262626; stroke-width: 1.25"/>
      </g>
     </g>
     <g id="text_8">
      <!-- Alkaloids, Guanidine alkaloids -->
      <g style="fill: #262626" transform="translate(-127.262 55.066556) scale(0.132 -0.132)">
       <defs>
        <path id="ArialMT-41" d="M -9 0 
L 1750 4581 
L 2403 4581 
L 4278 0 
L 3588 0 
L 3053 1388 
L 1138 1388 
L 634 0 
L -9 0 
z
M 1313 1881 
L 2866 1881 
L 2388 3150 
Q 2169 3728 2063 4100 
Q 1975 3659 1816 3225 
L 1313 1881 
z
" transform="scale(0.015625)"/>
        <path id="ArialMT-6c" d="M 409 0 
L 409 4581 
L 972 4581 
L 972 0 
L 409 0 
z
" transform="scale(0.015625)"/>
        <path id="ArialMT-6b" d="M 425 0 
L 425 4581 
L 988 4581 
L 988 1969 
L 2319 3319 
L 3047 3319 
L 1778 2088 
L 3175 0 
L 2481 0 
L 1384 1697 
L 988 1316 
L 988 0 
L 425 0 
z
" transform="scale(0.015625)"/>
        <path id="ArialMT-6f" d="M 213 1659 
Q 213 2581 725 3025 
Q 1153 3394 1769 3394 
Q 2453 3394 2887 2945 
Q 3322 2497 3322 1706 
Q 3322 1066 3130 698 
Q 2938 331 2570 128 
Q 2203 -75 1769 -75 
Q 1072 -75 642 372 
Q 213 819 213 1659 
z
M 791 1659 
Q 791 1022 1069 705 
Q 1347 388 1769 388 
Q 2188 388 2466 706 
Q 2744 1025 2744 1678 
Q 2744 2294 2464 2611 
Q 2184 2928 1769 2928 
Q 1347 2928 1069 2612 
Q 791 2297 791 1659 
z
" transform="scale(0.015625)"/>
        <path id="ArialMT-64" d="M 2575 0 
L 2575 419 
Q 2259 -75 1647 -75 
Q 1250 -75 917 144 
Q 584 363 401 755 
Q 219 1147 219 1656 
Q 219 2153 384 2558 
Q 550 2963 881 3178 
Q 1213 3394 1622 3394 
Q 1922 3394 2156 3267 
Q 2391 3141 2538 2938 
L 2538 4581 
L 3097 4581 
L 3097 0 
L 2575 0 
z
M 797 1656 
Q 797 1019 1065 703 
Q 1334 388 1700 388 
Q 2069 388 2326 689 
Q 2584 991 2584 1609 
Q 2584 2291 2321 2609 
Q 2059 2928 1675 2928 
Q 1300 2928 1048 2622 
Q 797 2316 797 1656 
z
" transform="scale(0.015625)"/>
        <path id="ArialMT-73" d="M 197 991 
L 753 1078 
Q 800 744 1014 566 
Q 1228 388 1613 388 
Q 2000 388 2187 545 
Q 2375 703 2375 916 
Q 2375 1106 2209 1216 
Q 2094 1291 1634 1406 
Q 1016 1563 777 1677 
Q 538 1791 414 1992 
Q 291 2194 291 2438 
Q 291 2659 392 2848 
Q 494 3038 669 3163 
Q 800 3259 1026 3326 
Q 1253 3394 1513 3394 
Q 1903 3394 2198 3281 
Q 2494 3169 2634 2976 
Q 2775 2784 2828 2463 
L 2278 2388 
Q 2241 2644 2061 2787 
Q 1881 2931 1553 2931 
Q 1166 2931 1000 2803 
Q 834 2675 834 2503 
Q 834 2394 903 2306 
Q 972 2216 1119 2156 
Q 1203 2125 1616 2013 
Q 2213 1853 2448 1751 
Q 2684 1650 2818 1456 
Q 2953 1263 2953 975 
Q 2953 694 2789 445 
Q 2625 197 2315 61 
Q 2006 -75 1616 -75 
Q 969 -75 630 194 
Q 291 463 197 991 
z
" transform="scale(0.015625)"/>
        <path id="ArialMT-2c" d="M 569 0 
L 569 641 
L 1209 641 
L 1209 0 
Q 1209 -353 1084 -570 
Q 959 -788 688 -906 
L 531 -666 
Q 709 -588 793 -436 
Q 878 -284 888 0 
L 569 0 
z
" transform="scale(0.015625)"/>
        <path id="ArialMT-47" d="M 2638 1797 
L 2638 2334 
L 4578 2338 
L 4578 638 
Q 4131 281 3656 101 
Q 3181 -78 2681 -78 
Q 2006 -78 1454 211 
Q 903 500 622 1047 
Q 341 1594 341 2269 
Q 341 2938 620 3517 
Q 900 4097 1425 4378 
Q 1950 4659 2634 4659 
Q 3131 4659 3532 4498 
Q 3934 4338 4162 4050 
Q 4391 3763 4509 3300 
L 3963 3150 
Q 3859 3500 3706 3700 
Q 3553 3900 3268 4020 
Q 2984 4141 2638 4141 
Q 2222 4141 1919 4014 
Q 1616 3888 1430 3681 
Q 1244 3475 1141 3228 
Q 966 2803 966 2306 
Q 966 1694 1177 1281 
Q 1388 869 1791 669 
Q 2194 469 2647 469 
Q 3041 469 3416 620 
Q 3791 772 3984 944 
L 3984 1797 
L 2638 1797 
z
" transform="scale(0.015625)"/>
        <path id="ArialMT-75" d="M 2597 0 
L 2597 488 
Q 2209 -75 1544 -75 
Q 1250 -75 995 37 
Q 741 150 617 320 
Q 494 491 444 738 
Q 409 903 409 1263 
L 409 3319 
L 972 3319 
L 972 1478 
Q 972 1038 1006 884 
Q 1059 663 1231 536 
Q 1403 409 1656 409 
Q 1909 409 2131 539 
Q 2353 669 2445 892 
Q 2538 1116 2538 1541 
L 2538 3319 
L 3100 3319 
L 3100 0 
L 2597 0 
z
" transform="scale(0.015625)"/>
        <path id="ArialMT-6e" d="M 422 0 
L 422 3319 
L 928 3319 
L 928 2847 
Q 1294 3394 1984 3394 
Q 2284 3394 2536 3286 
Q 2788 3178 2913 3003 
Q 3038 2828 3088 2588 
Q 3119 2431 3119 2041 
L 3119 0 
L 2556 0 
L 2556 2019 
Q 2556 2363 2490 2533 
Q 2425 2703 2258 2804 
Q 2091 2906 1866 2906 
Q 1506 2906 1245 2678 
Q 984 2450 984 1813 
L 984 0 
L 422 0 
z
" transform="scale(0.015625)"/>
       </defs>
       <use xlink:href="#ArialMT-41"/>
       <use xlink:href="#ArialMT-6c" x="66.699219"/>
       <use xlink:href="#ArialMT-6b" x="88.916016"/>
       <use xlink:href="#ArialMT-61" x="138.916016"/>
       <use xlink:href="#ArialMT-6c" x="194.53125"/>
       <use xlink:href="#ArialMT-6f" x="216.748047"/>
       <use xlink:href="#ArialMT-69" x="272.363281"/>
       <use xlink:href="#ArialMT-64" x="294.580078"/>
       <use xlink:href="#ArialMT-73" x="350.195312"/>
       <use xlink:href="#ArialMT-2c" x="400.195312"/>
       <use xlink:href="#ArialMT-20" x="427.978516"/>
       <use xlink:href="#ArialMT-47" x="455.761719"/>
       <use xlink:href="#ArialMT-75" x="533.544922"/>
       <use xlink:href="#ArialMT-61" x="589.160156"/>
       <use xlink:href="#ArialMT-6e" x="644.775391"/>
       <use xlink:href="#ArialMT-69" x="700.390625"/>
       <use xlink:href="#ArialMT-64" x="722.607422"/>
       <use xlink:href="#ArialMT-69" x="778.222656"/>
       <use xlink:href="#ArialMT-6e" x="800.439453"/>
       <use xlink:href="#ArialMT-65" x="856.054688"/>
       <use xlink:href="#ArialMT-20" x="911.669922"/>
       <use xlink:href="#ArialMT-61" x="939.453125"/>
       <use xlink:href="#ArialMT-6c" x="995.068359"/>
       <use xlink:href="#ArialMT-6b" x="1017.285156"/>
       <use xlink:href="#ArialMT-61" x="1067.285156"/>
       <use xlink:href="#ArialMT-6c" x="1122.900391"/>
       <use xlink:href="#ArialMT-6f" x="1145.117188"/>
       <use xlink:href="#ArialMT-69" x="1200.732422"/>
       <use xlink:href="#ArialMT-64" x="1222.949219"/>
       <use xlink:href="#ArialMT-73" x="1278.564453"/>
      </g>
     </g>
    </g>
    <g id="ytick_2">
     <g id="line2d_8">
      <g>
       <use xlink:href="#m87efebcfde" x="57.6" y="68.0832" style="fill: #262626; stroke: #262626; stroke-width: 1.25"/>
      </g>
     </g>
     <g id="text_9">
      <!-- Polyketides, Linear polyketides -->
      <g style="fill: #262626" transform="translate(-133.125688 72.807356) scale(0.132 -0.132)">
       <defs>
        <path id="ArialMT-50" d="M 494 0 
L 494 4581 
L 2222 4581 
Q 2678 4581 2919 4538 
Q 3256 4481 3484 4323 
Q 3713 4166 3852 3881 
Q 3991 3597 3991 3256 
Q 3991 2672 3619 2267 
Q 3247 1863 2275 1863 
L 1100 1863 
L 1100 0 
L 494 0 
z
M 1100 2403 
L 2284 2403 
Q 2872 2403 3119 2622 
Q 3366 2841 3366 3238 
Q 3366 3525 3220 3729 
Q 3075 3934 2838 4000 
Q 2684 4041 2272 4041 
L 1100 4041 
L 1100 2403 
z
" transform="scale(0.015625)"/>
        <path id="ArialMT-79" d="M 397 -1278 
L 334 -750 
Q 519 -800 656 -800 
Q 844 -800 956 -737 
Q 1069 -675 1141 -563 
Q 1194 -478 1313 -144 
Q 1328 -97 1363 -6 
L 103 3319 
L 709 3319 
L 1400 1397 
Q 1534 1031 1641 628 
Q 1738 1016 1872 1384 
L 2581 3319 
L 3144 3319 
L 1881 -56 
Q 1678 -603 1566 -809 
Q 1416 -1088 1222 -1217 
Q 1028 -1347 759 -1347 
Q 597 -1347 397 -1278 
z
" transform="scale(0.015625)"/>
        <path id="ArialMT-4c" d="M 469 0 
L 469 4581 
L 1075 4581 
L 1075 541 
L 3331 541 
L 3331 0 
L 469 0 
z
" transform="scale(0.015625)"/>
        <path id="ArialMT-70" d="M 422 -1272 
L 422 3319 
L 934 3319 
L 934 2888 
Q 1116 3141 1344 3267 
Q 1572 3394 1897 3394 
Q 2322 3394 2647 3175 
Q 2972 2956 3137 2557 
Q 3303 2159 3303 1684 
Q 3303 1175 3120 767 
Q 2938 359 2589 142 
Q 2241 -75 1856 -75 
Q 1575 -75 1351 44 
Q 1128 163 984 344 
L 984 -1272 
L 422 -1272 
z
M 931 1641 
Q 931 1000 1190 694 
Q 1450 388 1819 388 
Q 2194 388 2461 705 
Q 2728 1022 2728 1688 
Q 2728 2322 2467 2637 
Q 2206 2953 1844 2953 
Q 1484 2953 1207 2617 
Q 931 2281 931 1641 
z
" transform="scale(0.015625)"/>
       </defs>
       <use xlink:href="#ArialMT-50"/>
       <use xlink:href="#ArialMT-6f" x="66.699219"/>
       <use xlink:href="#ArialMT-6c" x="122.314453"/>
       <use xlink:href="#ArialMT-79" x="144.53125"/>
       <use xlink:href="#ArialMT-6b" x="194.53125"/>
       <use xlink:href="#ArialMT-65" x="244.53125"/>
       <use xlink:href="#ArialMT-74" x="300.146484"/>
       <use xlink:href="#ArialMT-69" x="327.929688"/>
       <use xlink:href="#ArialMT-64" x="350.146484"/>
       <use xlink:href="#ArialMT-65" x="405.761719"/>
       <use xlink:href="#ArialMT-73" x="461.376953"/>
       <use xlink:href="#ArialMT-2c" x="511.376953"/>
       <use xlink:href="#ArialMT-20" x="539.160156"/>
       <use xlink:href="#ArialMT-4c" x="566.943359"/>
       <use xlink:href="#ArialMT-69" x="622.558594"/>
       <use xlink:href="#ArialMT-6e" x="644.775391"/>
       <use xlink:href="#ArialMT-65" x="700.390625"/>
       <use xlink:href="#ArialMT-61" x="756.005859"/>
       <use xlink:href="#ArialMT-72" x="811.621094"/>
       <use xlink:href="#ArialMT-20" x="844.921875"/>
       <use xlink:href="#ArialMT-70" x="872.705078"/>
       <use xlink:href="#ArialMT-6f" x="928.320312"/>
       <use xlink:href="#ArialMT-6c" x="983.935547"/>
       <use xlink:href="#ArialMT-79" x="1006.152344"/>
       <use xlink:href="#ArialMT-6b" x="1056.152344"/>
       <use xlink:href="#ArialMT-65" x="1106.152344"/>
       <use xlink:href="#ArialMT-74" x="1161.767578"/>
       <use xlink:href="#ArialMT-69" x="1189.550781"/>
       <use xlink:href="#ArialMT-64" x="1211.767578"/>
       <use xlink:href="#ArialMT-65" x="1267.382812"/>
       <use xlink:href="#ArialMT-73" x="1322.998047"/>
      </g>
     </g>
    </g>
    <g id="ytick_3">
     <g id="line2d_9">
      <g>
       <use xlink:href="#m87efebcfde" x="57.6" y="85.824" style="fill: #262626; stroke: #262626; stroke-width: 1.25"/>
      </g>
     </g>
     <g id="text_10">
      <!-- Amino acids and Peptides, Oligopeptides -->
      <g style="fill: #262626" transform="translate(-192.566938 90.632719) scale(0.132 -0.132)">
       <defs>
        <path id="ArialMT-6d" d="M 422 0 
L 422 3319 
L 925 3319 
L 925 2853 
Q 1081 3097 1340 3245 
Q 1600 3394 1931 3394 
Q 2300 3394 2536 3241 
Q 2772 3088 2869 2813 
Q 3263 3394 3894 3394 
Q 4388 3394 4653 3120 
Q 4919 2847 4919 2278 
L 4919 0 
L 4359 0 
L 4359 2091 
Q 4359 2428 4304 2576 
Q 4250 2725 4106 2815 
Q 3963 2906 3769 2906 
Q 3419 2906 3187 2673 
Q 2956 2441 2956 1928 
L 2956 0 
L 2394 0 
L 2394 2156 
Q 2394 2531 2256 2718 
Q 2119 2906 1806 2906 
Q 1569 2906 1367 2781 
Q 1166 2656 1075 2415 
Q 984 2175 984 1722 
L 984 0 
L 422 0 
z
" transform="scale(0.015625)"/>
        <path id="ArialMT-63" d="M 2588 1216 
L 3141 1144 
Q 3050 572 2676 248 
Q 2303 -75 1759 -75 
Q 1078 -75 664 370 
Q 250 816 250 1647 
Q 250 2184 428 2587 
Q 606 2991 970 3192 
Q 1334 3394 1763 3394 
Q 2303 3394 2647 3120 
Q 2991 2847 3088 2344 
L 2541 2259 
Q 2463 2594 2264 2762 
Q 2066 2931 1784 2931 
Q 1359 2931 1093 2626 
Q 828 2322 828 1663 
Q 828 994 1084 691 
Q 1341 388 1753 388 
Q 2084 388 2306 591 
Q 2528 794 2588 1216 
z
" transform="scale(0.015625)"/>
        <path id="ArialMT-4f" d="M 309 2231 
Q 309 3372 921 4017 
Q 1534 4663 2503 4663 
Q 3138 4663 3647 4359 
Q 4156 4056 4423 3514 
Q 4691 2972 4691 2284 
Q 4691 1588 4409 1038 
Q 4128 488 3612 205 
Q 3097 -78 2500 -78 
Q 1853 -78 1343 234 
Q 834 547 571 1087 
Q 309 1628 309 2231 
z
M 934 2222 
Q 934 1394 1379 917 
Q 1825 441 2497 441 
Q 3181 441 3623 922 
Q 4066 1403 4066 2288 
Q 4066 2847 3877 3264 
Q 3688 3681 3323 3911 
Q 2959 4141 2506 4141 
Q 1863 4141 1398 3698 
Q 934 3256 934 2222 
z
" transform="scale(0.015625)"/>
        <path id="ArialMT-67" d="M 319 -275 
L 866 -356 
Q 900 -609 1056 -725 
Q 1266 -881 1628 -881 
Q 2019 -881 2231 -725 
Q 2444 -569 2519 -288 
Q 2563 -116 2559 434 
Q 2191 0 1641 0 
Q 956 0 581 494 
Q 206 988 206 1678 
Q 206 2153 378 2554 
Q 550 2956 876 3175 
Q 1203 3394 1644 3394 
Q 2231 3394 2613 2919 
L 2613 3319 
L 3131 3319 
L 3131 450 
Q 3131 -325 2973 -648 
Q 2816 -972 2473 -1159 
Q 2131 -1347 1631 -1347 
Q 1038 -1347 672 -1080 
Q 306 -813 319 -275 
z
M 784 1719 
Q 784 1066 1043 766 
Q 1303 466 1694 466 
Q 2081 466 2343 764 
Q 2606 1063 2606 1700 
Q 2606 2309 2336 2618 
Q 2066 2928 1684 2928 
Q 1309 2928 1046 2623 
Q 784 2319 784 1719 
z
" transform="scale(0.015625)"/>
       </defs>
       <use xlink:href="#ArialMT-41"/>
       <use xlink:href="#ArialMT-6d" x="66.699219"/>
       <use xlink:href="#ArialMT-69" x="150"/>
       <use xlink:href="#ArialMT-6e" x="172.216797"/>
       <use xlink:href="#ArialMT-6f" x="227.832031"/>
       <use xlink:href="#ArialMT-20" x="283.447266"/>
       <use xlink:href="#ArialMT-61" x="311.230469"/>
       <use xlink:href="#ArialMT-63" x="366.845703"/>
       <use xlink:href="#ArialMT-69" x="416.845703"/>
       <use xlink:href="#ArialMT-64" x="439.0625"/>
       <use xlink:href="#ArialMT-73" x="494.677734"/>
       <use xlink:href="#ArialMT-20" x="544.677734"/>
       <use xlink:href="#ArialMT-61" x="572.460938"/>
       <use xlink:href="#ArialMT-6e" x="628.076172"/>
       <use xlink:href="#ArialMT-64" x="683.691406"/>
       <use xlink:href="#ArialMT-20" x="739.306641"/>
       <use xlink:href="#ArialMT-50" x="767.089844"/>
       <use xlink:href="#ArialMT-65" x="833.789062"/>
       <use xlink:href="#ArialMT-70" x="889.404297"/>
       <use xlink:href="#ArialMT-74" x="945.019531"/>
       <use xlink:href="#ArialMT-69" x="972.802734"/>
       <use xlink:href="#ArialMT-64" x="995.019531"/>
       <use xlink:href="#ArialMT-65" x="1050.634766"/>
       <use xlink:href="#ArialMT-73" x="1106.25"/>
       <use xlink:href="#ArialMT-2c" x="1156.25"/>
       <use xlink:href="#ArialMT-20" x="1184.033203"/>
       <use xlink:href="#ArialMT-4f" x="1211.816406"/>
       <use xlink:href="#ArialMT-6c" x="1289.599609"/>
       <use xlink:href="#ArialMT-69" x="1311.816406"/>
       <use xlink:href="#ArialMT-67" x="1334.033203"/>
       <use xlink:href="#ArialMT-6f" x="1389.648438"/>
       <use xlink:href="#ArialMT-70" x="1445.263672"/>
       <use xlink:href="#ArialMT-65" x="1500.878906"/>
       <use xlink:href="#ArialMT-70" x="1556.494141"/>
       <use xlink:href="#ArialMT-74" x="1612.109375"/>
       <use xlink:href="#ArialMT-69" x="1639.892578"/>
       <use xlink:href="#ArialMT-64" x="1662.109375"/>
       <use xlink:href="#ArialMT-65" x="1717.724609"/>
       <use xlink:href="#ArialMT-73" x="1773.339844"/>
      </g>
     </g>
    </g>
    <g id="ytick_4">
     <g id="line2d_10">
      <g>
       <use xlink:href="#m87efebcfde" x="57.6" y="103.5648" style="fill: #262626; stroke: #262626; stroke-width: 1.25"/>
      </g>
     </g>
     <g id="text_11">
      <!-- Alkaloids, Tryptophan alkaloids -->
      <g style="fill: #262626" transform="translate(-133.12775 108.288956) scale(0.132 -0.132)">
       <defs>
        <path id="ArialMT-54" d="M 1659 0 
L 1659 4041 
L 150 4041 
L 150 4581 
L 3781 4581 
L 3781 4041 
L 2266 4041 
L 2266 0 
L 1659 0 
z
" transform="scale(0.015625)"/>
        <path id="ArialMT-68" d="M 422 0 
L 422 4581 
L 984 4581 
L 984 2938 
Q 1378 3394 1978 3394 
Q 2347 3394 2619 3248 
Q 2891 3103 3008 2847 
Q 3125 2591 3125 2103 
L 3125 0 
L 2563 0 
L 2563 2103 
Q 2563 2525 2380 2717 
Q 2197 2909 1863 2909 
Q 1613 2909 1392 2779 
Q 1172 2650 1078 2428 
Q 984 2206 984 1816 
L 984 0 
L 422 0 
z
" transform="scale(0.015625)"/>
       </defs>
       <use xlink:href="#ArialMT-41"/>
       <use xlink:href="#ArialMT-6c" x="66.699219"/>
       <use xlink:href="#ArialMT-6b" x="88.916016"/>
       <use xlink:href="#ArialMT-61" x="138.916016"/>
       <use xlink:href="#ArialMT-6c" x="194.53125"/>
       <use xlink:href="#ArialMT-6f" x="216.748047"/>
       <use xlink:href="#ArialMT-69" x="272.363281"/>
       <use xlink:href="#ArialMT-64" x="294.580078"/>
       <use xlink:href="#ArialMT-73" x="350.195312"/>
       <use xlink:href="#ArialMT-2c" x="400.195312"/>
       <use xlink:href="#ArialMT-20" x="427.978516"/>
       <use xlink:href="#ArialMT-54" x="454.011719"/>
       <use xlink:href="#ArialMT-72" x="511.345703"/>
       <use xlink:href="#ArialMT-79" x="544.646484"/>
       <use xlink:href="#ArialMT-70" x="594.646484"/>
       <use xlink:href="#ArialMT-74" x="650.261719"/>
       <use xlink:href="#ArialMT-6f" x="678.044922"/>
       <use xlink:href="#ArialMT-70" x="733.660156"/>
       <use xlink:href="#ArialMT-68" x="789.275391"/>
       <use xlink:href="#ArialMT-61" x="844.890625"/>
       <use xlink:href="#ArialMT-6e" x="900.505859"/>
       <use xlink:href="#ArialMT-20" x="956.121094"/>
       <use xlink:href="#ArialMT-61" x="983.904297"/>
       <use xlink:href="#ArialMT-6c" x="1039.519531"/>
       <use xlink:href="#ArialMT-6b" x="1061.736328"/>
       <use xlink:href="#ArialMT-61" x="1111.736328"/>
       <use xlink:href="#ArialMT-6c" x="1167.351562"/>
       <use xlink:href="#ArialMT-6f" x="1189.568359"/>
       <use xlink:href="#ArialMT-69" x="1245.183594"/>
       <use xlink:href="#ArialMT-64" x="1267.400391"/>
       <use xlink:href="#ArialMT-73" x="1323.015625"/>
      </g>
     </g>
    </g>
    <g id="ytick_5">
     <g id="line2d_11">
      <g>
       <use xlink:href="#m87efebcfde" x="57.6" y="121.3056" style="fill: #262626; stroke: #262626; stroke-width: 1.25"/>
      </g>
     </g>
     <g id="text_12">
      <!-- Alkaloids, Ornithine alkaloids -->
      <g style="fill: #262626" transform="translate(-120.643438 126.029756) scale(0.132 -0.132)">
       <use xlink:href="#ArialMT-41"/>
       <use xlink:href="#ArialMT-6c" x="66.699219"/>
       <use xlink:href="#ArialMT-6b" x="88.916016"/>
       <use xlink:href="#ArialMT-61" x="138.916016"/>
       <use xlink:href="#ArialMT-6c" x="194.53125"/>
       <use xlink:href="#ArialMT-6f" x="216.748047"/>
       <use xlink:href="#ArialMT-69" x="272.363281"/>
       <use xlink:href="#ArialMT-64" x="294.580078"/>
       <use xlink:href="#ArialMT-73" x="350.195312"/>
       <use xlink:href="#ArialMT-2c" x="400.195312"/>
       <use xlink:href="#ArialMT-20" x="427.978516"/>
       <use xlink:href="#ArialMT-4f" x="455.761719"/>
       <use xlink:href="#ArialMT-72" x="533.544922"/>
       <use xlink:href="#ArialMT-6e" x="566.845703"/>
       <use xlink:href="#ArialMT-69" x="622.460938"/>
       <use xlink:href="#ArialMT-74" x="644.677734"/>
       <use xlink:href="#ArialMT-68" x="672.460938"/>
       <use xlink:href="#ArialMT-69" x="728.076172"/>
       <use xlink:href="#ArialMT-6e" x="750.292969"/>
       <use xlink:href="#ArialMT-65" x="805.908203"/>
       <use xlink:href="#ArialMT-20" x="861.523438"/>
       <use xlink:href="#ArialMT-61" x="889.306641"/>
       <use xlink:href="#ArialMT-6c" x="944.921875"/>
       <use xlink:href="#ArialMT-6b" x="967.138672"/>
       <use xlink:href="#ArialMT-61" x="1017.138672"/>
       <use xlink:href="#ArialMT-6c" x="1072.753906"/>
       <use xlink:href="#ArialMT-6f" x="1094.970703"/>
       <use xlink:href="#ArialMT-69" x="1150.585938"/>
       <use xlink:href="#ArialMT-64" x="1172.802734"/>
       <use xlink:href="#ArialMT-73" x="1228.417969"/>
      </g>
     </g>
    </g>
    <g id="ytick_6">
     <g id="line2d_12">
      <g>
       <use xlink:href="#m87efebcfde" x="57.6" y="139.0464" style="fill: #262626; stroke: #262626; stroke-width: 1.25"/>
      </g>
     </g>
     <g id="text_13">
      <!-- Fatty acids, Eicosanoids -->
      <g style="fill: #262626" transform="translate(-94.224875 143.770556) scale(0.132 -0.132)">
       <defs>
        <path id="ArialMT-46" d="M 525 0 
L 525 4581 
L 3616 4581 
L 3616 4041 
L 1131 4041 
L 1131 2622 
L 3281 2622 
L 3281 2081 
L 1131 2081 
L 1131 0 
L 525 0 
z
" transform="scale(0.015625)"/>
        <path id="ArialMT-45" d="M 506 0 
L 506 4581 
L 3819 4581 
L 3819 4041 
L 1113 4041 
L 1113 2638 
L 3647 2638 
L 3647 2100 
L 1113 2100 
L 1113 541 
L 3925 541 
L 3925 0 
L 506 0 
z
" transform="scale(0.015625)"/>
       </defs>
       <use xlink:href="#ArialMT-46"/>
       <use xlink:href="#ArialMT-61" x="61.083984"/>
       <use xlink:href="#ArialMT-74" x="116.699219"/>
       <use xlink:href="#ArialMT-74" x="144.482422"/>
       <use xlink:href="#ArialMT-79" x="172.265625"/>
       <use xlink:href="#ArialMT-20" x="222.265625"/>
       <use xlink:href="#ArialMT-61" x="250.048828"/>
       <use xlink:href="#ArialMT-63" x="305.664062"/>
       <use xlink:href="#ArialMT-69" x="355.664062"/>
       <use xlink:href="#ArialMT-64" x="377.880859"/>
       <use xlink:href="#ArialMT-73" x="433.496094"/>
       <use xlink:href="#ArialMT-2c" x="483.496094"/>
       <use xlink:href="#ArialMT-20" x="511.279297"/>
       <use xlink:href="#ArialMT-45" x="539.0625"/>
       <use xlink:href="#ArialMT-69" x="605.761719"/>
       <use xlink:href="#ArialMT-63" x="627.978516"/>
       <use xlink:href="#ArialMT-6f" x="677.978516"/>
       <use xlink:href="#ArialMT-73" x="733.59375"/>
       <use xlink:href="#ArialMT-61" x="783.59375"/>
       <use xlink:href="#ArialMT-6e" x="839.208984"/>
       <use xlink:href="#ArialMT-6f" x="894.824219"/>
       <use xlink:href="#ArialMT-69" x="950.439453"/>
       <use xlink:href="#ArialMT-64" x="972.65625"/>
       <use xlink:href="#ArialMT-73" x="1028.271484"/>
      </g>
     </g>
    </g>
    <g id="ytick_7">
     <g id="line2d_13">
      <g>
       <use xlink:href="#m87efebcfde" x="57.6" y="156.7872" style="fill: #262626; stroke: #262626; stroke-width: 1.25"/>
      </g>
     </g>
     <g id="text_14">
      <!-- Polyketides, Polyethers -->
      <g style="fill: #262626" transform="translate(-89.095438 161.511356) scale(0.132 -0.132)">
       <use xlink:href="#ArialMT-50"/>
       <use xlink:href="#ArialMT-6f" x="66.699219"/>
       <use xlink:href="#ArialMT-6c" x="122.314453"/>
       <use xlink:href="#ArialMT-79" x="144.53125"/>
       <use xlink:href="#ArialMT-6b" x="194.53125"/>
       <use xlink:href="#ArialMT-65" x="244.53125"/>
       <use xlink:href="#ArialMT-74" x="300.146484"/>
       <use xlink:href="#ArialMT-69" x="327.929688"/>
       <use xlink:href="#ArialMT-64" x="350.146484"/>
       <use xlink:href="#ArialMT-65" x="405.761719"/>
       <use xlink:href="#ArialMT-73" x="461.376953"/>
       <use xlink:href="#ArialMT-2c" x="511.376953"/>
       <use xlink:href="#ArialMT-20" x="539.160156"/>
       <use xlink:href="#ArialMT-50" x="566.943359"/>
       <use xlink:href="#ArialMT-6f" x="633.642578"/>
       <use xlink:href="#ArialMT-6c" x="689.257812"/>
       <use xlink:href="#ArialMT-79" x="711.474609"/>
       <use xlink:href="#ArialMT-65" x="761.474609"/>
       <use xlink:href="#ArialMT-74" x="817.089844"/>
       <use xlink:href="#ArialMT-68" x="844.873047"/>
       <use xlink:href="#ArialMT-65" x="900.488281"/>
       <use xlink:href="#ArialMT-72" x="956.103516"/>
       <use xlink:href="#ArialMT-73" x="989.404297"/>
      </g>
     </g>
    </g>
    <g id="ytick_8">
     <g id="line2d_14">
      <g>
       <use xlink:href="#m87efebcfde" x="57.6" y="174.528" style="fill: #262626; stroke: #262626; stroke-width: 1.25"/>
      </g>
     </g>
     <g id="text_15">
      <!-- Amino acids and Peptides, Other -->
      <g style="fill: #262626" transform="translate(-144.861313 179.336719) scale(0.132 -0.132)">
       <use xlink:href="#ArialMT-41"/>
       <use xlink:href="#ArialMT-6d" x="66.699219"/>
       <use xlink:href="#ArialMT-69" x="150"/>
       <use xlink:href="#ArialMT-6e" x="172.216797"/>
       <use xlink:href="#ArialMT-6f" x="227.832031"/>
       <use xlink:href="#ArialMT-20" x="283.447266"/>
       <use xlink:href="#ArialMT-61" x="311.230469"/>
       <use xlink:href="#ArialMT-63" x="366.845703"/>
       <use xlink:href="#ArialMT-69" x="416.845703"/>
       <use xlink:href="#ArialMT-64" x="439.0625"/>
       <use xlink:href="#ArialMT-73" x="494.677734"/>
       <use xlink:href="#ArialMT-20" x="544.677734"/>
       <use xlink:href="#ArialMT-61" x="572.460938"/>
       <use xlink:href="#ArialMT-6e" x="628.076172"/>
       <use xlink:href="#ArialMT-64" x="683.691406"/>
       <use xlink:href="#ArialMT-20" x="739.306641"/>
       <use xlink:href="#ArialMT-50" x="767.089844"/>
       <use xlink:href="#ArialMT-65" x="833.789062"/>
       <use xlink:href="#ArialMT-70" x="889.404297"/>
       <use xlink:href="#ArialMT-74" x="945.019531"/>
       <use xlink:href="#ArialMT-69" x="972.802734"/>
       <use xlink:href="#ArialMT-64" x="995.019531"/>
       <use xlink:href="#ArialMT-65" x="1050.634766"/>
       <use xlink:href="#ArialMT-73" x="1106.25"/>
       <use xlink:href="#ArialMT-2c" x="1156.25"/>
       <use xlink:href="#ArialMT-20" x="1184.033203"/>
       <use xlink:href="#ArialMT-4f" x="1211.816406"/>
       <use xlink:href="#ArialMT-74" x="1289.599609"/>
       <use xlink:href="#ArialMT-68" x="1317.382812"/>
       <use xlink:href="#ArialMT-65" x="1372.998047"/>
       <use xlink:href="#ArialMT-72" x="1428.613281"/>
      </g>
     </g>
    </g>
    <g id="ytick_9">
     <g id="line2d_15">
      <g>
       <use xlink:href="#m87efebcfde" x="57.6" y="192.2688" style="fill: #262626; stroke: #262626; stroke-width: 1.25"/>
      </g>
     </g>
     <g id="text_16">
      <!-- Alkaloids, Pseudoalkaloids -->
      <g style="fill: #262626" transform="translate(-108.185938 196.992956) scale(0.132 -0.132)">
       <use xlink:href="#ArialMT-41"/>
       <use xlink:href="#ArialMT-6c" x="66.699219"/>
       <use xlink:href="#ArialMT-6b" x="88.916016"/>
       <use xlink:href="#ArialMT-61" x="138.916016"/>
       <use xlink:href="#ArialMT-6c" x="194.53125"/>
       <use xlink:href="#ArialMT-6f" x="216.748047"/>
       <use xlink:href="#ArialMT-69" x="272.363281"/>
       <use xlink:href="#ArialMT-64" x="294.580078"/>
       <use xlink:href="#ArialMT-73" x="350.195312"/>
       <use xlink:href="#ArialMT-2c" x="400.195312"/>
       <use xlink:href="#ArialMT-20" x="427.978516"/>
       <use xlink:href="#ArialMT-50" x="455.761719"/>
       <use xlink:href="#ArialMT-73" x="522.460938"/>
       <use xlink:href="#ArialMT-65" x="572.460938"/>
       <use xlink:href="#ArialMT-75" x="628.076172"/>
       <use xlink:href="#ArialMT-64" x="683.691406"/>
       <use xlink:href="#ArialMT-6f" x="739.306641"/>
       <use xlink:href="#ArialMT-61" x="794.921875"/>
       <use xlink:href="#ArialMT-6c" x="850.537109"/>
       <use xlink:href="#ArialMT-6b" x="872.753906"/>
       <use xlink:href="#ArialMT-61" x="922.753906"/>
       <use xlink:href="#ArialMT-6c" x="978.369141"/>
       <use xlink:href="#ArialMT-6f" x="1000.585938"/>
       <use xlink:href="#ArialMT-69" x="1056.201172"/>
       <use xlink:href="#ArialMT-64" x="1078.417969"/>
       <use xlink:href="#ArialMT-73" x="1134.033203"/>
      </g>
     </g>
    </g>
    <g id="ytick_10">
     <g id="line2d_16">
      <g>
       <use xlink:href="#m87efebcfde" x="57.6" y="210.0096" style="fill: #262626; stroke: #262626; stroke-width: 1.25"/>
      </g>
     </g>
     <g id="text_17">
      <!-- Carbohydrates, Other -->
      <g style="fill: #262626" transform="translate(-78.818 214.818319) scale(0.132 -0.132)">
       <defs>
        <path id="ArialMT-43" d="M 3763 1606 
L 4369 1453 
Q 4178 706 3683 314 
Q 3188 -78 2472 -78 
Q 1731 -78 1267 223 
Q 803 525 561 1097 
Q 319 1669 319 2325 
Q 319 3041 592 3573 
Q 866 4106 1370 4382 
Q 1875 4659 2481 4659 
Q 3169 4659 3637 4309 
Q 4106 3959 4291 3325 
L 3694 3184 
Q 3534 3684 3231 3912 
Q 2928 4141 2469 4141 
Q 1941 4141 1586 3887 
Q 1231 3634 1087 3207 
Q 944 2781 944 2328 
Q 944 1744 1114 1308 
Q 1284 872 1643 656 
Q 2003 441 2422 441 
Q 2931 441 3284 734 
Q 3638 1028 3763 1606 
z
" transform="scale(0.015625)"/>
        <path id="ArialMT-62" d="M 941 0 
L 419 0 
L 419 4581 
L 981 4581 
L 981 2947 
Q 1338 3394 1891 3394 
Q 2197 3394 2470 3270 
Q 2744 3147 2920 2923 
Q 3097 2700 3197 2384 
Q 3297 2069 3297 1709 
Q 3297 856 2875 390 
Q 2453 -75 1863 -75 
Q 1275 -75 941 416 
L 941 0 
z
M 934 1684 
Q 934 1088 1097 822 
Q 1363 388 1816 388 
Q 2184 388 2453 708 
Q 2722 1028 2722 1663 
Q 2722 2313 2464 2622 
Q 2206 2931 1841 2931 
Q 1472 2931 1203 2611 
Q 934 2291 934 1684 
z
" transform="scale(0.015625)"/>
       </defs>
       <use xlink:href="#ArialMT-43"/>
       <use xlink:href="#ArialMT-61" x="72.216797"/>
       <use xlink:href="#ArialMT-72" x="127.832031"/>
       <use xlink:href="#ArialMT-62" x="161.132812"/>
       <use xlink:href="#ArialMT-6f" x="216.748047"/>
       <use xlink:href="#ArialMT-68" x="272.363281"/>
       <use xlink:href="#ArialMT-79" x="327.978516"/>
       <use xlink:href="#ArialMT-64" x="377.978516"/>
       <use xlink:href="#ArialMT-72" x="433.59375"/>
       <use xlink:href="#ArialMT-61" x="466.894531"/>
       <use xlink:href="#ArialMT-74" x="522.509766"/>
       <use xlink:href="#ArialMT-65" x="550.292969"/>
       <use xlink:href="#ArialMT-73" x="605.908203"/>
       <use xlink:href="#ArialMT-2c" x="655.908203"/>
       <use xlink:href="#ArialMT-20" x="683.691406"/>
       <use xlink:href="#ArialMT-4f" x="711.474609"/>
       <use xlink:href="#ArialMT-74" x="789.257812"/>
       <use xlink:href="#ArialMT-68" x="817.041016"/>
       <use xlink:href="#ArialMT-65" x="872.65625"/>
       <use xlink:href="#ArialMT-72" x="928.271484"/>
      </g>
     </g>
    </g>
    <g id="ytick_11">
     <g id="line2d_17">
      <g>
       <use xlink:href="#m87efebcfde" x="57.6" y="227.7504" style="fill: #262626; stroke: #262626; stroke-width: 1.25"/>
      </g>
     </g>
     <g id="text_18">
      <!-- Fatty acids, Other -->
      <g style="fill: #262626" transform="translate(-56.062438 232.559119) scale(0.132 -0.132)">
       <use xlink:href="#ArialMT-46"/>
       <use xlink:href="#ArialMT-61" x="61.083984"/>
       <use xlink:href="#ArialMT-74" x="116.699219"/>
       <use xlink:href="#ArialMT-74" x="144.482422"/>
       <use xlink:href="#ArialMT-79" x="172.265625"/>
       <use xlink:href="#ArialMT-20" x="222.265625"/>
       <use xlink:href="#ArialMT-61" x="250.048828"/>
       <use xlink:href="#ArialMT-63" x="305.664062"/>
       <use xlink:href="#ArialMT-69" x="355.664062"/>
       <use xlink:href="#ArialMT-64" x="377.880859"/>
       <use xlink:href="#ArialMT-73" x="433.496094"/>
       <use xlink:href="#ArialMT-2c" x="483.496094"/>
       <use xlink:href="#ArialMT-20" x="511.279297"/>
       <use xlink:href="#ArialMT-4f" x="539.0625"/>
       <use xlink:href="#ArialMT-74" x="616.845703"/>
       <use xlink:href="#ArialMT-68" x="644.628906"/>
       <use xlink:href="#ArialMT-65" x="700.244141"/>
       <use xlink:href="#ArialMT-72" x="755.859375"/>
      </g>
     </g>
    </g>
    <g id="ytick_12">
     <g id="line2d_18">
      <g>
       <use xlink:href="#m87efebcfde" x="57.6" y="245.4912" style="fill: #262626; stroke: #262626; stroke-width: 1.25"/>
      </g>
     </g>
     <g id="text_19">
      <!-- Alkaloids, Histidine alkaloids -->
      <g style="fill: #262626" transform="translate(-117.706438 250.215356) scale(0.132 -0.132)">
       <use xlink:href="#ArialMT-41"/>
       <use xlink:href="#ArialMT-6c" x="66.699219"/>
       <use xlink:href="#ArialMT-6b" x="88.916016"/>
       <use xlink:href="#ArialMT-61" x="138.916016"/>
       <use xlink:href="#ArialMT-6c" x="194.53125"/>
       <use xlink:href="#ArialMT-6f" x="216.748047"/>
       <use xlink:href="#ArialMT-69" x="272.363281"/>
       <use xlink:href="#ArialMT-64" x="294.580078"/>
       <use xlink:href="#ArialMT-73" x="350.195312"/>
       <use xlink:href="#ArialMT-2c" x="400.195312"/>
       <use xlink:href="#ArialMT-20" x="427.978516"/>
       <use xlink:href="#ArialMT-48" x="455.761719"/>
       <use xlink:href="#ArialMT-69" x="527.978516"/>
       <use xlink:href="#ArialMT-73" x="550.195312"/>
       <use xlink:href="#ArialMT-74" x="600.195312"/>
       <use xlink:href="#ArialMT-69" x="627.978516"/>
       <use xlink:href="#ArialMT-64" x="650.195312"/>
       <use xlink:href="#ArialMT-69" x="705.810547"/>
       <use xlink:href="#ArialMT-6e" x="728.027344"/>
       <use xlink:href="#ArialMT-65" x="783.642578"/>
       <use xlink:href="#ArialMT-20" x="839.257812"/>
       <use xlink:href="#ArialMT-61" x="867.041016"/>
       <use xlink:href="#ArialMT-6c" x="922.65625"/>
       <use xlink:href="#ArialMT-6b" x="944.873047"/>
       <use xlink:href="#ArialMT-61" x="994.873047"/>
       <use xlink:href="#ArialMT-6c" x="1050.488281"/>
       <use xlink:href="#ArialMT-6f" x="1072.705078"/>
       <use xlink:href="#ArialMT-69" x="1128.320312"/>
       <use xlink:href="#ArialMT-64" x="1150.537109"/>
       <use xlink:href="#ArialMT-73" x="1206.152344"/>
      </g>
     </g>
    </g>
    <g id="ytick_13">
     <g id="line2d_19">
      <g>
       <use xlink:href="#m87efebcfde" x="57.6" y="263.232" style="fill: #262626; stroke: #262626; stroke-width: 1.25"/>
      </g>
     </g>
     <g id="text_20">
      <!-- Polyketides, Macrolides -->
      <g style="fill: #262626" transform="translate(-90.551563 267.956156) scale(0.132 -0.132)">
       <defs>
        <path id="ArialMT-4d" d="M 475 0 
L 475 4581 
L 1388 4581 
L 2472 1338 
Q 2622 884 2691 659 
Q 2769 909 2934 1394 
L 4031 4581 
L 4847 4581 
L 4847 0 
L 4263 0 
L 4263 3834 
L 2931 0 
L 2384 0 
L 1059 3900 
L 1059 0 
L 475 0 
z
" transform="scale(0.015625)"/>
       </defs>
       <use xlink:href="#ArialMT-50"/>
       <use xlink:href="#ArialMT-6f" x="66.699219"/>
       <use xlink:href="#ArialMT-6c" x="122.314453"/>
       <use xlink:href="#ArialMT-79" x="144.53125"/>
       <use xlink:href="#ArialMT-6b" x="194.53125"/>
       <use xlink:href="#ArialMT-65" x="244.53125"/>
       <use xlink:href="#ArialMT-74" x="300.146484"/>
       <use xlink:href="#ArialMT-69" x="327.929688"/>
       <use xlink:href="#ArialMT-64" x="350.146484"/>
       <use xlink:href="#ArialMT-65" x="405.761719"/>
       <use xlink:href="#ArialMT-73" x="461.376953"/>
       <use xlink:href="#ArialMT-2c" x="511.376953"/>
       <use xlink:href="#ArialMT-20" x="539.160156"/>
       <use xlink:href="#ArialMT-4d" x="566.943359"/>
       <use xlink:href="#ArialMT-61" x="650.244141"/>
       <use xlink:href="#ArialMT-63" x="705.859375"/>
       <use xlink:href="#ArialMT-72" x="755.859375"/>
       <use xlink:href="#ArialMT-6f" x="789.160156"/>
       <use xlink:href="#ArialMT-6c" x="844.775391"/>
       <use xlink:href="#ArialMT-69" x="866.992188"/>
       <use xlink:href="#ArialMT-64" x="889.208984"/>
       <use xlink:href="#ArialMT-65" x="944.824219"/>
       <use xlink:href="#ArialMT-73" x="1000.439453"/>
      </g>
     </g>
    </g>
    <g id="ytick_14">
     <g id="line2d_20">
      <g>
       <use xlink:href="#m87efebcfde" x="57.6" y="280.9728" style="fill: #262626; stroke: #262626; stroke-width: 1.25"/>
      </g>
     </g>
     <g id="text_21">
      <!-- Amino acids and Peptides, Small peptides -->
      <g style="fill: #262626" transform="translate(-198.4265 285.777394) scale(0.132 -0.132)">
       <defs>
        <path id="ArialMT-53" d="M 288 1472 
L 859 1522 
Q 900 1178 1048 958 
Q 1197 738 1509 602 
Q 1822 466 2213 466 
Q 2559 466 2825 569 
Q 3091 672 3220 851 
Q 3350 1031 3350 1244 
Q 3350 1459 3225 1620 
Q 3100 1781 2813 1891 
Q 2628 1963 1997 2114 
Q 1366 2266 1113 2400 
Q 784 2572 623 2826 
Q 463 3081 463 3397 
Q 463 3744 659 4045 
Q 856 4347 1234 4503 
Q 1613 4659 2075 4659 
Q 2584 4659 2973 4495 
Q 3363 4331 3572 4012 
Q 3781 3694 3797 3291 
L 3216 3247 
Q 3169 3681 2898 3903 
Q 2628 4125 2100 4125 
Q 1550 4125 1298 3923 
Q 1047 3722 1047 3438 
Q 1047 3191 1225 3031 
Q 1400 2872 2139 2705 
Q 2878 2538 3153 2413 
Q 3553 2228 3743 1945 
Q 3934 1663 3934 1294 
Q 3934 928 3725 604 
Q 3516 281 3123 101 
Q 2731 -78 2241 -78 
Q 1619 -78 1198 103 
Q 778 284 539 648 
Q 300 1013 288 1472 
z
" transform="scale(0.015625)"/>
       </defs>
       <use xlink:href="#ArialMT-41"/>
       <use xlink:href="#ArialMT-6d" x="66.699219"/>
       <use xlink:href="#ArialMT-69" x="150"/>
       <use xlink:href="#ArialMT-6e" x="172.216797"/>
       <use xlink:href="#ArialMT-6f" x="227.832031"/>
       <use xlink:href="#ArialMT-20" x="283.447266"/>
       <use xlink:href="#ArialMT-61" x="311.230469"/>
       <use xlink:href="#ArialMT-63" x="366.845703"/>
       <use xlink:href="#ArialMT-69" x="416.845703"/>
       <use xlink:href="#ArialMT-64" x="439.0625"/>
       <use xlink:href="#ArialMT-73" x="494.677734"/>
       <use xlink:href="#ArialMT-20" x="544.677734"/>
       <use xlink:href="#ArialMT-61" x="572.460938"/>
       <use xlink:href="#ArialMT-6e" x="628.076172"/>
       <use xlink:href="#ArialMT-64" x="683.691406"/>
       <use xlink:href="#ArialMT-20" x="739.306641"/>
       <use xlink:href="#ArialMT-50" x="767.089844"/>
       <use xlink:href="#ArialMT-65" x="833.789062"/>
       <use xlink:href="#ArialMT-70" x="889.404297"/>
       <use xlink:href="#ArialMT-74" x="945.019531"/>
       <use xlink:href="#ArialMT-69" x="972.802734"/>
       <use xlink:href="#ArialMT-64" x="995.019531"/>
       <use xlink:href="#ArialMT-65" x="1050.634766"/>
       <use xlink:href="#ArialMT-73" x="1106.25"/>
       <use xlink:href="#ArialMT-2c" x="1156.25"/>
       <use xlink:href="#ArialMT-20" x="1184.033203"/>
       <use xlink:href="#ArialMT-53" x="1211.816406"/>
       <use xlink:href="#ArialMT-6d" x="1278.515625"/>
       <use xlink:href="#ArialMT-61" x="1361.816406"/>
       <use xlink:href="#ArialMT-6c" x="1417.431641"/>
       <use xlink:href="#ArialMT-6c" x="1439.648438"/>
       <use xlink:href="#ArialMT-20" x="1461.865234"/>
       <use xlink:href="#ArialMT-70" x="1489.648438"/>
       <use xlink:href="#ArialMT-65" x="1545.263672"/>
       <use xlink:href="#ArialMT-70" x="1600.878906"/>
       <use xlink:href="#ArialMT-74" x="1656.494141"/>
       <use xlink:href="#ArialMT-69" x="1684.277344"/>
       <use xlink:href="#ArialMT-64" x="1706.494141"/>
       <use xlink:href="#ArialMT-65" x="1762.109375"/>
       <use xlink:href="#ArialMT-73" x="1817.724609"/>
      </g>
     </g>
    </g>
    <g id="ytick_15">
     <g id="line2d_21">
      <g>
       <use xlink:href="#m87efebcfde" x="57.6" y="298.7136" style="fill: #262626; stroke: #262626; stroke-width: 1.25"/>
      </g>
     </g>
     <g id="text_22">
      <!-- Shikimates and Phenylpropanoids, Styrylpyrones -->
      <g style="fill: #262626" transform="translate(-238.771062 303.518194) scale(0.132 -0.132)">
       <use xlink:href="#ArialMT-53"/>
       <use xlink:href="#ArialMT-68" x="66.699219"/>
       <use xlink:href="#ArialMT-69" x="122.314453"/>
       <use xlink:href="#ArialMT-6b" x="144.53125"/>
       <use xlink:href="#ArialMT-69" x="194.53125"/>
       <use xlink:href="#ArialMT-6d" x="216.748047"/>
       <use xlink:href="#ArialMT-61" x="300.048828"/>
       <use xlink:href="#ArialMT-74" x="355.664062"/>
       <use xlink:href="#ArialMT-65" x="383.447266"/>
       <use xlink:href="#ArialMT-73" x="439.0625"/>
       <use xlink:href="#ArialMT-20" x="489.0625"/>
       <use xlink:href="#ArialMT-61" x="516.845703"/>
       <use xlink:href="#ArialMT-6e" x="572.460938"/>
       <use xlink:href="#ArialMT-64" x="628.076172"/>
       <use xlink:href="#ArialMT-20" x="683.691406"/>
       <use xlink:href="#ArialMT-50" x="711.474609"/>
       <use xlink:href="#ArialMT-68" x="778.173828"/>
       <use xlink:href="#ArialMT-65" x="833.789062"/>
       <use xlink:href="#ArialMT-6e" x="889.404297"/>
       <use xlink:href="#ArialMT-79" x="945.019531"/>
       <use xlink:href="#ArialMT-6c" x="995.019531"/>
       <use xlink:href="#ArialMT-70" x="1017.236328"/>
       <use xlink:href="#ArialMT-72" x="1072.851562"/>
       <use xlink:href="#ArialMT-6f" x="1106.152344"/>
       <use xlink:href="#ArialMT-70" x="1161.767578"/>
       <use xlink:href="#ArialMT-61" x="1217.382812"/>
       <use xlink:href="#ArialMT-6e" x="1272.998047"/>
       <use xlink:href="#ArialMT-6f" x="1328.613281"/>
       <use xlink:href="#ArialMT-69" x="1384.228516"/>
       <use xlink:href="#ArialMT-64" x="1406.445312"/>
       <use xlink:href="#ArialMT-73" x="1462.060547"/>
       <use xlink:href="#ArialMT-2c" x="1512.060547"/>
       <use xlink:href="#ArialMT-20" x="1539.84375"/>
       <use xlink:href="#ArialMT-53" x="1567.626953"/>
       <use xlink:href="#ArialMT-74" x="1634.326172"/>
       <use xlink:href="#ArialMT-79" x="1662.109375"/>
       <use xlink:href="#ArialMT-72" x="1712.109375"/>
       <use xlink:href="#ArialMT-79" x="1745.410156"/>
       <use xlink:href="#ArialMT-6c" x="1795.410156"/>
       <use xlink:href="#ArialMT-70" x="1817.626953"/>
       <use xlink:href="#ArialMT-79" x="1873.242188"/>
       <use xlink:href="#ArialMT-72" x="1923.242188"/>
       <use xlink:href="#ArialMT-6f" x="1956.542969"/>
       <use xlink:href="#ArialMT-6e" x="2012.158203"/>
       <use xlink:href="#ArialMT-65" x="2067.773438"/>
       <use xlink:href="#ArialMT-73" x="2123.388672"/>
      </g>
     </g>
    </g>
    <g id="text_23">
     <!-- Pathway, superclass -->
     <g style="fill: #262626" transform="translate(-245.801813 240.024375) rotate(-90) scale(0.144 -0.144)">
      <defs>
       <path id="ArialMT-77" d="M 1034 0 
L 19 3319 
L 600 3319 
L 1128 1403 
L 1325 691 
Q 1338 744 1497 1375 
L 2025 3319 
L 2603 3319 
L 3100 1394 
L 3266 759 
L 3456 1400 
L 4025 3319 
L 4572 3319 
L 3534 0 
L 2950 0 
L 2422 1988 
L 2294 2553 
L 1622 0 
L 1034 0 
z
" transform="scale(0.015625)"/>
      </defs>
      <use xlink:href="#ArialMT-50"/>
      <use xlink:href="#ArialMT-61" x="66.699219"/>
      <use xlink:href="#ArialMT-74" x="122.314453"/>
      <use xlink:href="#ArialMT-68" x="150.097656"/>
      <use xlink:href="#ArialMT-77" x="205.712891"/>
      <use xlink:href="#ArialMT-61" x="277.929688"/>
      <use xlink:href="#ArialMT-79" x="333.544922"/>
      <use xlink:href="#ArialMT-2c" x="376.169922"/>
      <use xlink:href="#ArialMT-20" x="403.953125"/>
      <use xlink:href="#ArialMT-73" x="431.736328"/>
      <use xlink:href="#ArialMT-75" x="481.736328"/>
      <use xlink:href="#ArialMT-70" x="537.351562"/>
      <use xlink:href="#ArialMT-65" x="592.966797"/>
      <use xlink:href="#ArialMT-72" x="648.582031"/>
      <use xlink:href="#ArialMT-63" x="681.882812"/>
      <use xlink:href="#ArialMT-6c" x="731.882812"/>
      <use xlink:href="#ArialMT-61" x="754.099609"/>
      <use xlink:href="#ArialMT-73" x="809.714844"/>
      <use xlink:href="#ArialMT-73" x="859.714844"/>
     </g>
    </g>
   </g>
   <g id="patch_3">
    <path d="M 57.6 43.24608 
L 317.297664 43.24608 
L 317.297664 57.43872 
L 57.6 57.43872 
z
" clip-path="url(#p07497254f9)" style="fill: #ea96a3; opacity: 0.8; stroke: #ffffff; stroke-linejoin: miter"/>
   </g>
   <g id="patch_4">
    <path d="M 57.6 60.98688 
L 203.30496 60.98688 
L 203.30496 75.17952 
L 57.6 75.17952 
z
" clip-path="url(#p07497254f9)" style="fill: #e59471; opacity: 0.8; stroke: #ffffff; stroke-linejoin: miter"/>
   </g>
   <g id="patch_5">
    <path d="M 57.6 78.72768 
L 112.59648 78.72768 
L 112.59648 92.92032 
L 57.6 92.92032 
z
" clip-path="url(#p07497254f9)" style="fill: #c6994b; opacity: 0.8; stroke: #ffffff; stroke-linejoin: miter"/>
   </g>
   <g id="patch_6">
    <path d="M 57.6 96.46848 
L 104.454144 96.46848 
L 104.454144 110.66112 
L 57.6 110.66112 
z
" clip-path="url(#p07497254f9)" style="fill: #ab9e47; opacity: 0.8; stroke: #ffffff; stroke-linejoin: miter"/>
   </g>
   <g id="patch_7">
    <path d="M 57.6 114.20928 
L 101.454336 114.20928 
L 101.454336 128.40192 
L 57.6 128.40192 
z
" clip-path="url(#p07497254f9)" style="fill: #91a446; opacity: 0.8; stroke: #ffffff; stroke-linejoin: miter"/>
   </g>
   <g id="patch_8">
    <path d="M 57.6 131.95008 
L 101.311488 131.95008 
L 101.311488 146.14272 
L 57.6 146.14272 
z
" clip-path="url(#p07497254f9)" style="fill: #60ae47; opacity: 0.8; stroke: #ffffff; stroke-linejoin: miter"/>
   </g>
   <g id="patch_9">
    <path d="M 57.6 149.69088 
L 88.598016 149.69088 
L 88.598016 163.88352 
L 57.6 163.88352 
z
" clip-path="url(#p07497254f9)" style="fill: #49ae83; opacity: 0.8; stroke: #ffffff; stroke-linejoin: miter"/>
   </g>
   <g id="patch_10">
    <path d="M 57.6 167.43168 
L 87.312384 167.43168 
L 87.312384 181.62432 
L 57.6 181.62432 
z
" clip-path="url(#p07497254f9)" style="fill: #4aac9b; opacity: 0.8; stroke: #ffffff; stroke-linejoin: miter"/>
   </g>
   <g id="patch_11">
    <path d="M 57.6 185.17248 
L 86.455296 185.17248 
L 86.455296 199.36512 
L 57.6 199.36512 
z
" clip-path="url(#p07497254f9)" style="fill: #4cabad; opacity: 0.8; stroke: #ffffff; stroke-linejoin: miter"/>
   </g>
   <g id="patch_12">
    <path d="M 57.6 202.91328 
L 80.884224 202.91328 
L 80.884224 217.10592 
L 57.6 217.10592 
z
" clip-path="url(#p07497254f9)" style="fill: #50acc3; opacity: 0.8; stroke: #ffffff; stroke-linejoin: miter"/>
   </g>
   <g id="patch_13">
    <path d="M 57.6 220.65408 
L 75.456 220.65408 
L 75.456 234.84672 
L 57.6 234.84672 
z
" clip-path="url(#p07497254f9)" style="fill: #6daee2; opacity: 0.8; stroke: #ffffff; stroke-linejoin: miter"/>
   </g>
   <g id="patch_14">
    <path d="M 57.6 238.39488 
L 74.74176 238.39488 
L 74.74176 252.58752 
L 57.6 252.58752 
z
" clip-path="url(#p07497254f9)" style="fill: #adabeb; opacity: 0.8; stroke: #ffffff; stroke-linejoin: miter"/>
   </g>
   <g id="patch_15">
    <path d="M 57.6 256.13568 
L 73.741824 256.13568 
L 73.741824 270.32832 
L 57.6 270.32832 
z
" clip-path="url(#p07497254f9)" style="fill: #ce9be9; opacity: 0.8; stroke: #ffffff; stroke-linejoin: miter"/>
   </g>
   <g id="patch_16">
    <path d="M 57.6 273.87648 
L 73.456128 273.87648 
L 73.456128 288.06912 
L 57.6 288.06912 
z
" clip-path="url(#p07497254f9)" style="fill: #e78bdb; opacity: 0.8; stroke: #ffffff; stroke-linejoin: miter"/>
   </g>
   <g id="patch_17">
    <path d="M 57.6 291.61728 
L 73.027584 291.61728 
L 73.027584 305.80992 
L 57.6 305.80992 
z
" clip-path="url(#p07497254f9)" style="fill: #e891bf; opacity: 0.8; stroke: #ffffff; stroke-linejoin: miter"/>
   </g>
   <g id="line2d_22">
    <path clip-path="url(#p07497254f9)" style="fill: none; stroke: #424242; stroke-width: 2.7; stroke-linecap: round"/>
   </g>
   <g id="line2d_23">
    <path clip-path="url(#p07497254f9)" style="fill: none; stroke: #424242; stroke-width: 2.7; stroke-linecap: round"/>
   </g>
   <g id="line2d_24">
    <path clip-path="url(#p07497254f9)" style="fill: none; stroke: #424242; stroke-width: 2.7; stroke-linecap: round"/>
   </g>
   <g id="line2d_25">
    <path clip-path="url(#p07497254f9)" style="fill: none; stroke: #424242; stroke-width: 2.7; stroke-linecap: round"/>
   </g>
   <g id="line2d_26">
    <path clip-path="url(#p07497254f9)" style="fill: none; stroke: #424242; stroke-width: 2.7; stroke-linecap: round"/>
   </g>
   <g id="line2d_27">
    <path clip-path="url(#p07497254f9)" style="fill: none; stroke: #424242; stroke-width: 2.7; stroke-linecap: round"/>
   </g>
   <g id="line2d_28">
    <path clip-path="url(#p07497254f9)" style="fill: none; stroke: #424242; stroke-width: 2.7; stroke-linecap: round"/>
   </g>
   <g id="line2d_29">
    <path clip-path="url(#p07497254f9)" style="fill: none; stroke: #424242; stroke-width: 2.7; stroke-linecap: round"/>
   </g>
   <g id="line2d_30">
    <path clip-path="url(#p07497254f9)" style="fill: none; stroke: #424242; stroke-width: 2.7; stroke-linecap: round"/>
   </g>
   <g id="line2d_31">
    <path clip-path="url(#p07497254f9)" style="fill: none; stroke: #424242; stroke-width: 2.7; stroke-linecap: round"/>
   </g>
   <g id="line2d_32">
    <path clip-path="url(#p07497254f9)" style="fill: none; stroke: #424242; stroke-width: 2.7; stroke-linecap: round"/>
   </g>
   <g id="line2d_33">
    <path clip-path="url(#p07497254f9)" style="fill: none; stroke: #424242; stroke-width: 2.7; stroke-linecap: round"/>
   </g>
   <g id="line2d_34">
    <path clip-path="url(#p07497254f9)" style="fill: none; stroke: #424242; stroke-width: 2.7; stroke-linecap: round"/>
   </g>
   <g id="line2d_35">
    <path clip-path="url(#p07497254f9)" style="fill: none; stroke: #424242; stroke-width: 2.7; stroke-linecap: round"/>
   </g>
   <g id="line2d_36">
    <path clip-path="url(#p07497254f9)" style="fill: none; stroke: #424242; stroke-width: 2.7; stroke-linecap: round"/>
   </g>
   <g id="patch_18">
    <path d="M 57.6 307.584 
L 57.6 41.472 
" style="fill: none; stroke: #262626; stroke-width: 1.25; stroke-linejoin: miter; stroke-linecap: square"/>
   </g>
   <g id="patch_19">
    <path d="M 414.72 307.584 
L 414.72 41.472 
" style="fill: none; stroke: #262626; stroke-width: 1.25; stroke-linejoin: miter; stroke-linecap: square"/>
   </g>
   <g id="patch_20">
    <path d="M 57.6 307.584 
L 414.72 307.584 
" style="fill: none; stroke: #262626; stroke-width: 1.25; stroke-linejoin: miter; stroke-linecap: square"/>
   </g>
   <g id="patch_21">
    <path d="M 57.6 41.472 
L 414.72 41.472 
" style="fill: none; stroke: #262626; stroke-width: 1.25; stroke-linejoin: miter; stroke-linecap: square"/>
   </g>
   <g id="text_24">
    <!-- 18.18 -->
    <g style="fill: #262626" transform="translate(317.297664 54.065025) scale(0.144 -0.144)">
     <defs>
      <path id="ArialMT-38" d="M 1131 2484 
Q 781 2613 612 2850 
Q 444 3088 444 3419 
Q 444 3919 803 4259 
Q 1163 4600 1759 4600 
Q 2359 4600 2725 4251 
Q 3091 3903 3091 3403 
Q 3091 3084 2923 2848 
Q 2756 2613 2416 2484 
Q 2838 2347 3058 2040 
Q 3278 1734 3278 1309 
Q 3278 722 2862 322 
Q 2447 -78 1769 -78 
Q 1091 -78 675 323 
Q 259 725 259 1325 
Q 259 1772 486 2073 
Q 713 2375 1131 2484 
z
M 1019 3438 
Q 1019 3113 1228 2906 
Q 1438 2700 1772 2700 
Q 2097 2700 2305 2904 
Q 2513 3109 2513 3406 
Q 2513 3716 2298 3927 
Q 2084 4138 1766 4138 
Q 1444 4138 1231 3931 
Q 1019 3725 1019 3438 
z
M 838 1322 
Q 838 1081 952 856 
Q 1066 631 1291 507 
Q 1516 384 1775 384 
Q 2178 384 2440 643 
Q 2703 903 2703 1303 
Q 2703 1709 2433 1975 
Q 2163 2241 1756 2241 
Q 1359 2241 1098 1978 
Q 838 1716 838 1322 
z
" transform="scale(0.015625)"/>
      <path id="ArialMT-2e" d="M 581 0 
L 581 641 
L 1222 641 
L 1222 0 
L 581 0 
z
" transform="scale(0.015625)"/>
     </defs>
     <use xlink:href="#ArialMT-31"/>
     <use xlink:href="#ArialMT-38" x="55.615234"/>
     <use xlink:href="#ArialMT-2e" x="111.230469"/>
     <use xlink:href="#ArialMT-31" x="139.013672"/>
     <use xlink:href="#ArialMT-38" x="194.628906"/>
    </g>
   </g>
   <g id="text_25">
    <!-- 10.2 -->
    <g style="fill: #262626" transform="translate(203.30496 71.805825) scale(0.144 -0.144)">
     <use xlink:href="#ArialMT-31"/>
     <use xlink:href="#ArialMT-30" x="55.615234"/>
     <use xlink:href="#ArialMT-2e" x="111.230469"/>
     <use xlink:href="#ArialMT-32" x="139.013672"/>
    </g>
   </g>
   <g id="text_26">
    <!-- 3.85 -->
    <g style="fill: #262626" transform="translate(112.59648 89.546625) scale(0.144 -0.144)">
     <defs>
      <path id="ArialMT-33" d="M 269 1209 
L 831 1284 
Q 928 806 1161 595 
Q 1394 384 1728 384 
Q 2125 384 2398 659 
Q 2672 934 2672 1341 
Q 2672 1728 2419 1979 
Q 2166 2231 1775 2231 
Q 1616 2231 1378 2169 
L 1441 2663 
Q 1497 2656 1531 2656 
Q 1891 2656 2178 2843 
Q 2466 3031 2466 3422 
Q 2466 3731 2256 3934 
Q 2047 4138 1716 4138 
Q 1388 4138 1169 3931 
Q 950 3725 888 3313 
L 325 3413 
Q 428 3978 793 4289 
Q 1159 4600 1703 4600 
Q 2078 4600 2393 4439 
Q 2709 4278 2876 4000 
Q 3044 3722 3044 3409 
Q 3044 3113 2884 2869 
Q 2725 2625 2413 2481 
Q 2819 2388 3044 2092 
Q 3269 1797 3269 1353 
Q 3269 753 2831 336 
Q 2394 -81 1725 -81 
Q 1122 -81 723 278 
Q 325 638 269 1209 
z
" transform="scale(0.015625)"/>
     </defs>
     <use xlink:href="#ArialMT-33"/>
     <use xlink:href="#ArialMT-2e" x="55.615234"/>
     <use xlink:href="#ArialMT-38" x="83.398438"/>
     <use xlink:href="#ArialMT-35" x="139.013672"/>
    </g>
   </g>
   <g id="text_27">
    <!-- 3.28 -->
    <g style="fill: #262626" transform="translate(104.454144 107.287425) scale(0.144 -0.144)">
     <use xlink:href="#ArialMT-33"/>
     <use xlink:href="#ArialMT-2e" x="55.615234"/>
     <use xlink:href="#ArialMT-32" x="83.398438"/>
     <use xlink:href="#ArialMT-38" x="139.013672"/>
    </g>
   </g>
   <g id="text_28">
    <!-- 3.07 -->
    <g style="fill: #262626" transform="translate(101.454336 125.028225) scale(0.144 -0.144)">
     <defs>
      <path id="ArialMT-37" d="M 303 3981 
L 303 4522 
L 3269 4522 
L 3269 4084 
Q 2831 3619 2401 2847 
Q 1972 2075 1738 1259 
Q 1569 684 1522 0 
L 944 0 
Q 953 541 1156 1306 
Q 1359 2072 1739 2783 
Q 2119 3494 2547 3981 
L 303 3981 
z
" transform="scale(0.015625)"/>
     </defs>
     <use xlink:href="#ArialMT-33"/>
     <use xlink:href="#ArialMT-2e" x="55.615234"/>
     <use xlink:href="#ArialMT-30" x="83.398438"/>
     <use xlink:href="#ArialMT-37" x="139.013672"/>
    </g>
   </g>
   <g id="text_29">
    <!-- 3.06 -->
    <g style="fill: #262626" transform="translate(101.311488 142.769025) scale(0.144 -0.144)">
     <defs>
      <path id="ArialMT-36" d="M 3184 3459 
L 2625 3416 
Q 2550 3747 2413 3897 
Q 2184 4138 1850 4138 
Q 1581 4138 1378 3988 
Q 1113 3794 959 3422 
Q 806 3050 800 2363 
Q 1003 2672 1297 2822 
Q 1591 2972 1913 2972 
Q 2475 2972 2870 2558 
Q 3266 2144 3266 1488 
Q 3266 1056 3080 686 
Q 2894 316 2569 119 
Q 2244 -78 1831 -78 
Q 1128 -78 684 439 
Q 241 956 241 2144 
Q 241 3472 731 4075 
Q 1159 4600 1884 4600 
Q 2425 4600 2770 4297 
Q 3116 3994 3184 3459 
z
M 888 1484 
Q 888 1194 1011 928 
Q 1134 663 1356 523 
Q 1578 384 1822 384 
Q 2178 384 2434 671 
Q 2691 959 2691 1453 
Q 2691 1928 2437 2201 
Q 2184 2475 1800 2475 
Q 1419 2475 1153 2201 
Q 888 1928 888 1484 
z
" transform="scale(0.015625)"/>
     </defs>
     <use xlink:href="#ArialMT-33"/>
     <use xlink:href="#ArialMT-2e" x="55.615234"/>
     <use xlink:href="#ArialMT-30" x="83.398438"/>
     <use xlink:href="#ArialMT-36" x="139.013672"/>
    </g>
   </g>
   <g id="text_30">
    <!-- 2.17 -->
    <g style="fill: #262626" transform="translate(88.598016 160.509825) scale(0.144 -0.144)">
     <use xlink:href="#ArialMT-32"/>
     <use xlink:href="#ArialMT-2e" x="55.615234"/>
     <use xlink:href="#ArialMT-31" x="83.398438"/>
     <use xlink:href="#ArialMT-37" x="139.013672"/>
    </g>
   </g>
   <g id="text_31">
    <!-- 2.08 -->
    <g style="fill: #262626" transform="translate(87.312384 178.250625) scale(0.144 -0.144)">
     <use xlink:href="#ArialMT-32"/>
     <use xlink:href="#ArialMT-2e" x="55.615234"/>
     <use xlink:href="#ArialMT-30" x="83.398438"/>
     <use xlink:href="#ArialMT-38" x="139.013672"/>
    </g>
   </g>
   <g id="text_32">
    <!-- 2.02 -->
    <g style="fill: #262626" transform="translate(86.455296 195.991425) scale(0.144 -0.144)">
     <use xlink:href="#ArialMT-32"/>
     <use xlink:href="#ArialMT-2e" x="55.615234"/>
     <use xlink:href="#ArialMT-30" x="83.398438"/>
     <use xlink:href="#ArialMT-32" x="139.013672"/>
    </g>
   </g>
   <g id="text_33">
    <!-- 1.63 -->
    <g style="fill: #262626" transform="translate(80.884224 213.732225) scale(0.144 -0.144)">
     <use xlink:href="#ArialMT-31"/>
     <use xlink:href="#ArialMT-2e" x="55.615234"/>
     <use xlink:href="#ArialMT-36" x="83.398438"/>
     <use xlink:href="#ArialMT-33" x="139.013672"/>
    </g>
   </g>
   <g id="text_34">
    <!-- 1.25 -->
    <g style="fill: #262626" transform="translate(75.456 231.473025) scale(0.144 -0.144)">
     <use xlink:href="#ArialMT-31"/>
     <use xlink:href="#ArialMT-2e" x="55.615234"/>
     <use xlink:href="#ArialMT-32" x="83.398438"/>
     <use xlink:href="#ArialMT-35" x="139.013672"/>
    </g>
   </g>
   <g id="text_35">
    <!-- 1.2 -->
    <g style="fill: #262626" transform="translate(74.74176 249.213825) scale(0.144 -0.144)">
     <use xlink:href="#ArialMT-31"/>
     <use xlink:href="#ArialMT-2e" x="55.615234"/>
     <use xlink:href="#ArialMT-32" x="83.398438"/>
    </g>
   </g>
   <g id="text_36">
    <!-- 1.13 -->
    <g style="fill: #262626" transform="translate(73.741824 266.954625) scale(0.144 -0.144)">
     <use xlink:href="#ArialMT-31"/>
     <use xlink:href="#ArialMT-2e" x="55.615234"/>
     <use xlink:href="#ArialMT-31" x="83.398438"/>
     <use xlink:href="#ArialMT-33" x="139.013672"/>
    </g>
   </g>
   <g id="text_37">
    <!-- 1.11 -->
    <g style="fill: #262626" transform="translate(73.456128 284.695425) scale(0.144 -0.144)">
     <use xlink:href="#ArialMT-31"/>
     <use xlink:href="#ArialMT-2e" x="55.615234"/>
     <use xlink:href="#ArialMT-31" x="83.398438"/>
     <use xlink:href="#ArialMT-31" x="131.638672"/>
    </g>
   </g>
   <g id="text_38">
    <!-- 1.08 -->
    <g style="fill: #262626" transform="translate(73.027584 302.436225) scale(0.144 -0.144)">
     <use xlink:href="#ArialMT-31"/>
     <use xlink:href="#ArialMT-2e" x="55.615234"/>
     <use xlink:href="#ArialMT-30" x="83.398438"/>
     <use xlink:href="#ArialMT-38" x="139.013672"/>
    </g>
   </g>
  </g>
 </g>
 <defs>
  <clipPath id="p07497254f9">
   <rect x="57.6" y="41.472" width="357.12" height="266.112"/>
  </clipPath>
 </defs>
</svg>
